<svg width="24" height="24" viewBox="0 0 24 24" fill="none" xmlns="http://www.w3.org/2000/svg">
<path fill-rule="evenodd" clip-rule="evenodd" d="M3 4H3.68665V19.2195H21V20H3V4Z" fill="#1F2937"/>
<path fill-rule="evenodd" clip-rule="evenodd" d="M14.5455 16.25L9.77273 15L5 17.25V18H20V14L14.5455 16.25ZM19.3438 15.0212L14.5895 16.9823L9.83345 15.7367L6.51734 17.3H19.3438V15.0212Z" fill="#1F2937"/>
<path fill-rule="evenodd" clip-rule="evenodd" d="M9.77273 13.8966L14.5455 15.6207L20 12.5172V7L14.5455 12.1724L9.77273 10.7931L5 15.6207V17L9.77273 13.8966ZM6.12164 15.4508L9.69289 13.1287L14.4871 14.8605L19.3438 12.0973V8.55893L14.7163 12.947L9.95685 11.5716L6.12164 15.4508Z" fill="#1F2937"/>
</svg>
