<svg width="24" height="24" viewBox="0 0 24 24" fill="none" xmlns="http://www.w3.org/2000/svg">
<path d="M12.1392 13.7993C11.5073 13.2041 10.667 12.876 9.77344 12.875H6.22656C5.33301 12.876 4.49267 13.2041 3.86084 13.7993C3.22607 14.3965 2.87598 15.1909 2.875 16.0366V19.125H3.94971V16.0366C3.95069 15.4678 4.18653 14.9326 4.61426 14.5298C5.04492 14.125 5.61768 13.9018 6.22656 13.9014H9.77344C10.3823 13.9018 10.9551 14.125 11.3853 14.5298C11.813 14.9326 12.0493 15.4678 12.0503 16.0366V19.125H13.125V16.0366C13.124 15.1909 12.7739 14.3965 12.1392 13.7993Z" fill="#1F2937"/>
<path d="M21.4458 4.82031L15.9844 10.6416L13.5532 8.04932L12.8281 8.82178L15.9844 12.1856L22.1709 5.59277L21.4458 4.82031Z" fill="#1F2937"/>
<path d="M7.85938 11.8828C5.79151 11.8828 4.10938 10.2007 4.10938 8.13281C4.10938 6.06494 5.79151 4.38281 7.85938 4.38281C9.92725 4.38281 11.6094 6.06494 11.6094 8.13281C11.6094 10.2007 9.92725 11.8828 7.85938 11.8828ZM7.85938 5.38281C6.34277 5.38281 5.10938 6.61621 5.10938 8.13281C5.10938 9.64941 6.34277 10.8828 7.85938 10.8828C9.37598 10.8828 10.6094 9.64941 10.6094 8.13281C10.6094 6.61621 9.37598 5.38281 7.85938 5.38281Z" fill="#1F2937"/>
</svg>
