<svg width="24" height="24" viewBox="0 0 24 24" fill="none" xmlns="http://www.w3.org/2000/svg">
<path d="M11.5266 13.8181C11.0733 13.8182 10.6302 13.6838 10.2532 13.4321C9.87629 13.1803 9.58248 12.8224 9.40895 12.4036C9.23543 11.9848 9.18998 11.524 9.27836 11.0794C9.36674 10.6348 9.58498 10.2264 9.90547 9.90583C10.226 9.58526 10.6343 9.36693 11.0789 9.27846C11.5235 9.18998 11.9843 9.23533 12.4031 9.40876C12.8219 9.5822 13.1799 9.87593 13.4318 10.2528C13.6836 10.6297 13.8181 11.0728 13.8181 11.5261C13.8174 12.1337 13.5758 12.7162 13.1462 13.1459C12.7166 13.5755 12.1342 13.8173 11.5266 13.8181ZM11.5266 9.98438C11.2216 9.9843 10.9235 10.0747 10.6699 10.2441C10.4163 10.4134 10.2186 10.6542 10.1018 10.936C9.98509 11.2177 9.9545 11.5277 10.014 11.8269C10.0734 12.126 10.2203 12.4008 10.4359 12.6164C10.6515 12.8321 10.9263 12.979 11.2254 13.0385C11.5245 13.098 11.8345 13.0675 12.1163 12.9507C12.3981 12.834 12.6389 12.6364 12.8083 12.3828C12.9777 12.1292 13.0681 11.8311 13.0681 11.5261C13.0676 11.1174 12.905 10.7256 12.6161 10.4366C12.3271 10.1476 11.9353 9.98497 11.5266 9.98438Z" fill="#1F2937"/>
<path d="M6.2915 8.5835C5.83825 8.58345 5.39518 8.449 5.01834 8.19715C4.6415 7.9453 4.3478 7.58736 4.17438 7.16859C4.00096 6.74983 3.95561 6.28904 4.04407 5.8445C4.13252 5.39996 4.35081 4.99163 4.67133 4.67115C4.99184 4.35067 5.4002 4.13243 5.84474 4.04402C6.28929 3.95561 6.75008 4.00101 7.16882 4.17447C7.58757 4.34794 7.94548 4.64168 8.19729 5.01855C8.4491 5.39542 8.5835 5.8385 8.5835 6.29175C8.58287 6.89941 8.34118 7.482 7.91148 7.91165C7.48177 8.34131 6.89916 8.58293 6.2915 8.5835ZM6.2915 4.75C5.98658 4.75005 5.68853 4.84051 5.43502 5.00995C5.18151 5.17939 4.98394 5.4202 4.86729 5.70192C4.75063 5.98364 4.72014 6.29363 4.77966 6.59268C4.83917 6.89174 4.98603 7.16643 5.20166 7.38202C5.41729 7.59761 5.692 7.74443 5.99106 7.80389C6.29013 7.86336 6.60011 7.83282 6.88181 7.71612C7.16351 7.59942 7.40429 7.40181 7.57369 7.14828C7.74309 6.89474 7.8335 6.59667 7.8335 6.29175C7.83308 5.88294 7.67047 5.491 7.38137 5.20196C7.09228 4.91291 6.70031 4.75038 6.2915 4.75003V4.75Z" fill="#1F2937"/>
<path d="M11.5259 8.5835C11.0726 8.58345 10.6296 8.449 10.2527 8.19715C9.87587 7.9453 9.58217 7.58736 9.40875 7.16859C9.23533 6.74983 9.18999 6.28904 9.27844 5.8445C9.3669 5.39996 9.58519 4.99163 9.9057 4.67115C10.2262 4.35067 10.6346 4.13243 11.0791 4.04402C11.5237 3.95561 11.9845 4.00101 12.4032 4.17447C12.8219 4.34794 13.1799 4.64168 13.4317 5.01855C13.6835 5.39542 13.8179 5.8385 13.8179 6.29175C13.8171 6.89938 13.5754 7.4819 13.1457 7.91153C12.716 8.34116 12.1335 8.58282 11.5259 8.5835ZM11.5259 4.75C11.221 4.75005 10.9229 4.84051 10.6694 5.00995C10.4159 5.17939 10.2183 5.4202 10.1017 5.70192C9.98501 5.98364 9.95451 6.29363 10.014 6.59268C10.0735 6.89174 10.2204 7.16643 10.436 7.38202C10.6517 7.59761 10.9264 7.74443 11.2254 7.80389C11.5245 7.86336 11.8345 7.83282 12.1162 7.71612C12.3979 7.59942 12.6387 7.40181 12.8081 7.14828C12.9775 6.89474 13.0679 6.59667 13.0679 6.29175C13.0673 5.88298 12.9047 5.4911 12.6156 5.20208C12.3266 4.91306 11.9347 4.75049 11.5259 4.75003V4.75Z" fill="#1F2937"/>
<path d="M16.7608 8.5835C16.3075 8.58355 15.8644 8.44918 15.4875 8.19739C15.1105 7.9456 14.8168 7.5877 14.6433 7.16894C14.4698 6.75018 14.4244 6.28938 14.5128 5.84481C14.6012 5.40023 14.8194 4.99186 15.1399 4.67133C15.4604 4.3508 15.8687 4.1325 16.3133 4.04405C16.7579 3.95561 17.2187 4.00098 17.6375 4.17443C18.0562 4.34788 18.4142 4.64161 18.666 5.0185C18.9178 5.39538 19.0523 5.83848 19.0523 6.29175C19.0515 6.89929 18.8099 7.48174 18.3803 7.91135C17.9507 8.34097 17.3683 8.58269 16.7608 8.5835ZM16.7608 4.75C16.4558 4.74995 16.1577 4.84033 15.9041 5.00971C15.6506 5.17909 15.4529 5.41986 15.3362 5.70158C15.2195 5.98329 15.1889 6.29329 15.2483 6.59238C15.3078 6.89147 15.4546 7.1662 15.6702 7.38184C15.8858 7.59749 16.1606 7.74435 16.4596 7.80386C16.7587 7.86337 17.0687 7.83285 17.3504 7.71617C17.6322 7.59948 17.873 7.40187 18.0424 7.14833C18.2118 6.89478 18.3023 6.59669 18.3023 6.29175C18.3017 5.88306 18.1391 5.49126 17.8502 5.20226C17.5612 4.91325 17.1694 4.75062 16.7608 4.75003V4.75Z" fill="#1F2937"/>
<path d="M6.29174 13.8181C5.83846 13.8181 5.39537 13.6837 5.0185 13.4318C4.64162 13.18 4.34788 12.822 4.17443 12.4032C4.00098 11.9845 3.95561 11.5237 4.04405 11.0791C4.13248 10.6345 4.35076 10.2262 4.67127 9.90565C4.99179 9.58513 5.40015 9.36686 5.84472 9.27842C6.28928 9.18998 6.75009 9.23536 7.16887 9.40881C7.58765 9.58226 7.94559 9.87599 8.19744 10.2529C8.44928 10.6297 8.58372 11.0728 8.58374 11.5261C8.58316 12.1338 8.3415 12.7165 7.91179 13.1462C7.48208 13.5759 6.89944 13.8175 6.29174 13.8181ZM6.29174 9.98438C5.98679 9.9844 5.68869 10.0749 5.43515 10.2443C5.1816 10.4137 4.984 10.6546 4.86732 10.9363C4.75064 11.2181 4.72013 11.5281 4.77965 11.8272C4.83917 12.1263 4.98604 12.401 5.20169 12.6166C5.41734 12.8322 5.69209 12.979 5.99119 13.0385C6.29029 13.098 6.6003 13.0674 6.88203 12.9507C7.16376 12.834 7.40455 12.6363 7.57396 12.3828C7.74336 12.1292 7.83377 11.8311 7.83374 11.5261C7.83333 11.1173 7.67072 10.7254 7.38163 10.4363C7.09253 10.1473 6.70055 9.98472 6.29174 9.98438Z" fill="#1F2937"/>
<path d="M16.761 13.8181C16.3077 13.8182 15.8646 13.6838 15.4876 13.4321C15.1107 13.1803 14.8169 12.8224 14.6433 12.4036C14.4698 11.9848 14.4244 11.524 14.5127 11.0794C14.6011 10.6348 14.8194 10.2264 15.1398 9.90583C15.4603 9.58526 15.8687 9.36693 16.3133 9.27846C16.7579 9.18998 17.2187 9.23533 17.6375 9.40876C18.0563 9.5822 18.4143 9.87593 18.6662 10.2528C18.918 10.6297 19.0525 11.0728 19.0525 11.5261C19.0518 12.1337 18.8102 12.7162 18.3806 13.1459C17.951 13.5755 17.3686 13.8173 16.761 13.8181ZM16.761 9.98438C16.456 9.9843 16.1579 10.0747 15.9043 10.2441C15.6506 10.4134 15.453 10.6542 15.3362 10.936C15.2195 11.2177 15.1889 11.5277 15.2483 11.8269C15.3078 12.126 15.4546 12.4008 15.6703 12.6164C15.8859 12.8321 16.1606 12.979 16.4598 13.0385C16.7589 13.098 17.0689 13.0675 17.3507 12.9507C17.6324 12.834 17.8732 12.6364 18.0427 12.3828C18.2121 12.1292 18.3025 11.8311 18.3025 11.5261C18.302 11.1174 18.1394 10.7256 17.8504 10.4366C17.5615 10.1476 17.1697 9.98497 16.761 9.98438Z" fill="#1F2937"/>
<path d="M6.29176 19.0525C5.83847 19.0525 5.39536 18.918 5.01848 18.6662C4.64159 18.4143 4.34786 18.0564 4.17441 17.6376C4.00097 17.2188 3.95561 16.758 4.04406 16.3134C4.13252 15.8688 4.35082 15.4604 4.67137 15.1399C4.99191 14.8194 5.40029 14.6012 5.84488 14.5128C6.28947 14.4244 6.75029 14.4698 7.16906 14.6433C7.58784 14.8167 7.94577 15.1105 8.19758 15.4874C8.4494 15.8644 8.58379 16.3075 8.58376 16.7608C8.58313 17.3684 8.34144 17.951 7.91174 18.3807C7.48203 18.8103 6.89942 19.0519 6.29176 19.0525ZM6.29176 15.2188C5.98682 15.2188 5.68873 15.3092 5.43518 15.4787C5.18164 15.6481 4.98403 15.8889 4.86735 16.1706C4.75066 16.4524 4.72014 16.7624 4.77963 17.0615C4.83913 17.3606 4.98598 17.6353 5.20161 17.8509C5.41724 18.0665 5.69196 18.2134 5.99105 18.2729C6.29013 18.3324 6.60014 18.3019 6.88188 18.1852C7.16361 18.0685 7.40442 17.8709 7.57386 17.6173C7.74329 17.3638 7.83374 17.0657 7.83376 16.7608C7.8334 16.3519 7.67082 15.9599 7.38172 15.6708C7.09261 15.3817 6.70061 15.2191 6.29176 15.2188Z" fill="#1F2937"/>
<path d="M11.5261 19.0525C11.0728 19.0525 10.6297 18.918 10.2529 18.6662C9.87597 18.4143 9.58223 18.0564 9.40879 17.6376C9.23534 17.2188 9.18998 16.758 9.27844 16.3134C9.36689 15.8688 9.5852 15.4604 9.90574 15.1399C10.2263 14.8194 10.6347 14.6012 11.0793 14.5128C11.5238 14.4244 11.9847 14.4698 12.4034 14.6433C12.8222 14.8167 13.1801 15.1105 13.432 15.4874C13.6838 15.8644 13.8182 16.3075 13.8181 16.7608C13.8174 17.3684 13.5757 17.9509 13.146 18.3805C12.7163 18.8102 12.1338 19.0518 11.5261 19.0525ZM11.5261 15.2188C11.2212 15.2188 10.9231 15.3092 10.6696 15.4787C10.416 15.6481 10.2184 15.8889 10.1017 16.1706C9.98503 16.4524 9.95451 16.7624 10.014 17.0615C10.0735 17.3606 10.2204 17.6353 10.436 17.8509C10.6516 18.0665 10.9263 18.2134 11.2254 18.2729C11.5245 18.3324 11.8345 18.3019 12.1163 18.1852C12.398 18.0685 12.6388 17.8709 12.8082 17.6173C12.9777 17.3638 13.0681 17.0657 13.0681 16.7608C13.0677 16.3519 12.905 15.96 12.616 15.6709C12.3269 15.3818 11.935 15.2192 11.5261 15.2188Z" fill="#1F2937"/>
<path d="M16.761 19.0525C16.3077 19.0526 15.8645 18.9182 15.4876 18.6664C15.1106 18.4146 14.8168 18.0567 14.6433 17.6379C14.4698 17.2191 14.4244 16.7583 14.5128 16.3137C14.6012 15.8691 14.8194 15.4607 15.1399 15.1401C15.4605 14.8196 15.8688 14.6012 16.3134 14.5128C16.758 14.4244 17.2189 14.4697 17.6377 14.6432C18.0565 14.8167 18.4145 15.1105 18.6663 15.4874C18.9181 15.8643 19.0525 16.3074 19.0525 16.7608C19.0518 17.3683 18.8101 17.9507 18.3805 18.3804C17.951 18.81 17.3685 19.0517 16.761 19.0525ZM16.761 15.2188C16.456 15.2187 16.1579 15.309 15.9043 15.4784C15.6507 15.6478 15.453 15.8886 15.3362 16.1703C15.2195 16.452 15.1889 16.7621 15.2483 17.0612C15.3078 17.3603 15.4546 17.6351 15.6702 17.8507C15.8858 18.0664 16.1605 18.2133 16.4596 18.2729C16.7587 18.3324 17.0687 18.3019 17.3505 18.1852C17.6323 18.0686 17.8731 17.8709 18.0426 17.6174C18.212 17.3638 18.3025 17.0657 18.3025 16.7608C18.302 16.352 18.1395 15.9602 17.8505 15.6711C17.5615 15.382 17.1697 15.2194 16.761 15.2188Z" fill="#1F2937"/>
</svg>
