<svg xmlns="http://www.w3.org/2000/svg" width="24" height="24" viewBox="0 0 24 24" fill="none">
  <path d="M12.7226 9.24902C13.1925 9.17057 13.6262 8.94734 13.963 8.61049C14.2999 8.27364 14.5232 7.84 14.6017 7.37011H17.0771L15.3388 12.25L15.3173 12.376C15.3164 12.6775 15.3751 12.9762 15.4898 13.255C15.6046 13.5338 15.7732 13.7872 15.9861 14.0007C16.199 14.2142 16.4519 14.3836 16.7303 14.4992C17.0088 14.6148 17.3073 14.6743 17.6088 14.6743C17.9103 14.6743 18.2089 14.6148 18.4873 14.4992C18.7658 14.3836 19.0187 14.2142 19.2316 14.0007C19.4444 13.7872 19.6131 13.5338 19.7278 13.255C19.8426 12.9762 19.9012 12.6775 19.9003 12.376L18.1396 7.37011H18.4072V6.62011H14.6017C14.5146 6.08504 14.2401 5.59838 13.8271 5.24718C13.4141 4.89597 12.8897 4.70312 12.3476 4.70312C11.8055 4.70312 11.2811 4.89597 10.8681 5.24718C10.4551 5.59838 10.1806 6.08504 10.0935 6.62011H6.34272V7.37011H6.6103L4.87101 12.25L4.84952 12.376C4.84952 12.9839 5.091 13.5669 5.52083 13.9967C5.95066 14.4265 6.53364 14.668 7.14152 14.668C7.74939 14.668 8.33237 14.4265 8.76221 13.9967C9.19204 13.5669 9.43352 12.9839 9.43352 12.376L7.6728 7.37011H10.0935C10.172 7.84 10.3953 8.27364 10.7322 8.61049C11.069 8.94734 11.5027 9.17057 11.9726 9.24902V19.1523H5.20795V19.9023H19.5087V19.1523H12.7226V9.24902ZM19.1494 12.4375C19.1335 12.8354 18.9643 13.2118 18.6771 13.4878C18.3899 13.7638 18.0071 13.9179 17.6088 13.9179C17.2105 13.9179 16.8277 13.7638 16.5405 13.4878C16.2534 13.2118 16.0841 12.8354 16.0683 12.4375L17.6083 8.11324L19.1494 12.4375ZM8.68256 12.4375C8.66653 12.8354 8.49716 13.2117 8.20992 13.4876C7.92268 13.7635 7.53984 13.9176 7.14156 13.9176C6.74328 13.9176 6.36044 13.7635 6.0732 13.4876C5.78596 13.2117 5.61659 12.8354 5.60056 12.4375L7.14156 8.11226L8.68256 12.4375ZM10.8056 6.99507C10.8056 6.69009 10.896 6.39196 11.0654 6.13838C11.2349 5.8848 11.4757 5.68716 11.7575 5.57045C12.0392 5.45374 12.3493 5.4232 12.6484 5.4827C12.9475 5.5422 13.2223 5.68906 13.4379 5.90471C13.6536 6.12036 13.8004 6.39512 13.8599 6.69424C13.9194 6.99336 13.8889 7.30341 13.7722 7.58517C13.6555 7.86693 13.4578 8.10776 13.2042 8.2772C12.9507 8.44663 12.6525 8.53707 12.3476 8.53707C11.9388 8.53654 11.5469 8.37392 11.2578 8.08486C10.9688 7.7958 10.8061 7.4039 10.8056 6.99511L10.8056 6.99507Z" fill="#1F2937"/>
</svg>