<svg width="24" height="24" viewBox="0 0 24 24" fill="none" xmlns="http://www.w3.org/2000/svg">
<path fill-rule="evenodd" clip-rule="evenodd" d="M13.9863 11.7526V5.97416L12.0021 3.98995L10.0178 5.97416V8.17368H4.64942V19.3H19.3547V11.7526H13.9863ZM20.0547 11.0526V20H3.94942V7.47368H9.31785V5.68421L12.0021 3L14.6863 5.68421V11.0526H20.0547Z" fill="#1F2937"/>
<rect x="11.1073" y="5.6875" width="1.78947" height="1.78947" fill="#1F2937"/>
<rect x="11.1073" y="9.26562" width="1.78947" height="1.78947" fill="#1F2937"/>
<rect x="11.1073" y="12.8438" width="1.78947" height="1.78947" fill="#1F2937"/>
<rect x="11.1073" y="16.4219" width="1.78947" height="1.78947" fill="#1F2937"/>
<rect x="16.4757" y="16.4219" width="1.78947" height="1.78947" fill="#1F2937"/>
<rect x="16.4757" y="12.8438" width="1.78947" height="1.78947" fill="#1F2937"/>
<rect x="5.7389" y="12.8438" width="1.78947" height="1.78947" fill="#1F2937"/>
<rect x="5.7389" y="16.4219" width="1.78947" height="1.78947" fill="#1F2937"/>
<rect x="5.7389" y="9.26562" width="1.78947" height="1.78947" fill="#1F2937"/>
</svg>
