<svg width="24" height="24" viewBox="0 0 24 24" fill="none" xmlns="http://www.w3.org/2000/svg">
<path d="M8 6H11.8687C14.2319 6 15.6149 7.33709 15.6149 9.23272C15.6149 10.519 14.8446 11.4669 13.7418 11.8392C15.1422 12.1777 16 13.3963 16 14.7504C16 16.646 14.4595 18 12.1838 18H8V6ZM9.47046 11.3315H11.8687C13.2341 11.3315 14.1444 10.4852 14.1444 9.30042C14.1444 8.04796 13.2341 7.25247 11.6761 7.25247H9.47046V11.3315ZM9.47046 16.7475H12.0088C13.5142 16.7475 14.5295 15.9351 14.5295 14.6657C14.5295 13.4133 13.6368 12.5501 12.1313 12.5501H9.47046V16.7475Z" fill="#1F2937"/>
</svg>
