<svg width="24" height="24" viewBox="0 0 24 24" fill="none" xmlns="http://www.w3.org/2000/svg"><g id="Icons/24dp/ic_color"><g id="pantone"><path id="Path" d="M20.5871 9.89844L18.6354 8.69531L16.6641 16.8188L20.8776 11.0989C21.1219 10.6859 20.9916 10.1487 20.5871 9.89844Z" fill="#454545"/><path id="Path_2" d="M16.9208 4.84587L15 4.35938V16.3994L17.5465 5.9055C17.6605 5.4365 17.3802 4.96225 16.9208 4.84587Z" fill="#454545"/><path id="Shape" fill-rule="evenodd" clip-rule="evenodd" d="M3 22.125V16H13.2853V22.125C13.2853 22.6089 12.9014 23 12.4282 23H3.85711C3.38399 23 3 22.6089 3 22.125ZM6.42969 19.5C6.42969 20.4651 7.19852 21.25 8.14391 21.25C9.08931 21.25 9.85814 20.4651 9.85814 19.5C9.85814 18.5349 9.08931 17.75 8.14391 17.75C7.19852 17.75 6.42969 18.5349 6.42969 19.5Z" fill="#454545"/><path id="Path_3" d="M13.2853 14.25V2.875C13.2853 2.39112 12.9014 2 12.4282 2H3.85711C3.38313 2 3 2.39112 3 2.875V14.25H13.2853Z" fill="#454545"/></g></g></svg>