<svg width="24" height="24" viewBox="0 0 24 24" fill="none" xmlns="http://www.w3.org/2000/svg">
<path fill-rule="evenodd" clip-rule="evenodd" d="M6.7934 16.4526C6.94532 16.3511 7.12393 16.2969 7.30665 16.2969C7.55158 16.2972 7.78641 16.3946 7.9596 16.5678C8.1328 16.741 8.23022 16.9758 8.23048 17.2207C8.23048 17.4035 8.1763 17.5821 8.07479 17.734C7.97328 17.8859 7.829 18.0043 7.66019 18.0743C7.49138 18.1442 7.30563 18.1625 7.12643 18.1268C6.94722 18.0912 6.78261 18.0032 6.65341 17.874C6.52421 17.7448 6.43622 17.5802 6.40057 17.401C6.36492 17.2218 6.38322 17.036 6.45314 16.8672C6.52306 16.6984 6.64147 16.5541 6.7934 16.4526ZM7.18206 17.0955C7.14945 17.1279 7.13096 17.1718 7.13061 17.2177C7.13061 17.4082 7.47876 17.4101 7.47876 17.2177C7.47841 17.1718 7.45992 17.1279 7.42731 17.0955C7.3947 17.0631 7.35062 17.045 7.30468 17.045C7.25874 17.045 7.21467 17.0631 7.18206 17.0955Z" fill="#1F2937"/>
<path fill-rule="evenodd" clip-rule="evenodd" d="M15.9575 16.4526C16.1094 16.3511 16.288 16.2969 16.4707 16.2969C16.7157 16.2972 16.9505 16.3946 17.1237 16.5678C17.2969 16.741 17.3943 16.9758 17.3946 17.2207C17.3946 17.4035 17.3404 17.5821 17.2389 17.734C17.1374 17.8859 16.9931 18.0043 16.8243 18.0743C16.6555 18.1442 16.4697 18.1625 16.2905 18.1268C16.1113 18.0912 15.9467 18.0032 15.8175 17.874C15.6883 17.7448 15.6003 17.5802 15.5647 17.401C15.529 17.2218 15.5473 17.036 15.6172 16.8672C15.6872 16.6984 15.8056 16.5541 15.9575 16.4526ZM16.3456 17.0953C16.313 17.1279 16.2946 17.1722 16.2946 17.2183C16.2946 17.4088 16.6428 17.4107 16.6428 17.2183C16.6428 17.1722 16.6244 17.1279 16.5919 17.0953C16.5591 17.0626 16.5149 17.0443 16.4688 17.0443C16.4226 17.0443 16.3783 17.0626 16.3456 17.0953Z" fill="#1F2937"/>
<path fill-rule="evenodd" clip-rule="evenodd" d="M16.6492 13.4633C16.5942 13.4931 16.5327 13.5088 16.4702 13.5088H7.7378V15.3311H18.3985V16.0811H7.3628C7.26335 16.081 7.16798 16.0415 7.09766 15.9712C7.02734 15.9009 6.98782 15.8055 6.9878 15.7061V5.75H4V5H7.3628C7.46225 5.00002 7.55761 5.03954 7.62794 5.10986C7.69826 5.18018 7.73777 5.27555 7.7378 5.375V7.57226H19.8316C19.899 7.57231 19.9652 7.59054 20.0232 7.62504C20.0812 7.65953 20.1288 7.70902 20.161 7.76828C20.1932 7.82754 20.2089 7.8944 20.2063 7.96181C20.2038 8.02922 20.1831 8.0947 20.1465 8.15136L16.7847 13.3379C16.7507 13.3903 16.7041 13.4335 16.6492 13.4633ZM16.2632 12.7568L19.1382 8.32031H7.73438V12.7568H16.2632Z" fill="#1F2937"/>
</svg>
