<?xml version="1.0" encoding="UTF-8"?>
<svg width="24px" height="24px" viewBox="0 0 24 24" version="1.1" xmlns="http://www.w3.org/2000/svg" xmlns:xlink="http://www.w3.org/1999/xlink">
    <title>Icons/24dp/ic_categories</title>
    <g id="Icons/24dp/ic_categories" stroke="none" stroke-width="1" fill="none" fill-rule="evenodd">
        <g id="label" transform="translate(4.000000, 4.000000)" fill="currentColor">
            <path d="M0,0 L8.37853279,0 L16.2362253,7.85765299 C16.7252574,8.34659982 17,9.00980443 17,9.70133929 C17,10.3237207 16.7774585,10.9231545 16.3764894,11.3932161 L16.2362851,11.5449657 L11.5450715,16.2361558 C11.0561231,16.7251845 10.3929179,16.9999246 9.701383,16.9999246 C9.07900161,16.9999246 8.47956721,16.7773851 8.00950448,16.376419 L7.85775443,16.2362157 L6.72149872,15.0999657 L8.13570873,13.6857486 L9.27202432,14.8220585 C9.38589018,14.935943 9.54033769,14.9999246 9.701383,14.9999246 C9.83021925,14.9999246 9.95483291,14.9589764 10.0578549,14.8842576 L10.1308016,14.8219986 L14.822135,10.1306887 C14.9360192,10.0168244 15,9.86238034 15,9.70133929 C15,9.57250644 14.9590523,9.44789568 14.8843338,9.3448755 L14.8220751,9.27192999 L7.55,2 L2,2 L2,7.55 L5.99284082,11.5428914 L4.7,13.2296066 L0,8.37850075 L0,0 Z" id="Path"></path>
            <path d="M5.28573582,3.17857143 C4.12198905,3.17857143 3.17858489,4.12197086 3.17858489,5.28571429 C3.17858489,6.44945771 4.12198905,7.39285714 5.28573582,7.39285714 C6.44948258,7.39285714 7.39288675,6.44945771 7.39288675,5.28571429 C7.39288675,4.12197086 6.44948258,3.17857143 5.28573582,3.17857143 Z M5.28573582,4.17857143 C5.89719895,4.17857143 6.39288675,4.67425673 6.39288675,5.28571429 C6.39288675,5.89717184 5.89719895,6.39285714 5.28573582,6.39285714 C4.67427268,6.39285714 4.17858489,5.89717184 4.17858489,5.28571429 C4.17858489,4.67425673 4.67427268,4.17857143 5.28573582,4.17857143 Z" id="Oval"></path>
            <polygon id="Path" points="6 7 6 16.5 4.7 16.5 4.7 7"></polygon>
        </g>
    </g>
</svg>