<?xml version="1.0" encoding="UTF-8"?>
<svg width="24px" height="24px" viewBox="0 0 24 24" version="1.1" xmlns="http://www.w3.org/2000/svg" xmlns:xlink="http://www.w3.org/1999/xlink">
    <title>Icons/24dp/ic_chart-map</title>
    <g id="Icons/24dp/ic_chart-map" stroke="none" stroke-width="1" fill="none" fill-rule="evenodd">
        <g id="ic_map">
            <rect id="Container" x="0" y="0" width="24" height="24"></rect>
            <polygon id="Path" fill="#454545" points="14.0829053 4.70256842 14.1118827 4.72628872 14.091206 4.80350977 14.1357143 4.86685714 14.1650857 4.86002406 14.2299398 4.82160902 14.253615 4.69397594 14.230003 4.6503188 14.250782 4.5588812 14.2909353 4.54417744 14.3161594 4.61279098 14.3447368 4.6435609 14.4174256 4.65170827 14.4295218 4.77857143 14.4532692 4.86616541 14.4793504 4.89120602 14.5933865 4.81787669 14.6564932 4.83983759 14.6710165 4.87765414 14.7357023 4.92497744 14.7268481 4.96756992 14.6427789 4.97291128 14.5942617 5.02816842 14.577997 5.09582556 14.6144662 5.16359699 14.6940541 5.18761504 14.6580511 5.35766316 14.6663669 5.38898045 14.8175158 5.41281805 14.9716481 5.51603308 15.0246647 5.5228 15.0122135 5.48889023 15.0462737 5.3964 15.0354105 5.31345263 15.0124992 5.29722406 14.8860752 5.27889023 14.9036271 5.22816241 14.8882316 5.19089023 14.9458977 5.16134737 14.9683729 5.11852932 15.0421594 5.11773534 15.0286195 5.05975038 15.0815459 5.03124211 15.114391 5.14440602 15.1751338 5.24598195 15.2234617 5.21733233 15.2885684 5.24510677 15.3042045 5.30422857 15.4251308 5.2927218 15.3826797 5.34185564 15.3172602 5.44355489 15.3201744 5.48109173 15.3666797 5.48371729 15.4361113 5.56308271 15.4442195 5.67660752 15.443609 5.68673985 15.483615 5.68677895 15.5595278 5.74022556 15.7908481 5.67345865 15.9173143 5.60505564 16.0101865 5.53074887 16.2209353 5.43646015 16.4050346 5.45421654 16.4885985 5.49617143 16.6078947 5.49683609 16.6679579 5.5263218 16.7278827 5.57905564 16.8377474 5.6116391 16.8601474 5.60855038 16.8880962 5.58572331 16.9401143 5.59787368 16.9683759 5.64141654 17.0077654 5.68645113 17.0695429 5.67724511 17.0956511 5.66498045 17.2423729 5.68342556 17.4631639 5.65514286 18.1941353 5.95563008 18.7279429 6.49424962 18.7879609 6.50766015 19.0618947 6.56898045 19.0745053 6.90258947 19.0905744 6.94613534 19.1553895 7.00069774 19.1924692 7.04279098 19.2528782 7.18013233 19.299191 7.18981353 19.3416692 7.13470677 19.398418 7.22800602 19.5683158 7.25324511 19.587206 7.30364812 19.5490947 7.3429985 19.514785 7.40170226 19.549603 7.5481594 19.5534977 7.64017444 19.5983188 7.69535338 19.669597 7.74409323 19.6684962 7.82028872 19.6105985 7.90152782 19.5424361 7.92983459 19.4098075 7.93996692 19.2841293 8.0898015 19.2183128 8.3182797 19.1827098 8.36823759 19.0989654 8.42221053 19.0645383 8.45326617 18.9811068 8.62425263 18.9089053 8.69283008 18.9069383 8.74558195 18.8587008 8.88973233 18.7655669 9.05481504 18.7306286 9.17972632 18.6994286 9.24541053 18.6781293 9.40289323 18.7269895 9.56591579 18.7709263 9.64132932 18.7999519 9.69693835 18.8419248 9.8901594 18.858788 10.0062226 18.8159429 10.120809 18.618394 10.271591 18.6042346 10.3071729 18.624406 10.3807068 18.677197 10.3970586 18.7107759 10.3383098 18.8141504 10.3387308 18.8425233 10.3118226 18.9127459 10.2936962 18.9614677 10.2773744 19.0242556 10.3261594 19.0519429 10.3998406 19.1173293 10.3750737 19.215209 10.3545474 19.2951579 10.3025474 19.3713895 10.3665414 19.4196692 10.3843368 19.4737143 10.3814316 19.5187699 10.3189353 19.588388 10.3312662 19.7133925 10.3009474 19.7469955 10.3541504 19.7965624 10.3761173 19.8481173 10.3649203 19.8465654 10.4097353 19.9058286 10.4458917 20.0281564 10.4519248 20.0638526 10.4958226 20.2502827 10.483982 20.2956602 10.5363489 20.345982 10.5564602 20.4037925 10.6133684 20.4662436 10.6297323 20.5010286 10.6706707 20.6175579 10.6545263 20.6595248 10.6011789 20.741991 10.6172842 20.7636 10.6421113 20.7150286 10.6804812 20.7244692 10.7310376 20.8081113 10.7758406 20.8269474 10.8560361 20.7777504 10.9108211 20.7390977 10.985194 20.7155368 11.066803 20.7550707 11.1133835 20.7347429 11.1649744 20.7413504 11.2867398 20.8384812 11.3097865 20.9011038 11.358785 20.932791 11.3529594 20.9815789 11.408806 21.0665023 11.4519038 21.1116872 11.4588 21.1802015 11.4304241 21.2198617 11.4597805 21.2796511 11.4315188 21.3038135 11.5062887 21.3444271 11.5355519 21.4280211 11.5634105 21.4910346 11.5416812 21.536797 11.5865233 21.6212932 11.7051128 21.6750617 11.7413263 21.6676421 11.832397 21.7118917 11.8568301 21.8588271 11.8536872 21.8866827 11.8768992 21.908803 11.9493233 21.9531098 12.0100992 22.0270346 11.9849023 22.0480511 11.9516932 22.1343759 11.9601654 22.1759789 11.9291218 22.2912662 11.9348602 22.354382 11.901618 22.4214105 11.8131248 22.475194 11.8272301 22.5567008 11.8066346 22.6278165 11.8142376 22.6285504 11.7732872 22.6392571 11.672394 22.6010135 11.6297624 22.5910406 11.5855098 22.6311489 11.5415038 22.6509023 11.4329504 22.6772541 11.408803 22.6695759 11.3128632 22.7591579 11.3242887 22.9501714 11.3858195 22.9882376 11.3638226 23.0689925 11.3597805 23.0748602 11.315185 23.0166707 11.2441955 23.0335368 11.1664902 23.1312331 11.1373263 23.1407038 11.060394 23.2197083 10.9152301 23.2301353 10.8620602 23.2749805 10.8406256 23.3652361 10.8536992 23.4251759 10.7871759 23.4565684 10.7775218 23.5062947 10.8056872 23.5246436 10.8522677 23.5792571 10.9157474 23.6537684 10.9695759 23.6314977 11.091185 23.6874105 11.119594 23.7731699 11.1501714 23.8066376 11.1458075 23.8772331 11.1904992 23.9183158 11.2370226 23.9858376 11.2624241 23.964385 11.3114045 23.9803188 11.3512902 23.9692632 11.4348752 23.9286496 11.4724391 23.910391 11.5982977 23.8553865 11.6755609 23.8793805 11.7000662 23.8901444 11.7628932 23.8729083 11.8465955 23.8930226 11.9494887 23.8514737 12.0061353 23.8650917 12.048794 23.8128872 12.0923338 23.832415 12.1363278 23.7817143 12.2926226 23.7193714 12.3436361 23.6694466 12.3502556 23.6332692 12.4160241 23.6919368 12.4650496 23.7334737 12.5416992 23.744809 12.654388 23.5141143 12.8427368 23.5605113 12.8762015 23.6121534 12.9486556 23.5977414 13.0259699 23.5306526 13.0529053 23.4777083 13.1782045 23.4168632 13.2158857 23.4729143 13.3153233 23.4654917 13.4114737 23.4817624 13.4439278 23.5145353 13.510394 23.5251429 13.5808752 23.5613323 13.5943459 23.6199669 13.5693624 23.7429143 13.5611609 23.7568271 13.5466226 23.8440722 13.6097744 23.9588902 13.7298135 24 13.7457774 23.960015 13.8249564 23.9781113 13.9443729 23.9619519 14.0385534 23.9085414 14.1208872 23.9244 14.1927038 23.8890827 14.259991 23.8951098 14.2969955 23.8257895 14.3137564 23.792397 14.3953023 23.7071429 14.3438737 23.6089624 14.2370586 23.4988752 14.2936872 23.4297865 14.2468301 23.3568571 14.2169925 23.2594947 14.2035699 23.249582 14.2513594 23.1875068 14.3032481 23.1151489 14.234391 23.0403248 14.2730436 23.0229293 14.251597 22.9597774 14.247988 22.9585805 14.1803038 22.9132421 14.0918195 22.7882977 14.040382 22.7383068 14.0842165 22.6854977 14.0339008 22.6747308 13.9282316 22.766418 13.7833684 22.6923008 13.6938466 22.6622526 13.5922406 22.5816541 13.6409083 22.5358827 13.7334767 22.4885323 13.7040962 22.3652331 13.6794947 22.255215 13.7429293 22.123603 13.7809053 22.0763008 13.8212481 21.9958737 13.8089774 21.9381714 13.7812241 21.9328571 13.8560271 21.9103278 13.9157293 21.9318226 13.948 21.901197 14.0373955 21.8125865 14.0542647 21.8479068 14.1155579 21.7730917 14.1808692 21.7548962 14.2446556 21.7220932 14.2789774 21.6440511 14.2928211 21.6289835 14.3427639 21.6783248 14.386397 21.6819729 14.4566917 21.6690045 14.5281955 21.6208481 14.5533353 21.6343429 14.678794 21.6533835 14.7237835 21.6289594 14.7601504 21.6356872 14.8069023 21.6704391 14.8466256 21.6743308 14.9336752 21.6187398 14.9948331 21.6186707 15.0698496 21.6943669 15.0832421 21.7153654 15.1787459 21.7372992 15.198012 21.8056301 15.1812842 21.8223699 15.2350075 21.8859338 15.2225143 21.928415 15.2325383 21.9684962 15.1794195 22.080388 15.1531368 22.1542586 15.179606 22.1748421 15.2201865 22.1779158 15.2871248 22.2486256 15.2777895 22.2785083 15.3374316 22.2539068 15.3694226 22.2635789 15.467612 22.2222316 15.5105594 22.1512241 15.5012752 22.0705233 15.5665684 22.064 15.6261233 22.0801865 15.6941594 21.9680632 15.7718556 21.9482947 15.9029113 21.9929895 15.9806195 22.012385 16.0522556 22.1286075 16.1247609 22.1242286 16.1517083 22.212809 16.2155669 22.2157263 16.2760361 22.2559639 16.2946887 22.2608421 16.3780752 22.3062917 16.414794 22.3305684 16.478391 22.3221474 16.5063398 22.1948451 16.6205083 22.168788 16.6903459 22.0966947 16.7330797 22.0488511 16.7413835 21.9742015 16.7266556 21.9441143 16.7049233 21.8812752 16.7078045 21.8208391 16.7340211 21.7700752 16.7922135 21.7066857 16.7323338 21.6276241 16.6959639 21.6765714 16.6542857 21.6793023 16.6062165 21.7170376 16.5550165 21.680788 16.4113955 21.5503368 16.3323519 21.4453985 16.307603 21.3754857 16.2762707 21.3528722 16.1894947 21.3998015 16.1489684 21.3696541 16.0528301 21.2919158 15.9832571 21.3205504 15.8981805 21.3760722 15.8366286 21.3636481 15.7597323 21.3184812 15.7644722 21.2091308 15.6726677 21.1638677 15.598797 21.1809233 15.5631759 21.1489173 15.5552872 21.0489534 15.5880451 20.9986346 15.6565263 20.955994 15.6211489 20.9093383 15.5437714 20.783197 15.5990677 20.7649985 15.6371398 20.6993504 15.6832662 20.6361564 15.6803729 20.5080722 15.6941474 20.4441805 15.7728782 20.3881263 15.789194 20.3510556 15.8224 20.2563729 15.8469113 20.2250286 15.889182 20.1777714 15.8857263 20.1141774 15.8207789 20.039597 15.7641985 19.9988872 15.7757143 19.9317534 15.8488511 19.9524451 15.9102887 19.9009293 15.9768662 19.9468842 16.0096 19.9387609 16.0835068 19.9056571 16.112012 19.8857173 16.2140211 19.8235699 16.2301113 19.7130346 16.1821444 19.6849835 16.1366917 19.6465714 16.1881143 19.5974887 16.1900992 19.5431519 16.2377143 19.4877594 16.2656451 19.4097865 16.2482677 19.3797744 16.256403 19.3353865 16.200812 19.2764992 16.1927038 19.170409 16.1988541 19.1377985 16.1671609 19.0388421 16.1143759 19.0131098 16.1417895 18.9580992 16.0981173 18.8498195 15.9549895 18.8263549 15.9129835 18.7958827 15.7667729 18.7538617 15.7309654 18.7321353 15.6703128 18.661209 15.645609 18.5437173 15.579597 18.585203 15.4804391 18.5476782 15.3026977 18.5198617 15.2741233 18.5090556 15.2369323 18.5239519 15.1150286 18.5430075 15.0704331 18.5343218 14.911215 18.568009 14.8628692 18.5513173 14.7799699 18.4849414 14.7837353 18.4817323 14.7500602 18.5449113 14.7464812 18.562409 14.5707429 18.4025624 14.6458797 18.3533083 14.7177053 18.351218 14.8091218 18.2790436 14.8847398 18.1679068 14.8365143 18.1434677 14.7671669 18.1044391 14.7533414 18.0546316 14.6727639 18.0814015 14.6031579 18.0227398 14.5575338 17.9844451 14.5976932 17.8996391 14.601218 17.8912992 14.5845774 17.7513203 14.5986556 17.6436692 14.6527669 17.6015338 14.6556812 17.5817143 14.726406 17.5533865 14.8897714 17.5759068 14.9290286 17.5141293 15.0015459 17.4124421 15.0378165 17.4275098 15.1586015 17.485612 15.2045774 17.4998707 15.238385 17.5581083 15.2516962 17.5895489 15.2959459 17.595982 15.3841083 17.5627158 15.4344571 17.6055759 15.5208632 17.5615729 15.5987429 17.5662436 15.6419519 17.600409 15.7181323 17.6743699 15.7348752 17.6724421 15.7848481 17.6927188 15.8266075 17.6521684 15.8858827 17.693588 15.9579188 17.6649444 16.0283128 17.6149985 16.0500782 17.5955398 16.0895338 17.6138135 16.1834977 17.5445023 16.2397534 17.5222707 16.2960481 17.4770226 16.3235398 17.4655699 16.3931609 17.4394827 16.4087759 17.419591 16.5602526 17.4272301 16.6199609 17.4094316 16.678415 17.3517173 16.6678977 17.2743398 16.702382 17.2854045 16.7409083 17.2633534 16.8138496 17.2399188 16.8406917 17.175218 16.8593053 17.1364421 16.9711729 17.153606 17.0215639 17.1321744 17.0868632 17.0637113 17.1574316 17.0195158 17.1439429 16.9979278 17.1407489 16.9487789 17.1541654 16.9339729 17.210803 16.8172 17.2781143 16.7482346 17.4189684 16.6595278 17.4406376 16.6335038 17.4806045 16.5775429 17.4877323 16.5218466 17.5222797 16.489194 17.5461594 16.5771729 17.7593985 16.5786887 17.7926707 16.5238707 17.8670105 16.5198947 17.9484571 16.4964872 17.9688902 16.425194 17.9829203 16.3712662 17.9700241 16.3138406 17.9960271 16.2578977 18.0409444 16.1965925 18.0660301 16.1952782 18.1157414 16.1558887 18.1605714 16.1456692 18.2174617 16.2253774 18.3229624 16.2350647 18.4367158 16.2560752 18.4921474 16.2011398 18.5375098 16.165585 18.535591 16.1443398 18.5933113 16.0808722 18.5916902 16.0833714 18.6501173 16.0582346 18.6589985 16.0738707 18.6976211 16.1793654 18.7431699 16.1968421 18.8294316 16.1705023 18.8698827 16.224415 18.9206586 16.2070406 18.9866737 16.263218 19.0019308 16.331594 18.9938677 16.3670316 19.0349023 16.4224391 19.0434917 16.4179789 19.0773323 16.5106436 19.1157444 16.5125233 19.207582 16.5561293 19.2328662 16.5173173 19.3153203 16.4567278 19.3887278 16.4083038 19.3904902 16.3656782 19.4854677 16.3772451 19.539203 16.3741203 19.5642586 16.3204361 19.6075639 16.2929383 19.6593023 16.3056361 19.6905985 16.2692391 19.7725925 16.1929053 19.8234466 16.097188 19.786015 16.0743308 19.7611008 16.0921744 19.6949805 15.9793955 19.6821865 15.9466526 19.7145895 15.9015489 19.6841594 15.8714647 19.6346887 15.823982 19.6356782 15.7503218 19.6649955 15.729988 19.7068511 15.6847038 19.7006376 15.6406346 19.7290316 15.6516361 19.6398316 15.7485203 19.497997 15.7846526 19.4771519 15.7989053 19.4269504 15.7570256 19.4251789 15.7451669 19.3151609 15.6903278 19.2343609 15.7078165 19.1742015 15.6834797 19.1340662 15.6620241 19.0929474 15.6141925 19.0678015 15.5379188 18.951991 15.5698947 18.8399549 15.5433353 18.754791 15.4790316 18.771203 15.3992932 18.7258045 15.3643639 18.7000301 15.3314857 18.6685113 15.273191 18.584394 15.2146797 18.5351398 15.1721053 18.5373654 15.1208842 18.516785 15.0250496 18.5040211 14.9727098 18.5266707 15.0107398 18.3821774 15.0319609 18.3511789 15.0785564 18.277188 15.1513985 18.2501233 15.1963128 18.1838045 15.2061895 18.1277143 15.234791 18.1112722 15.23 18.0535639 15.2811008 18.0752632 15.3361474 17.9758797 15.3230226 17.8690797 15.2259188 17.8141865 15.1285444 17.7044992 15.0792241 17.6740872 15.0461414 17.7240752 14.9575308 17.7280842 14.8127669 17.6446586 14.7421594 17.514788 14.6473113 17.6052902 14.5919188 17.7045895 14.5077654 17.6716 14.4433293 17.6678496 14.4085203 17.6048842 14.359588 17.6167008 14.2944481 17.5872962 14.243215 17.506382 14.0518256 17.5189865 14.0404932 17.4337173 13.9662135 17.3583398 14.0049955 17.2624932 13.9255308 17.2524992 13.922012 17.2150707 13.8642887 17.2071188 13.841582 17.1744571 13.8287398 17.0973233 13.7971669 17.045991 13.7459639 17.0280932 13.7435098 16.9832902 13.6845774 16.9425383 13.6525955 16.8900421 13.6316421 16.783218 13.5747278 16.756018 13.5400722 16.7689173 13.4196782 16.7007368 13.3410797 16.6910556 13.2942887 16.6718165 13.2700752 16.5829414 13.1810105 16.5574015 13.1545714 16.5097143 13.1874556 16.4544632 13.2265504 16.4364571 13.1942256 16.3558256 13.1229774 16.2692722 13.0776602 16.1728391 13.1453534 16.1284211 13.1622226 16.0110226 13.2157925 15.9975248 13.2253714 15.9517895 13.2767008 15.9020511 13.2714406 15.8188481 13.2566195 15.7531188 13.3025083 15.6820902 13.284406 15.638018 13.2828211 15.5482917 13.252791 15.4976692 13.3074737 15.4269654 13.2645203 15.3585564 13.2923609 15.3059609 13.2318045 15.2184752 13.252385 15.1785353 13.2353113 15.1298586 13.2813925 15.0692571 13.2589444 15.0082767 13.2102556 14.9722556 13.1955248 14.9225383 13.1347609 14.9037714 13.0213805 14.9461293 12.9754406 14.9463278 12.8936451 15.0011519 12.8500421 14.9966887 12.7559609 14.9984962 12.6968391 15.0364571 12.6793865 15.0771789 12.536406 15.1990737 12.4809684 15.2150075 12.4414346 15.1980241 12.3959579 15.262391 12.3962286 15.286809 12.3432421 15.3337504 12.4205624 15.3770346 12.4529714 15.3649955 12.4850346 15.4036872 12.4700421 15.5711338 12.4018617 15.594003 12.3477865 15.6317323 12.3186286 15.6738286 12.2593293 15.6491308 12.2101083 15.6708271 12.2212541 15.7639038 12.152809 15.8051759 12.1374586 15.8485985 12.0601113 15.851606 11.9996421 15.896797 12.0053263 15.9581895 11.9502135 16.0097263 11.9362346 16.0890256 11.901194 16.1138707 11.8660662 16.1426677 11.8354075 16.1275338 11.7610195 16.1797744 11.6685564 16.1912662 11.5922586 16.1481083 11.5611248 16.1451188 11.4539278 16.2218737 11.4153323 16.3037624 11.3724331 16.315182 11.3462015 16.3605534 11.2691128 16.4145955 11.2399278 16.4602797 11.270788 16.5086857 11.3507128 16.5229534 11.3521263 16.5454075 11.3972962 16.5451338 11.4125293 16.6272391 11.4519218 16.6478767 11.471997 16.6967459 11.5492692 16.7232301 11.5738586 16.8341564 11.6154827 16.9010256 11.6255489 16.9903038 11.6901744 17.0579218 11.6883038 17.0985744 11.6535188 17.1201023 11.6074677 17.2081414 11.6067429 17.2505173 11.636388 17.3213714 11.5784241 17.4036361 11.4768211 17.4154406 11.4251188 17.4529293 11.4166075 17.5511368 11.3871158 17.5953444 11.2472451 17.6423429 11.1806887 17.6381925 11.1018015 17.6739429 10.9961835 17.6774015 10.9709774 17.7628842 10.968409 17.8288752 10.9336571 17.8761113 10.9407609 17.9652361 11.0018226 18.1091609 10.9311218 18.1477534 10.8773594 18.2066707 10.9070376 18.2560872 10.8713624 18.3005233 10.8801173 18.352797 10.8201744 18.3509684 10.7823579 18.4446436 10.7567368 18.4745534 10.6933474 18.4478316 10.5886947 18.4734947 10.547194 18.4618526 10.457997 18.4742105 10.3313083 18.4667008 10.252785 18.6058466 10.1658857 18.6420842 10.1890917 18.7168301 10.1524782 18.7629323 10.1647248 18.8298256 10.1285774 18.8431008 10.1186586 18.9266917 10.1637594 18.9968301 10.1428541 19.0470617 9.95051128 19.0375188 9.86410827 18.9978226 9.75358496 19.0703669 9.70761203 19.0130677 9.6322015 18.9666827 9.59361805 18.9208 9.47977143 18.8912902 9.4696 18.9377805 9.4222015 18.9876662 9.41281805 19.0203308 9.3354797 19.0218496 9.29417143 18.9882015 9.26611429 18.9385564 9.27881203 18.8370827 9.22548571 18.7925564 9.16160602 18.7858647 9.11933835 18.7641353 9.1053985 18.7089383 9.05872481 18.6411158 9.00207519 18.6210346 8.90701353 18.6705113 8.80190376 18.6533835 8.75094135 18.6759789 8.63870677 18.6674346 8.60133534 18.6380481 8.58482707 18.5498346 8.56416842 18.537982 8.49694135 18.5523008 8.43417143 18.5457053 8.38868571 18.6244782 8.41611729 18.7234045 8.39517594 18.770418 8.31694436 18.7738226 8.26217744 18.729588 8.20875789 18.7626376 8.1646015 18.7288722 8.13419549 18.7799278 8.10248421 18.7790075 8.05217143 18.804818 8.01789774 18.844391 8.03626767 18.9244962 8.01887218 18.9439699 7.95056541 18.9326135 7.93556692 18.9584632 7.87589173 18.9615068 7.82190075 19.0488602 7.78295639 19.0854226 7.69697444 19.1361323 7.64896842 19.115188 7.62496541 19.1653173 7.54659248 19.2286436 7.46025865 19.170794 7.43459248 19.1769353 7.34510376 19.0866406 7.27325414 19.1224481 7.20652632 19.1136872 7.19627368 19.0764872 7.11893233 19.0716211 7.08166015 19.0369414 7.03299549 19.0827699 6.98778947 19.1970857 6.95977143 19.2032722 6.88252932 19.2914226 6.84342256 19.2541744 6.79608722 19.2774376 6.7312812 19.2626165 6.66856842 19.2871669 6.66465865 19.3243489 6.61382556 19.3523098 6.56941955 19.4268301 6.58594286 19.4818195 6.53186165 19.5151609 6.45044511 19.4835398 6.3791609 19.4180692 6.39163308 19.378794 6.33578346 19.3593624 6.23913083 19.4089023 6.2187188 19.4541534 6.14721203 19.5112722 6.05869774 19.5106827 6.01090827 19.4137744 6.02756992 19.3852361 5.94633985 19.3135759 5.92870075 19.2386466 5.86302556 19.2026797 5.86441504 19.1311519 5.80436992 19.0843068 5.76087519 19.0322496 5.74475188 18.9675188 5.71212331 18.9109414 5.72729323 18.8625143 5.72232481 18.7906376 5.62057444 18.7458677 5.57126917 18.6759398 5.58017444 18.6462436 5.63434887 18.6238977 5.64106466 18.5913293 5.58717293 18.539615 5.57910677 18.4642977 5.52187368 18.4501654 5.44271278 18.4046947 5.42249323 18.2898647 5.3271218 18.2117203 5.25747368 18.0506917 5.22184361 18.0565774 5.18411729 18.0248301 5.19337744 17.9571609 5.16970226 17.9367489 5.1200391 17.9519429 5.04184662 18.0589744 4.96612632 18.0783429 4.94475489 18.1211218 4.86538647 18.0813564 4.85185564 18.0215248 4.8928 17.915985 4.9492 17.8823158 4.93274586 17.8459188 4.9508 17.7974526 4.90410526 17.7201744 4.96946466 17.6211759 4.95861955 17.5853053 4.99150677 17.5007218 4.94359699 17.4906286 4.9005985 17.5092932 4.86846617 17.487582 4.7369985 17.4817173 4.68506767 17.4400331 4.56745263 17.4473444 4.5072812 17.4090496 4.45401805 17.4037353 4.41452632 17.270391 4.42452331 17.2027759 4.49495338 17.1296271 4.53091729 17.063991 4.50209624 16.9493444 4.48404812 16.8985353 4.51858947 16.8166105 4.57983459 16.7436301 4.57495639 16.694018 4.62663158 16.6614135 4.66106466 16.6122286 4.67746767 16.5541895 4.75677895 16.5058105 4.75364812 16.4734226 4.78245414 16.4201985 4.77770827 16.3597203 4.80810226 16.3078767 4.77696541 16.232797 4.71465564 16.2362316 4.64683008 16.1613414 4.6240812 16.1135519 4.56755188 16.0426586 4.50028571 16.0020782 4.46868571 16.0081925 4.4464782 15.9092812 4.38267669 15.9082917 4.35578346 15.8206346 4.3312782 15.7986165 4.30881203 15.7381173 4.31513083 15.6924391 4.36363308 15.6520271 4.42174436 15.6468962 4.48541353 15.5738256 4.49634887 15.5247729 4.47469774 15.4955489 4.49273083 15.4410226 4.57666165 15.1879549 3.84011729 14.9799218 2.97897444 14.9643489 2.48433684 15.2747579 2.00586767 15.3672271 1.57076992 15.6982406 1.50940752 15.8268962 1.45826165 15.9350105 1.39399098 16.0690436 1.50956391 16.1248842 1.54018647 16.1577263 1.5616 16.2521534 1.52490526 16.273582 1.49090526 16.2986767 1.49028571 16.3381774 1.55539248 16.4474617 1.61258045 16.5040632 1.64246015 16.558788 1.73830376 16.5067669 1.79446316 16.4958286 1.86481805 16.5029293 1.87369323 16.5866586 1.79037594 16.732406 1.77589474 16.7435729 1.69464962 16.8062045 1.63732932 16.8203639 1.54849925 16.8843789 1.52869774 16.8724602 1.47115789 16.8739158 1.41677293 16.911615 1.36592481 16.9696872 1.32662857 16.9819519 1.28222556 17.045997 1.21702857 17.0882797 1.23150376 17.1799158 1.16048421 17.2412301 1.03787669 17.291588 1.00851128 17.3342767 0.981615038 17.326 0.949503759 17.3705143 0.756851128 17.3491429 0.718294737 17.2905113 0.62683609 17.3084842 0.507067669 17.2935579 0.485314286 17.3721353 0.401557895 17.3841564 0.361374436 17.3739729 0.313106767 17.3569173 0.252273684 17.3645263 0.200508271 17.3456211 0.140932331 17.3630797 0.10722406 17.4354256 0.0486526316 17.4585895 0 17.4395398 0.0521233083 17.4007609 0.045362406 17.343588 0.106571429 17.2246075 0.136403008 17.1305143 0.17042406 17.1453083 0.191663158 17.0986707 0.207064662 17.0527068 0.186535338 17.0181534 0.0402827068 16.9454947 0.0892390977 16.9031459 0.0697954887 16.8718075 0.117930827 16.7935429 0.196030075 16.8042436 0.2328 16.7690887 0.268682707 16.7435278 0.285293233 16.7001684 0.365645113 16.6690526 0.41077594 16.6294947 0.477515789 16.682782 0.555840602 16.578009 0.60073985 16.6092782 0.698682707 16.5637835 0.771070677 16.6362737 0.809148872 16.6200752 0.886219549 16.5368752 0.867753383 16.4561865 0.780712782 16.3246947 0.773981955 16.2753203 0.831593985 16.2041353 0.873323308 16.1813383 0.866267669 16.0650195 0.897762406 16.0260421 0.927915789 15.9714316 0.968980451 15.8952271 0.965798496 15.8595068 1.0215609 15.8335398 1.06851729 15.7704872 1.07548872 15.7199248 1.13266767 15.6522887 1.07140451 15.5520932 1.02516692 15.5684842 0.951166917 15.488803 0.83323609 15.3962135 0.790625564 15.3978195 0.752057143 15.3298075 0.57112782 15.2715429 0.628706767 15.1520391 0.677723308 15.0929504 0.679094737 15.0331549 0.628634586 14.9876 0.617699248 14.8924782 0.746342857 14.7712 0.830054135 14.5542647 0.959858647 14.3958226 0.995356391 14.4154737 1.04410827 14.3494947 1.01849023 14.3284992 1.0603188 14.2832872 0.819476692 14.042394 0.876529323 13.9859278 0.899651128 13.9440391 0.966995489 13.8853624 1.04602406 13.8343789 1.08542857 13.7872301 1.18019549 13.7391669 1.18666165 13.7081173 1.26948271 13.6468632 1.28979549 13.6002165 1.3333594 13.5863008 1.39345865 13.5184451 1.43721203 13.4937263 1.46825564 13.4412602 1.64797293 13.2758165 1.658 13.2277835 1.73032782 13.1683038 1.85889023 13.1058226 1.94740752 13.0484662 2.04198496 13.0151068 2.09708271 12.9784301 2.13844812 12.9173263 2.19939549 12.9075549 2.19043308 12.8613233 2.27200902 12.8479128 2.30442406 12.8014165 2.28783158 12.7624782 2.35245714 12.7048692 2.4395218 12.6889293 2.51189474 12.6556541 2.55741353 12.6134226 2.55464662 12.5841684 2.62231579 12.5255338 2.62281805 12.4902165 2.6580391 12.415206 2.53204511 12.3094346 2.51282406 12.2301534 2.56406316 12.1998135 2.55837594 12.1392421 2.5737203 12.0794617 2.66634286 11.9277654 2.6811218 11.7427038 2.68987368 11.6279278 2.65464662 11.5463639 2.53818647 11.386785 2.52210827 11.3342256 2.58561203 11.2959549 2.66354586 11.2213113 2.72788872 11.124385 2.80396692 11.0351609 2.86046917 10.9809383 2.90949173 11.0430677 2.97638195 11.0070075 3.21387669 10.9404541 3.36434887 10.8525353 3.38663158 10.8390827 3.49653835 10.8460481 3.58540752 10.793594 3.63851429 10.7305474 3.71644211 10.5775308 3.81942857 10.5087489 3.93064361 10.4810917 4.04062256 10.3764451 3.98309774 10.3325023 3.94128421 10.325618 3.89272782 10.2673714 3.96674586 10.209615 3.95089925 10.1504962 4.0197985 10.0964511 4.07336241 10.0707699 4.1427218 10.0809233 4.17978045 10.0346556 4.1476391 9.94021353 4.28085714 9.84959398 4.33459549 9.84397594 4.42478195 9.79770827 4.4916812 9.77306165 4.54507368 9.73218947 4.6165203 9.64788271 4.72969323 9.5694797 4.77698045 9.50098947 4.70463459 9.49233383 4.68394286 9.45359098 4.80274286 9.3868391 4.85529925 9.31259248 4.88823759 9.23136842 4.93853233 9.19224662 5.04895639 9.09035489 5.1205594 9.05975338 5.14005414 9.01039098 5.20295338 8.99042105 5.22051729 8.96348872 5.22316692 8.9351218 5.28792782 8.89786165 5.24046316 8.81632782 5.26480301 8.76806316 5.26922707 8.69529925 5.20995789 8.55950075 5.27600602 8.51372932 5.35688722 8.51094135 5.39955489 8.48281504 5.5053594 8.48468271 5.54114887 8.44362105 5.56266466 8.44448421 5.60928722 8.34578647 5.57502857 8.26499248 5.7057203 8.23355489 5.7654015 8.24668271 5.82313985 8.18698045 5.84962105 8.11426466 5.78765714 8.0871188 5.80173835 8.05255038 5.78236992 7.97327519 5.70591278 7.95967218 5.70155489 7.9262797 5.58881805 7.88797895 5.55591278 7.92876692 5.5023218 7.96076391 5.43404211 7.96031579 5.38822556 7.98871579 5.2664 7.98942556 5.21532932 8.00665564 5.16888421 8.00002707 5.10603609 8.02411729 5.00416842 7.99224662 4.91380752 8.0436 4.8831188 8.0076 4.91423759 7.93301053 4.90798797 7.88514887 4.97104361 7.8323188 5.02180752 7.80893233 5.0667218 7.75817444 5.07608722 7.69658346 5.10485113 7.63546466 5.19863158 7.62553684 5.21493835 7.55111278 5.20173835 7.41329323 5.33117895 7.39773534 5.36633383 7.30913684 5.42526015 7.29408421 5.47198195 7.30262556 5.53171128 7.25700451 5.52929023 7.19445414 5.52542256 7.15453835 5.45229173 7.08169925 5.46249323 6.99544662 5.45104361 6.94612932 5.52803008 6.89639699 5.65264962 6.86303759 5.71915188 6.9155188 5.84312782 6.93339549 5.90098947 6.95638195 5.91969925 6.98839098 6.0085594 6.93633985 6.11536541 6.93422857 6.20086316 6.86799098 6.2540812 6.87966316 6.31973233 6.91853534 6.3667188 6.96806316 6.41954286 6.97919699 6.58745865 6.94379549 6.53338947 6.98813233 6.46322406 7.14470075 6.46971128 7.17562707 6.46670977 7.2227188 6.42522707 7.33726917 6.54080902 7.3739218 6.56151579 7.3999218 6.61473684 7.40403008 6.71701353 7.36595188 6.77171729 7.38847218 6.78582556 7.45159098 6.81991278 7.46679098 6.82293835 7.51782556 6.86830977 7.4890406 6.95458045 7.46524511 7.01857744 7.40611729 7.06957594 7.41786767 7.12657444 7.37410827 7.25086617 7.36536541 7.31562707 7.3571218 7.36068571 7.4004391 7.53884812 7.42744962 7.64182256 7.40011429 7.6747609 7.36265865 7.75178947 7.31440602 7.79061955 7.25876391 7.79905564 7.21382556 7.87814135 7.19477895 7.93226165 7.12739248 7.87160301 7.06407519 7.79533835 7.0329594 7.77510075 6.98668872 7.82394286 6.91188271 7.92902857 6.97850226 7.96865263 6.98117895 8.01506466 7.04865564 8.10359098 7.03415338 8.15585564 6.97993383 8.22710677 6.92082105 8.22675489 6.87587669 8.21771429 6.82121805 8.18767218 6.78186466 8.25769624 6.76294737 8.29550977 6.77709774 8.33559098 6.67957594 8.31622256 6.64372632 8.25475188 6.64136842 8.2209985 6.67325414 8.18192782 6.67358195 8.16502857 6.58491729 8.19296842 6.56038797 8.27082105 6.53570526 8.30256842 6.49262556 8.46091128 6.39163609 8.47320602 6.32868271 8.51968421 6.29121504 8.61789173 6.30491128 8.64017444 6.19370226 8.72429774 6.23320902 8.72203308 6.28821955 8.7990406 6.29574135 8.8279218 6.27528722 8.92675789 6.18246316 8.94058647 6.13824662 9.05405113 6.1767609 9.12734737 6.2637594 9.13964211 6.33991579 9.06938647 6.38134737 8.98762105 6.40833383 8.95296241 6.42823158 8.87857444 6.41861353 8.9378797 6.4850406 8.97078496 6.52895038 9.02301353 6.54576541 9.05162707 6.61007218 9.09652932 6.63398496 9.15437895 6.6422406 9.21129925 6.63907368 9.30020752 6.58827669 9.35452331 6.56621053 9.50598797 6.54434887 9.53337143 6.51817444 9.6681985 6.4797203 9.73348271 6.44729624 9.7536391 6.40671278 9.81984962 6.34327218 9.8559609 6.2153985 9.92963308 6.21966015 9.95522707 6.25035188 10.0061624 6.25235188 10.076415 6.21347368 10.2063639 6.20158496 10.2746887 6.23927218 10.320003 6.29502857 10.3464962 6.35685414 10.3245774 6.42095038 10.3305564 6.46311579 10.3765233 6.52326617 10.4564902 6.52959699 10.4997714 6.54862857 10.5428602 6.54029173 10.5787248 6.44988271 10.6278256 6.44938045 10.6980632 6.46474286 10.8101835 6.45550376 10.8528632 6.46663459 10.857991 6.46994887 10.918 6.50195188 11.0581714 6.46408421 11.1282316 6.40061353 11.1920782 6.39519699 11.2567639 6.44738647 11.328785 6.41930827 11.3513173 6.37760602 11.3595188 6.30149173 11.4109835 6.24329925 11.4818045 6.24529023 11.5363519 6.2393203 11.5466857 6.18667368 11.5939398 6.1538015 11.6569444 6.16029774 11.6905173 6.15908872 11.7376391 6.09929925 11.7905985 6.07694436 11.8406045 5.9872391 11.881606 5.9552812 11.9469173 5.9582406 11.9852481 5.99320902 12.0000511 6.06098647 12.0281113 6.07235489 12.0750857 6.01498947 12.1819038 5.99547068 12.1963549 6.00923609 12.2173353 6.04088722 12.2951699 6.02368722 12.3409895 6.03384361 12.3893895 6.07170827 12.3756211 6.15679098 12.3927459 6.20261353 12.4884361 6.27928421 12.5313293 6.32881504 12.5986135 6.34608421 12.7305173 6.35319699 12.8439308 6.38441805 12.8892211 6.30998195 12.928415 6.29393684 13.017206 6.34339549 13.0708932 6.36836391 13.1276902 6.37185865 13.2267579 6.33079098 13.2702917 6.33190677 13.3375308 6.28773835 13.3741444 6.29257744 13.3909323 6.28886316 13.4312481 6.26162406 13.3914165 6.21350677 13.2950947 6.24012632 13.2328692 6.13582857 13.2305023 6.09616241 13.2913985 6.08596992 13.3427429 6.03063759 13.3714707 6.0078797 13.5037985 5.97761504 13.498797 5.92801504 13.5471759 5.86458346 13.6618256 5.87093835 13.6641444 5.91041504 13.7635188 5.92241203 13.8114977 6.03735038 13.7926316 6.11903759 13.8958827 6.1448391 13.9659429 6.07126917 14.0074917 6.02649624 14.0154857 5.98955789 13.9754406 5.88795489 13.9645083 5.7810015 14.0300271 5.70428271 14.0625203 5.76918496 14.0128662 5.78946165 14.0237624 5.82457744 14.113182 5.79357895 14.1389744 5.73327519 14.1373353 5.69738647 14.0658947 5.6330015 14.0228812 5.57444812 13.9790195 5.54465564 13.9565955 5.58966917 13.8713173 5.63236992 13.8021203 5.60320602 13.7969414 5.5670797 13.7096632 5.58966917 13.6720571 5.6052391 13.6793594 5.66798797 13.6030526 5.64187068 13.6369925 5.71846617 13.6269534 5.75624962 13.5803188 5.76256541 13.5306586 5.74286015 13.4236992 5.74632481 13.3420722 5.76496241 13.2880481 5.79143759 13.2684541 5.73454436 13.1905684 5.68615338 13.125597 5.66539248 13.0563519 5.59157895 12.996409 5.59581053 12.9604872 5.53127218 13.040394 5.45800902 12.9952541 5.37658045 12.9544602 5.34673985 13.0199038 5.25342857 13.0679669 5.24430677 13.170388 5.15156391 13.2231218 5.1541203 13.2324602 5.10296842 13.1939248 5.0323188 13.2265534 4.99615338 13.232012 4.94388271 13.2834737 4.9097985 13.3210647 4.82502556 13.4020992 4.75690226 13.4391308 4.77712782 13.5136361 4.734 13.5666015 4.77870677 13.6002767 4.7187188 13.6329805 4.71988872 13.7388632 4.66766917 13.810412 4.71995188 13.868006 4.69197895 13.8565744 4.6292812 13.7865895 4.6038015 13.7963459 4.50527218 13.8465504 4.5 13.8581504 4.54918797 13.9244812 4.52627669 13.9492782 4.55669774 13.9964511 4.52441504 14.0624511 4.53857143 14.1059789 4.58895038 14.0686947 4.66564211"></polygon>
        </g>
    </g>
</svg>