<svg width="24" height="24" viewBox="0 0 24 24" fill="none" xmlns="http://www.w3.org/2000/svg">
<path d="M12.2921 4C10.6522 3.9999 9.049 4.48609 7.68541 5.39709C6.32183 6.30809 5.259 7.60298 4.63135 9.11802C4.00369 10.633 3.83939 12.3002 4.15922 13.9086C4.47905 15.517 5.26865 16.9945 6.42817 18.1541C7.58769 19.3138 9.06505 20.1036 10.6735 20.4236C12.2819 20.7436 13.949 20.5795 15.4641 19.952C16.9792 19.3246 18.2743 18.2619 19.1854 16.8984C20.0966 15.5349 20.583 13.9319 20.5831 12.292C20.5806 10.0937 19.7063 7.98624 18.152 6.43175C16.5977 4.87726 14.4903 4.00273 12.2921 4Z" fill="#1F2937"/>
</svg>
