<?xml version="1.0" encoding="UTF-8"?>
<svg width="24px" height="24px" viewBox="0 0 24 24" version="1.1" xmlns="http://www.w3.org/2000/svg" xmlns:xlink="http://www.w3.org/1999/xlink">
    <title>Icons/IXT/24dp/ic_categorical_2</title>
    <g id="Icons/IXT/24dp/ic_categorical_2" stroke="none" stroke-width="1" fill="none" fill-rule="evenodd">
        <g id="ic_categorical_2">
            <rect id="Container" x="0" y="0" width="24" height="24"></rect>
            <path d="M16.25,9 C16.475,9 16.625,9.075 16.775,9.225 L16.775,9.225 L22.775,15.225 C23.075,15.525 23.075,15.975 22.775,16.275 L22.775,16.275 L18.275,20.775 C18.125,20.925 17.975,21 17.75,21 C17.525,21 17.375,20.925 17.225,20.775 L17.225,20.775 L11.225,14.775 C11.075,14.625 11,14.475 11,14.25 L11,14.25 L11,9.75 C11,9.3 11.3,9 11.75,9 L11.75,9 Z M9,17 L9,20 L2,20 L2,17 L9,17 Z M9,13 L9,16 L2,16 L2,13 L9,13 Z M14,11 C13.4,11 13,11.4 13,12 C13,12.6 13.4,13 14,13 C14.6,13 15,12.6 15,12 C15,11.4 14.6,11 14,11 Z M9,9 L9,12 L2,12 L2,9 L9,9 Z M22,4 L22,8 L2,8 L2,4 L22,4 Z" id="Combined-Shape" fill="#454545"></path>
        </g>
    </g>
</svg>