<?xml version="1.0" encoding="UTF-8"?>
<svg width="24px" height="24px" viewBox="0 0 24 24" version="1.1" xmlns="http://www.w3.org/2000/svg" xmlns:xlink="http://www.w3.org/1999/xlink">
    <title>Icons/IXT/24dp/ic_categorical_hidden</title>
    <g id="Icons/IXT/24dp/ic_categorical_hidden" stroke="none" stroke-width="1" fill="none" fill-rule="evenodd">
        <g id="ic_categorical_hidden">
            <rect id="Container" x="0" y="0" width="24" height="24"></rect>
            <path d="M2.0524531,1.58578644 L22.5857864,22.1191198 L21.1191198,23.5857864 L16.0537864,18.5197864 L13.9125,20.6625 C13.7196429,20.8553571 13.5267857,20.9655612 13.2630831,20.9931122 L13.125,21 C12.8357143,21 12.6290816,20.9173469 12.4342566,20.7520408 L12.3375,20.6625 L3.3375,11.6625 C3.14464286,11.4696429 3.03443878,11.2767857 3.00688776,11.0130831 L3,10.875 L2.99978644,5.46578644 L0.585786438,3.0524531 L2.0524531,1.58578644 Z M10.875,3 C11.1642857,3 11.3709184,3.08265306 11.5657434,3.24795918 L11.6625,3.3375 L20.6625,12.3375 C21.0803571,12.7553571 21.1102041,13.3672194 20.7520408,13.8127915 L20.6625,13.9125 L18.64,15.9338932 L5.706,2.99989322 L10.875,3 Z" id="Combined-Shape" fill="#454545"></path>
        </g>
    </g>
</svg>