<svg width="24" height="24" viewBox="0 0 24 24" fill="none" xmlns="http://www.w3.org/2000/svg">
<path fill-rule="evenodd" clip-rule="evenodd" d="M7.68531 5.39716C9.04892 4.48612 10.6521 3.9999 12.292 4C14.4901 4.00268 16.5974 4.87705 18.1517 6.43134C19.706 7.98562 20.5804 10.0929 20.583 12.291C20.5831 13.9309 20.0969 15.5341 19.1859 16.8977C18.2748 18.2613 16.9799 19.3241 15.4648 19.9518C13.9497 20.5794 12.2825 20.7436 10.6741 20.4237C9.0656 20.1038 7.58815 19.3141 6.42853 18.1545C5.26891 16.9949 4.47921 15.5174 4.1593 13.909C3.83938 12.3005 4.00362 10.6333 4.63125 9.11825C5.25888 7.60316 6.3217 6.30821 7.68531 5.39716ZM8.10173 18.562C9.34192 19.3907 10.8 19.833 12.2915 19.833C14.291 19.8307 16.208 19.0353 17.6218 17.6214C19.0356 16.2075 19.8309 14.2905 19.833 12.291C19.8329 10.7994 19.3905 9.34145 18.5618 8.10132C17.7331 6.86119 16.5552 5.89465 15.1772 5.32393C13.7992 4.7532 12.2828 4.60393 10.8199 4.89497C9.35705 5.18602 8.01333 5.90432 6.95868 6.95904C5.90403 8.01376 5.18582 9.35753 4.89487 10.8204C4.60392 12.2833 4.7533 13.7996 5.32411 15.1776C5.89493 16.5556 6.86155 17.7334 8.10173 18.562Z" fill="#1F2937"/>
<path d="M15.6138 8.45312L12.2988 11.7681L8.99874 8.46812L8.46875 8.99913L11.7688 12.2981L8.48474 15.5821L9.01475 16.1121L12.2988 12.8291L15.5978 16.1281L16.1278 15.5971L12.8288 12.2981L16.1438 8.98312L15.6138 8.45312Z" fill="#1F2937"/>
</svg>
