<svg width="24" height="24" viewBox="0 0 24 24" fill="none" xmlns="http://www.w3.org/2000/svg">
<path fill-rule="evenodd" clip-rule="evenodd" d="M4 4H8.8208L19.1958 14.375L18.9512 14.6396C18.9473 14.6445 18.9365 14.6562 14.6445 19.0849L14.3794 19.3584L4 8.97949V4ZM4.75 8.66895L14.3706 18.29C14.6999 17.9501 15.2963 17.3346 15.9314 16.6793C16.7871 15.7963 17.713 14.8409 18.1499 14.3896L8.51026 4.75H4.75V8.66895Z" fill="#1F2937"/>
<path fill-rule="evenodd" clip-rule="evenodd" d="M6.1354 5.79967C6.38207 5.63485 6.67208 5.54688 6.96875 5.54688C7.36644 5.5473 7.74772 5.70548 8.02893 5.98669C8.31014 6.26789 8.46832 6.64917 8.46875 7.04688C8.46875 7.34354 8.38078 7.63355 8.21596 7.88022C8.05114 8.12689 7.81687 8.31915 7.54278 8.43268C7.26869 8.54622 6.96709 8.57592 6.67612 8.51804C6.38515 8.46018 6.11787 8.3173 5.90809 8.10753C5.69831 7.89775 5.55545 7.63048 5.49758 7.3395C5.4397 7.04853 5.4694 6.74694 5.58293 6.47285C5.69647 6.19876 5.88872 5.96448 6.1354 5.79967ZM6.69097 7.4626C6.77319 7.51754 6.86986 7.54688 6.96875 7.54688C7.10131 7.54669 7.22839 7.49397 7.32212 7.40023C7.41585 7.3065 7.46858 7.17943 7.46875 7.04688C7.46875 6.94798 7.43943 6.85131 7.38449 6.76908C7.32955 6.68686 7.25146 6.62277 7.1601 6.58493C7.06873 6.54709 6.9682 6.53719 6.87121 6.55648C6.77422 6.57578 6.68513 6.62339 6.6152 6.69332C6.54527 6.76324 6.49765 6.85233 6.47836 6.94932C6.45907 7.04631 6.46897 7.14684 6.50681 7.23821C6.54466 7.32957 6.60874 7.40767 6.69097 7.4626Z" fill="#1F2937"/>
</svg>
