<svg width="24" height="24" viewBox="0 0 24 24" fill="none" xmlns="http://www.w3.org/2000/svg">
<path d="M18 11H17.1671V17H15.4582V13H14.6254V17H12.9163V8.96924C13.09 8.82642 13.2392 8.70441 13.3468 8.61786C13.8405 8.94959 15.1382 9.82886 15.794 10.2719L16.3929 10.6756L20 7.70496L19.5705 7L16.3522 9.65125L16.168 9.52643C15.3666 8.98334 13.6133 7.79706 13.5098 7.73194L13.327 7.6161L13.1466 7.73756C13.1114 7.761 13.0347 7.82026 12.9164 7.91505V7.00001H12.0836V8.59706C11.7079 8.90767 11.2326 9.30257 10.6539 9.78389C10.552 9.86891 10.4651 9.94118 10.3746 10.0166V9.00002H9.5418V10.1632L8.58178 9.51968L5.99999 11.2523L6.37145 12L8.58178 10.5169L9.5418 11.1606V17H7.83282V14H7V17H5V5H4V18H20V17H18L18 11ZM10.3746 17V11.0762C10.5511 10.9306 10.7978 10.7263 11.0861 10.4865C11.3766 10.2449 11.733 9.94849 12.0836 9.65771V17H10.3746Z" fill="#1F2937"/>
</svg>
