<svg width="24" height="24" viewBox="0 0 24 24" fill="none" xmlns="http://www.w3.org/2000/svg">
<path d="M10.3615 16.6688L6.97567 13.2839L7.51999 12.7396L10.3615 15.5822L16.9036 9.03906L17.4479 9.58338L10.3615 16.6688Z" fill="#1F2937"/>
<path fill-rule="evenodd" clip-rule="evenodd" d="M7.2784 5.432C8.67634 4.49814 10.3198 3.9998 12.001 4C14.2544 4.0028 16.4146 4.89927 18.0079 6.49274C19.6012 8.08622 20.4974 10.2467 20.5 12.5C20.5 14.1811 20.0014 15.8247 19.0673 17.2225C18.1334 18.6203 16.8058 19.7097 15.2525 20.3531C13.6993 20.9964 11.9902 21.1646 10.3413 20.8366C8.69247 20.5086 7.17793 19.6989 5.98922 18.5101C4.80053 17.3212 3.99106 15.8065 3.6632 14.1577C3.33535 12.5087 3.50382 10.7996 4.14733 9.24648C4.79082 7.69332 5.88044 6.36588 7.2784 5.432ZM4.85746 15.4557C5.44269 16.8685 6.4337 18.0758 7.70515 18.9253C8.9766 19.7747 10.4714 20.2281 12.0005 20.228C14.0501 20.2254 16.0151 19.4101 17.4642 17.9607C18.9135 16.5115 19.7287 14.5465 19.7312 12.4968C19.7312 10.9677 19.2777 9.47294 18.4282 8.20154C17.5786 6.93015 16.3712 5.93922 14.9584 5.35408C13.5457 4.76894 11.9912 4.61587 10.4915 4.91422C8.9918 5.21257 7.61425 5.94895 6.53304 7.03022C5.45184 8.1115 4.71556 9.48911 4.4173 10.9888C4.11906 12.4886 4.27223 14.0431 4.85746 15.4557Z" fill="#1F2937"/>
</svg>
