<svg viewBox="0 0 24 24" xmlns="http://www.w3.org/2000/svg"><path d="m20.3456 12.9228.0779-.073-.0779-.0729-1.0567-.99-.0684-.064-.0683.064-4.6335 4.3409-3.9503-3.7008-.0684-.064-.0684.064-1.05646.9898-.0779.073.0779.0729 5.07516 4.7549.0684.0641.0684-.0641zm-13.47078-1.8585.06837.064.06836-.064 1.05649-.9897.0779-.073-.0779-.073-2.08638-1.9547-.06837-.06405-.06837.06405-2.02266 1.89492-.0779.07298.0779.073 1.05666.9899.06837.064.06836-.064.89765-.841z" fill="#757575" stroke="#757575" stroke-width=".2"/><path d="m4.98829 16.1627.06837.064.06837-.064 5.75427-5.3909 2.5467 2.3859.0684.0641.0683-.0641 6.5057-6.09479.0779-.07298-.0779-.07298-1.0567-.98993-.0683-.06405-.0684.06405-5.3806 5.04088-2.5468-2.38592-.0683-.06405-.0684.06405-6.87927 6.44482-.0779.073.0779.073z" fill="#069" stroke="#069" stroke-width=".2"/><path d="m1 2h1.39643v20h-1.39643z" fill="#069"/><path d="m21.6016 2h1.3964v20h-1.3964z" fill="#757575"/></svg>