<?xml version="1.0" encoding="UTF-8"?>
<svg width="24px" height="24px" viewBox="0 0 24 24" version="1.1" xmlns="http://www.w3.org/2000/svg" xmlns:xlink="http://www.w3.org/1999/xlink">
    <title>Icons/IXT/24dp/ic_categorical_2_hidden</title>
    <g id="Icons/IXT/24dp/ic_categorical_2_hidden" stroke="none" stroke-width="1" fill="none" fill-rule="evenodd">
        <g id="ic_categorical_2">
            <rect id="Container" x="0" y="0" width="24" height="24"></rect>
            <path d="M2.0524531,1.58578644 L22.5857864,22.1191198 L21.1191198,23.5857864 L18.2917864,20.7577864 L18.275,20.775 C18.125,20.925 17.975,21 17.75,21 C17.5625,21 17.4270833,20.9479167 17.3003472,20.84375 L17.225,20.775 L11.225,14.775 C11.1,14.65 11.0270833,14.525 11.00625,14.3565972 L11,14.25 L10.9997864,13.4667864 L8.99978644,11.4657864 L9,12 L2,12 L2,9 L6.53378644,8.99978644 L5.53378644,7.99978644 L2,8 L1.99978644,4.46578644 L0.585786438,3.0524531 L2.0524531,1.58578644 Z M9,17 L9,20 L2,20 L2,17 L9,17 Z M16.25,9 C16.4375,9 16.5729167,9.05208333 16.6996528,9.15625 L16.775,9.225 L22.775,15.225 C23.0477273,15.4977273 23.0725207,15.8944215 22.8493802,16.1896882 L22.775,16.275 L20.878,18.1708932 L14.9716954,12.2648193 C14.9903139,12.1818917 15,12.0933673 15,12 C15,11.4 14.6,11 14,11 C13.9066327,11 13.8181083,11.0096861 13.7351807,11.0283046 L11.708,9.00189322 L11.75,9 L16.25,9 Z M9,13 L9,16 L2,16 L2,13 L9,13 Z M22,4 L22,8 L10.706,7.99989322 L6.705,3.99989322 L22,4 Z" id="Combined-Shape" fill="#454545"></path>
        </g>
    </g>
</svg>