<svg viewBox="0 0 24 24" xmlns="http://www.w3.org/2000/svg"><path d="m10.529 13.7014-7.64214 7.2986-1.38686-1.3245 9.029-8.6232 3.4323 3.2781 7.1519-6.8304 1.3868 1.32452-8.5387 8.15488z" fill="#006799" fill-rule="evenodd"/><g fill="#757575"><path d="m10.5348 9.03006.8667.82769v-3.06869h-3.89369v5.13184l2.01759-1.92685z"/><path d="m7.50781 18.6174v2.386h3.89369v-4.4491l-.8667-.8277z"/><path d="m6.37622 11.5234h-3.9231v5.2157l3.9231-3.7467z"/><path d="m6.37439 20.9995v-1.312l-1.37439 1.312z"/><path d="m13.9536 19.0006-1.0093-.964-.3505-.3347v3.2975h3.8963v-4.4213l-1.5271 1.4585z"/><path d="m17.625 21h3.9231v-5.625h-3.7871l-.136.1298z"/><path d="m16.4901 9.88596v-6.88596h-3.8963v8.0097l1.3598 1.2988z"/></g></svg>