<?xml version="1.0" encoding="UTF-8"?>
<svg width="64px" height="64px" viewBox="0 0 64 64" version="1.1" xmlns="http://www.w3.org/2000/svg" xmlns:xlink="http://www.w3.org/1999/xlink">
    <title>Icons/IXT/64dp/ic_dataset_success</title>
    <g id="Icons/IXT/64dp/ic_dataset_success" stroke="none" stroke-width="1" fill="none" fill-rule="evenodd">
        <g id="ic_dataset_success">
            <rect id="Container" x="0" y="0" width="64" height="64"></rect>
            <g id="icon_org" transform="translate(13.000000, 8.000000)"></g>
            <path d="M42.4142136,7 L52,16.5857864 L52.0006955,43.0550057 C56.5003111,43.5527662 60,47.367685 60,52 C59.9945439,56.968301 55.968301,60.9945439 51,61 C47.8801057,61 45.1309913,59.4125026 43.5163591,57.00121 L12,57 L12,7 L42.4142136,7 Z M55.2834732,47.6666667 L49.5220672,54.3647959 L46.5916759,51.7366688 L45.6666667,52.7608618 L49.6500126,56.3333333 L56.3333333,48.5633991 L55.2834732,47.6666667 Z M41,9 L14,9 L14,55 L42.5123214,55.000578 C42.1805368,54.0620779 42,53.0521223 42,52 C42,47.3673423 45.5002068,43.5522017 50.0003032,43.0548953 L50,18 L41,18 L41,9 Z M43,10.415 L43,16 L48.586,16 L43,10.415 Z M23,36 L23,42 L17,42 L17,36 L23,36 Z M21,38 L19,38 L19,40 L21,40 L21,38 Z M47,32 L47,42 L41,42 L41,32 L47,32 Z M45,34 L43,34 L43,40 L45,40 L45,34 Z M39,22 L39,42 L33,42 L33,22 L39,22 Z M37,24 L35,24 L35,40 L37,40 L37,24 Z M31,28 L31,42 L25,42 L25,28 L31,28 Z M29,30 L27,30 L27,40 L29,40 L29,30 Z" id="ic_dataset" fill="#757575"></path>
        </g>
    </g>
</svg>