<svg width="24" height="24" viewBox="0 0 24 24" fill="none" xmlns="http://www.w3.org/2000/svg">
<path d="M7.2915 4C6.83826 4.00005 6.39521 4.13449 6.01837 4.38633C5.64153 4.63817 5.34783 4.9961 5.1744 5.41485C5.00098 5.8336 4.95561 6.29438 5.04405 6.73891C5.13248 7.18344 5.35075 7.59177 5.67124 7.91226C5.99173 8.23275 6.40006 8.45102 6.84459 8.53945C7.28912 8.62789 7.7499 8.58252 8.16865 8.4091C8.5874 8.23567 8.94533 7.94197 9.19717 7.56513C9.44901 7.1883 9.58345 6.74524 9.5835 6.292C9.58288 5.68431 9.3412 5.10169 8.91151 4.672C8.48181 4.2423 7.89919 4.00062 7.2915 4ZM7.2915 7.83349C6.98657 7.83344 6.68851 7.74297 6.43499 7.57352C6.18148 7.40407 5.98391 7.16325 5.86726 6.88151C5.75062 6.59977 5.72014 6.28978 5.77967 5.99071C5.83921 5.69165 5.98609 5.41696 6.20175 5.20138C6.4174 4.9858 6.69214 4.83901 6.99122 4.77957C7.2903 4.72013 7.60029 4.75071 7.88198 4.86744C8.16368 4.98418 8.40444 5.18183 8.57381 5.4354C8.74318 5.68896 8.83355 5.98706 8.8335 6.29199C8.83308 6.70078 8.67047 7.0927 8.38137 7.38171C8.09226 7.67072 7.70029 7.83321 7.2915 7.8335V7.83349Z" fill="#1F2937"/>
<path d="M7.2915 10C6.83824 10 6.39516 10.1345 6.01831 10.3864C5.64147 10.6382 5.34777 10.9962 5.17435 11.415C5.00094 11.8337 4.95561 12.2945 5.04409 12.7391C5.13256 13.1836 5.35087 13.592 5.67142 13.9124C5.99196 14.2329 6.40033 14.4511 6.8449 14.5395C7.28946 14.6279 7.75025 14.5825 8.169 14.409C8.58774 14.2355 8.94563 13.9417 9.19741 13.5648C9.44919 13.1879 9.58355 12.7448 9.5835 12.2915C9.58286 11.6839 9.34116 11.1013 8.91145 10.6717C8.48174 10.2421 7.89913 10.0005 7.2915 10ZM7.2915 13.8335C6.98659 13.8334 6.68855 13.743 6.43504 13.5736C6.18154 13.4041 5.98397 13.1633 5.86731 12.8816C5.75065 12.5999 5.72014 12.2899 5.77964 11.9909C5.83913 11.6919 5.98597 11.4172 6.20157 11.2016C6.41717 10.986 6.69186 10.8391 6.99091 10.7796C7.28996 10.7201 7.59993 10.7506 7.88164 10.8673C8.16335 10.984 8.40414 11.1815 8.57357 11.435C8.74299 11.6885 8.83345 11.9866 8.8335 12.2915C8.8331 12.7003 8.67051 13.0923 8.38142 13.3814C8.09232 13.6705 7.70034 13.8331 7.2915 13.8335V13.8335Z" fill="#1F2937"/>
<path d="M7.292 16C6.83869 16 6.39555 16.1344 6.01863 16.3863C5.64172 16.6381 5.34795 16.9961 5.17447 17.4149C5.00099 17.8337 4.9556 18.2945 5.04404 18.7391C5.13248 19.1838 5.35077 19.5921 5.67131 19.9127C5.99185 20.2332 6.40025 20.4515 6.84485 20.54C7.28946 20.6284 7.7503 20.583 8.16911 20.4095C8.58792 20.2361 8.94588 19.9423 9.19773 19.5654C9.44958 19.1884 9.584 18.7453 9.584 18.292C9.58338 17.6843 9.3417 17.1017 8.91201 16.672C8.48231 16.2423 7.89969 16.0006 7.292 16ZM7.292 19.834C6.98702 19.834 6.68889 19.7436 6.43531 19.5741C6.18173 19.4047 5.98409 19.1639 5.86738 18.8821C5.75067 18.6003 5.72013 18.2903 5.77963 17.9912C5.83913 17.6921 5.98599 17.4173 6.20164 17.2016C6.41729 16.986 6.69205 16.8391 6.99117 16.7796C7.29029 16.7201 7.60034 16.7507 7.8821 16.8674C8.16386 16.9841 8.40469 17.1817 8.57413 17.4353C8.74356 17.6889 8.834 17.987 8.834 18.292C8.8336 18.7008 8.67101 19.0928 8.38192 19.3819C8.09282 19.671 7.70084 19.8336 7.292 19.834Z" fill="#1F2937"/>
<path d="M16.2295 8.5835C16.6828 8.58345 17.1258 8.449 17.5027 8.19713C17.8795 7.94527 18.1732 7.58732 18.3466 7.16853C18.5201 6.74975 18.5654 6.28895 18.4769 5.84441C18.3884 5.39986 18.1701 4.99153 17.8496 4.67106C17.529 4.35059 17.1207 4.13237 16.6761 4.04399C16.2315 3.95561 15.7707 4.00104 15.352 4.17455C14.9333 4.34805 14.5754 4.64183 14.3236 5.01873C14.0718 5.39563 13.9375 5.83874 13.9375 6.292C13.9381 6.89963 14.1798 7.48219 14.6095 7.91181C15.0393 8.34142 15.6219 8.58299 16.2295 8.5835ZM16.2295 4.75001C16.5344 4.75006 16.8325 4.84052 17.086 5.00995C17.3395 5.17938 17.537 5.42017 17.6537 5.70187C17.7703 5.98358 17.8009 6.29356 17.7414 6.5926C17.6819 6.89165 17.535 7.16634 17.3194 7.38194C17.1038 7.59755 16.8291 7.74438 16.5301 7.80387C16.231 7.86337 15.9211 7.83286 15.6394 7.7162C15.3577 7.59954 15.1169 7.40197 14.9474 7.14847C14.778 6.89497 14.6875 6.59692 14.6875 6.29201C14.6879 5.88317 14.8505 5.49119 15.1396 5.20209C15.4287 4.91299 15.8207 4.7504 16.2295 4.75V4.75001Z" fill="#1F2937"/>
<path d="M16.2295 10C15.7762 9.99995 15.3331 10.1343 14.9562 10.3861C14.5793 10.6379 14.2855 10.9958 14.112 11.4146C13.9385 11.8334 13.8931 12.2942 13.9815 12.7388C14.0699 13.1834 14.2882 13.5917 14.6087 13.9123C14.9293 14.2328 15.3376 14.4511 15.7822 14.5395C16.2268 14.6279 16.6876 14.5825 17.1064 14.409C17.5252 14.2355 17.8831 13.9417 18.1349 13.5648C18.3867 13.1879 18.521 12.7448 18.521 12.2915C18.5202 11.684 18.2786 11.1016 17.849 10.672C17.4194 10.2424 16.837 10.0008 16.2295 10ZM16.2295 13.8335C15.9246 13.8335 15.6265 13.7432 15.3729 13.5738C15.1193 13.4044 14.9217 13.1637 14.805 12.882C14.6882 12.6003 14.6576 12.2903 14.7171 11.9912C14.7765 11.6921 14.9233 11.4174 15.1389 11.2017C15.3545 10.9861 15.6292 10.8392 15.9282 10.7797C16.2273 10.7201 16.5373 10.7506 16.819 10.8673C17.1008 10.9839 17.3416 11.1815 17.511 11.435C17.6805 11.6885 17.771 11.9866 17.771 12.2915C17.7705 12.7002 17.6079 13.0921 17.319 13.3811C17.03 13.6702 16.6382 13.8329 16.2295 13.8335V13.8335Z" fill="#1F2937"/>
<path d="M16.23 16C15.7767 15.9999 15.3335 16.1342 14.9565 16.386C14.5795 16.6378 14.2857 16.9957 14.1121 17.4145C13.9386 17.8333 13.8931 18.2942 13.9815 18.7388C14.0699 19.1835 14.2881 19.5919 14.6086 19.9125C14.9292 20.2331 15.3376 20.4514 15.7822 20.5399C16.2268 20.6284 16.6877 20.583 17.1065 20.4096C17.5253 20.2361 17.8833 19.9423 18.1352 19.5654C18.3871 19.1885 18.5215 18.7453 18.5215 18.292C18.5208 17.6844 18.2791 17.102 17.8496 16.6723C17.42 16.2426 16.8376 16.0009 16.23 16ZM16.23 19.834C15.925 19.8341 15.6268 19.7437 15.3732 19.5744C15.1195 19.405 14.9218 19.1642 14.805 18.8824C14.6882 18.6007 14.6576 18.2906 14.7171 17.9915C14.7765 17.6923 14.9233 17.4175 15.139 17.2018C15.3546 16.9861 15.6294 16.8392 15.9285 16.7797C16.2276 16.7201 16.5377 16.7506 16.8195 16.8673C17.1013 16.984 17.3421 17.1817 17.5116 17.4353C17.6811 17.6889 17.7715 17.987 17.7715 18.292C17.771 18.7007 17.6084 19.0926 17.3195 19.3816C17.0305 19.6707 16.6387 19.8334 16.23 19.834Z" fill="#1F2937"/>
</svg>
