<svg width="24" height="24" viewBox="0 0 24 24" fill="none" xmlns="http://www.w3.org/2000/svg">
<path d="M20 5V19H4V5H5V18H19V5H20ZM17.9482 11.2095L14.9614 13.4976L14.8657 13.4375C14.2344 13.0395 12.5278 11.9658 12.4268 11.9062L12.1938 11.7695L11.9644 11.9126C11.8325 11.9946 11.1797 12.4961 9.66895 13.6641C9.42188 13.8559 9.20362 14.0244 9.05225 14.1416L7.84668 13.3901L5.31494 14.9702L5.77344 15.8281L7.84668 14.5352L9.07568 15.3013L9.31494 15.1533C9.35107 15.1299 9.92187 14.6899 10.2368 14.4463C10.855 13.9683 11.7871 13.2476 12.2202 12.9209C12.5327 13.1162 13.0855 13.4639 13.5942 13.7842L15.0127 14.6748L18.48 12.02L17.9482 11.2095ZM13.083 7.01221L13.0288 6.99756L9.38526 9.33545L5.81006 7.0415L5.31006 7.8623L9.38526 10.477L13.1807 8.0415L18.0942 9.41748L18.2163 9.45117L18.4639 8.51904L13.083 7.01221Z" fill="#1F2937"/>
</svg>
