<svg width="24" height="24" viewBox="0 0 24 24" fill="none" xmlns="http://www.w3.org/2000/svg">
<path fill-rule="evenodd" clip-rule="evenodd" d="M16.388 11.019C16.1362 11.3959 16.0018 11.8391 16.0019 12.2925C16.0028 12.9 16.2446 13.4824 16.6742 13.912C17.1039 14.3416 17.6864 14.5832 18.2939 14.584C18.7473 14.584 19.1904 14.4495 19.5674 14.1977C19.9443 13.9458 20.2381 13.5878 20.4115 13.169C20.585 12.7501 20.6303 12.2893 20.5419 11.8446C20.4534 11.4 20.235 10.9916 19.9144 10.6711C19.5939 10.3506 19.1854 10.1323 18.7408 10.0439C18.2961 9.95564 17.8353 10.001 17.4165 10.1746C16.9977 10.3481 16.6398 10.642 16.388 11.019ZM19.5763 11.4356C19.7457 11.6893 19.836 11.9875 19.8359 12.2925L19.8359 12.2925C19.8354 12.7012 19.6727 13.093 19.3836 13.382C19.0946 13.671 18.7027 13.8335 18.2939 13.834C17.9889 13.834 17.6908 13.7435 17.4372 13.5741C17.1836 13.4046 16.986 13.1637 16.8693 12.8819C16.7526 12.6002 16.7221 12.2901 16.7816 11.991C16.8411 11.6918 16.988 11.4171 17.2037 11.2014C17.4195 10.9858 17.6943 10.839 17.9934 10.7795C18.2926 10.7201 18.6026 10.7507 18.8844 10.8675C19.1661 10.9843 19.4069 11.182 19.5763 11.4356Z" fill="#1F2937"/>
<path fill-rule="evenodd" clip-rule="evenodd" d="M10.388 11.019C10.1362 11.3959 10.0019 11.8391 10.002 12.2925C10.0028 12.9 10.2446 13.4824 10.6743 13.912C11.1039 14.3416 11.6864 14.5832 12.294 14.584C12.7473 14.584 13.1905 14.4495 13.5674 14.1977C13.9443 13.9458 14.2381 13.5878 14.4115 13.169C14.585 12.7501 14.6304 12.2893 14.5419 11.8446C14.4534 11.4 14.2351 10.9916 13.9145 10.6711C13.5939 10.3506 13.1855 10.1323 12.7408 10.0439C12.2962 9.95564 11.8353 10.001 11.4165 10.1746C10.9977 10.3481 10.6398 10.642 10.388 11.019ZM13.5763 11.4356C13.7457 11.6893 13.8361 11.9875 13.836 12.2925C13.8354 12.7012 13.6727 13.093 13.3837 13.382C13.0946 13.671 12.7027 13.8335 12.294 13.834C11.989 13.834 11.6908 13.7435 11.4372 13.5741C11.1836 13.4046 10.986 13.1637 10.8693 12.8819C10.7526 12.6002 10.7221 12.2901 10.7816 11.991C10.8412 11.6918 10.9881 11.4171 11.2038 11.2014C11.4195 10.9858 11.6943 10.839 11.9934 10.7795C12.2926 10.7201 12.6027 10.7507 12.8844 10.8675C13.1662 10.9843 13.407 11.182 13.5763 11.4356Z" fill="#1F2937"/>
<path fill-rule="evenodd" clip-rule="evenodd" d="M4.38915 11.0184C4.13735 11.3952 4.00285 11.8383 4.00285 12.2915C4.00355 12.899 4.24515 13.4814 4.67455 13.911C5.10405 14.3406 5.68645 14.5823 6.29395 14.5831C6.74715 14.5832 7.19025 14.4489 7.56715 14.1971C7.94405 13.9454 8.23785 13.5875 8.41135 13.1688C8.58485 12.7501 8.63035 12.2894 8.54195 11.8448C8.45355 11.4003 8.23535 10.9919 7.91495 10.6714C7.59445 10.3509 7.18615 10.1326 6.74165 10.0441C6.29715 9.95559 5.83635 10.001 5.41765 10.1744C4.99885 10.3478 4.64095 10.6416 4.38915 11.0184ZM7.57615 11.4352C7.74555 11.6887 7.83585 11.9867 7.83585 12.2915L7.83595 12.2915C7.83535 12.7003 7.67265 13.0921 7.38365 13.3811C7.09455 13.6701 6.70265 13.8326 6.29395 13.8331C5.98905 13.833 5.69105 13.7425 5.43765 13.573C5.18415 13.4036 4.98665 13.1628 4.87005 12.8811C4.75345 12.5994 4.72305 12.2895 4.78255 11.9905C4.84205 11.6915 4.98895 11.4169 5.20455 11.2014C5.42015 10.9858 5.69485 10.8391 5.99385 10.7796C6.29285 10.7202 6.60275 10.7507 6.88445 10.8674C7.16605 10.9841 7.40675 11.1817 7.57615 11.4352Z" fill="#1F2937"/>
</svg>
