<?xml version="1.0" encoding="UTF-8"?>
<svg width="24px" height="24px" viewBox="0 0 24 24" version="1.1" xmlns="http://www.w3.org/2000/svg" xmlns:xlink="http://www.w3.org/1999/xlink">
    <title>Icons/24dp/ic_dragndrop2</title>
    <g id="Icons/24dp/ic_dragndrop2" stroke="none" stroke-width="1" fill="none" fill-rule="evenodd">
        <g id="Icon">
            <rect id="Container" x="0" y="0" width="24" height="24"></rect>
            <path d="M8,6 L11,6 L11,9 L8,9 L8,6 Z M13,6 L16,6 L16,9 L13,9 L13,6 Z M8,11 L11,11 L11,14 L8,14 L8,11 Z M13,11 L16,11 L16,14 L13,14 L13,11 Z M8,16 L11,16 L11,19 L8,19 L8,16 Z M13,16 L16,16 L16,19 L13,19 L13,16 Z" fill="#454545"></path>
        </g>
    </g>
</svg>