<svg width="24" height="24" viewBox="0 0 24 24" fill="none" xmlns="http://www.w3.org/2000/svg">
<path d="M19.1833 5.58025C18.7156 5.11362 18.0819 4.85156 17.4212 4.85156C16.7605 4.85156 16.1268 5.11362 15.6591 5.58025L13.5731 7.66625L12.7348 6.82793L10.6525 8.91012L11.8593 10.1169L6.56232 15.4144L5.22656 18.5357L6.27479 19.5842L9.2249 18.2861L14.6466 12.9042L15.8104 14.068L17.8927 11.9858L17.0974 11.1904L19.1834 9.10444C19.65 8.63671 19.912 8.00301 19.912 7.34234C19.912 6.68166 19.65 6.04796 19.1833 5.58025ZM8.82672 17.5704L5.98365 18.8212L7.19574 15.9341L12.4359 10.6934L14.0701 12.3276L8.82672 17.5704ZM15.8104 12.9148L11.8057 8.91012L12.7348 7.98102L16.7395 11.9857L15.8104 12.9148ZM18.6068 8.52783L16.5208 10.6138L14.1497 8.24276L16.2357 6.15676C16.5503 5.84335 16.9765 5.66759 17.4206 5.66802C17.8646 5.66846 18.2904 5.84507 18.6044 6.15909C18.9185 6.47311 19.0951 6.89889 19.0955 7.34298C19.096 7.78707 18.9202 8.2132 18.6068 8.52784L18.6068 8.52783Z" fill="#1F2937"/>
</svg>
