<svg width="24" height="24" viewBox="0 0 24 24" fill="none" xmlns="http://www.w3.org/2000/svg">
<path fill-rule="evenodd" clip-rule="evenodd" d="M12 11L22 13.7272L18.5774 15.4385L21.3202 18.1814L19.1814 20.3202L16.4385 17.5774L14.7272 21L12 11ZM13.4101 12.4101L15.0004 18.2412L16.1675 15.907L19.1814 18.9209L19.9209 18.1814L16.907 15.1675L19.2412 14.0004L13.4101 12.4101ZM4 4.77778V3H5.77778V3.94118H4.94118V4.77778H4ZM11.1111 3H7.55556V3.94118H11.1111V3ZM12.8889 3V3.94118H16.4444V3H12.8889ZM18.2222 3V3.94118H19.0588V4.77778H20V3H18.2222ZM20 6.55556H19.0588V10.1111H20V6.55556ZM11.1111 19V18.0588H7.55556V19H11.1111ZM5.77778 19V18.0588H4.94118V17.2222H4V19H5.77778ZM4 15.4444H4.94118V11.8889H4V15.4444ZM4 10.1111H4.94118V6.55556H4V10.1111Z" fill="#1F2937"/>
</svg>
