<svg width="24" height="24" viewBox="0 0 24 24" fill="none" xmlns="http://www.w3.org/2000/svg">
<path d="M4.33707 20C4.20353 20 4.08938 19.9972 4 19.9941L4.01472 19.2131C4.25502 19.2131 4.75299 18.3837 4.75509 17.8703C4.78024 17.6708 4.79498 17.4703 4.79924 17.2694C4.83604 16.3251 4.88127 15.1522 7.02875 14.2064L17.5507 4L20 6.38089L9.5597 16.5095C9.59115 16.8909 9.53978 17.2745 9.40883 17.6356C9.27784 17.9967 9.07023 18.3273 8.79931 18.606C7.59984 19.8444 5.37452 20 4.33707 20ZM7.17602 15.0032C6.68209 15.1539 6.25665 15.4641 5.97093 15.8821C5.68521 16.2999 5.55653 16.8 5.60642 17.2986C5.6019 17.5091 5.58592 17.7194 5.55856 17.9283C5.52625 18.3754 5.3811 18.808 5.1358 19.1882C6.26333 19.1715 7.34995 18.7769 8.21034 18.0718C8.40836 17.8675 8.55908 17.6248 8.65247 17.3597C8.74586 17.0947 8.77977 16.8134 8.75192 16.5347L7.17602 15.0032ZM7.83225 14.5335L9.14262 15.8071L18.8599 6.38042L17.5496 5.10679L7.83225 14.5335Z" fill="#1F2937"/>
</svg>
