<?xml version="1.0" encoding="UTF-8"?>
<svg width="24px" height="24px" viewBox="0 0 24 24" version="1.1" xmlns="http://www.w3.org/2000/svg" xmlns:xlink="http://www.w3.org/1999/xlink">
    <title>Icons/IXT/24dp/ic_formatting</title>
    <g id="Icons/IXT/24dp/ic_formatting" stroke="none" stroke-width="1" fill="none" fill-rule="evenodd">
        <g id="ic_color">
            <rect id="Container" x="0" y="0" width="24" height="24"></rect>
            <g id="Icon" fill="#454545">
                <g id="opacity" transform="translate(0.000000, 20.000000)">
                    <polygon id="Opacity" points="0 0 24 0 24 4 0 4"></polygon>
                </g>
                <path d="M16.56,8.94 L7.62,0 L6.21,1.41 L8.59,3.79 L3.44,8.94 C2.85,9.53 2.85,10.48 3.44,11.06 L8.94,16.56 C9.23,16.85 9.62,17 10,17 C10.38,17 10.77,16.85 11.06,16.56 L16.56,11.06 C17.15,10.48 17.15,9.53 16.56,8.94 L16.56,8.94 Z M5.21,10 L10,5.21 L14.79,10 L5.21,10 Z M19,11.5 C19,11.5 17,13.67 17,15 C17,16.1 17.9,17 19,17 C20.1,17 21,16.1 21,15 C21,13.67 19,11.5 19,11.5 Z"></path>
            </g>
        </g>
    </g>
</svg>