<svg width="24" height="24" viewBox="0 0 24 24" fill="none" xmlns="http://www.w3.org/2000/svg">
<path fill-rule="evenodd" clip-rule="evenodd" d="M9.15477 4V4.01709L5.0235 9.70312H5V20.5835H18.519V4H9.15477ZM9.15796 5.28906V9.6997H5.95312L9.15796 5.28906ZM5.74998 19.8335H17.769V4.75H9.90472V10.4531H5.74998V19.8335Z" fill="#1F2937"/>
<path d="M6.80469 15.5766L9.69767 17.3656V16.4406L7.48369 15.2456L9.69767 14.0276V13.1016L6.80469 14.8866V15.5766Z" fill="#1F2937"/>
<path d="M13.0069 11.4141H12.4479L10.2969 18.8791H10.8599L13.0069 11.4141Z" fill="#1F2937"/>
<path d="M16.7163 14.8778L13.6953 13.0938V13.9908L16.0333 15.2137L13.6953 16.4508V17.3577L16.7163 15.5677V14.8778Z" fill="#1F2937"/>
</svg>
