<svg width="24" height="24" viewBox="0 0 24 24" fill="none" xmlns="http://www.w3.org/2000/svg">
<path d="M12.907 19.5H9.9118C9.71 19.5 9.54006 19.3346 9.54006 19.1382V12.2429H8.37174C8.16994 12.2429 8 12.0775 8 11.8811V9.49311C8 9.29669 8.16994 9.13129 8.37174 9.13129H9.54006V8.01482C9.54006 5.6785 10.8146 4.5 13.3424 4.5C14.2452 4.5 14.925 4.63439 15.7003 4.78946C15.8915 4.83081 16.0189 5.00655 15.9977 5.20296L15.626 7.48759C15.6153 7.58063 15.5516 7.67367 15.4666 7.72536C15.3817 7.77705 15.2861 7.80806 15.1799 7.78739C14.7869 7.71502 14.2452 7.653 13.9266 7.653C13.2787 7.653 13.2787 7.76671 13.2787 8.34562V9.13129H15.2967C15.4029 9.13129 15.4985 9.17264 15.5728 9.245C15.6472 9.31737 15.6791 9.42074 15.6684 9.52412L15.456 11.9121C15.4348 12.0982 15.2755 12.2429 15.0843 12.2429H13.2787V19.1382C13.2787 19.3346 13.1088 19.5 12.907 19.5ZM10.2835 18.7764H12.5352V11.8811C12.5352 11.6847 12.7051 11.5193 12.907 11.5193H14.7444L14.8931 9.85493H12.907C12.7051 9.85493 12.5352 9.68953 12.5352 9.49311V8.33529C12.5352 7.653 12.6414 6.91902 13.9266 6.91902C14.1921 6.91902 14.5851 6.95003 14.9462 7.00172L15.2011 5.42006C14.5851 5.296 14.0434 5.2133 13.3424 5.2133C11.2288 5.22364 10.2835 6.08167 10.2835 8.01482V9.49311C10.2835 9.68953 10.1136 9.85493 9.9118 9.85493H8.74348V11.5193H9.9118C10.1136 11.5193 10.2835 11.6847 10.2835 11.8811V18.7764Z" fill="#1F2937"/>
</svg>
