<svg width="24" height="24" viewBox="0 0 24 24" fill="none" xmlns="http://www.w3.org/2000/svg">
<path d="M4.70312 15.8452L18.416 7.8125L18.7952 8.4598L5.0823 16.4925L4.70312 15.8452Z" fill="#1F2937"/>
<path d="M9.44531 12.1959L10.2854 11.7037C10.3893 11.4012 10.5848 11.1385 10.8448 10.9522C11.1048 10.7659 11.4164 10.6652 11.7362 10.6641C11.8288 10.6652 11.9211 10.6745 12.0121 10.6919L12.8374 10.2085C12.5014 10.0181 12.1224 9.91676 11.7362 9.91406C11.1305 9.91476 10.5496 10.1552 10.1204 10.5827C9.69111 11.0102 9.44851 11.5901 9.44531 12.1959Z" fill="#1F2937"/>
<path d="M11.7336 13.7485C11.6011 13.7467 11.4694 13.7277 11.3419 13.6919L10.5469 14.1577C10.9034 14.3788 11.3142 14.4967 11.7336 14.4985C12.3412 14.4978 12.9237 14.256 13.3533 13.8263C13.7829 13.3966 14.0245 12.8141 14.0251 12.2065C14.0251 12.1787 14.0179 12.1528 14.0169 12.125L13.2206 12.5913C13.1359 12.9216 12.9439 13.2144 12.6748 13.4239C12.4057 13.6333 12.0746 13.7475 11.7336 13.7485Z" fill="#1F2937"/>
<path d="M19.4085 12.1479C19.0552 11.2964 18.5625 10.5097 17.9505 9.82031L17.2908 10.2065C17.8576 10.8207 18.3185 11.5248 18.6546 12.29C18.0661 13.6536 17.0874 14.8126 15.8416 15.621C16.4122 14.9208 16.793 14.0855 16.9473 13.1956C17.1016 12.3056 17.0243 11.3909 16.7228 10.5395L16.0454 10.936C16.191 11.3728 16.2683 11.8295 16.2747 12.29C16.2733 13.4938 15.7946 14.6479 14.9435 15.4992C14.0925 16.3506 12.9385 16.8297 11.7347 16.8315H11.7332C11.1144 16.8304 10.5024 16.7023 9.93509 16.455C9.36781 16.2078 8.85736 15.8466 8.43537 15.394L7.10156 16.1753C8.47084 17.0946 10.0834 17.5842 11.7327 17.5815H11.7346C13.3811 17.585 14.9912 17.0968 16.3584 16.1793C17.7256 15.2619 18.7877 13.9571 19.4085 12.4321L19.4666 12.29L19.4085 12.1479Z" fill="#1F2937"/>
<path d="M6.01157 14.2085C5.5179 13.6334 5.11353 12.9874 4.81201 12.292C5.40082 10.9281 6.37988 9.76881 7.62601 8.96002C7.07614 9.62628 6.7018 10.4196 6.53714 11.2676C6.37248 12.1156 6.42274 12.9914 6.68332 13.815L7.35232 13.4234C7.25102 13.0546 7.19727 12.6744 7.19238 12.292C7.19376 11.0878 7.67274 9.93331 8.52423 9.08187C9.37571 8.23038 10.5302 7.7514 11.7344 7.75002H11.7358C12.9052 7.75207 14.0282 8.20728 14.869 9.02002L16.1384 8.27636C14.8204 7.44474 13.2943 7.00231 11.7358 7.00002H11.7339C10.087 6.99616 8.47652 7.48431 7.10893 8.40186C5.74134 9.31942 4.67899 10.6245 4.05811 12.1499L4 12.292L4.05811 12.4341C4.37864 13.2153 4.81613 13.9432 5.35557 14.5928L6.01157 14.2085Z" fill="#1F2937"/>
</svg>
