<svg width="24" height="24" viewBox="0 0 24 24" fill="none" xmlns="http://www.w3.org/2000/svg">
<path d="M11.7188 9.97656H12.9599V17.2374H11.7188V9.97656Z" fill="#1F2937"/>
<path d="M12.3491 7.32994C12.2483 7.32262 12.1471 7.33744 12.0526 7.37337C11.9581 7.4093 11.8726 7.46547 11.8022 7.53794C11.6784 7.67843 11.6125 7.86057 11.6176 8.04771C11.6116 8.23294 11.6778 8.41325 11.8022 8.55064C11.8736 8.62147 11.9594 8.67616 12.0537 8.71103C12.148 8.7459 12.2488 8.76014 12.3491 8.75278C12.4455 8.76238 12.5429 8.75101 12.6346 8.71943C12.7262 8.68786 12.81 8.63683 12.88 8.56986C12.9501 8.50288 13.0049 8.42154 13.0406 8.33142C13.0763 8.24129 13.0921 8.14451 13.0869 8.04771C13.0919 7.86006 13.0248 7.67763 12.8994 7.53794C12.828 7.46567 12.7419 7.40966 12.647 7.37376C12.552 7.33786 12.4504 7.32292 12.3491 7.32994Z" fill="#1F2937"/>
<path fill-rule="evenodd" clip-rule="evenodd" d="M7.68541 5.39709C9.049 4.48609 10.6522 3.9999 12.2921 4C14.4903 4.00273 16.5977 4.87726 18.152 6.43175C19.7063 7.98624 20.5806 10.0937 20.5831 12.292C20.583 13.9319 20.0966 15.5349 19.1854 16.8984C18.2743 18.2619 16.9792 19.3246 15.4641 19.952C13.949 20.5795 12.2819 20.7436 10.6735 20.4236C9.06505 20.1036 7.58769 19.3138 6.42817 18.1541C5.26865 16.9945 4.47905 15.517 4.15922 13.9086C3.83939 12.3002 4.00369 10.633 4.63135 9.11802C5.259 7.60298 6.32183 6.30809 7.68541 5.39709ZM8.10163 18.562C9.34186 19.3907 10.8 19.833 12.2916 19.833C14.2909 19.8308 16.2078 19.0356 17.6216 17.6219C19.0354 16.2081 19.8307 14.2913 19.8331 12.292C19.8332 10.8004 19.391 9.3423 18.5623 8.10204C17.7337 6.86178 16.5559 5.89509 15.1779 5.32421C13.7999 4.75333 12.2835 4.60391 10.8206 4.89485C9.35756 5.18578 8.01379 5.904 6.95904 6.95868C5.90429 8.01336 5.18598 9.35713 4.89495 10.82C4.60392 12.2829 4.75324 13.7993 5.32403 15.1774C5.89481 16.5554 6.86143 17.7333 8.10163 18.562Z" fill="#1F2937"/>
</svg>
