<svg width="24" height="24" viewBox="0 0 24 24" fill="none" xmlns="http://www.w3.org/2000/svg">
<path fill-rule="evenodd" clip-rule="evenodd" d="M12.2921 4C10.6522 3.9999 9.049 4.48609 7.68541 5.39709C6.32183 6.30809 5.259 7.60298 4.63135 9.11802C4.00369 10.633 3.83939 12.3002 4.15922 13.9086C4.47905 15.517 5.26865 16.9945 6.42817 18.1541C7.58769 19.3138 9.06505 20.1036 10.6735 20.4236C12.2819 20.7436 13.949 20.5795 15.4641 19.952C16.9792 19.3246 18.2743 18.2619 19.1854 16.8984C20.0966 15.5349 20.583 13.9319 20.5831 12.292C20.5806 10.0937 19.7063 7.98624 18.152 6.43175C16.5977 4.87726 14.4903 4.00273 12.2921 4ZM11.7188 9.97656H12.9599V17.2374H11.7188V9.97656ZM12.0526 7.37337C12.1471 7.33744 12.2483 7.32262 12.3491 7.32994C12.4504 7.32292 12.552 7.33786 12.647 7.37376C12.7419 7.40966 12.828 7.46567 12.8994 7.53794C13.0248 7.67763 13.0919 7.86006 13.0869 8.04771C13.0921 8.14452 13.0763 8.24129 13.0406 8.33142C13.0049 8.42155 12.9501 8.50288 12.88 8.56986C12.81 8.63683 12.7262 8.68786 12.6346 8.71943C12.5429 8.75101 12.4455 8.76238 12.3491 8.75278C12.2488 8.76014 12.148 8.7459 12.0537 8.71103C11.9594 8.67616 11.8736 8.62147 11.8022 8.55064C11.6778 8.41325 11.6116 8.23294 11.6176 8.04771C11.6125 7.86057 11.6784 7.67843 11.8022 7.53794C11.8726 7.46547 11.9581 7.4093 12.0526 7.37337Z" fill="#1F2937"/>
</svg>
