<svg width="24" height="24" viewBox="0 0 24 24" fill="none" xmlns="http://www.w3.org/2000/svg">
<path fill-rule="evenodd" clip-rule="evenodd" d="M15.416 5.80392V5.80393C16.1653 5.83809 16.537 5.95975 16.7628 6.04753C17.0652 6.16504 17.2609 6.29279 17.4848 6.51672C17.7087 6.7407 17.8365 6.93635 17.954 7.2387C18.0418 7.46456 18.1634 7.83615 18.1976 8.58557V8.58559C18.2379 9.4685 18.2466 9.7249 18.2466 12.0015C18.2466 14.2782 18.2379 14.5345 18.1976 15.4175C18.1634 16.1669 18.0418 16.5384 17.954 16.7644L18.6563 17.0373L17.954 16.7644C17.8365 17.0667 17.7088 17.2623 17.4848 17.4862V17.4863C17.2608 17.7102 17.0652 17.838 16.7628 17.9555C16.537 18.0433 16.1653 18.165 15.416 18.1991C14.5332 18.2394 14.2768 18.2481 12 18.2481C9.7232 18.2481 9.46688 18.2394 8.58407 18.1991H8.58404C7.83462 18.165 7.46302 18.0433 7.23718 17.9555H7.23717C6.93482 17.838 6.73919 17.7102 6.51525 17.4863H6.51523C6.29127 17.2623 6.1635 17.0666 6.04601 16.7644H6.046C5.95824 16.5385 5.83659 16.1669 5.80239 15.4175C5.7621 14.5345 5.75339 14.2782 5.75339 12.0015C5.75339 9.7249 5.7621 9.46849 5.80239 8.5856C5.83659 7.83614 5.95824 7.46454 6.046 7.2387L6.04601 7.23869C6.16351 6.93636 6.29127 6.74071 6.51521 6.51676L6.51522 6.51674C6.73918 6.29278 6.93482 6.16504 7.23717 6.04754L6.96426 5.3453L7.23718 6.04753C7.46303 5.95975 7.83463 5.83809 8.58405 5.80393L8.58407 5.80392C9.46698 5.76364 9.72337 5.75492 12 5.75492C14.2766 5.75492 14.533 5.76364 15.416 5.80392ZM6.96426 5.34378C6.5657 5.49868 6.28128 5.6837 5.98248 5.9825C5.68371 6.28127 5.49868 6.5657 5.34378 6.96425C5.22685 7.26513 5.08777 7.71724 5.04978 8.54972C5.0087 9.45007 5 9.72013 5 12C5 14.2798 5.0087 14.5499 5.04978 15.4502C5.08777 16.2828 5.22685 16.7348 5.34378 17.0358C5.49868 17.4342 5.68372 17.7187 5.9825 18.0175C6.28128 18.3163 6.5657 18.5014 6.96426 18.6562C7.26513 18.7732 7.71724 18.9122 8.54973 18.9502C9.44997 18.9913 9.71997 19 12 19C14.28 19 14.5501 18.9913 15.4503 18.9502C16.2828 18.9122 16.7349 18.7732 17.0358 18.6562C17.4342 18.5014 17.7187 18.3163 18.0175 18.0175C18.3163 17.7187 18.5014 17.4342 18.6563 17.0358C18.7732 16.7348 18.9122 16.2828 18.9502 15.4502C18.9913 14.5499 19 14.2798 19 12C19 9.72013 18.9913 9.45007 18.9502 8.54972C18.9122 7.71724 18.7732 7.26513 18.6563 6.96425C18.5014 6.5657 18.3163 6.28127 18.0175 5.98246C17.7187 5.6837 17.4342 5.49868 17.0358 5.34378C16.7349 5.22685 16.2828 5.08775 15.4503 5.04978C14.55 5.00871 14.2798 5 12 5C9.72014 5 9.45007 5.00871 8.54973 5.04978C7.71724 5.08775 7.26513 5.22685 6.96426 5.34378ZM16.3681 7.8017C16.3681 7.95146 16.2466 8.0729 16.0969 8.0729C15.9471 8.0729 15.8256 7.95148 15.8256 7.8017C15.8256 7.65188 15.9471 7.53046 16.0969 7.53046C16.2466 7.53046 16.3681 7.65189 16.3681 7.8017ZM16.0934 8.83069C16.6592 8.83069 17.118 8.37197 17.118 7.80609C17.118 7.2402 16.6592 6.78146 16.0934 6.78146C15.5275 6.78146 15.0688 7.2402 15.0688 7.80609C15.0688 8.37197 15.5275 8.83069 16.0934 8.83069ZM12.281 15.552C14.1049 15.552 15.5834 14.0736 15.5834 12.2498C15.5834 10.426 14.1049 8.94746 12.281 8.94746C10.4574 8.94746 8.97886 10.426 8.97886 12.2498C8.97886 14.0736 10.4573 15.552 12.281 15.552ZM16.3368 12.2498C16.3368 14.4897 14.5209 16.3054 12.281 16.3054C10.0413 16.3054 8.22546 14.4897 8.22546 12.2498C8.22546 10.0099 10.0413 8.19407 12.281 8.19407C14.5209 8.19407 16.3368 10.0099 16.3368 12.2498Z" fill="#1F2937"/>
</svg>
