<svg width="24" height="24" viewBox="0 0 24 24" fill="none" xmlns="http://www.w3.org/2000/svg">
<path fill-rule="evenodd" clip-rule="evenodd" d="M6.10493 5.47197C6.48191 5.22018 6.92509 5.08584 7.37843 5.08594C7.98599 5.0868 8.56842 5.32857 8.99799 5.75823C9.42753 6.18789 9.66923 6.77037 9.66993 7.37794C9.66993 7.83127 9.53553 8.27443 9.28363 8.65136C9.03176 9.02828 8.67377 9.32207 8.25493 9.49547C7.8361 9.66897 7.37523 9.71437 6.93061 9.62587C6.48599 9.53737 6.0776 9.31907 5.75707 8.99845C5.43655 8.67786 5.2183 8.26942 5.12992 7.82478C5.04153 7.38015 5.08699 6.91929 5.26055 6.50049C5.4341 6.08169 5.72794 5.72376 6.10493 5.47197ZM6.5216 8.6603C6.77525 8.82968 7.07343 8.92004 7.37843 8.91994V8.91992C7.78717 8.91936 8.17901 8.75671 8.46799 8.46764C8.75697 8.17857 8.9195 7.78668 8.91994 7.37794C8.91994 7.07294 8.82949 6.77479 8.66003 6.5212C8.49057 6.26761 8.24971 6.06996 7.96792 5.95327C7.68613 5.83657 7.37606 5.80606 7.07693 5.8656C6.77779 5.92514 6.50304 6.07205 6.2874 6.28775C6.07177 6.50345 5.92495 6.77826 5.86551 7.07741C5.80606 7.37656 5.83667 7.68662 5.95345 7.96838C6.07024 8.25013 6.26796 8.49092 6.5216 8.6603Z" fill="#1F2937"/>
<path fill-rule="evenodd" clip-rule="evenodd" d="M4 4V19.1992H19.0508V4H4ZM18.3008 18.4492H4.75V14.3593L6.90576 12.2041L9.19381 14.4912L14.7324 8.95313L18.3008 12.5215V18.4492ZM9.19381 13.4306L14.7324 7.89258L18.3008 11.4609V4.75H4.75V13.2988L6.90576 11.1435L9.19381 13.4306Z" fill="#1F2937"/>
</svg>
