<svg width="24" height="24" viewBox="0 0 24 24" fill="none" xmlns="http://www.w3.org/2000/svg">
<path fill-rule="evenodd" clip-rule="evenodd" d="M4 12C4 7.58172 7.58172 4 12 4C16.4162 4.00496 19.995 7.58378 20 12C20 16.4183 16.4183 20 12 20C7.58172 20 4 16.4183 4 12ZM6 12C6 15.3137 8.68629 18 12 18C15.3123 17.9967 17.9967 15.3123 18 12C18 8.68629 15.3137 6 12 6C8.68629 6 6 8.68629 6 12Z" fill="#1F2937"/>
<path d="M12.214 10.0003C12.5018 9.99181 12.7875 10.0525 13.047 10.1773L13.939 10.6303L14.839 8.84629L13.948 8.39429C13.4092 8.12788 12.815 7.99286 12.214 8.00029C9.923 8.00029 8.5 9.53229 8.5 12.0003C8.5 14.4683 9.923 16.0003 12.214 16.0003C12.8167 16.0085 13.4127 15.8735 13.953 15.6063L14.844 15.1543L13.944 13.3703L13.052 13.8233C12.791 13.9489 12.5035 14.0096 12.214 14.0003C11.7 14.0003 10.5 14.0003 10.5 12.0003C10.5 10.0003 11.7 10.0003 12.214 10.0003Z" fill="#1F2937"/>
</svg>
