<?xml version="1.0" encoding="UTF-8"?>
<svg width="24px" height="24px" viewBox="0 0 24 24" version="1.1" xmlns="http://www.w3.org/2000/svg" xmlns:xlink="http://www.w3.org/1999/xlink">
    <title>Icons/IXT/24dp/ic_locations_2_hidden</title>
    <g id="Icons/IXT/24dp/ic_locations_2_hidden" stroke="none" stroke-width="1" fill="none" fill-rule="evenodd">
        <g id="ic_locations_2">
            <rect id="Container" x="0" y="0" width="24" height="24"></rect>
            <path d="M2.0524531,1.58578644 L22.5857864,22.1191198 L21.1191198,23.5857864 L17.8818717,20.3496982 C17.3577544,20.7658335 17,21 17,21 L16.9712483,20.9808455 C16.5878558,20.723089 12.4918332,17.8969498 12.0403456,14.5089275 L8.99978644,11.4657864 L9,12 L2,12 L2,9 L6.53378644,8.99978644 L5.53378644,7.99978644 L2,8 L1.99978644,4.46578644 L0.585786438,3.0524531 L2.0524531,1.58578644 Z M9,17 L9,20 L2,20 L2,17 L9,17 Z M17,9 C19.7614237,9 22,11.1978748 22,13.9090908 C22,15.3126436 21.3243617,16.6424904 20.4698104,17.7631606 L17.9563823,15.2494016 C18.3859074,14.9534097 18.6666667,14.4634415 18.6666667,13.9090908 C18.6666667,13.0053522 17.9204746,12.2727272 17,12.2727272 C16.4460107,12.2727272 15.9551509,12.5381028 15.6521006,12.9464409 L13.3069557,10.5996578 C14.2212783,9.61667073 15.53729,9 17,9 Z M9,13 L9,16 L2,16 L2,13 L9,13 Z M22,4 L22,8 L10.706,7.99989322 L6.705,3.99989322 L22,4 Z" id="Combined-Shape" fill="#454545"></path>
        </g>
    </g>
</svg>