<svg width="24" height="24" viewBox="0 0 24 24" fill="none" xmlns="http://www.w3.org/2000/svg">
<path d="M19.293 16.055L15.9512 12.7112C15.5656 12.3473 15.065 12.1293 14.5359 12.0949C14.0068 12.0605 13.4822 12.2118 13.0527 12.5228L12.2311 11.701C12.5403 11.2739 12.6917 10.7528 12.6593 10.2266C12.627 9.70037 12.413 9.2017 12.0538 8.81576L8.71247 5.47295C8.49102 5.26493 8.23042 5.10302 7.94582 4.99664C7.66123 4.89026 7.35832 4.84152 7.05471 4.85328C6.75111 4.86503 6.45288 4.93704 6.17736 5.0651C5.90184 5.19317 5.65453 5.37474 5.44983 5.59926C5.24512 5.82377 5.0871 6.08675 4.98496 6.3729C4.88281 6.65904 4.83859 6.96264 4.85485 7.26604C4.87111 7.56943 4.94754 7.86656 5.07968 8.14015C5.21182 8.41374 5.39705 8.65832 5.62458 8.85967L8.8321 12.0687C9.2188 12.4215 9.71528 12.6302 10.2379 12.6598C10.7605 12.6893 11.2774 12.5378 11.7014 12.2308L12.5229 13.0525C12.1907 13.5118 12.0415 14.0783 12.1045 14.6415C12.1674 15.2048 12.438 15.7244 12.8634 16.0989L16.0714 19.3079C16.5086 19.7047 17.082 19.9174 17.6723 19.9017C18.2625 19.886 18.8238 19.6431 19.2393 19.2236C19.6547 18.8041 19.8922 18.2404 19.9023 17.6501C19.9123 17.0597 19.694 16.4883 19.293 16.055ZM10.3716 11.9134C9.99484 11.9147 9.63079 11.777 9.34917 11.5267L6.14655 8.32159L6.12848 8.30401C5.97513 8.16939 5.85003 8.00568 5.76042 7.82236C5.6708 7.63904 5.61847 7.43975 5.60644 7.23606C5.59441 7.03236 5.62293 6.8283 5.69035 6.63571C5.75776 6.44311 5.86273 6.26582 5.99917 6.11409C6.13562 5.96236 6.30081 5.83923 6.4852 5.75182C6.66958 5.6644 6.86947 5.61446 7.0733 5.60487C7.27712 5.59528 7.48083 5.62624 7.6726 5.69596C7.86437 5.76567 8.0404 5.87276 8.19048 6.01101L11.5113 9.33327C11.7355 9.5769 11.8742 9.88694 11.9064 10.2165C11.9386 10.546 11.8626 10.877 11.6899 11.1594L11.2876 10.7571L10.7574 11.2864L11.1602 11.6892C10.9227 11.8345 10.65 11.912 10.3717 11.9134H10.3716ZM17.6109 19.1526C17.2341 19.1539 16.8701 19.0163 16.5884 18.7659L13.3853 15.5608L13.3673 15.5433C13.2018 15.3984 13.0692 15.2199 12.9783 15.0197C12.8874 14.8194 12.8404 14.602 12.8404 14.3821C12.8417 14.1039 12.9191 13.8314 13.0642 13.594L13.4664 13.9964L13.9967 13.4671L13.5938 13.0643C13.878 12.8904 14.2113 12.8144 14.5427 12.8478C14.8741 12.8812 15.1855 13.0222 15.4293 13.2493L18.7506 16.5726C18.9517 16.7935 19.0844 17.0681 19.1324 17.363C19.1804 17.6579 19.1417 17.9604 19.0209 18.2337C18.9002 18.507 18.7027 18.7394 18.4524 18.9025C18.202 19.0657 17.9097 19.1526 17.6109 19.1526H17.6109Z" fill="#1F2937"/>
</svg>
