<?xml version="1.0" encoding="UTF-8"?>
<svg width="24px" height="24px" viewBox="0 0 24 24" version="1.1" xmlns="http://www.w3.org/2000/svg" xmlns:xlink="http://www.w3.org/1999/xlink">
    <title>Icons/IXT/24dp/ic_locations_2</title>
    <g id="Icons/IXT/24dp/ic_locations_2" stroke="none" stroke-width="1" fill="none" fill-rule="evenodd">
        <g id="ic_locations_2">
            <rect id="Container" x="0" y="0" width="24" height="24"></rect>
            <path d="M17,9 C19.7614237,9 22,11.1978748 22,13.9090908 C22,17.7272727 17,21 17,21 L16.9712483,20.9808455 C16.5654321,20.7080135 12,17.5575757 12,13.9090908 C12,11.1978748 14.2385763,9 17,9 Z M9,17 L9,20 L2,20 L2,17 L9,17 Z M9,13 L9,16 L2,16 L2,13 L9,13 Z M17,12.2727272 C16.0795254,12.2727272 15.3333333,13.0053522 15.3333333,13.9090908 C15.3333333,14.8128295 16.0795254,15.5454545 17,15.5454545 C17.9204746,15.5454545 18.6666667,14.8128295 18.6666667,13.9090908 C18.6666667,13.0053522 17.9204746,12.2727272 17,12.2727272 Z M9,9 L9,12 L2,12 L2,9 L9,9 Z M22,4 L22,8 L2,8 L2,4 L22,4 Z" id="Combined-Shape" fill="#454545"></path>
        </g>
    </g>
</svg>