<svg width="24" height="24" viewBox="0 0 24 24" fill="none" xmlns="http://www.w3.org/2000/svg">
<path d="M5 7C5.55228 7 6 6.55228 6 6C6 5.44772 5.55228 5 5 5C4.44772 5 4 5.44772 4 6C4 6.55228 4.44772 7 5 7Z" fill="#1F2937"/>
<path d="M5 13C5.55228 13 6 12.5523 6 12C6 11.4477 5.55228 11 5 11C4.44772 11 4 11.4477 4 12C4 12.5523 4.44772 13 5 13Z" fill="#1F2937"/>
<path d="M5 18C5.55228 18 6 17.5523 6 17C6 16.4477 5.55228 16 5 16C4.44772 16 4 16.4477 4 17C4 17.5523 4.44772 18 5 18Z" fill="#1F2937"/>
<path d="M8 6H20V7.17575H8V6Z" fill="#1F2937"/>
<path d="M8 11.1719H20V12.3476H8V11.1719Z" fill="#1F2937"/>
<path d="M8 16.3438H20V17.5195H8V16.3438Z" fill="#1F2937"/>
</svg>
