<?xml version="1.0" encoding="UTF-8"?>
<svg width="24px" height="24px" viewBox="0 0 24 24" version="1.1" xmlns="http://www.w3.org/2000/svg" xmlns:xlink="http://www.w3.org/1999/xlink">
    <title>Icons/IXT/24dp/ic_locations_hidden</title>
    <g id="Icons/IXT/24dp/ic_locations_hidden" stroke="none" stroke-width="1" fill="none" fill-rule="evenodd">
        <g id="ic_locations_hidden">
            <rect id="Container" x="0" y="0" width="24" height="24"></rect>
            <path d="M2.0524531,1.58578644 L22.5857864,22.1191198 L21.1191198,23.5857864 L15.7092003,18.1768234 C13.9869392,19.9177982 12.3636364,21.0000001 12.3636364,21.0000001 C12.3636364,21.0000001 5,16.0909091 5,10.3636364 C5,9.49646815 5.14989604,8.66431003 5.42519102,7.89165912 L0.585786438,3.0524531 L2.0524531,1.58578644 Z M12.3636364,3.00000011 C16.4304604,3.00000011 19.7272727,6.29681234 19.7272727,10.3636364 C19.7272727,12.1402065 19.0187377,13.8380505 18.0412355,15.3350662 L14.4163535,11.7099294 C14.6703928,11.3233755 14.8181818,10.8607649 14.8181818,10.3636364 C14.8181818,9.00802834 13.7192444,7.90909091 12.3636364,7.90909091 C11.8668716,7.90909091 11.4045743,8.05666368 11.0181922,8.31036161 L7.5219422,4.81542289 C8.81637054,3.68489322 10.5100208,3.00000011 12.3636364,3.00000011 Z" id="Combined-Shape" fill="#454545"></path>
        </g>
    </g>
</svg>