<svg width="24" height="24" viewBox="0 0 24 24" fill="none" xmlns="http://www.w3.org/2000/svg">
<rect x="4.35" y="7.35" width="15.3" height="9.3" stroke="#1F2937" stroke-width="0.7"/>
<mask id="path-2-inside-1_3584_14296" fill="white">
<path fill-rule="evenodd" clip-rule="evenodd" d="M7.25781 17H2V18H22V17H16.7315V17.5H7.25781V17Z"/>
</mask>
<path fill-rule="evenodd" clip-rule="evenodd" d="M7.25781 17H2V18H22V17H16.7315V17.5H7.25781V17Z" fill="#1F2937"/>
<path d="M2 17V16H1V17H2ZM7.25781 17H8.25781V16H7.25781V17ZM2 18H1V19H2V18ZM22 18V19H23V18H22ZM22 17H23V16H22V17ZM16.7315 17V16H15.7315V17H16.7315ZM16.7315 17.5V18.5H17.7315V17.5H16.7315ZM7.25781 17.5H6.25781V18.5H7.25781V17.5ZM2 18H7.25781V16H2V18ZM3 18V17H1V18H3ZM22 17H2V19H22V17ZM21 17V18H23V17H21ZM16.7315 18H22V16H16.7315V18ZM15.7315 17V17.5H17.7315V17H15.7315ZM16.7315 16.5H7.25781V18.5H16.7315V16.5ZM8.25781 17.5V17H6.25781V17.5H8.25781Z" fill="#1F2937" mask="url(#path-2-inside-1_3584_14296)"/>
</svg>
