<svg width="24" height="24" viewBox="0 0 24 24" fill="none" xmlns="http://www.w3.org/2000/svg">
<path fill-rule="evenodd" clip-rule="evenodd" d="M4.89588 5.43896C4.89588 5.06571 5.19852 4.76306 5.57177 4.76306H17.9595C18.3328 4.76306 18.6354 5.06571 18.6354 5.43896V17.8267C18.6354 18.1999 18.3328 18.5026 17.9595 18.5026H5.57177C5.19852 18.5026 4.89588 18.1999 4.89588 17.8267V5.43896ZM5.57177 4.13281C4.85044 4.13281 4.26562 4.71763 4.26562 5.43896V17.8267C4.26562 18.548 4.85044 19.1328 5.57177 19.1328H17.9595C18.6808 19.1328 19.2657 18.548 19.2657 17.8267V5.43896C19.2657 4.71763 18.6808 4.13281 17.9595 4.13281H5.57177ZM7.46122 7.82117C7.34299 7.9419 7.26842 8.11785 7.26842 8.33428C7.26842 8.74818 7.53978 9.04701 7.96288 9.04701H7.97514C8.21094 9.04701 8.38534 8.96411 8.50126 8.84363C8.6182 8.72208 8.6906 8.54652 8.69126 8.33606C8.68578 8.11472 8.61146 7.93778 8.49735 7.81824C8.38482 7.70036 8.21685 7.62041 7.98638 7.62041C7.75398 7.62041 7.57854 7.70138 7.46122 7.82117ZM7.08021 7.44803C7.30629 7.21718 7.62315 7.08712 7.98638 7.08712C8.3497 7.08712 8.66137 7.21774 8.88309 7.45C9.10272 7.68007 9.21712 7.99178 9.22449 8.32729L9.22462 8.33315H9.22456C9.22456 8.6683 9.10822 8.98194 8.88557 9.21336C8.66135 9.44641 8.34437 9.5803 7.97514 9.5803H7.96288C7.21924 9.5803 6.73513 9.01601 6.73513 8.33428C6.73513 7.99225 6.85505 7.67795 7.08021 7.44803ZM12.874 11.4077C13.0803 11.1664 13.2394 11.0157 13.4498 10.9166C13.6622 10.8164 13.9543 10.7565 14.4441 10.7565C15.018 10.7565 15.5069 10.9393 15.8529 11.2975C16.199 11.6559 16.4318 12.2209 16.4318 13.0425V15.9052H14.9509V13.2589C14.9509 12.8471 14.8668 12.4626 14.6553 12.1743C14.4344 11.8734 14.0986 11.7103 13.6768 11.7103C13.0002 11.7103 12.6293 12.1673 12.4684 12.5636C12.4254 12.6662 12.4124 12.7741 12.4074 12.8632C12.4036 12.9318 12.404 13.0066 12.4044 13.0718L12.4047 13.1263V15.9052H10.9436L10.946 15.3595C10.948 14.8684 10.9505 14.2087 10.9521 13.5343C10.9547 12.4637 10.9553 11.3433 10.9486 10.8103H12.4047V11.2344C12.4047 11.3461 12.4742 11.4459 12.579 11.4846C12.6837 11.5232 12.8014 11.4926 12.874 11.4077ZM10.4867 16.3599C10.4367 16.3096 10.4087 16.2415 10.4091 16.1705L10.4127 15.3573C10.4148 14.8664 10.4172 14.207 10.4188 13.533C10.4221 12.1775 10.4219 10.7828 10.4095 10.5584C10.4054 10.4852 10.4317 10.4136 10.482 10.3604C10.5324 10.3071 10.6025 10.277 10.6757 10.277H12.6713C12.8186 10.277 12.938 10.3964 12.938 10.5436V10.604C13.0246 10.5403 13.1182 10.4832 13.2224 10.4341C13.5357 10.2865 13.917 10.2232 14.4441 10.2232C15.1326 10.2232 15.7709 10.4449 16.2365 10.927C16.7019 11.4089 16.9651 12.1202 16.9651 13.0425V16.1719C16.9651 16.3191 16.8457 16.4385 16.6985 16.4385H14.6843C14.537 16.4385 14.4176 16.3191 14.4176 16.1719V13.2589C14.4176 12.9086 14.3444 12.6521 14.2253 12.4898C14.1156 12.3403 13.9477 12.2435 13.6768 12.2435C13.294 12.2435 13.0747 12.487 12.9621 12.7655L12.9603 12.7698C12.9522 12.7888 12.9436 12.8254 12.9398 12.893C12.937 12.9434 12.9373 12.9946 12.9377 13.0555V13.0556V13.0556V13.0557L12.938 13.1263V16.1719C12.938 16.3191 12.8186 16.4385 12.6713 16.4385H10.6757C10.6048 16.4385 10.5367 16.4102 10.4867 16.3599ZM7.06995 10.2763C6.92268 10.2763 6.8033 10.3956 6.8033 10.5429V16.1709C6.8033 16.3182 6.92268 16.4376 7.06995 16.4376H8.8458C8.99307 16.4376 9.11245 16.3182 9.11245 16.1709V10.5429C9.11245 10.3956 8.99307 10.2763 8.8458 10.2763H7.06995ZM7.33659 15.9043V10.8095H8.57916V15.9043H7.33659Z" fill="#1F2937"/>
</svg>
