<svg width="24" height="24" viewBox="0 0 24 24" fill="none" xmlns="http://www.w3.org/2000/svg">
<path d="M4.75 17.393V5H4V18.143H20.209V17.393H4.75Z" fill="#1F2937"/>
<path d="M7.95801 12.6015L9.3125 13.3828L9.5 13.2753C9.5249 13.2607 9.94434 12.9628 10.4863 12.5751C11.2056 12.0605 12.3286 11.2568 12.7686 10.9521C13.2671 11.2402 14.5772 12.0039 15.2393 12.3887L15.8438 12.7393L19.4854 10.1592L19.0518 9.54688L15.8028 11.8496L15.6168 11.7412C14.8077 11.2695 13.0377 10.2392 12.9332 10.1826L12.7486 10.082L12.5665 10.1875C12.4234 10.2695 11.607 10.8506 10.0499 11.9648C9.73297 12.1924 9.46002 12.3877 9.294 12.5058L7.95801 11.7353L5.35156 13.2402L5.72656 13.8896L7.95801 12.6015Z" fill="#1F2937"/>
</svg>
