<svg width="24" height="24" viewBox="0 0 24 24" fill="none" xmlns="http://www.w3.org/2000/svg">
<path d="M15.9683 9.86435L15.6864 9.75547L15.5042 9.99257C14.8762 10.5966 14.05 10.9629 13.1726 11.0264L18.5829 5.7014L16.8403 4L10.2299 10.5064C10.0596 10.577 9.89566 10.6614 9.73975 10.7588C9.26113 10.6203 8.8307 10.3552 8.49571 9.99257L8.31353 9.75547L8.03166 9.86435C5.54477 10.8229 4 12.6291 4 14.5768C4 17.5665 7.58892 19.9995 12 19.9995C13.5862 20.0147 15.1557 19.6809 16.5928 19.0226C18.7262 18.0122 20 16.3504 20 14.5768C20 12.6291 18.4552 10.8229 15.9683 9.86435ZM16.8424 5.1051L17.4555 5.70343L11.6325 11.4355L11.0194 10.8372L16.8424 5.1051ZM10.3675 11.3032L11.2463 12.161C11.2553 12.3076 11.2339 12.4544 11.1833 12.5926C11.1327 12.7308 11.054 12.8575 10.9519 12.9649C10.5232 13.3333 9.98358 13.5544 9.41496 13.5948C9.52388 13.2979 9.57784 12.9843 9.57431 12.6688C9.5313 12.387 9.58611 12.0992 9.72993 11.8516C9.87376 11.6039 10.0983 11.4108 10.3675 11.3032ZM16.246 18.3195C14.9169 18.926 13.466 19.233 12 19.218C8.02851 19.218 4.79726 17.1361 4.79726 14.5768C4.79726 13.0219 6.04253 11.5525 8.06692 10.6947C8.37094 10.975 8.72417 11.1991 9.10955 11.3561C8.88031 11.7442 8.76538 12.187 8.77753 12.6352C8.75366 13.1827 8.72148 13.4564 8.26521 13.6823L8.43079 14.4211C8.49931 14.4242 8.57821 14.4252 8.66541 14.4252C9.70814 14.4896 10.736 14.1572 11.5349 13.4971C11.7074 13.3152 11.8412 13.1013 11.9284 12.868C12.0157 12.6348 12.0546 12.3868 12.043 12.1387L12.2965 11.8894C13.6135 11.9187 14.8996 11.4962 15.9324 10.6947C17.9568 11.5515 19.2026 13.0219 19.2026 14.5768C19.2027 16.0431 18.0975 17.4423 16.246 18.3195Z" fill="#1F2937"/>
<path d="M9.87547 15.7422H9.87334C9.55881 15.7428 9.25735 15.8656 9.03506 16.0837C8.81277 16.3019 8.68778 16.5975 8.6875 16.9058C8.68722 17.2141 8.81167 17.5099 9.03356 17.7284C9.25545 17.9469 9.55668 18.0703 9.87121 18.0714H9.87334C10.1879 18.0708 10.4893 17.948 10.7116 17.7299C10.9339 17.5118 11.0589 17.2162 11.0592 16.9079C11.0595 16.5995 10.935 16.3037 10.7131 16.0852C10.4912 15.8667 10.19 15.7433 9.87547 15.7422ZM9.87334 17.2899C9.76978 17.2876 9.67088 17.2473 9.59616 17.177C9.54143 17.1234 9.50417 17.0551 9.4891 16.9808C9.47404 16.9064 9.48186 16.8293 9.51155 16.7593C9.54125 16.6893 9.59149 16.6296 9.65591 16.5876C9.72032 16.5456 9.796 16.5234 9.87334 16.5236H9.87386C9.97717 16.5242 10.076 16.5649 10.1489 16.6367C10.2217 16.7086 10.2625 16.8057 10.2624 16.907C10.2624 17.0083 10.2214 17.1054 10.1485 17.1771C10.0756 17.2489 9.97665 17.2894 9.87334 17.2899V17.2899Z" fill="#1F2937"/>
<path d="M13.9148 15.75H13.9127C13.5982 15.7505 13.2967 15.8733 13.0743 16.0914C12.852 16.3094 12.7269 16.605 12.7266 16.9134C12.7262 17.2217 12.8506 17.5175 13.0725 17.7361C13.2944 17.9547 13.5956 18.0781 13.9101 18.0793H13.9132C14.2278 18.0786 14.5292 17.9556 14.7514 17.7375C14.9736 17.5193 15.0985 17.2237 15.0987 16.9154C15.0989 16.6071 14.9744 16.3113 14.7525 16.0928C14.5306 15.8744 14.2293 15.7511 13.9148 15.75ZM14.1884 17.1868C14.1152 17.258 14.0163 17.2979 13.9132 17.2977H13.9117C13.8084 17.2971 13.7095 17.2564 13.6367 17.1845C13.5639 17.1126 13.5232 17.0154 13.5233 16.9141C13.5234 16.8128 13.5645 16.7157 13.6375 16.644C13.7104 16.5723 13.8094 16.5319 13.9127 16.5315C14.0163 16.5338 14.1152 16.5741 14.1899 16.6445C14.263 16.7166 14.3039 16.8143 14.3036 16.916C14.3033 17.0176 14.2619 17.1151 14.1884 17.1868Z" fill="#1F2937"/>
<path d="M16.7192 13.8359H16.7171C16.4026 13.8365 16.1011 13.9594 15.8788 14.1775C15.6565 14.3956 15.5315 14.6912 15.5313 14.9995C15.531 15.3078 15.6554 15.6037 15.8773 15.8222C16.0992 16.0407 16.4004 16.164 16.715 16.1652H16.7177C17.0322 16.1645 17.3336 16.0416 17.5558 15.8234C17.778 15.6052 17.9029 15.3096 17.9032 15.0013C17.9034 14.693 17.7789 14.3972 17.5569 14.1788C17.335 13.9603 17.0337 13.837 16.7192 13.8359H16.7192ZM16.9933 15.2718C16.9572 15.3073 16.9142 15.3355 16.8669 15.3548C16.8196 15.374 16.7689 15.3838 16.7177 15.3837H16.7161C16.6125 15.3832 16.5132 15.3426 16.44 15.2707C16.3855 15.2171 16.3485 15.1488 16.3336 15.0745C16.3187 15.0003 16.3265 14.9233 16.3562 14.8534C16.3858 14.7835 16.436 14.7238 16.5002 14.6818C16.5644 14.6398 16.6399 14.6174 16.7171 14.6174C16.8207 14.619 16.9197 14.659 16.9943 14.7293C17.0673 14.8015 17.1082 14.8991 17.108 15.0007C17.1078 15.1024 17.0665 15.1998 16.9933 15.2717L16.9933 15.2718Z" fill="#1F2937"/>
<path d="M7.12595 13.8125H7.12383C6.80916 13.8131 6.50757 13.936 6.28519 14.1542C6.06281 14.3724 5.93777 14.6682 5.9375 14.9766C5.93723 15.2851 6.06173 15.581 6.28373 15.7996C6.50572 16.0182 6.80708 16.1416 7.12175 16.1428H7.12383C7.4385 16.1422 7.74009 16.0193 7.96248 15.8011C8.18486 15.5829 8.30991 15.2871 8.31019 14.9787C8.31047 14.6702 8.18597 14.3743 7.96398 14.1557C7.74199 13.9371 7.44062 13.8137 7.12595 13.8125ZM7.12383 15.3613C7.07209 15.3628 7.0206 15.3536 6.9728 15.3341C6.925 15.3146 6.88199 15.2854 6.84664 15.2483C6.79209 15.1946 6.75499 15.1263 6.74002 15.0519C6.72505 14.9776 6.73289 14.9005 6.76254 14.8305C6.79219 14.7605 6.84233 14.7007 6.90663 14.6586C6.97093 14.6165 7.04651 14.594 7.12383 14.594H7.12435C7.2278 14.5946 7.3268 14.6353 7.39972 14.7072C7.47263 14.7792 7.51352 14.8765 7.51345 14.9779C7.51339 15.0793 7.47236 15.1765 7.39935 15.2484C7.32634 15.3202 7.22728 15.3608 7.12383 15.3613Z" fill="#1F2937"/>
</svg>
