<svg xmlns="http://www.w3.org/2000/svg" viewBox="0 0 24 24" fill="none">
  <g clip-path="url(#clip0_7257_42128)">
    <path fill-rule="evenodd" clip-rule="evenodd" d="M13.2713 9.44336L13.9142 10.0862C16.0317 12.2037 16.086 15.4801 14.0771 17.657L13.9142 17.8266L11.3687 20.3721C9.19542 22.5454 5.80155 22.5454 3.62829 20.3721C1.51076 18.2546 1.45646 14.9782 3.47766 12.7893L3.64154 12.6187L6.57015 9.80728L7.82933 11.1189L4.91397 13.9174C3.45077 15.3806 3.45077 17.6232 4.91397 19.0864C6.32839 20.5008 8.47116 20.548 9.93413 19.2279L10.083 19.0864L12.6285 16.5409C14.0429 15.1265 14.0901 12.9837 12.77 11.5207L12.6285 11.3719L11.9857 10.729L13.2713 9.44336ZM10.0861 6.17546L12.6316 3.62994C14.8048 1.45669 18.1987 1.45669 20.372 3.62994C22.4895 5.74748 22.5438 9.02383 20.5226 11.2128L20.3587 11.3833L17.4301 14.1948L16.1709 12.8831L19.0863 10.0846C20.5495 8.62145 20.5495 6.37882 19.0863 4.91562C17.6719 3.5012 15.5291 3.45405 14.0661 4.77418L13.9173 4.91562L11.3717 7.46114C9.95732 8.87556 9.91018 11.0183 11.2303 12.4813L11.3717 12.6302L12.0146 13.273L10.7289 14.5587L10.0861 13.9158C7.96853 11.7983 7.91424 8.52196 9.92318 6.345L10.0861 6.17546L12.6316 3.62994L10.0861 6.17546Z" fill="#454545"/>
  </g>
  <defs>
    <clipPath id="clip0_7257_42128">
      <rect width="24" height="24" fill="white"/>
    </clipPath>
  </defs>
</svg>