<svg width="24" height="24" viewBox="0 0 24 24" fill="none" xmlns="http://www.w3.org/2000/svg">
<path d="M5.416 7.99662H4.812V6.34462C4.812 6.29929 4.812 6.24329 4.812 6.17662C4.81467 6.10996 4.81733 6.04063 4.82 5.96863C4.82267 5.89663 4.82533 5.83262 4.828 5.77662C4.81467 5.79262 4.78533 5.82196 4.74 5.86462C4.69733 5.90463 4.65733 5.94062 4.62 5.97262L4.292 6.23662L4 5.87262L4.92 5.14062H5.416V7.99662Z" fill="#1F2937"/>
<path d="M6.004 13.896H4.008V13.476L4.724 12.752C4.868 12.6027 4.984 12.4787 5.072 12.38C5.16 12.2787 5.224 12.188 5.264 12.108C5.304 12.0253 5.324 11.9373 5.324 11.844C5.324 11.7293 5.292 11.644 5.228 11.588C5.16667 11.532 5.08267 11.504 4.976 11.504C4.86667 11.504 4.76 11.5293 4.656 11.58C4.552 11.6307 4.44267 11.7027 4.328 11.796L4 11.408C4.08267 11.336 4.16933 11.2693 4.26 11.208C4.35333 11.1467 4.46 11.0973 4.58 11.06C4.70267 11.02 4.84933 11 5.02 11C5.20667 11 5.36667 11.0347 5.5 11.104C5.636 11.1707 5.74 11.2627 5.812 11.38C5.88667 11.4947 5.924 11.6253 5.924 11.772C5.924 11.892 5.90533 12.0027 5.868 12.104C5.83333 12.2053 5.78133 12.304 5.712 12.4C5.64533 12.4933 5.56267 12.5907 5.464 12.692C5.36533 12.7907 5.25333 12.8987 5.128 13.016L4.76 13.36V13.388H6.004V13.896Z" fill="#1F2937"/>
<path d="M5.892 16.68C5.892 16.8107 5.864 16.924 5.808 17.02C5.75467 17.116 5.68133 17.1947 5.588 17.256C5.49733 17.3173 5.39333 17.3627 5.276 17.392V17.404C5.50533 17.4307 5.67867 17.5 5.796 17.612C5.916 17.724 5.976 17.8747 5.976 18.064C5.976 18.2293 5.93467 18.3787 5.852 18.512C5.772 18.6427 5.64667 18.7467 5.476 18.824C5.308 18.8987 5.09067 18.936 4.824 18.936C4.66667 18.936 4.52 18.9227 4.384 18.896C4.248 18.8693 4.12 18.8307 4 18.78V18.268C4.12267 18.3293 4.25067 18.376 4.384 18.408C4.52 18.44 4.64533 18.456 4.76 18.456C4.976 18.456 5.12667 18.4187 5.212 18.344C5.3 18.2693 5.344 18.164 5.344 18.028C5.344 17.948 5.324 17.8813 5.284 17.828C5.244 17.772 5.17333 17.7307 5.072 17.704C4.97333 17.6747 4.83467 17.66 4.656 17.66H4.44V17.196H4.66C4.836 17.196 4.96933 17.18 5.06 17.148C5.15333 17.1133 5.216 17.068 5.248 17.012C5.28267 16.9533 5.3 16.8867 5.3 16.812C5.3 16.7107 5.268 16.632 5.204 16.576C5.14267 16.5173 5.03867 16.488 4.892 16.488C4.80133 16.488 4.71867 16.5 4.644 16.524C4.56933 16.5453 4.50133 16.572 4.44 16.604C4.38133 16.636 4.32933 16.6667 4.284 16.696L4.004 16.28C4.07867 16.2267 4.16133 16.1787 4.252 16.136C4.34533 16.0933 4.448 16.06 4.56 16.036C4.672 16.012 4.79733 16 4.936 16C5.22933 16 5.46133 16.06 5.632 16.18C5.80533 16.2973 5.892 16.464 5.892 16.68Z" fill="#1F2937"/>
<path d="M8 6H20V7.09091H8V6Z" fill="#1F2937"/>
<path d="M8 11.4531H20V12.544H8V11.4531Z" fill="#1F2937"/>
<path d="M8 16.9062H20V17.9972H8V16.9062Z" fill="#1F2937"/>
</svg>
