<?xml version="1.0" encoding="UTF-8"?>
<svg width="48px" height="48px" viewBox="0 0 48 48" version="1.1" xmlns="http://www.w3.org/2000/svg" xmlns:xlink="http://www.w3.org/1999/xlink">
    <title>Icons/IXT/Chart-Types/48dp/ic_map-choropleth</title>
    <g id="Icons/IXT/Chart-Types/48dp/ic_map-choropleth" stroke="none" stroke-width="1" fill="none" fill-rule="evenodd">
        <g id="map-choropleth">
            <rect id="Container" x="0" y="0" width="48" height="48"></rect>
            <g id="map" transform="translate(0.000000, 9.000000)" fill="#006699">
                <path d="M9.55357236,9.65699601 L9.77276883,10.2092903 L9.80199167,10.2828661 L9.53969025,10.7831007 L9.60019814,10.8600869 L9.79711282,10.7588262 L10.0253628,10.6249154 L10.1262596,10.5652323 L10.3433939,10.4979258 L10.472759,10.4535397 L10.6766651,10.4209396 L10.8060805,10.395963 L11.0468043,10.2821639 L11.1713912,10.2911916 L11.3043274,10.2044254 L11.3738889,10.2794054 L11.2033804,10.4653258 L11.3404913,10.5034929 L11.3787677,10.5145769 L11.8219892,10.8253804 L11.8526204,10.925337 L11.7496111,11.0092946 L11.8589579,11.2771162 L11.7287377,11.3792796 L11.5047127,11.4944831 L11.3356125,11.6256354 L11.2952739,11.7845229 L11.3001528,11.8372346 L11.2820457,11.9475731 L11.2597639,12.0440189 L11.1129455,12.071754 L11.0649617,12.1022977 L10.92096,12.0703497 L10.8847458,12.0134752 L10.7511556,11.9600614 L10.6349181,12.0377497 L10.4985616,12.1945808 L9.87094953,12.4422908 L9.65663192,12.5796622 L9.66850213,12.7829358 L9.62600075,12.9445817 L9.51745876,13.0112362 L9.37481508,13.0487011 L9.29896646,13.1375236 L9.30107895,13.2159141 L9.27532664,13.2394864 L9.21481876,13.2235375 L8.95035454,13.3935591 L8.72215483,13.6724647 L8.59273938,13.7682084 L8.48907625,13.938882 L8.42504754,14.0561417 L8.23638165,14.0400424 L8.26907502,13.9241869 L8.27677054,13.8527177 L8.25448875,13.8450943 L8.27254555,13.7271324 L8.03876281,13.5203982 L8.05757407,13.4260086 L8.11254923,13.1491593 L8.08609275,13.0728251 L8.072,13.0786402 L8.09830253,13.1539028 L8.04342356,13.4321034 L8.02469542,13.5270213 L8.25806912,13.7348022 L8.24004392,13.8533613 L8.26223651,13.8610233 L8.25460467,13.9328544 L8.22191829,14.0492965 L8.41336707,14.0653261 L8.69991263,14.0870519 L9.92386935,13.3734287 L10.0962887,13.4960709 L10.1377116,13.5481925 L10.167536,13.7466985 L10.297428,13.7927208 L10.5044417,14.1469364 L10.603756,14.1183551 L10.5377808,13.8763473 L10.6565764,13.830325 L10.7933973,14.0144647 L10.8114727,14.038862 L10.7350539,14.1309067 L10.6426684,14.3589515 L10.7690959,14.5304893 L10.842703,14.6832249 L10.7051792,14.7961888 L10.563488,14.71599 L10.4912366,14.8492178 L10.5565591,15.0577044 L10.4905336,15.2857493 L10.2890932,15.4147428 L10.1856114,15.6253466 L10.0355855,15.6944053 L9.99531746,15.8373618 L10.1098955,15.8618096 L10.202281,15.8296998 L10.310633,15.9593991 L10.2585658,16.1212081 L10.2481222,16.1742371 L10.1266153,16.3101869 L10.0835355,16.2794886 L9.86196105,16.5117173 L9.80286448,16.5982171 L9.81471392,16.6372327 L9.72303139,16.7683938 L9.64585941,16.8297401 L9.51531474,16.9845424 L9.58962478,17.0333876 L9.54935677,17.2223664 L9.39933082,17.3004481 L9.36182433,17.2802346 L9.30207504,17.2195436 L9.2103423,17.2035139 L9.03671788,17.4043386 L8.83778789,17.3911317 L8.88162077,17.4607953 L8.81795514,17.5549571 L8.87695129,18.0138696 L8.82347818,18.1324288 L8.85129424,18.2384364 L8.8304573,18.3779147 L8.78456583,18.499952 L8.83111003,18.5180484 L8.97636608,18.4567021 L8.98460043,18.3465107 L9.05409037,18.3729748 L9.1013375,18.4733871 L9.15064322,18.4880558 L9.19653469,18.5020187 L9.25758943,18.4308429 L9.27501212,18.4016064 L9.38195833,18.4036227 L9.4965866,18.4615917 L9.50908876,18.4908282 L9.57717283,18.5912405 L9.72649585,18.6931147 L9.84735009,18.5779833 L9.89504911,18.7168064 L9.80502349,18.7572334 L9.78137482,18.7732631 L9.69526555,18.8555286 L9.523047,19.026411 L9.45978304,19.1735514 L9.35835987,19.0159766 L9.16595711,19.0675438 L9.08050056,19.0146156 L8.96034925,19.2412491 L9.08331229,19.4504414 L9.14160551,19.4455015 L9.16736298,19.5571043 L9.24026715,19.5446032 L9.3256735,19.7286925 L9.42850253,19.7363545 L9.67297253,19.447669 L9.74457127,19.2977562 L9.84042118,19.3395443 L9.81747544,19.5215668 L9.90293199,19.5446032 L9.98211236,19.441368 L10.2460134,19.5376469 L10.4071859,19.5968761 L10.4725084,19.6206181 L10.529446,19.641487 L10.4981655,19.7029341 L10.5391866,19.7579794 L10.7357066,20.0250399 L10.6822837,20.1820098 L10.7225517,20.57388 L11.0719595,20.435813 L11.1247297,20.3388788 L11.2101863,20.1847318 L11.2983541,20.0243846 L11.5400626,19.8535022 L11.9665922,19.8535022 L12.0318646,19.7279868 L12.3152469,19.5675891 L12.3875486,19.3416614 L12.6611903,19.1610503 L12.8785974,18.9532189 L12.9133423,19.1958821 L13.0821467,19.1317129 L13.1731262,18.9776163 L13.3404745,18.8674753 L13.4356717,19.222447 L13.4669522,19.34025 L13.3731609,19.5236335 L13.2071181,19.8506793 L13.2231349,19.9434297 L13.2918717,20.3451798 L13.2037038,20.4985707 L13.1890929,20.5237242 L12.9057105,20.5606227 L13.0695943,20.9469985 L12.8876351,21.4699794 L13.0369581,21.6436342 L13.0606068,21.7650162 L13.0904814,21.9197682 L13.1554525,22.2489815 L12.9557192,22.4630634 L12.8876351,22.6060703 L13.0279204,22.9212702 L12.6070143,23.2469046 L12.3951302,23.5530816 L12.1874638,23.5955753 L12.0749443,23.9065914 L11.7873945,24.1284362 L11.6533352,24.1604451 L11.6088496,24.135342 L11.4727317,24.2071731 L11.2094833,24.3436774 L10.9913733,24.0681988 L10.9518082,23.8450939 L10.8948205,23.7656008 L10.7440916,23.3583058 L10.6572794,23.2865251 L10.5655968,23.1854071 L10.4759729,22.9441554 L10.3502985,22.7739787 L10.2162392,22.6644929 L10.175921,22.2739837 L10.1745653,22.2558369 L10.0404558,22.0521894 L9.8008561,22.0306149 L9.65635319,21.7976301 L9.70781792,21.6574964 L9.68622784,21.4929653 L9.44040218,21.2007513 L9.50010126,21.2447069 L9.61332366,21.2084133 L9.72514019,21.2007513 L9.79046274,21.2272154 L9.85227062,21.1979789 L10.0418617,21.2118411 L10.0891088,21.1756483 L10.1050754,21.109362 L10.1689921,21.0152507 L10.0918703,20.8227937 L10.0675689,20.7516179 L10.0280038,20.7070574 L9.971719,20.7181471 L9.93697403,20.6846763 L9.93421251,20.6170795 L9.86196105,20.5431312 L9.78278069,20.5605723 L9.6341606,20.5131386 L9.62165844,20.4503809 L9.48272878,20.4231607 L9.4188121,20.3932184 L9.35770715,20.289328 L9.23057672,20.2593353 L9.17991535,20.2244531 L9.15345495,20.1302914 L8.95969653,20.1003491 L8.80967057,20.0717175 L8.68254015,20.0354743 L8.58116719,20.0264009 L8.39775192,19.9343563 L8.31586025,19.8395392 L8.23316522,19.7955836 L8.16231963,19.7955836 L8.0997586,19.8395392 L8.00812629,19.8395392 L7.92548147,19.7795035 L7.81848504,19.6868036 L7.68512864,19.6163335 L7.54619898,19.5703112 L7.45521939,19.5606329 L7.42117736,19.5431414 L7.19473256,19.5515091 L6.95166842,19.4838618 L6.8224292,19.4266489 L6.68284681,19.3444338 L6.62585904,19.3457948 L6.5536578,19.3528015 L6.49250264,19.4106193 L6.33760637,19.4977743 L6.11743776,19.4942962 L5.97293485,19.3869276 L5.84726049,19.3618245 L5.78404675,19.3994791 L5.69161108,19.5445528 L5.59510844,19.5752511 L5.54580272,19.7014723 L5.51452221,19.7370098 L5.43398619,19.7341869 L5.33949193,19.8179143 L5.33462161,19.9141427 L5.3165964,19.9294667 L5.26447895,19.9155542 L5.19503923,19.9880406 L5.06168282,20.0340629 L4.90954807,20.0598717 L4.79004949,20.1470268 L4.76855982,20.1840261 L4.68310327,20.2056006 L4.60116139,20.1777251 L4.53378025,20.1191513 L4.46775477,20.1142617 L4.1906486,20.1637622 L4.14134288,20.1644679 L4.06632991,20.2265703 L4.00447182,20.3206816 L3.86001911,20.4281006 L3.8197511,20.5019985 L3.74749965,20.5912707 L3.72525685,20.6302863 L3.62177509,20.691683 L3.55856134,20.7306986 L3.54605918,20.8646322 L3.4599499,20.9894419 L3.46482022,21.109362 L3.41340571,21.1393546 L3.37379042,21.2160753 L3.26403248,21.1756483 L3.21683556,21.1784207 L3.10496881,21.2732882 L2.94941982,21.4957378 L2.88063282,21.5661575 L2.72990393,21.7600258 L2.694,21.8356402 L2.685,21.8766402 L2.67502496,21.9761241 L2.60417937,22.1798724 L2.54724181,22.3137051 L2.46113253,22.4057497 L2.40484769,22.4949715 L2.345,22.5766402 L2.7992025,22.3852362 L3.14645851,22.5584741 L3.13111018,22.7078328 L3.03821238,22.7877849 L2.9690944,22.9021107 L3.09061885,23.1279233 L3.26661979,23.3580452 L3.56343835,23.1083535 L3.58509767,23.1279233 L3.56762885,23.2395114 L3.71570996,23.2353034 L3.7184868,23.4211653 L3.51597969,23.721353 L3.36436443,23.8384673 L3.07456369,23.9941634 L2.98727005,23.983618 L2.81263229,24.050287 L2.40822394,24.391845 L2.4347806,24.5706597 L2.29230365,24.6885345 L1.9849836,24.8561448 L1.81877732,24.9543484 L1.45486029,24.9213942 L1.41785264,24.7726945 L1.23412705,24.8126452 L0.993198629,24.7874479 L0.946396315,24.9003035 L0.823458196,25.0300924 L0.704761065,24.9339675 L0.271726058,24.9024328 L0.208868581,25.0371396 L0,25.0981303 L0.20816175,24.6197869 L0.381840242,24.3785112 L0.38628318,24.2319409 L0.0921909667,24.0636208 L0.211645418,23.7992264 L0.477060484,23.7290592 L0.789934209,23.4310008 L0.961088303,23.5670765 L1.14476341,23.350339 L1.24462854,23.4204555 L1.40321114,23.3355857 L1.54079076,23.4822067 L1.77333818,23.2900074 L1.73633052,23.1342606 L1.56103642,22.7682151 L1.75379935,22.5830123 L1.81711122,22.2815064 L1.9665555,22.4737057 L2.28503339,22.6161187 L2.288,22.6136402 L1.97324692,22.4735482 L1.82462684,22.2824522 L1.85430064,22.2236768 L1.88392424,22.1714543 L1.9651632,22.0236586 L2.1673066,21.7802394 L2.2916253,21.5599573 L2.20340722,21.4260238 L2.17564138,21.3548984 L2.08466178,21.3855967 L1.55329476,20.9029925 L1.20599572,20.7872562 L1.32057377,20.5515493 L1.41993835,20.4427693 L1.31088334,20.0536715 L1.56439105,19.81862 L1.73319536,19.3974124 L2.19718125,18.8688363 L1.72902797,18.3932387 L2.19441972,17.9818103 L2.40690628,17.9072572 L2.90423128,17.4232415 L3.53144822,16.7286725 L3.7843032,16.5878331 L4.59001488,16.1032125 L4.69771423,15.8570208 L4.92410882,15.7949689 L5.15190928,15.5829537 L5.22139921,15.5279083 L5.32006086,15.2795995 L5.11510572,15.0641062 L5.07759923,14.9016419 L5.38322439,14.3207424 L5.61092443,14.3959005 L6.07561325,14.2180618 L6.18466826,14.1441135 L6.44374923,13.9691481 L6.52157394,13.9210086 L6.61461212,13.8784644 L6.6896251,13.8436326 L6.85637081,13.8108172 L7.04601205,13.7794131 L7.078,13.7616402 L7.0583641,13.7715186 L6.86839048,13.8027644 L6.7014028,13.8354146 L6.62625835,13.8701211 L6.5330068,13.9124008 L6.45509599,13.9602977 L6.19556093,14.1344319 L6.08626448,14.2079575 L5.6208115,14.3849003 L5.39271237,14.3101209 L5.42681407,13.9493642 L5.43098876,13.6891659 L5.1254818,13.1514162 L5.50819541,12.7906595 L5.67799974,12.5804145 L5.78789976,12.4826145 L5.87280193,12.6089019 L6.54844813,12.3625963 L6.76482794,12.2425279 L7.16630252,12.0628266 L7.46622646,11.7041262 L7.87323376,11.5376154 L8.08548918,11.341263 L7.80578483,11.1080476 L8.04303809,10.8000025 L8.25529351,10.7805428 L8.30886034,10.4863904 L8.84322089,10.2261922 L9.51745876,9.65724678 L9.55357236,9.65699601 Z M31.4165521,9.40551174 L31.4487062,9.42229003 L31.8858111,9.86578777 L32.2496568,10.0299646 L32.3832236,9.98288519 L32.4853864,9.9973596 L32.8366806,10.0077271 L33.2993387,10.0931711 L33.3027892,10.2120215 L33.3390937,10.6845682 L33.3598963,10.9478621 L33.2401813,11.0331059 L32.8133777,11.3760841 L33.0015013,11.5056526 L33.2498825,11.5631495 L33.420804,11.3892563 L33.6490327,11.4474545 L33.8019019,11.4959362 L33.9790242,11.9574643 L33.8731608,12.5352886 L33.8351061,12.6953584 L34.0191292,13.0217087 L33.9831747,13.1831308 L33.7700979,13.3210634 L33.6248296,13.5538559 L33.4560084,13.7139257 L33.0499074,13.715278 L32.9772983,13.8025752 L32.8769857,13.9792731 L32.8313299,14.0423294 L32.6002509,14.1961388 L32.425979,13.8954318 L32.11604,13.8365325 L31.9997754,13.8906237 L31.9216156,13.9903919 L31.8206029,14.4421535 L31.566721,14.8038133 L31.034054,14.8911105 L30.7462179,15.0387594 L30.6051001,14.8218437 L30.4349788,14.7788712 L30.229703,14.7809748 L30.2578565,14.5578486 L30.1498929,14.3693808 L31.0070507,13.8566664 L30.9759467,13.5067264 L30.9738465,13.4783285 L30.9094884,13.3841197 L30.7835726,13.1970042 L31.0665081,13.0660334 L30.9807974,12.9087682 L31.1419676,12.5928356 L30.9163893,12.454903 L30.5808471,11.8860439 L30.5027373,11.7523185 L30.3429172,11.6976263 L30.3996243,11.5043003 L30.6404046,11.4163019 L30.8769843,11.2638449 L30.9980495,10.860565 L30.92199,10.6346841 L31.0901111,10.4476187 L31.1011125,10.2792348 L31.0997123,10.2342089 L31.0679583,9.99029769 L31.0465056,9.95844399 L31.0741591,9.917525 L31.4165521,9.40551174 Z M11.3345485,12.5239167 L11.5550113,12.6204173 L11.5420458,12.8796289 L11.5824763,13.0360625 L11.6139993,13.1040165 L11.6348331,13.1897561 L11.7530071,13.4171828 L11.7891818,13.4571381 L11.8459924,13.5336611 L11.8589579,13.5929464 L11.7768102,13.7059872 L11.6864971,13.7183923 L11.5591187,13.9486088 L11.6084073,14.112615 L11.5413035,14.1870456 L11.522845,14.2042832 L11.5105228,14.2256558 L11.4393116,14.3201138 L11.2866455,14.4351972 L11.2318639,14.3476142 L11.3277689,14.249071 L11.2592794,14.0037093 L11.0977057,13.9313712 L11.0046215,14.043017 L10.8724428,13.9547864 L11.0087289,13.8369132 L11.0306019,13.8073203 L10.7766368,13.5267361 L10.8101887,13.3723949 L10.5524625,13.2338465 L10.7499635,12.9969043 L10.9101516,12.8983611 L11.1969758,12.7212025 L11.3345485,12.5239167 Z M11.2306294,4.57701374 L11.389846,4.68113972 L11.4245741,4.67627215 L11.7715032,4.82275106 L12.1490394,4.72138504 L12.3103164,4.59016121 L12.6287495,4.78938057 L13.0549351,4.74221024 L12.8213371,5.18581204 L12.7365021,5.50235504 L12.9624609,5.56207066 L13.3782431,5.5696982 L13.4943385,5.80504803 L13.9399739,5.55439294 L14.3385178,5.53868622 L14.3225358,5.66850498 L14.6604186,5.84208175 L14.6367974,5.92397747 L14.6965539,5.92814251 L14.8265707,5.93717512 L14.829,5.95064023 L14.8752299,5.70645667 L15.2781522,5.49036067 L15.4487788,5.48235711 L15.6276945,5.76964814 L15.544104,5.97957146 L14.838,5.98464023 L14.8440101,6.00798079 L15.0814779,6.15149902 L15.2076751,6.23158821 L15.210389,6.30580621 L15.1902357,6.43843511 L15.4509728,6.43427007 L15.447505,6.47883098 L15.6164213,6.5460236 L15.6657744,6.57934392 L15.9612899,6.60157419 L16.030143,6.58626892 L16.2790193,6.56549391 L16.4904034,6.74383789 L16.4792964,6.80495859 L16.4625606,6.89242442 L16.621174,6.9653377 L16.5675992,7.01461563 L16.3332474,7.23471037 L16.2992229,7.26732815 L16.31,7.27164023 L16.3141774,7.26834155 L16.542706,7.04195041 L16.5928528,6.99126274 L16.7834404,7.22978383 L16.6552546,7.34334072 L16.641,7.32464023 L16.249116,7.49916529 L15.9953646,7.610969 L15.8263981,7.53875825 L15.5017331,7.51376802 L15.4829367,7.51652798 L15.2882885,7.5415684 L14.9774444,7.44712738 L14.8523529,7.41867464 L14.5436196,7.55817838 L14.4338064,7.55476606 L14.1278373,7.82062604 L13.8490576,7.87336648 L13.7259764,7.8615739 L13.5903811,7.85816158 L13.363015,7.81716354 L13.1620846,7.80466842 L13.1377599,7.80742839 L13.0932818,7.70606237 L12.7741451,7.72553267 L12.6608139,7.74149029 L12.7296168,7.89007682 L12.715042,8.0163829 L12.5106438,8.09898115 L12.5273294,8.4391595 L11.8946347,8.57735852 L11.8028138,8.41421944 L11.5845444,8.50304016 L11.5733872,8.52316282 L11.5907764,8.66136184 L11.4705096,8.7265974 L11.4391991,8.80784076 L11.3474284,8.98136735 L11.3328034,9.01127534 L11.2507828,9.15910915 L11.1534336,9.20356969 L10.938632,9.28541523 L10.8301255,9.48051973 L10.5402389,9.41041659 L10.4998819,9.31045565 L10.4310288,9.33961092 L10.3796151,9.41458163 L10.128628,9.66588908 L9.79903775,9.85818343 L9.68153515,9.50415507 L9.57524004,9.62910626 L9.53694364,9.62935716 L9.34646681,9.51830617 L9.66771428,9.30859894 L9.86030193,9.03857391 L10.4039902,8.61163228 L10.4526396,8.33392952 L10.3893651,7.83482732 L10.4623896,7.76261658 L11.0672918,7.58848782 L11.1624799,7.41561359 L11.0991552,7.26496963 L11.349489,7.20941905 L11.5789156,7.12054814 L11.6345509,6.97617684 L11.3480818,6.61723072 L11.1255908,6.54296255 L10.7223729,6.7235145 L10.3281512,6.75683482 L10.0451499,6.74082702 L9.77054161,6.82136784 L9.81853775,6.53463247 L10.0382646,6.39236877 L10.123753,6.06262812 L10.3803188,6.04245528 L10.4004721,5.63568648 L10.6395984,5.5996062 L10.7077479,5.4322519 L10.9663742,5.39476655 L11.0192454,5.20247219 L11.015074,5.13236906 L10.9198356,5.13583156 L10.8377647,4.72279012 L11.2306294,4.57701374 Z M27.6019907,1.65979619 L27.787004,1.75999938 L27.8530981,1.79403729 L27.8465641,1.90208378 L27.9348237,1.98624842 L27.9348237,2.05995533 L28.056457,2.3159687 L28.2595645,2.4293446 L28.3394806,2.4105408 L28.3498847,2.43281376 L28.4987096,2.42587545 L28.6176288,2.40847942 L28.6551743,2.47248276 L28.8324975,2.31732619 L29.1669388,2.07041307 L29.2128278,2.06618975 L29.2357973,2.07388222 L29.2336864,2.25890366 L29.3435584,2.29364546 L29.4541341,2.33613 L29.4457907,2.48213605 L29.3338579,2.78334894 L29.2093597,3.01568157 L29.07305,2.90160178 L28.6823156,2.73191499 L28.5849587,2.9329247 L28.6778423,3.1666651 L28.8146546,3.15660959 L29.1818163,3.26928161 L29.3108883,3.47823517 L29.5980334,3.46848133 L29.7225316,3.57909197 L29.6049695,3.6242915 L29.441619,3.66878715 L29.4700671,3.74048295 L29.5125382,3.86914324 L29.5875789,3.97975389 L29.6328145,4.04375723 L29.9039763,4.07226461 L29.967306,4.08548761 L30.1049226,4.1014256 L30.2169056,4.1598984 L30.2009224,4.46040741 L30.188357,4.4826301 L30.2182627,4.74553149 L30.0952221,4.79842348 L30.0812996,4.96951804 L30.1911716,5.0731401 L30.2934039,5.37017996 L30.5757239,5.46686372 L30.5715521,5.53715175 L30.3844781,5.54403978 L30.3364782,5.95234389 L30.3371819,6.00312423 L30.556926,6.07476976 L30.7175121,6.37246322 L31.0262697,6.81068248 L31.1548894,7.20928302 L31.0575325,7.39566196 L30.8746804,7.43673873 L30.6660441,7.70657842 L30.7940104,7.79355861 L30.6702158,8.10025176 L30.1570942,8.22619706 L30.0061583,8.34098074 L29.5785821,8.2706927 L29.3831646,8.3117192 L29.2497198,8.44736807 L29.1217536,8.6395792 L28.5799828,8.84360556 L28.4291977,9.00243239 L28.0947564,9.2966567 L28.1030998,9.43853999 L28.2094535,9.54774286 L28.2122682,9.59711543 L27.9431671,9.65699601 L27.887829,9.50073334 L27.6702461,9.53688291 L27.5881687,9.50073334 L27.5123741,9.46453349 L27.4198423,9.07573708 L27.2954446,9.02007981 L27.0187037,8.79262411 L26.9974933,8.81534957 L26.6804928,8.74229627 L26.2249711,8.89876005 L26.1311325,8.91892135 L26.0365902,8.95305982 L25.6916945,8.73530768 L25.4416928,8.73978239 L25.3875107,8.59231829 L25.3590123,8.437212 L25.3151339,8.36556647 L25.221999,8.06993438 L25.1198169,7.79803331 L25.0902128,7.74483965 L25.3551422,7.69129404 L25.4942163,7.57444898 L25.5706643,7.36227765 L25.6214286,7.3525238 L25.7230075,7.18977533 L25.705617,7.0916838 L25.5338728,7.19600974 L25.3280009,7.16539071 L25.364893,7.0374343 L25.2647717,6.81696718 L25.2453204,6.6340574 L25.2765832,6.59509228 L25.1959131,6.53802725 L25.1869163,6.4740239 L25.1527886,6.18884955 L24.9817983,6.13042702 L24.954657,5.68386169 L25.0165292,5.58159712 L24.9789837,5.37711826 L25.05895,5.34725339 L24.8273441,5.10099387 L24.9226403,5.03492915 L24.8913775,4.84638828 L24.7947243,4.8575499 L24.773162,4.45412272 L24.9330947,4.41726926 L25.0276872,4.16960197 L25.0832767,4.1877019 L25.1312263,4.19604797 L25.188977,4.1014256 L25.2703004,3.90946585 L25.337048,3.91434278 L25.3454417,3.6771835 L25.4138981,3.58160585 L25.8088545,3.50855255 L26.0069861,3.43554952 L26.1119828,3.37446228 L26.0326196,3.27989018 L25.8413738,3.33620105 L25.7614075,3.26943244 L25.7196903,3.06148443 L25.9317946,2.93418164 L26.2397983,2.82709042 L26.3204683,2.6086344 L26.5478522,2.6218574 L26.8579668,2.82357099 L26.9114453,2.90215483 L26.7981052,3.09064542 L26.736032,3.12000752 L26.6456615,3.19235694 L26.6240992,3.20417216 L26.5420721,3.27023689 L26.5191528,3.45183945 L26.534,3.45464023 L26.5546397,3.29822656 L26.636103,3.23134224 L26.6573912,3.21938043 L26.7470307,3.14613345 L26.8133879,3.11584717 L27.0210345,3.11009532 L27.122,3.02764023 L27.1285758,2.99039196 L27.2050238,2.91180812 L27.1194784,2.4297971 L27.1994951,2.27257916 L27.3009734,2.35603991 L27.2704143,2.40822803 L27.2245254,2.48957713 L27.3204247,2.50973843 L27.4449229,2.35257076 L27.2460374,2.07156945 L27.2154783,1.99851615 L27.2940373,1.89348631 L27.3955157,1.90047489 L27.4059701,1.69599604 L27.4824684,1.68830357 L27.6019907,1.65979619 Z M36.8114349,4.82849801 L36.8260463,4.90829139 L36.896894,4.90409173 L36.9892823,4.92018196 L37.172653,4.91947359 L37.2671501,4.96850326 L37.2657442,4.98945092 L37.6873662,5.24709701 L37.6498585,5.26177049 L37.5498382,5.29470992 L37.196,5.35164023 L37.2025874,5.35514877 L37.5868665,5.29331091 L37.5537856,5.39363024 L37.2990213,5.47975052 L37.4774812,5.64700085 L37.2500761,5.72242041 L37.2486717,5.56371009 L36.9838687,5.39218975 L36.985273,5.35802974 L37.055,5.28864023 L37.0448659,5.28276875 L36.9691477,5.35836247 L36.9677418,5.39195969 L37.2233661,5.56070472 L37.2247218,5.7168002 L37.2247218,5.72798241 L37.0678124,5.85958835 L36.950419,5.9232915 L36.82,5.75864023 L36.7994836,5.76632692 L36.9307943,5.94310903 L36.4813704,5.98532565 L36.4936537,5.86503932 L36.6082978,5.68329055 L36.61,5.67564023 L36.4947038,5.8469894 L36.4808455,5.96457964 L36.4696987,5.98977755 L36.4287265,6.57292194 L36.4371117,6.67649647 L36.1967516,6.6869703 L36.1661228,6.57221356 L35.94178,6.6078853 L35.7487186,6.50147726 L35.6979553,6.34396503 L35.5048939,6.37968737 L35.3930237,6.24109887 L35.2401814,6.26209712 L35.1443285,6.11156745 L34.8701261,6.18053281 L34.878,6.19764023 L35.132677,6.13621622 L35.2287443,6.28720722 L35.3819287,6.26618829 L35.4940491,6.40524826 L35.6875928,6.3694044 L35.7383691,6.52745248 L35.9319128,6.63422251 L36.1568079,6.59842942 L36.1874549,6.71357656 L36.4283025,6.70301632 L36.4311206,6.85685046 L36.4095319,7.04018217 L36.3900568,7.20315497 L36.375463,7.33236549 L36.2786408,7.49741988 L36.2716962,7.67019136 L36.1386915,7.8430136 L35.7224166,8.17383316 L35.430692,8.39646111 L35.2392116,8.44987151 L35.1188381,8.35995723 L34.8312903,8.22582199 L34.82,8.19964023 L34.6386533,8.24868409 L34.4948992,8.06111652 L34.3788615,8.08489768 L34.3406509,8.05550012 L34.2531331,7.9883057 L34.1371456,7.89869627 L33.9697421,8.00581268 L33.7314908,7.97848965 L33.5585138,7.88331441 L33.4466437,7.82102801 L33.6251941,7.56834055 L33.5536433,7.34363389 L33.4682344,7.14898257 L33.7043768,6.97608848 L33.6140974,6.82070138 L33.4300238,6.87529685 L33.3487322,6.7436909 L33.2653819,6.5259668 L33.4577905,6.51412681 L33.5626813,6.35939749 L33.5376762,6.18857792 L33.6717397,6.13332468 L33.6731456,5.98416115 L34.298323,5.98416115 L34.6136482,5.92470825 L34.7630762,5.93447371 L35.0811631,5.80362673 L35.3458254,5.90229324 L35.6305721,5.79730196 L35.7118637,5.38290261 L35.888255,5.4283904 L36.0466708,5.32056561 L36.2814575,5.26318724 L36.4523759,5.13578094 L36.6107414,5.10218373 L36.6294199,4.97477743 L36.6343406,4.91805684 L36.689874,4.85506207 L36.8114349,4.82849801 Z M16.1689033,4.62731059 L16.2584555,4.71175399 L16.3832664,4.70404041 L16.4316916,4.8915007 L16.3573771,4.99822214 L16.3723683,5.25165383 L16.0176114,5.28042752 L15.912575,5.3119923 L15.6949573,5.39836409 L15.6165005,5.43206026 L15.5281811,5.24038795 L15.6231577,5.10890186 L15.2759458,4.96290206 L15.3994252,4.70947036 L15.7732661,4.95726912 L15.9376259,4.93620901 L16.0434021,4.83232942 L16.1689033,4.62731059 Z M17.9204854,3.11840496 L18.0185185,3.20478292 L17.8519846,3.36555754 L17.9352771,3.43427076 L18.0396859,3.60497859 L17.8950335,3.69775681 L17.6410756,3.72827326 L17.4615352,3.73620959 L17.2819438,3.77558401 L17.3320315,4.02632073 L17.3328986,4.05781003 L17.2553187,4.04931048 L17.0499694,4.37582632 L16.9991166,4.35811039 L16.9356144,4.20015189 L16.9709104,4.03226018 L16.6484517,3.99616269 L16.7380689,3.79852256 L16.6350372,3.6901789 L16.6326909,3.69074212 L16.7547988,3.48670172 L16.9416841,3.51916386 L16.988,3.30064023 L17.1485126,3.37477391 L17.1499408,3.48316878 L17.3538109,3.45910379 L17.5676783,3.19275042 L17.7694572,3.2578795 L17.9204854,3.11840496 Z M29.2542807,0.95564023 L29.3153925,1.17274126 L29.4430155,1.24957494 L29.4294678,1.36727111 L29.6453962,1.35881329 L29.6745532,1.47793608 L29.9149754,1.44553142 L29.9488936,1.61535018 L29.7228045,1.61045891 L29.7119566,1.81691123 L29.8748723,1.89236925 L29.9472247,2.16276473 L29.8098827,2.16149096 L29.7487709,2.12557071 L29.5558637,1.95564023 L29.2564404,1.86546727 L29.166368,1.9135138 L29.1693623,1.71898394 L29.2997341,1.63654568 L29.1313699,1.47579615 L28.8936474,1.43844927 L28.8963962,1.26292403 L29.1830081,1.12622325 L29.1558146,1.01413166 L29.2542807,0.95564023 Z" id="Opacity-100"></path>
                <g id="Opacity-75" opacity="0.75" transform="translate(8.778667, 12.071245)">
                    <polygon points="3.08426303 0.398074975 3.57977239 0.313221884 3.66846533 0.291489362 3.74246866 0.27254306 3.8059722 0.255065856 3.9212175 0.194782168 3.99875442 0.154863222 4.08815408 0.107902736 4.21662508 0.0405775076 4.37725168 0 4.45266845 0.159067882 4.51899886 0.20810537 4.53298175 0.360182371 4.44989206 0.450607903 4.15731135 0.611803445 4.15307105 0.651722391 4.23969433 0.64893617 4.29693838 0.835359676 4.25645361 0.995136778 4.33045694 1.1668693 4.26831635 1.24812563 4.2487302 1.38414387 4.08815408 1.56843972 4.15938102 1.60349544 4.3954244 1.61469098 4.52808521 1.51727457 4.62374436 1.60486322 4.80047401 1.60136778 5.05050028 1.73454914 5.6042128 1.65673759 5.67549022 1.76114488 5.79487486 1.74154002 5.85494578 2.13399189 5.63707512 2.33865248 5.4128945 2.141692 5.26554407 2.30010132 5.54979561 2.55729483 5.44782649 2.70658561 5.44711978 2.85871327 5.26625079 3.1810537 5.27745729 3.25466059 5.14469552 3.50906788 5.19709351 3.60577508 5.28371678 3.85385005 5.24040515 4.2547619 5.75297666 4.41104357 5.71456156 4.61079027 5.7613563 4.62826748 6.06933333 4.74321175 6.030262 4.97173252 6.03934835 5.25699088 5.78508179 5.39640324 5.70900879 5.26884498 5.55120905 5.26960486 5.54560579 5.47350557 5.37518611 5.54989868 5.44570634 6.17431611 5.4513096 6.22548126 5.37028958 6.29346505 5.22924912 6.41261398 5.04277687 6.34113475 4.83045899 6.67472138 4.58593502 6.81843972 4.41218368 6.92912867 4.32071435 7.08399189 4.15100138 7.14848024 4.11606939 6.90460993 3.89749201 7.11347518 3.62237731 7.2949848 3.54973693 7.52203647 3.26477867 7.68323202 3.19915497 7.80937183 2.89395433 7.80937183 2.77032939 7.80937183 2.52731981 7.98110436 2.43862687 8.1422999 2.35276079 8.29716312 2.29970656 8.39457953 1.94841789 8.53333333 1.90793312 8.13946302 1.96164359 7.98181358 1.76406579 7.71337386 1.72282383 7.65800405 1.75427272 7.59630193 1.69702867 7.57527862 1.6313545 7.5514691 1.46931446 7.49194529 1.20399283 7.3952381 1.12438624 7.49888551 1.03846968 7.47578521 1.06153893 7.29285714 0.965173067 7.25081054 0.893188925 7.40151976 0.647402959 7.69164134 0.544020405 7.68394124 0.458154328 7.49888551 0.384807233 7.51149949 0.358961594 7.3993921 0.300354589 7.40430598 0.17672965 7.19407295 0.297527723 6.96631206 0.383444279 7.0195542 0.57688273 6.96767984 0.678851852 7.1260385 0.742405873 6.97816616 0.756388767 6.9627153 0.91560194 6.80643364 1.00217473 6.72380952 1.0259507 6.70764944 1.11646092 6.66707194 1.06850514 6.52755826 0.947000352 6.64321175 0.796873537 6.5408308 0.728422979 6.43991895 0.715853518 6.41053698 0.600608219 6.35233029 0.493035844 6.35025329 0.475569846 6.37968592 0.414135975 6.45116515 0.368047951 6.43713273 0.318476824 6.42239108 0.270975367 6.32147923 0.201111375 6.29488349 0.192832694 6.4056231 0.0467947402 6.46727457 2.70894418e-14 6.44908815 0.0460880235 6.32644377 0.0670371251 6.18627153 0.0391218163 6.07973658 0.0929332435 5.96058764 0.0335185626 5.49944276 0.0975773817 5.40481256 0.0534580689 5.33475177 0.253509369 5.34802432 0.428068389 5.14620061 0.520294916 5.16231003 0.580315354 5.22330294 0.618074217 5.24361702 0.768907749 5.16509625 0.809392518 4.9751773 0.734682469 4.92613982 0.865980333 4.77056738 0.943517248 4.70886525 1.03564282 4.57715299 1.02383055 4.5378926 1.08314427 4.45096251 1.30591147 4.21757852 1.3492231 4.24837893 1.47143461 4.11175279 1.4819344 4.05845998 1.53428191 3.89589666 1.42534659 3.76555218 1.33246382 3.79782168 1.217269 3.77325228 1.25775377 3.62963526 1.4085873 3.56018237 1.51267658 3.34858156 1.7151509 3.21889564 1.78153179 2.98976697 1.71585762 2.7801925 1.788498 2.64630193 1.93095189 2.7268997 2.06921596 2.61337386 1.99521263 2.45987842 1.86810459 2.28748734 1.96098735 2.058308 2.03781755 1.96580547 2.01964483 1.94123607 1.88208748 1.756231 1.76265236 1.80253293 1.82898277 2.04569402 1.7291338 2.07441743 1.52100574 1.71843972 1.39041459 1.67213779 1.36037913 1.47315096 1.48546798 1.37370821 1.64119805 1.25390071 1.7630562 1.14863222 2.0259548 1.28951368 1.99167905 1.4464539 2.25079167 1.73176292 2.22842913 1.7618541 2.08945835 1.88171226 2.22423931 1.97142857 2.31924223 1.85785208 2.48405865 1.93145897 2.55392264 2.18095238 2.45609286 2.28115502 2.51197396 2.37021277 2.66770403 2.25314083 2.74034441 2.15714286 2.75291387 2.13541033 2.77174282 2.11788247 2.84019338 2.04219858 2.78991554 1.8754306 2.91979997 1.64133739 3.01197601 1.62867275 3.07971986 1.68551165 3.19567187 1.56914894 3.0958229 1.51372847 3.08254672 1.45349544 3.02454547 1.37568389 2.94206154 1.21717325 2.83716459 0.988601824 2.81379246 0.94751773 2.77244954 0.788449848 2.78572572 0.524873354 2.56083837 0.42674772 2.5762347 0.364387031 2.99562057 0.413475177"></polygon>
                </g>
                <g id="Opacity-50" opacity="0.5" transform="translate(8.542470, 3.721967)">
                    <path d="M26.1723734,0.251484271 L26.2195866,0.41790131 L26.327746,0.454083303 L26.1800919,0.619745502 L26.1669103,0.709571452 L26.4393637,0.690096582 L26.5371483,0.717220496 L26.5315849,0.932349871 L26.6044096,0.901049176 L26.6917691,0.988711251 L26.7167289,1.05070877 L26.7978234,1.03681971 L26.8609749,0.800806436 L26.959411,0.736041171 L27.0148439,0.756220558 L27.1566841,0.60097515 L27.2930111,0.675855269 L27.2978226,0.812330325 L27.449737,0.926462119 L27.5703262,0.847807801 C27.5703262,0.847807801 27.6106729,0.769757354 27.6488144,0.756975398 C27.6869559,0.744193442 28.046017,0.619795825 28.0777932,0.613404847 C28.0989774,0.609144195 28.2362399,0.57247575 28.3253945,0.548503525 L28.4025221,0.527705356 L28.454196,0.765077347 L28.5845085,0.863961375 L28.6586864,0.915441457 L28.7717576,1.18904576 L28.859067,1.22457356 L28.8972586,1.12921212 L29.0269196,1.16957089 L29.060851,1.28511172 L29.404024,1.33105631 L29.3555076,1.49747335 L29.2912034,1.61844903 L29.3681881,1.89139914 L29.3778613,2.0702962 L29.6065096,2.26252876 L29.6002446,2.4289458 L29.4546955,2.59737575 L29.1184391,2.65237841 L29.01875,2.78246249 L28.8766091,2.96624085 L28.839871,3.10618817 L28.759428,3.41109317 L28.5472692,3.59909863 L28.4044266,3.86012227 L28.3330555,3.98960248 L28.218631,4.1100246 L28.2040962,4.12884528 L28.09313,4.4644471 L28.0161955,4.69834683 L27.8955061,5.04642868 L27.8865345,5.07702485 L27.8268414,5.20861861 L27.8039866,5.32697751 L27.8053899,5.56711725 L27.8899427,5.82265572 L27.971789,5.97166112 L28.0300287,6.13591428 L28.1021015,6.34198558 L28.1236031,6.44358703 L28.1049083,6.77848434 L28.0979416,6.89407549 L27.9385092,7.00055824 L27.7159254,7.14956364 L27.7256487,7.2825161 L27.7353219,7.40500146 L27.736,7.407 L28.2779108,7.22643898 L28.3702928,7.19245016 L28.5517412,7.43619573 L28.8540046,7.29386438 L29.0235474,7.21951068 L29.136174,7.27297907 L29.3293272,7.35009405 L29.4397937,7.230606 L29.7956075,7.19656697 L30.1299208,7.40491797 L30.8588794,7.50427379 L31.3662016,7.86750741 L31.5649309,7.7960154 L31.6671086,7.7056965 L31.872067,7.79872648 L31.7762188,7.92443995 L31.968719,8.15643754 L31.7977696,8.61762123 L31.868651,8.70999855 L31.868651,9.01283548 L32.2814312,9.21701946 L32.409279,9.30035986 L32.5427029,9.34062432 L32.8387874,9.29754838 L33.0042109,9.47678045 L33.1896781,9.5288431 L33.3099405,9.48300588 L33.5476018,9.716359 L33.6490763,9.88374268 L33.6963473,10.0414368 L34.0542207,10.0463067 L34.0952124,10.1643388 L34.1723732,10.2525491 L34.2537035,10.3560719 L34.4072214,10.2546577 L34.7929751,10.2428595 L35.010442,10.0643303 L35.1522049,9.94489244 L35.5454939,9.8879097 L35.480289,9.49691268 L35.5524766,9.35453112 L35.6004509,8.9704624 L35.7749167,8.98572474 L36.1341464,9.08503035 L36.3767308,9.03156196 L36.2821887,8.69614195 L36.4810184,8.59678613 L36.6052995,8.03212981 L37.1731046,7.89391527 L37.4823506,8.23771953 L37.4580369,8.45299884 L38.0667834,8.75929992 L37.8865406,9.55735957 L38.0174528,10.112979 L38.0007748,10.4463406 L37.8590119,10.8026459 L37.5852317,11.0123525 L37.7513585,11.2742221 L37.7714525,11.5409615 L37.348977,11.8687504 L37.5462996,12.0778043 L37.4649693,12.2924811 L37.18496,12.6000875 L37.290604,12.7695798 L37.3107482,13.0342107 L37.3566127,13.1196597 L37.3961978,13.2828764 L37.4629097,13.2919133 L37.8715204,13.223785 L38.3406138,13.6106652 L38.2912832,14.1121636 L38.196088,14.6788783 L38.0738163,14.7261213 L37.9647061,14.8552487 L37.5852317,14.5586874 L37.4212148,14.6969521 L37.1842567,14.5656659 L37.0077313,14.540714 L36.8145279,14.7365137 L36.6790444,14.6066332 L36.5553158,14.6698414 L36.3197644,14.6108002 L36.2773661,14.3434081 L36.0883322,14.2413412 L35.9333576,14.3420525 L35.826307,14.2447551 L35.7964675,14.0357515 L35.9361205,13.7294504 L35.809629,13.5849602 L35.7248827,13.3974443 L35.5031961,13.6725178 L35.2718142,13.5488628 L34.6428733,13.866962 L34.341916,13.832923 L34.2898224,13.9704347 L34.3440259,14.1948011 L34.1334412,14.3170504 L34.0771781,14.560796 L33.9638984,14.7330496 L33.7804405,14.8525376 L33.8798052,15.140062 L33.7797373,15.331042 L33.7985251,15.8095967 L33.8916104,15.9679435 L33.7783809,16.2638521 L33.7985251,16.3457867 L33.9590256,16.365919 L34.0021271,16.5353611 L34.2147715,16.6444064 L34.740128,16.4742615 L35.107094,16.8319224 L35.0702215,17.1549417 L34.7262632,17.2820107 L34.7199838,17.5396631 L34.5434584,17.6667321 L34.5163818,17.953654 L34.6408136,18.2091978 L34.8742552,18.4203603 L34.9979335,18.5307612 L35.2960776,19.0461664 L34.9930607,19.4718551 L34.7616788,19.5802478 L34.3711527,19.5392303 L34.2210006,19.6976775 L33.9590256,19.5281852 L34.1000852,19.2371464 L34.0451785,18.9600145 L33.7693386,18.8225028 L33.4141779,18.7474965 L33.3822285,18.5710759 L33.4614489,18.3224102 L33.2327797,18.1071309 L33.3982032,17.745303 L32.9701516,17.3250867 L32.8547621,17.3181082 L32.6525666,17.4737439 L32.447558,17.3070128 L32.2390329,17.4112386 L32.0646174,17.5799778 L31.6754476,17.6348519 L31.4766681,17.8633351 L31.1959053,17.94532 L31.0493199,18.0397557 L30.6970225,17.8126782 L30.556616,17.9654522 L30.6101162,18.0834843 L30.4920139,18.2231046 L30.6121758,18.4265857 L30.5058787,18.5099261 L30.4905571,18.6835854 L30.2049717,18.7044205 L30.0896324,18.562039 L29.7435139,18.8044792 L29.5190644,18.8086462 L29.3515813,18.7002535 L29.1299449,18.7092904 L28.8449623,18.5460738 L28.7539367,18.6210801 L28.4029957,18.1550767 L28.180656,17.6688407 L27.8331812,17.5139581 L27.9075289,17.3167526 L27.8310714,16.9674258 L27.7448683,16.8590331 L27.8067577,16.0575595 L27.7066395,15.9394772 L27.8074107,15.799154 L27.8150967,15.5380375 L27.48219,15.6984427 L27.4210541,15.8047268 L27.3960372,16.0380799 L27.2862237,16.1666049 L27.0569014,16.0798003 L26.8191898,15.7505555 L26.8755534,15.6227837 L26.7601638,15.5429074 L26.2306378,15.6373933 L26.0360278,15.7776161 L25.9331969,15.7922257 L25.8462906,15.931846 L25.9095865,16.2776585 L25.7670701,16.4492594 L25.5920015,16.5083005 L25.624604,16.7409508 L25.9297307,16.9611502 L25.9526378,17.1348095 L25.9040105,17.2764882 L25.9999089,17.4334292 L25.9345533,17.5285678 L25.9199852,17.6834504 L25.9637398,17.8091639 L26.1319262,17.8585154 L26.1180111,18.1571352 L26.1360957,18.4245273 L26.0312052,18.4772928 L25.9686628,18.7099933 L25.6899596,19.2017519 L25.6725783,19.4885232 L25.6587135,19.7212236 L25.3994512,19.7684666 L25.3348491,20.0886745 L25.2055947,20.1004225 L25.13401,20.5310815 L24.9929504,20.656795 L24.9137299,20.6630204 L24.8525941,20.6630204 L24.7754835,20.6720071 L24.5669584,20.540269 L24.3507977,20.2214669 L24.0353225,20.0485104 L24.0227638,20.0311395 L23.8539243,19.7047062 L23.8831108,19.4150732 L23.8921531,19.32616 L23.8949662,19.3025134 L23.7406446,19.1011409 L23.6517288,18.849714 L23.7510432,18.6955342 L23.8580938,18.5211721 L23.7587292,18.3843131 L23.7545597,18.2571938 L23.789272,18.0919188 L23.8135857,18.0898604 L24.0137717,17.9870404 L24.0457714,17.6370107 L23.9616782,17.4105357 L24.1200688,17.0458963 L23.9331447,16.6909967 L24.0200009,16.3409169 L23.8434754,16.0798003 L23.5918991,16.1033967 L23.4723902,16.0255789 L23.4306953,15.8860088 L23.4425005,15.8540784 L23.2618056,15.6220808 L23.2270932,15.3456015 L23.2214669,15.2573912 L23.2805432,14.7816481 L23.4536024,14.513553 L23.3487119,14.2676486 L23.0519242,14.1079463 L22.7718646,14.2412408 L22.6057378,14.2412408 L22.6231191,14.0106991 L22.5536442,13.8356843 L22.3986695,14.0009594 L22.1943642,13.9453321 L22.0310506,14.0391654 L22.1450335,14.3808611 L22.0067369,14.5308738 L21.2700421,14.8476175 L20.7912031,14.7962075 L20.4326264,14.6760668 L19.9065665,14.7309409 L19.6841264,14.628121 L19.684,14.622 L19.5437677,14.6753199 L19.3028381,14.8692186 L19.0431902,14.6724966 L18.7932778,14.752708 L18.6079512,14.5860337 L18.2212395,14.5183759 L18.0670766,14.6892346 L18.0192019,15.0582271 L18.0587462,15.2653851 L17.7032986,15.3469577 L17.6300813,15.4411342 L17.092,15.152 L17.0942133,15.1608418 L17.6376874,15.4516926 L17.4959159,15.7257956 L16.769626,16.0041232 L16.760131,16.5739556 L16.4689016,16.6142915 L16.0596131,17.0109109 L15.880967,16.9976333 L15.7294996,17.2530268 L15.9442166,17.3420977 L16.012289,17.5591671 L15.9532594,17.7087418 L15.6495711,17.9140424 L15.4646954,17.8994068 L15.4146584,17.982895 L15.4347536,18.2932098 L15.1679399,18.2841568 L15.0366179,18.3795145 L14.8920331,18.8825562 L14.4208012,18.9639321 L14.1908119,18.8679207 L13.5680624,19.4933783 L13.788406,19.6582927 L14.0948575,19.9901836 L14.4590323,20.6567316 L14.2999287,20.973333 L14.3561952,21.176471 L14.2463751,21.3413351 L13.9662986,21.4269357 L13.9121421,21.6579366 L13.7918222,21.7622969 L13.4839641,21.8033872 L13.1100933,21.9258031 L13.0044429,22.2605104 L13.0086127,22.469231 L13.1149664,22.7377513 L12.9293874,22.9110145 L12.8883933,23.2206251 L12.7848529,23.2331987 L12.6479043,23.4634954 L11.8139544,23.4732022 L11.656157,23.7306075 L11.519962,23.8239031 L11.4859007,24.1119375 L11.4066754,24.3547575 L11.4719848,24.5467805 L11.3726643,24.6671343 L11.1370484,24.6240322 L10.9925138,24.540544 L10.8701844,24.5363696 L10.7103273,24.7061122 L10.5282148,24.5154975 L10.3614248,24.3985637 L10.120986,24.3269449 L9.99654664,24.5697649 L9.84507924,24.5767055 L9.7269196,24.3972058 L9.73179268,24.1550899 L9.44197,24.0986599 L9.39886584,23.9713654 L9.25503461,23.7807507 L9.020122,23.8948681 L8.45650253,23.8579522 L8.33487647,23.6109578 L8.04088403,23.7111437 L7.98250754,23.7925699 L8.04364712,24.0395643 L7.95055621,24.0986599 L7.74483184,24.0673769 L7.42722757,24.084829 L7.26948044,24.2072449 L7.28892252,24.3888066 L7.02688141,24.4381955 L6.8330132,24.6699508 L6.35695846,24.9782034 L5.93229713,24.6949972 L5.71411375,24.7965411 L5.4020859,24.6128669 L5.04971697,25.119379 L4.6619303,25.0679281 L4.44299335,25.2891719 L4.44434977,25.4784287 L4.33181678,25.541749 L4.15668732,25.4714378 L3.93147062,25.2272599 L3.55272678,25.5508019 L3.37759731,25.5187646 L3.32198391,25.2745364 L2.81809735,24.5794716 L2.74027878,24.3659228 L2.7208367,24.088249 L2.42267451,23.875354 L2.56655598,23.703499 L2.39554602,23.3932346 L2.18293905,23.3451534 L2.14400465,23.116969 L1.80761139,22.6389737 L1.67136609,22.5777154 L1.68533224,22.4392557 L1.56089286,22.4337234 L1.39199289,22.652201 L1.11889944,22.7356893 L1.00008671,22.6278587 L1.10222045,22.4079728 L1.20922726,22.2939057 L1.15924051,21.9842448 L1.3107079,21.5486978 L0.76793718,21.5000131 L0.42255133,21.4617392 L0.24531187,21.3517963 L0.191105131,20.9649339 L0.403762339,20.6789616 L0.305095021,20.3519492 L0.554576641,19.9526139 L0.848569077,19.5184248 L0.901369154,19.0536568 L0.682432203,18.9402436 L0.495496821,18.6723771 L0.29047578,18.548553 L0.255761362,18.4087353 L0.158400231,18.4267909 L0.0986673179,18.2062009 L6.03961325e-14,17.9884274 L0.337046352,17.7553142 L0.313384282,17.5535845 L0.355081774,17.4923765 L0.874994235,17.4281006 L0.910462222,17.4902139 L1.17245309,17.7678877 L1.1940554,17.9320477 L1.14256151,18.0718653 L1.28714631,18.3043248 L1.52688177,18.3258506 L1.66101707,18.5289886 L1.66242374,18.5470945 L1.7027648,18.9367733 L1.83684987,19.0459618 L1.96264568,19.2158051 L2.0523204,19.4565127 L2.14405489,19.5574027 L2.23091629,19.6290215 L2.38173059,20.0353477 L2.43870042,20.1147118 L2.47833815,20.3373136 L2.69863153,20.6123722 L2.9599693,20.4759745 L3.09616436,20.4043054 L3.14067518,20.4293519 L3.27481048,20.3974151 L3.56252318,20.1760707 L3.6751064,19.865756 L3.88289053,19.823358 L4.09489465,19.5178715 L4.51603931,19.1929212 L4.3756745,18.8784824 L4.44379715,18.735798 L4.64253845,18.5221989 L4.99073763,18.4720556 L5.08940495,18.3517018 L5.089,18.339 L4.99212155,18.4592011 L4.6434443,18.5092424 L4.5794539,18.1811608 L4.54952129,18.026867 L4.52587703,17.9058838 L4.37621395,17.7328497 L4.55852622,17.2115868 L4.39432444,16.8264804 L4.67825669,16.7896529 L4.692896,16.764582 L4.78128526,16.611695 L4.71236478,16.2113149 L4.69636718,16.1188693 L4.86268185,15.7928979 L4.95665518,15.6101168 L4.92536427,15.4926505 L4.82998236,15.1388449 L5.07915252,14.9963078 L5.29069311,14.6654629 L5.47652687,14.7363547 L5.6170844,14.6182353 L5.697827,14.55076 L5.69229324,14.5000154 L5.62201448,13.88073 L5.79180033,13.8049648 L5.7973844,13.6027399 L5.95464382,13.6019863 L6.03050666,13.7285464 L6.2838523,13.5902296 L6.27479705,13.3073158 L6.31378491,13.0806733 L6.0068624,12.9667239 L5.96022789,12.9493401 L5.99851145,12.7512854 L5.48769501,12.5962882 L5.53085834,12.1986212 L5.44453167,11.9525852 L5.39231309,11.8566728 L5.52456998,11.6043565 L5.51345215,11.5313546 L5.69365153,11.2116635 L5.69440613,11.0607861 L5.7959758,10.9127224 L5.51269754,10.657693 L5.65959375,10.5005856 L5.88300677,10.695877 L6.10013143,10.4928986 L6.0402662,10.1036722 L5.92124003,10.1231662 L5.85025697,10.0195668 L5.29839007,10.0967388 L5.04921991,9.96465208 L4.87314569,9.96811879 L4.77776377,9.88125003 L4.64555719,9.97786578 L4.41032204,9.96676225 L4.33933898,9.93199465 L4.49941559,9.74921353 L4.51888437,9.61431323 L4.5808625,9.53372474 L4.50711255,9.36340369 L4.5474587,9.20493979 L4.49036035,9.0200485 L4.40408398,9.02286206 L4.40825946,8.98322097 L4.69988866,8.82335029 L4.78269385,8.73366797 L4.76875884,8.58284088 L4.70265554,8.53420644 L4.62749701,8.37644593 L4.46737009,8.41674018 L4.33933898,8.48346182 L4.25029573,8.53003633 L4.172974,8.56967743 L4.05817361,8.6294154 L3.9948372,8.6467992 L3.92108726,8.66558979 L3.83269801,8.68709345 L3.3389356,8.77124913 L3.25054635,8.78652276 L2.83259647,8.73783807 C2.83259647,8.73783807 2.73344153,8.65589304 2.73344153,8.63037001 C2.73344153,8.60489721 2.72066358,8.43924868 2.72066358,8.43924868 L2.72066358,8.43924868 L2.72544273,8.33695556 L2.7477287,8.24039006 L2.76578888,8.12985722 L2.76095942,8.07700243 L2.80130557,7.91783514 L2.97038712,7.78650203 L3.19450444,7.6710957 L3.32474905,7.56875234 L3.21538181,7.300459 L3.31836007,7.21630332 L3.28777347,7.11622086 L2.84441859,6.80481971 L2.80618534,6.79371618 L2.66904868,6.75548187 L2.83958913,6.56923404 L2.76996436,6.49417219 L2.63705348,6.58104096 L2.51249355,6.57199736 L2.27167433,6.68599691 L2.14223463,6.71101752 L1.93829038,6.74367495 L1.80885068,6.78818954 L1.59172602,6.85556433 L1.49081034,6.91540279 L1.26251755,7.04949922 L1.06556596,7.15098846 L1.00499643,7.07386668 L1.26739732,6.57270075 L1.238169,6.49899544 L1.01893145,5.94572835 L1.12749378,5.82062528 L1.24511135,6.17508399 L1.57502412,5.98255588 L1.82625687,5.73099319 L1.87772085,5.65588111 L1.94664133,5.62669039 L1.98703778,5.72682309 L2.27720809,5.7969612 L2.38582073,5.60166977 L2.6008325,5.51962426 L2.698277,5.47515992 L2.78042819,5.32709616 L2.7950172,5.29720205 L2.88687763,5.12346452 L2.89105311,5.11512432 L2.91821884,5.0421224 L3.0386033,4.97680755 L3.02119711,4.83844053 L3.03236524,4.81829341 L3.25084819,4.72931447 L3.34275893,4.8927021 L3.97607272,4.75438533 L3.95937083,4.41379347 L4.16396906,4.33109481 L4.17855807,4.20458495 L4.1096879,4.0558178 L4.22313,4.03984078 L4.54257893,4.02034681 L4.58710055,4.12188629 L4.6114491,4.11907273 L4.81257616,4.13158303 L5.04016466,4.17258067 L5.17589273,4.17604738 L5.29909437,4.18790454 L5.57814685,4.13504975 L5.88436506,3.86886658 L5.99433598,3.87228305 L6.00545381,3.86886658 L6.30337138,3.73260973 L6.4285853,3.76109706 L6.73968328,3.85565288 L6.93457228,3.83058202 L6.95333677,3.8278187 L7.27836977,3.85283931 L7.44750162,3.92513784 L7.70150126,3.81324846 L8.13575057,3.6213735 L8.18379368,3.68186511 L7.93955359,3.98768938 L7.68967913,4.06832811 L7.48648949,4.13434636 L7.36469644,4.18162426 L7.31801162,4.27959655 L7.25613411,4.38113604 L7.19345169,4.4853886 L6.98744486,4.50965558 L6.82183448,4.59521805 L6.68821931,4.67304321 L6.73480351,4.81201313 L6.65551981,4.84125409 L6.6408805,4.84678074 L6.5093279,4.90933227 L5.91288908,5.19088956 L5.93517504,5.26941811 L5.95675671,5.34447996 L6.0555595,5.57941248 L6.1690016,5.53630467 L6.32419844,5.69828552 L6.42164295,5.92276767 L6.34230894,6.03053718 L6.44548842,6.04586105 L6.62337369,6.02033802 L6.83426029,5.73606765 L6.91776977,5.71592053 L7.0270364,5.67627944 L7.29587657,5.59192279 L7.33270124,5.84840921 L7.49690302,5.87830332 L7.3368264,6.12157605 L7.25261262,6.16679403 L7.07860099,6.10695557 L6.92833423,6.19457796 L6.94156495,6.26195275 L6.79260616,6.33425127 L6.74320477,6.41283007 L6.88652918,6.51848942 L6.8023657,6.5997813 L6.57754409,6.67489338 L6.38476797,6.56089383 L6.22745824,6.61163845 L6.33677517,7.01332483 L6.64435167,7.01543501 L6.67564258,7.00367833 L6.8663561,6.94177994 L6.87893283,7.22745709 L6.96173802,7.3310565 L7.07236293,7.30874896 L7.0771924,7.30734218 L7.19903575,7.26981126 L7.24219909,7.20660657 L7.2713771,7.10652411 L7.21015358,7.02382545 L7.20673271,7.01895196 L7.14540858,6.827077 L7.28601642,6.76728879 L7.33541781,6.74784506 L7.46209063,6.69433711 L7.59017205,6.60887513 L7.6952632,6.42112004 L7.84487597,6.18900108 L7.76624626,6.0729416 L7.77736409,6.03958078 L7.91445044,5.98049595 L7.97713286,6.01943366 L8.148277,5.91236753 L8.30769962,5.98396266 L8.42250001,6.23698238 L8.46289646,6.17583762 L8.61391783,6.15910697 L8.76212202,6.13202642 L8.78928775,6.15217355 L8.97441721,6.14383334 L9.02311431,6.21261491 L9.10315261,6.17508399 L9.10456121,6.01244999 L9.23817638,5.92276767 L9.29175325,5.92417445 L9.31474351,5.86579301 L9.34603442,5.78239096 L9.28898637,5.68024857 L9.32445275,5.58564251 L9.19989282,5.43481543 L9.04746286,5.4244153 L9.06763593,5.30001561 L9.05998928,5.28614876 L8.97300862,5.12346452 L8.9758258,5.00670165 L8.77258585,5.01715203 L8.73782377,4.94344673 L8.53317523,4.77799916 L8.53106234,4.69253718 L8.50882668,4.49789891 L8.46843023,4.450621 L8.40167295,4.37279583 L8.35710102,4.31024429 L8.63268231,4.25115947 L8.69254755,4.23859892 L8.97371291,4.2226219 L9.06557335,4.21779865 L9.08157095,4.21011159 L9.18042404,4.15248379 L9.32239017,4.08847523 L9.42541873,4.04401088 L9.97170156,4.55070346 L10.1617108,4.577784 L10.2716817,4.3977662 L10.4595781,4.60632157 L10.6201577,4.42449505 L10.7474845,4.52734083 L10.8595181,4.46242791 L10.8855267,4.64038578 L10.983,4.887 L11.527594,4.77057424 L11.8095798,4.84224913 L11.9237937,4.86941014 L12.2072392,4.58894755 L12.0937301,4.28625317 L12.574898,4.2083413 L12.6501513,4.33640044 L12.7427204,4.47135043 L12.7643148,4.7385846 L13.250164,4.69824547 L13.180045,4.56601159 L13.3429847,4.57159468 L13.5010921,4.45258921 L13.6229571,4.50615676 L13.6856262,4.66132662 L13.7155261,4.72606036 L13.8722744,4.77127841 L13.9279467,4.73999295 L14.0589227,4.68220036 L14.3854564,4.58688533 L14.4335279,4.62722446 L14.4390649,4.70448245 L14.1953853,4.79843943 L14.3429723,4.9529051 L14.3757414,5.0050643 L14.4035273,5.05938633 L14.6869728,4.99530646 L14.7239199,4.67390116 L14.8472447,4.60011374 L14.8818763,4.41250157 L14.8787554,4.31044659 L14.9279343,4.29047821 L15.070689,4.29530684 L15.2357428,4.07404519 L15.6375298,4.29530684 L15.6535369,4.5437295 L15.7287902,4.60987159 L15.8164766,4.77756569 L15.8241277,4.9118618 L15.8575513,5.02110942 L15.9313951,5.1672256 L15.9495163,5.20967726 L15.9787115,5.3349197 L16.0755592,5.6042161 L16.1640007,5.90414408 L16.2733319,6.01545393 L16.274691,6.06766343 L16.3164704,6.17620688 L16.4460369,6.21865853 L16.7608422,6.29868292 L16.8322699,6.25140264 L16.8805427,6.3898232 L16.8638309,6.49212968 L16.895,6.508 L16.9097989,6.4217738 L16.8617094,6.28380214 L16.8747472,6.03376921 L16.7263166,5.64411076 L16.7200484,5.56437486 L16.6829408,5.10029289 L16.7571561,4.73002966 L16.8116141,4.67760744 L16.8587508,4.74556588 L16.8872836,4.90017634 L16.9413404,5.04716904 L17.190714,5.04270864 L17.5348624,5.25971457 L17.6291861,5.22573535 L17.7228077,5.2056385 L18.1772261,5.04962477 L18.4935438,5.12244454 L18.5146551,5.09984184 L18.7908063,5.32657044 L18.9149164,5.38199967 L19.0072342,5.76960333 L19.0828035,5.80563734 L19.164691,5.84172147 L19.381821,5.80563734 L19.436981,5.96140049 L19.7055101,5.90176144 L19.7984297,6.08203173 L19.6680013,6.16176762 L19.6582731,6.30319735 L19.5084885,6.61522482 L19.2822822,6.80451613 L19.1622841,6.9570718 L18.8945072,6.97436211 L18.8584525,6.97711854 L18.7987794,7.00698818 L18.6558648,7.07700141 L18.5552729,7.09709826 L18.4124084,7.1421533 L18.4117064,7.11649348 L18.4088983,6.97852181 L17.9895817,7.02292533 L17.9097501,7.032648 L17.7437685,6.93527097 L17.6580699,6.60164315 L17.638,6.593 L17.6552738,6.61933375 L17.6647874,6.79472346 L17.546748,6.78516681 L17.4941463,6.75865968 L17.1236183,6.72802809 L16.9237315,6.82887592 L16.7872186,7.16848916 L16.6061577,7.30072305 L16.6096813,7.33894965 L16.727318,7.46907102 L16.8318672,7.56327949 L16.9690848,7.36872617 L17.0303445,7.37375599 L17.2280165,7.5108688 L17.3540594,7.59642598 L17.3840097,7.62217865 L17.4919818,7.70149886 L17.8889365,8.01812583 L17.8575768,8.21157259 L17.8471571,8.27630634 L17.5587785,8.43912151 L17.444615,8.52638883 L17.4063592,8.44666624 L17.4605717,8.2361684 L17.0297405,8.17239032 L17.0190691,8.31734964 L17.0024077,8.41125632 L16.5824491,8.42589309 L16.5741939,8.3075918 L16.5829022,8.18194697 L16.2892886,8.20744814 L16.1169863,8.44983502 L15.9127706,8.40517025 L15.8464269,8.38972871 L15.2948884,8.42936367 L15.2405751,8.48157316 L15.1327037,8.58453352 L15.0665111,8.49897633 L14.9675996,8.48851431 L14.8680337,8.66108733 L15.0063085,8.80720351 L15.0052514,8.80720351 L14.7120405,8.87540783 L14.552574,8.80443711 L14.2963102,8.93038373 L14.1737405,9.01739956 L14.32767,9.29087071 L14.2489435,9.38130682 L14.0205662,9.54970509 L13.7830779,9.9943912 L13.6946364,9.95747234 L13.7538323,9.76332141 L13.6117823,9.70764134 L13.5205724,9.79601522 L13.3576327,9.9532976 L13.3659886,10.2247065 L13.3263233,10.4529093 L13.3186218,10.495361 L13.1083153,10.8022301 L13.0811335,10.8419154 L13.224593,11.1049245 L13.31238,11.2670858 L13.2921447,11.3032502 L13.1407321,11.5801919 L12.8638806,11.5550931 L12.5,11.766 L12.5342354,11.7934179 L12.9037397,11.5792856 L13.1745418,11.6064164 L13.1793713,11.6043565 L13.3943831,11.6147566 L13.6080868,11.6147566 L13.7451732,11.8010547 L13.9477089,11.8510959 L13.9734157,11.8719967 L14.2406963,12.0867318 L14.4404651,11.9817759 L14.7487459,11.8191419 L15.0612022,11.979716 L15.2303844,11.8726498 L15.5915377,12.0638214 L15.996609,11.7572435 L16.4865481,11.5612487 L16.682,11.713 L16.9913652,11.5383767 L16.6290722,11.3247256 L16.5903768,11.182241 L16.5329184,10.9714164 L16.4626971,10.7257151 L16.4057472,10.5134267 L16.3814418,10.4155601 L16.4897992,10.2605583 L16.5875802,10.2968986 L16.5355117,10.5677859 L16.6248518,10.5670792 L16.6882086,10.4937928 L16.8246342,10.3352579 L16.9548054,10.3352579 L16.9850092,10.5936279 L17.5111857,10.5433066 L17.782,10.555 L17.7720496,10.5427457 L17.4950383,10.5301418 L17.4533862,10.205868 L17.5734746,10.1131032 L17.5200797,9.95056298 L17.3610491,9.87942644 L17.4186594,9.76432742 L17.5582189,9.63042334 L17.689448,9.57113449 L17.8511383,9.58651127 L18.2302724,9.42326527 L18.2239995,9.25099485 L18.3614012,9.18963895 L18.3496583,9.0612806 L18.3337,8.89183347 L18.5280596,8.64494783 L18.5274072,8.57935701 L18.4920782,8.43531938 L18.5977139,8.39957466 L18.8004038,8.55001508 L18.8004038,8.78021313 L18.8532468,9.03198909 L19.0009359,9.04595423 L19.1723618,9.0814973 L19.5159662,9.16448152 L19.7485152,9.11572955 L19.7818368,9.20632655 L19.9200414,9.58157054 L20.1234841,9.40027571 L20.5489875,9.18333699 L20.7662808,9.33962564 L20.9558729,9.17703503 L21.0891595,9.24403748 L21.122431,9.26006967 L21.1335717,9.45885874 L21.3529727,9.60042601 L21.3446422,9.92127146 L21.371691,9.99729833 L21.7375767,9.73574172 L22.2374517,9.47695798 L22.3637126,9.665311 L22.4282984,9.76014292 L22.4304061,9.78877903 L22.4616702,10.140983 L21.6014799,10.6570885 L21.7097752,10.8468531 L21.6815723,11.071455 L21.3612529,11.3594799 L21.1800915,11.3936113 L21.1641332,11.5059879 L21.165,11.51 L21.1797198,11.4143444 L21.3610677,11.3803556 L21.6751865,11.093534 L21.8878309,11.0914254 L22.0588305,11.1345014 L22.2005933,11.3518391 L22.4897454,11.203935 L23.0247973,11.1164275 L23.2798399,10.7538968 L23.3813646,10.3009969 L23.4598315,10.2009885 L23.5766277,10.1468172 L23.5856699,10.15239 L23.8879836,10.2058584 L24.0631024,10.5072393 L24.2951876,10.3531098 L24.3410521,10.2899016 L24.4418233,10.1127782 L24.5148146,10.0252205 L24.9227722,10.023865 L25.092315,9.86345983 L25.2382474,9.6300565 L25.4523485,9.49184197 L25.6302303,9.61127981 L25.871,9.594 L25.6475647,9.60963723 L25.470039,9.48991962 L25.5060754,9.32772968 L25.321633,8.99982722 L25.3598246,8.838996 L25.465879,8.25837314 L25.2883532,7.79470015 L25.1351357,7.74593749 L24.906337,7.68751288 L24.7350763,7.86223316 L24.4861292,7.80446274 L24.2975269,7.67427802 L24.7253529,7.32961812 L24.8453407,7.24401927 L24.8244907,6.97947304 L24.7881034,6.50462842 L24.7846451,6.38526306 L24.4393169,6.31818296 L24.1279201,6.27354676 L23.9688887,6.28899581 L23.866443,6.27445257 L23.7325719,6.32175587 L23.3678973,6.15679818 L22.930398,5.71124135 L22.8976194,5.69428261 L22.6487225,5.54678689 L22.5425178,5.6149741 L22.455058,5.54341527 L22.4079951,5.31117619 L22.5712366,5.10626232 L22.4866337,5.04018867 L22.2342785,5.03455253 L22.0433706,5.06112289 L21.8082066,5.11215007 L21.2362348,5.16322757 L20.9692946,5.09941844 L20.8358245,4.92711365 L20.7531763,4.80588636 L20.7537276,4.74746175 L20.8867968,4.61169121 L21.0816641,4.57067824 L21.5080868,4.640979 L21.6585978,4.52609236 L22.170275,4.40008442 L22.2937211,4.09306587 L22.166115,4.00600767 L22.3741139,3.73592595 L22.5565013,3.69481233 L22.653534,3.50826623 L22.5253265,3.1093585 L22.217388,2.67074619 L22.4954549,2.43473291 L22.5419163,2.14235825 L22.6805989,2.09289107 L22.6431591,1.86175909 L22.7630968,1.77193314 L22.8927578,1.79281705 L22.9925972,1.67103621 L23.116745,1.7594028 L23.1548363,1.66821814 L23.297729,1.63133163 L23.4037834,1.59026834 L23.2068611,1.48303075 L23.0342471,1.43361389 L23.046727,1.37237122 L23.0599086,1.29578013 L22.865743,1.17671671 L22.8796263,0.955297004 L23.1791446,0.852991035 L23.3198821,0.976885425 L23.5680774,0.855758781 L23.678392,1.03888294 L24.0611099,1.00476418 L24.3343151,0.945584731 L24.4279396,0.703985636 L24.5485289,0.805637411 L24.8778687,0.915642747 L24.8723555,1.052772 L25.1559356,1.03400165 L25.2162804,1.02423905 L25.3014847,1.12865857 L25.6003515,0.99152932 L25.7785789,1.07436042 L26.0033179,0.866930412 L25.8693968,0.711634681 L25.9539997,0.598911921 L25.8139137,0.497914341 L25.698136,0.635093914 L25.5262237,0.637157143 L25.465879,0.565497674 L25.6107765,0.520156957 L25.6003515,0.429022618 L25.6530779,0.412315495 L25.712721,0.39349482 L26.1723734,0.251484271 Z M8.0873131,-1.0658141e-14 L8.18735974,0.106120868 L8.09938079,0.299706195 L8.41594477,0.3350631 L8.38129398,0.499510325 L8.44363535,0.654228131 L8.49350845,0.671580598 L8.69510392,0.351763596 L8.77126555,0.360088768 L8.77046438,0.32924551 L8.72129231,0.0836529339 L8.87506769,0.0413249506 L9.00460755,0.184909093 L9.30454717,0.4589878 L9.41470863,0.472879804 L9.69547013,0.3656556 L9.89836751,0.490533181 L10.0514919,0.582812197 L10.3929424,0.680607893 L10.3936935,0.836729946 L10.4643471,0.8797099 L10.4560349,0.952630384 L10.4463206,1.05599291 L10.6430089,0.996312461 L10.8903715,0.7313112 L10.9027897,0.446800952 L11.0946709,0.424583776 L11.2068854,0.598760418 L11.3406314,0.611198025 L11.3316182,0.752776102 L11.5186423,0.863811831 L11.5311106,0.915167109 L11.6267007,1.06572233 L11.6281027,1.17394957 L12.043762,1.1628159 L11.9876297,1.51252328 L12.065594,1.55891355 L12.1566274,1.61312747 L12.0562302,1.79347276 L12.2107066,2.11198582 L12.1594315,2.15637002 L11.9965928,2.22924036 L11.958537,2.32011513 L11.685587,2.46510351 L11.4701713,2.33470925 L11.3814913,2.4186631 L11.2747849,2.51094211 L11.3745311,2.68852907 L10.9769484,2.83146124 L10.9174111,2.93141345 L10.6402549,3.00909834 L10.5121171,3.34972827 L10.4546328,3.36988923 L10.0867937,3.28036856 L9.8568066,2.94455318 L9.56723218,2.86481208 L9.43769231,2.88141227 L8.9984986,2.94179484 L8.9659509,2.7766455 L8.97286102,2.74404693 L8.96174473,2.69133756 L8.88072598,2.30276266 L9.18692477,2.3041669 L9.2963852,2.22713399 L9.40584564,2.02316727 L9.37950703,1.87055583 L9.40028749,1.74357188 L9.46888804,1.66237638 L9.54439871,1.62075052 L9.65936722,1.41467743 L9.55546493,1.24817399 L9.25347231,1.17600578 L9.2139644,1.00604188 L9.05878696,1.03999454 L9.11211512,1.14822178 L8.96109378,1.21903589 L8.62094523,1.11838155 L8.59756096,1.4028918 L8.81217551,1.5145795 L8.71032623,1.88093722 L8.70897425,1.96554304 L8.60021485,1.95586377 L8.54753764,2.03219457 L8.41804785,2.01208376 L8.23512975,1.90310425 L8.22892065,2.12306934 L8.35355332,2.23405491 L7.80359727,2.27708502 L7.83058683,2.44083012 L7.71211318,2.62538815 L7.45999366,2.67533918 L7.32279257,2.60462537 L7.31107539,2.43531344 L7.13016023,2.44052921 L6.95835843,2.42387887 L6.90302733,2.74128859 L6.64324658,2.74545118 L6.66337608,2.61290039 L6.66067212,2.53872612 L6.53493783,2.4586841 L6.29829098,2.31525042 L6.28096559,2.24448645 L7.00347455,2.23896977 L7.08729741,2.03771125 L6.90783437,1.76227844 L6.73678367,1.76990149 L6.82806746,1.56573417 L6.98930378,1.53052772 L7.07898523,1.71995046 L7.15865199,1.68664977 L7.37957579,1.60129168 L7.48628219,1.57009736 L7.84651016,1.54166138 L7.83123778,1.2912041 L7.90674845,1.1857352 L7.85757638,1.00047505 L7.73084063,1.0080981 L7.64836976,0.931065179 L7.63990735,0.924645769 L7.58102104,0.830310536 L7.47090966,0.677648947 L7.53460301,0.631158377 L7.60455554,0.726897856 L7.77360331,0.733166811 L7.84560884,0.559692292 L7.69253449,0.470923891 L7.57616393,0.551417271 L7.49995222,0.389728387 L7.57476187,0.316206084 L8.0873131,-1.0658141e-14 Z M5.79465282,1.84623229 L6.33714794,1.9766767 L6.28096559,2.24448645 L6.15137566,2.23545916 L6.09183839,2.23129657 L6.11537289,2.1494491 L5.77872948,1.97597458 L5.79465282,1.84623229 Z"></path>
                </g>
                <g id="Opacity-25" opacity="0.25" transform="translate(14.421699, 0.000000)">
                    <path d="M16.6677765,17.5536021 L16.7369508,17.7293218 L16.7196447,17.9599663 L16.8862668,17.9599663 L17.1676932,17.8266202 L17.4648159,17.9866255 L17.5701622,18.2313779 L17.3956416,18.4996766 L17.3374848,18.9750735 L17.3422138,19.0644897 L17.3767759,19.3406206 L17.557585,19.5728215 L17.5465675,19.6042 L17.5874684,19.7438218 L17.7085109,19.8222932 L17.960054,19.7987468 L18.1361342,20.0591633 L18.0496536,20.4090461 L18.2367514,20.7636484 L18.0779774,21.1291954 L18.162848,21.3551206 L18.1298456,21.7049533 L17.9301707,21.8085275 L17.9050164,21.8100839 L17.8704543,21.9748085 L17.875133,22.1034855 L17.9741907,22.2399945 L17.8672849,22.4141076 L17.7682775,22.5678873 L17.8563176,22.8189154 L18.0119222,23.0212942 L18.008803,23.0448406 L17.999345,23.1327004 L17.9694617,23.4229391 L18.1392533,23.7492755 L18.1518305,23.7665463 L18.4678692,23.9391029 L18.6848,24.2591637 L18.8939329,24.3893971 L18.8734573,24.4976403 L18.6738327,24.6184852 L18.521297,24.8632376 L18.0700789,25.1299298 L18.0056336,25.1801354 L18.0889447,25.3684064 L18.1895619,25.672803 L18.0984027,25.790485 L18.084266,25.9191118 L18.0496536,25.9991395 L17.796551,26.0336308 L17.4773931,26.1952426 L17.4412212,26.2579996 L17.3563506,26.513747 L17.4569678,26.6345417 L17.523023,26.7114065 L17.5308712,26.7867149 L17.5387193,26.8636299 L17.5450079,26.942051 L17.5859088,27.048738 L17.3862339,27.2401217 L17.2431562,27.2526731 L17.2588525,27.3719617 L17.2006957,27.3845131 L17.4443906,27.5460747 L17.4302539,27.7971028 L17.5387193,27.8881255 L17.5104459,28.0073639 L17.6204708,28.0512938 L17.7557004,28.034023 L17.9286111,28.1940283 L18.114099,28.266224 L18.1219974,28.4482193 L18.2241743,28.4011265 L18.2084277,28.495262 L18.0779774,28.7117988 L17.8984762,28.8473037 L17.8688445,29.1071679 L17.7053918,29.347201 L17.7022223,29.5966726 L17.5308712,29.675144 L17.2761586,29.6217754 L17.3091611,29.4287851 L17.196017,29.3739103 L17.023056,29.4711586 L16.8768591,29.3346496 L16.7762419,29.3220982 L16.5891441,29.4617702 L16.4193525,29.5119758 L16.4366587,29.3346496 L16.6929308,29.0067567 L16.7542067,28.9581075 L16.7290524,28.926729 L16.6316046,28.9110648 L16.5529722,28.5910041 L16.4806787,28.3415324 L16.4492358,28.2740561 L16.3643149,28.1783642 L16.2196776,28.0606822 L16.183556,27.9587146 L16.2432723,27.7641679 L16.2008119,27.6009997 L16.064073,27.6182704 L15.9650154,27.5962803 L15.8989602,27.5366863 L15.8408034,27.4864807 L15.449352,27.1789713 L15.0688679,27.0989436 L15.0673084,27.0989436 L15.1254651,26.8777377 L15.166366,26.816537 L15.2544061,26.6706395 L15.3974335,26.6141582 L15.483914,26.4823685 L15.5578174,26.3380274 L15.6474171,26.2658317 L15.7747985,26.0869993 L15.7354571,25.8704625 L15.2355404,25.4829254 L15.1915203,25.5441261 L14.998134,25.5927753 L14.7135885,25.4389955 L14.6396851,25.3072058 L14.2796766,25.5598404 L14.0988674,25.4923641 L13.6869405,25.3370279 L13.5847636,25.1801354 L13.2090086,25.241336 L13.1838543,25.0436263 L13.0062145,24.8961725 L13.1178493,24.7345606 L12.800251,24.5776681 L12.7672486,24.433327 L12.4528197,24.0897198 L12.3616605,23.7790977 L11.7013598,23.5719995 L11.6431528,23.3947235 L11.416764,23.3382422 L11.5567226,23.109154 L11.2265471,22.5584487 L11.3900501,22.5082431 L11.4435282,22.2995886 L11.5960136,22.1270319 L11.6179985,21.9183272 L11.6431528,21.3692284 L11.6070312,20.9754156 L11.6557299,20.8953879 L11.5472645,20.7212748 L11.5142621,20.5753773 L11.5834364,20.316467 L11.3193162,20.0999804 L10.8539615,20.2835321 L10.8633692,19.7139997 L11.589725,19.4363125 L11.7328027,19.1633446 L11.8066558,19.0692091 L12.1635451,18.9876249 L12.1226945,18.7820832 L12.1713933,18.4149296 L12.3254886,18.2439293 L12.7138208,18.3114056 L12.8993087,18.4776866 L13.1492922,18.397709 L13.410243,18.5938121 L13.6523784,18.4008218 L13.7938463,18.3458968 L14.0171159,18.449471 L14.5437969,18.3945461 L14.9038053,18.5137844 L15.3832968,18.5655464 L16.1206702,18.2486486 L16.2589686,18.0995881 L16.1442147,17.7575875 L16.3077177,17.663452 L16.5121216,17.7199333 L16.6677765,17.5536021 Z M14.8334523,8.65105893 L14.9995834,8.66384632 L15.1083045,8.74077287 L15.2169249,8.93308922 C15.2169249,8.93308922 15.4278146,8.86900062 15.5365357,8.86900062 C15.645156,8.86900062 15.977519,8.79207408 15.977519,8.79207408 L16.3676449,8.72055564 L16.6214787,8.72616592 L16.7067116,8.79288277 L16.542395,8.99839086 L16.5897243,9.23159656 L16.6775782,9.30351934 L16.7844848,9.23498295 L17.0346895,9.38317521 L16.6895743,9.89987695 L16.661701,9.94117064 L16.6833242,9.97331603 L16.7153307,10.2194607 L16.716742,10.264899 L16.7056531,10.4348247 L16.5361954,10.6236031 L16.6128596,10.8516028 L16.4908319,11.2585251 L16.2523713,11.4123781 L16.0096767,11.5011823 L15.9525187,11.6962785 L16.1136094,11.7515221 L16.1923403,11.8864215 L16.5305501,12.4604897 L16.7579219,12.5996853 L16.5954703,12.9185615 L16.6818625,13.0772667 L16.3966775,13.2093862 L15.8946551,13.4688238 L15.5271606,13.7310412 L15.4999929,13.6548223 L15.5083599,13.3331662 L15.2879943,13.1912413 L15.2768046,12.99195 L15.2433365,12.9758267 L15.1095142,12.9087056 L14.9191389,13.0716564 L14.7008902,12.9150234 L14.2734655,13.1325102 L14.0691283,13.3142631 L13.9303664,12.9380711 L13.8968479,12.8471946 L13.6633268,12.8961203 L13.3181612,12.8129264 L13.1459816,12.7772936 L12.9976935,12.7632426 L12.9445678,12.2801015 L12.7410371,12.129281 L12.6348361,12.165116 C12.6348361,12.165116 12.6469835,12.2312263 12.6348361,12.2273851 L12.628,12.228 L12.6622474,12.3069356 L12.662955,12.3726463 L12.4671951,12.6202241 L12.4832683,12.7901115 L12.4951464,12.9188034 L12.3566537,12.9803187 L12.3630223,13.1530368 L11.981207,13.316707 L11.8183012,13.3013408 L11.6861266,13.3607332 L11.5455615,13.4950358 L11.4875361,13.6103833 L11.647662,13.6817047 L11.7014922,13.8446673 L11.5805385,13.9376732 L11.6224907,14.2627896 L11.0994533,14.3132352 L11.0694297,14.0544361 L10.9400351,14.0544361 L10.8044234,14.2132033 L10.7413941,14.2865971 L10.6526374,14.2873047 L10.7043953,14.0160206 L10.6071977,13.979627 L10.4994867,14.1348559 L10.5236977,14.2328659 L10.5802573,14.4454654 L10.6500597,14.6915267 L10.7071753,14.9026603 L10.7455893,15.0453536 L11.1057209,15.2593178 L10.7866317,15.4411342 L10.5820264,15.2823671 L10.578,15.278 L10.1126125,15.4654689 L9.70740822,15.7704231 L9.346086,15.580264 L9.17689864,15.6867631 L8.86428949,15.5270395 L8.55590752,15.6888121 L8.35607319,15.7932122 L8.08880545,15.5796143 L8.06298954,15.5588742 L7.86043773,15.5090481 L7.72330639,15.3237366 L7.50953246,15.3237366 L7.28956876,15.3154406 L7.29445013,15.3133916 L7.44687979,15.0382731 L7.46705949,15.0022903 L7.37939608,14.8411673 L7.2359743,14.5797922 L7.26309863,14.5404111 L7.4732996,14.2355068 L7.4810494,14.193327 L7.52070427,13.9665853 L7.51230025,13.6969142 L7.67524752,13.5406389 L7.76643357,13.4528309 L7.90844629,13.5081545 L7.84926593,13.7010623 L7.9376842,13.7377447 L8.17511014,13.2959059 L8.40347786,13.1285859 L8.48208305,13.0387288 L8.32829465,12.7670087 L8.45078188,12.68055 L8.70697846,12.5554099 L8.86640308,12.6259262 L9.15948673,12.5581585 L9.39344035,12.423323 L9.55422371,12.4406147 L9.916,12.479 L9.91357164,12.4615074 L9.52892585,12.4202108 L9.36743528,12.4027216 L9.13361512,12.5390966 L8.99471806,12.3922584 L9.09469564,12.2187822 L9.19401613,12.2292959 L9.26048252,12.3153264 L9.36879999,12.2118067 L9.42333781,12.1593392 L9.97715698,12.1195084 L10.082189,12.160704 L10.2488352,12.2312167 L10.4090621,12.0197293 L10.681448,11.9203545 L10.7079334,12.0369657 L10.7162228,12.1559021 L11.1379179,12.141193 L11.1546988,12.0467717 L11.1621794,11.9524011 L11.5691154,11.9748438 L11.5467241,12.3081487 L11.9280845,12.3914497 L12.3189978,12.3594031 L12.613,12.23 C12.5178921,12.2500639 12.1755562,12.3368613 12.1755562,12.3368613 L11.6915784,12.2553859 L11.6421322,12.2234932 L11.7073548,12.1717371 L11.9961185,12.0081292 L12.0065521,11.9430803 L12.0379537,11.7487422 L11.6404689,11.4305231 L11.5323526,11.3508167 L11.5023623,11.3249386 L11.376151,11.2389649 L11.1782151,11.1011845 L11.0753408,11.1634536 L10.9347645,11.2339611 L10.8747839,11.1970141 L10.7569901,11.0662087 L10.7534618,11.027796 L10.9347645,10.8949688 L11.0714597,10.553702 L11.2716134,10.4523126 L11.6426362,10.4830934 L11.7528191,10.516098 L11.9190006,10.6635321 L12.02127,10.7084143 L12.1136099,10.7187251 L12.5350869,10.673944 L12.5379095,10.813089 L12.5385648,10.8389671 L12.6822158,10.7935289 L12.7833259,10.7732611 L12.9269265,10.7026524 L12.9869071,10.6725793 L13.0231474,10.6697489 L13.292304,10.6523115 L13.4129709,10.4984079 L13.6403427,10.3075573 L13.790899,9.99287619 L13.8006269,9.85024366 L13.9317777,9.76982965 L13.8382786,9.58802625 L13.8355568,9.53839296 L13.7288518,9.42861342 L13.7204848,9.2859809 L14.055872,8.99020289 L14.1687263,8.86258165 L14.4883371,8.7343539 L14.8334523,8.65105893 Z M8.76297252,2.81662384 L8.95258498,2.87908094 L8.99169696,3.01789124 L9.15066498,2.91795987 L9.37167791,2.91444822 L9.64500815,2.96235709 L9.74334252,3.02270721 L9.74334252,3.27328814 L9.93784397,3.42805133 L10.1484237,3.55085856 L10.3987706,3.55783168 L10.6232613,3.61612498 L10.6790059,3.45995713 L10.7662014,3.44049258 L10.9411469,3.53495582 L11.0462855,3.57719589 L11.0510737,3.57684473 L10.9777892,3.67261229 L10.9694224,3.90924697 L10.9024885,3.90438084 L10.820938,4.09596613 L10.7630261,4.19032904 L10.7149426,4.18200143 L10.6591979,4.16399171 L10.5643413,4.41106099 L10.403962,4.44783292 L10.4255845,4.85036773 L10.5225076,4.83928097 L10.5538577,5.02735462 L10.4582954,5.09332337 L10.690548,5.33898799 L10.6103583,5.36878681 L10.6480087,5.57286352 L10.5859133,5.67485172 L10.6131304,6.12042925 L10.7846486,6.17872255 L10.8188716,6.4632661 L10.8278935,6.52712786 L10.9087384,6.58406667 L10.8774387,6.62294559 L10.8968939,6.80545078 L10.9973452,7.02543023 L10.9603501,7.15315376 L11.1667464,7.18365491 L11.3390206,7.07955973 L11.3564597,7.17743428 L11.2545972,7.33982276 L11.2036911,7.34955503 L11.1270296,7.56125703 L10.9875672,7.67784364 L10.721898,7.7312708 L10.7515848,7.7843468 L10.8540522,8.05564643 L10.9474472,8.35062458 L10.8892328,8.40656006 L10.8122185,8.7774399 L10.8519353,9.24172948 L10.8582355,9.32154414 L11.0074256,9.71158753 L10.9886256,9.96211829 L10.9228006,10.009074 L10.6075358,9.92925933 L10.4778514,9.88691893 L10.4360177,9.77865994 L10.4346568,9.72658727 L10.3251836,9.61556913 L10.2366272,9.31642718 L10.1396537,9.0478867 L10.1104205,8.92292231 L10.0922758,8.88058191 L10.018336,8.73484866 L9.98486907,8.62588735 L9.97720796,8.49194319 L9.88935722,8.32468857 L9.81405658,8.25876999 L9.79802873,8.01099838 L9.39566928,7.79026643 L9.2304514,8.01099838 L9.08751123,8.00613224 L9.06377187,8.05153279 L9.05737081,8.17870449 L9.00666637,8.3149563 L8.88318138,8.38855034 L8.84623669,8.70916349 L8.56242282,8.77302526 L8.5345505,8.71889576 L8.50178917,8.66682309 L8.35396,8.51276222 L8.59800666,8.41905148 L8.59246244,8.34204613 L8.54432849,8.30181272 L8.21732008,8.39682779 L8.08622439,8.45446892 L8.03042934,8.48567239 L7.8735278,8.44057284 L7.84353859,8.37605892 L7.78078805,8.22129572 L7.65876472,8.16781839 L7.50050233,8.28651198 L7.33735094,8.28094351 L7.40751058,8.41283085 L6.92108053,8.45306427 L6.89945806,8.18658061 L6.80676871,8.05193412 L6.73141767,7.92426075 L6.24957421,8.00191827 L6.3632308,8.30386954 L6.07946734,8.58354695 L5.96510512,8.55650728 L5.68270251,8.48497007 L5.11164745,8.60712513 L4.99869649,8.32328391 L4.97693033,8.1762367 L4.94421022,8.19089181 L4.83779435,8.25500163 L4.71023626,8.15186188 L4.54955534,8.33411908 L4.36154054,8.12512008 L4.25150029,8.30556428 L4.06137127,8.27836923 L3.51474405,7.77047648 L3.41165053,7.81504614 L3.26959491,7.87920632 L3.17067949,7.93697062 L3.06275347,7.94951056 L2.78141084,7.96557578 L2.72150787,7.97811572 L2.44575284,8.0373405 L2.49035287,8.1000402 L2.55715223,8.17804971 L2.59757415,8.2254396 L2.61982383,8.42053891 L2.62193805,8.50620332 L2.82671561,8.67204276 L2.86149961,8.74587229 L3.06486769,8.73544752 L3.06204872,8.85248696 L3.14913456,9.01555654 L3.13660024,9.15415058 L3.28907596,9.16462571 L3.41371442,9.31581004 L3.37822568,9.41053947 L3.43530969,9.51297416 L3.40399906,9.59657376 L3.38104464,9.65509348 L3.327434,9.65373373 L3.19368425,9.74357811 L3.19227477,9.9066477 L3.112186,9.94426752 L3.06345821,9.87527266 L2.87821204,9.88363262 L2.85102917,9.86343778 L2.70273156,9.89058247 L2.55161498,9.90735275 L2.51119306,9.96864234 L2.3963203,9.71502331 L2.23684751,9.64325859 L2.06554514,9.75057832 L2.00287354,9.71154839 L1.86565043,9.77077317 L1.85452559,9.80421301 L1.93320487,9.92054739 L1.78349778,10.1532665 L1.67834037,10.341416 L1.55017821,10.4270804 L1.42342553,10.4807151 L1.373993,10.5002552 L1.23329652,10.560185 L1.29465931,10.7524641 L1.35934445,10.8402437 L1.33014805,10.9405632 L1.2869575,11.003968 L1.16508767,11.0415878 L1.04951017,11.0653079 L0.966652775,10.9614631 L0.954068117,10.6751093 L0.763284697,10.7371543 L0.731974067,10.7489892 L0.424153324,10.746874 L0.314767474,10.3441858 L0.47217638,10.293321 L0.665074023,10.4075906 L0.890037375,10.332351 L0.974253909,10.2508162 L0.830839142,10.1449066 L0.88027168,10.0661416 L1.02932437,9.99372222 L1.01608531,9.92613748 L1.16644681,9.8383579 L1.34056814,9.89828774 L1.42483502,9.85296265 L1.58501255,9.6091137 L1.42070725,9.57919914 L1.38385937,9.32210519 L1.11484971,9.40666166 L1.0055142,9.44634628 L0.921952069,9.46654113 L0.710982857,9.75148482 L0.532935111,9.77706832 L0.429690574,9.76175851 L0.509074598,9.65373373 L0.411568666,9.4286695 L0.256273982,9.26630498 L0.142760364,9.30956525 L0.0438952882,9.07407626 L0.0223000145,8.99878626 L-2.70894418e-14,8.9200717 L0.596814836,8.63789787 L0.728450362,8.57519817 L0.822432591,8.54034821 L0.775819016,8.40099876 L0.909518426,8.32298925 L1.07523321,8.23727448 L1.28142025,8.21289966 L1.34409185,8.10840016 L1.40600837,8.00662017 L1.45272262,7.90841582 L1.57459245,7.86102592 L1.77791019,7.7948513 L2.02789184,7.71402157 L2.27238658,7.40752328 L2.22431319,7.34688838 L2.35589838,7.23609373 L2.16239667,7.00337461 L2.00352794,6.93019978 L2.02029071,6.8424202 L2.03141555,6.78113061 L1.81969125,6.60209653 L1.57041434,6.62294607 L1.50145042,6.63830624 L1.20545925,6.61599622 L1.15602671,6.58255638 L0.986838567,6.51512273 L0.990311933,6.47040198 L1.04593612,6.15161555 L1.21859763,6.16838583 L1.40047112,6.16314827 L1.4123007,6.33311734 L1.55017821,6.40417699 L1.80368357,6.35401723 L1.92278478,6.168688 L1.89560191,6.00425867 L2.44852146,5.96104876 L2.32317826,5.84959941 L2.32947059,5.62871517 L2.51330728,5.73815006 L2.64353333,5.75834491 L2.69643923,5.68169515 L2.80577474,5.69141487 L2.80718422,5.60645551 L2.909573,5.23856691 L2.69377128,5.12641251 L2.71732976,4.8407134 L3.0592801,4.94178833 L3.21115176,4.87067831 L3.15749077,4.76199883 L3.31343986,4.7279043 L3.35315704,4.89857842 L3.65679968,4.97104819 L3.76125234,5.13824739 L3.6456245,5.34518158 L3.56976418,5.38698138 L3.50080025,5.46851617 L3.47990972,5.59603074 L3.50638784,5.74927989 L3.39629725,5.95409891 L3.28630734,6.03145372 L2.97848659,6.03004361 L3.05998484,6.42024222 L3.07110968,6.47317185 L3.06416295,6.50590663 L3.09688306,6.67174608 L3.53840321,6.61111118 L3.66862926,6.59439126 L3.95973757,6.67451594 L4.19094291,7.01173457 L4.56073051,7.10162932 L4.61851927,7.08138411 L4.74738617,6.73928045 L5.02590982,6.66132131 L5.0858128,6.56095142 L5.48550155,6.41742199 L5.38522699,6.23909297 L5.49249862,6.14642835 L5.58164834,6.06212369 L5.79820514,6.19306282 L6.07255069,6.04746858 L6.11085839,5.95621408 L6.27450928,5.88303925 L6.32605605,5.83846958 L6.17076136,5.51862557 L6.27174066,5.33752668 L6.38178091,5.22814214 L6.45351346,5.2789566 L6.52801464,5.46987593 L6.577,5.702 L6.60939434,5.69983456 L6.55289366,5.43616022 L6.47829865,5.24592941 L6.40647575,5.19531156 L6.2962969,5.30427288 L6.12619002,5.20363918 L6.18269071,4.85382921 L5.76430341,4.86496614 L5.76289215,4.75670715 L5.66667467,4.60610776 L5.65412456,4.55473742 L5.46587295,4.44366912 L5.47494532,4.30204951 L5.34032148,4.28960825 L5.22742092,4.11538051 L5.03422992,4.13760421 L5.02173022,4.42219792 L4.77274416,4.68727692 L4.57476496,4.74692471 L4.58454296,4.64358203 L4.5929097,4.57069032 L4.52179242,4.52764759 L4.52103639,4.37147974 L4.17734491,4.27365535 L4.02316508,4.18134926 L3.81898644,4.05643505 L3.91424629,4.01449598 L4.21479362,3.97351007 L4.26635491,3.91105296 L4.65198088,3.78684108 L4.8876104,3.34131371 L5.07172904,3.40512531 L5.39107633,3.31422388 L5.68391216,3.38706542 L5.81772957,3.58973748 L5.79474624,3.81874688 L5.88889724,3.93603581 L6.04993174,3.93603581 L6.12457716,3.97356024 L6.27099507,3.78548658 L6.36721256,3.78127261 L6.80510545,3.8152854 L6.94245099,3.88120398 L7.19204187,3.80279398 L7.32943782,3.6764751 L7.47585574,3.70010345 L7.70805792,3.71394937 L7.80629148,3.41761673 L8.00296023,3.38019263 L8.22397315,3.18795517 L8.33626889,3.22191779 L8.59216002,3.0512017 L8.76297252,2.81662384 Z M12.3596193,7.14983628e-14 L12.4630953,0.0237789313 L12.483238,0.123144508 L12.8737846,0.0930919864 L12.9572184,0.186892281 L12.9147732,0.410161268 L12.9370255,0.597711265 L13.0829468,0.707600283 L13.1975741,0.634138564 L13.2580524,0.492780406 L13.189939,0.286966167 L13.2337405,0.128810977 L13.3275722,0.0930919864 L13.3601721,0.224685604 L13.4429027,0.292531448 L13.5547171,0.30305489 L13.6110764,0.478715421 L13.6249402,0.713924467 L13.7541847,0.708308592 L13.8917677,0.616633223 L14.0377392,0.664899394 L14.1086152,0.779695979 L14.1704497,0.872079657 L13.902919,1.02047031 L13.9404416,1.27520843 L14.1273514,1.35155398 L14.05,1.695 L14.0631078,1.69169709 L14.2136511,1.7146196 L14.7540927,1.94223955 L14.8477184,1.89574248 L15.1536694,1.98457346 L15.3506996,2.1518024 L15.4131335,2.18716425 L15.5534467,2.18841821 L15.5600662,2.21229373 L15.5786208,2.25723588 L15.7375388,2.3144669 L16.0301004,2.2381756 L16.2335997,2.18089442 L16.4688425,2.03463179 L16.7041354,1.89468915 L17.0602341,1.7738068 L17.5053449,1.81834769 L17.8360187,1.89468915 L18.0274825,1.95101732 L18.20661,2.04230606 L18.3918556,2.010355 L18.463316,2.09015742 L18.6464553,2.15395922 L18.8253321,2.13810909 L18.8661523,2.212695 L19.9661918,2.56887158 L21.0853878,3.11585167 L21.6576731,4.05722924 L21.2733914,4.32467517 L21.1314735,4.4794146 L21.07596,4.45930099 L20.97747,4.52385517 L20.914334,4.75909924 L20.8331449,4.77294303 L20.8081714,4.71119773 L20.720764,4.6237712 L20.6479495,4.65502004 L20.6534658,4.44054165 L20.5556277,4.41350614 L20.283075,4.43296769 L20.2962137,4.3434345 L20.4439989,4.17826206 L20.3357301,4.14219799 L20.2885411,3.97632333 L19.8285866,4.11792121 L19.768961,4.13663038 L19.7162056,4.15328306 L19.7266364,4.24417053 L19.5816093,4.28931332 L19.6419871,4.36078939 L19.8140438,4.35873289 L19.9298849,4.22195025 L20.0700477,4.32261866 L19.9853984,4.4350242 L20.119393,4.58976364 L19.8945308,4.7965176 L19.7162056,4.71395646 L19.417175,4.85068894 L19.331924,4.74655958 L19.2715462,4.75634052 L18.9878106,4.77504969 L18.9933268,4.63836737 L18.6638064,4.5286704 L18.543101,4.42740008 L18.4494251,4.66816161 L18.1761202,4.72714818 L17.7931424,4.76115575 L17.6828175,4.57867858 L17.4344862,4.69941045 L17.2936214,4.57586969 L16.993989,4.67789239 L16.9800479,4.89854029 L17.17432,5.01721566 L17.1611813,5.09355713 L17.1486946,5.15460021 L17.1486946,5.16433099 L17.3214032,5.20390616 L17.5184334,5.31074409 L17.4123209,5.35167355 L17.2693499,5.38849 L17.2311875,5.47937747 L17.1070218,5.39124872 L17.0070775,5.51268282 L16.8773956,5.49186698 L16.7573922,5.58135001 L16.7948525,5.81177885 L16.6560438,5.86103465 L16.609607,6.15245641 L16.3313877,6.38770049 L16.1711658,6.09071111 L15.9519202,6.01923504 L15.9512181,5.9685748 L15.9991091,5.56123639 L16.1857588,5.5543145 L16.1899211,5.48424286 L15.9082415,5.38773762 L15.8062412,5.09145047 L15.6966183,4.98807349 L15.7105092,4.8173836 L15.8332708,4.7646167 L15.803483,4.50233711 L15.8159698,4.48011683 L15.8319168,4.18031857 L15.7201877,4.12203422 L15.5828834,4.10608376 L15.5196973,4.0929422 L15.2491506,4.06445208 L15.2040177,4.00060012 L15.1291472,3.89030125 L15.0868225,3.76194526 L15.0583888,3.69041902 L15.2213688,3.64602862 L15.3386642,3.60093599 L15.2144484,3.49058696 L14.9279547,3.50031773 L14.7999778,3.29000251 L14.4328466,3.17945284 L14.2941382,3.18918362 L14.2036717,2.956297 L14.3008078,2.75576272 L14.6906559,2.92504816 L14.8266564,3.03885814 L14.9508722,2.80707502 L15.0625511,2.50657454 L15.0708756,2.36086366 L14.9605507,2.31852976 L14.8509279,2.28387013 L14.8530341,2.09928629 L14.8301166,2.09161202 L14.7843317,2.09577519 L14.4506491,2.34215448 L14.2737782,2.49689392 L14.2363179,2.43304196 L14.1176183,2.45039685 L13.969131,2.45731874 L13.9587505,2.43514862 L13.8790157,2.4538578 L13.676419,2.3408002 L13.5550115,2.08539234 L13.5550115,2.0118096 L13.4669522,1.92789418 L13.4771823,1.82702513 L13.680832,1.65979619 L13.7967233,1.70629326 L13.937,1.722 L13.7439376,1.38287134 L13.6250909,1.47808825 L13.4784663,1.3731068 L13.4534513,1.39197816 L13.39232,1.43817 L13.5271403,1.63695175 L13.39232,1.80213943 L13.2074194,1.70135724 L13.0879699,1.73004374 L13.0115182,1.73773394 L13.0010702,1.94354818 L12.8996034,1.93651569 L12.8210922,2.04220545 L12.7403709,2.03117607 L12.5388438,2.20258675 L12.3956852,2.0766596 L12.2254521,2.11723557 L12.1747187,2.27959002 L12.0252812,2.22646687 L12.0794806,2.41118363 L12.0628541,2.48327933 L11.6882809,2.43359654 L11.4562133,2.56513957 L11.3756427,2.38113111 L11.2387128,2.32441583 L11.1928518,2.34819476 L10.8634364,2.15290397 L10.8037116,2.00527222 L10.9496329,1.88698468 L10.8155159,1.61681555 L11.2859802,1.30187119 L11.3054196,1.2010384 L11.2338404,1.05406437 L11.4645517,0.669806961 L11.8342524,0.485747914 L11.9364225,0.569733075 L12.2629747,0.353445987 L12.3992014,0.450737232 L12.5082531,0.392655927 L12.3519339,0.230301479 L12.3596193,7.14983628e-14 Z"></path>
                </g>
            </g>
        </g>
    </g>
</svg>