<?xml version="1.0" encoding="UTF-8"?>
<svg width="48px" height="48px" viewBox="0 0 48 48" version="1.1" xmlns="http://www.w3.org/2000/svg" xmlns:xlink="http://www.w3.org/1999/xlink">
    <title>Icons/IXT/Chart-Types/48dp/ic_map</title>
    <g id="Icons/IXT/Chart-Types/48dp/ic_map" stroke="none" stroke-width="1" fill="none" fill-rule="evenodd">
        <polygon id="Path" fill="#006699" points="28.1658105 9.40513684 28.2237654 9.45257744 28.182412 9.60701955 28.2714286 9.73371429 28.3301714 9.72004812 28.4598797 9.64321805 28.5072301 9.38795188 28.460006 9.30063759 28.5015639 9.11776241 28.5818707 9.08835489 28.6323188 9.22558195 28.6894737 9.2871218 28.8348511 9.30341654 28.8590436 9.55714286 28.9065383 9.73233083 28.9587008 9.78241203 29.1867729 9.63575338 29.3129865 9.67967519 29.3420331 9.75530827 29.4714045 9.84995489 29.4536962 9.93513985 29.2855579 9.94582256 29.1885233 10.0563368 29.155994 10.1916511 29.2289323 10.327194 29.3881083 10.3752301 29.3161023 10.7153263 29.3327338 10.7779609 29.6350316 10.8256361 29.9432962 11.0320662 30.0493293 11.0456 30.0244271 10.9777805 30.0925474 10.7928 30.0708211 10.6269053 30.0249985 10.5944481 29.7721504 10.5577805 29.8072541 10.4563248 29.7764632 10.3817805 29.8917955 10.3226947 29.9367459 10.2370586 30.0843188 10.2354707 30.0572391 10.1195008 30.1630917 10.0624842 30.228782 10.288812 30.3502677 10.4919639 30.4469233 10.4346647 30.5771368 10.4902135 30.608409 10.6084571 30.8502617 10.5854436 30.7653594 10.6837113 30.6345203 10.8871098 30.6403489 10.9621835 30.7333594 10.9674346 30.8722226 11.1261654 30.8884391 11.353215 30.887218 11.3734797 30.9672301 11.3735579 31.1190556 11.4804511 31.5816962 11.3469173 31.8346286 11.2101113 32.0203729 11.0614977 32.4418707 10.8729203 32.8100692 10.9084331 32.977197 10.9923429 33.2157895 10.9936722 33.3359158 11.0526436 33.4557654 11.1581113 33.6754947 11.2232782 33.7202947 11.2171008 33.7761925 11.1714466 33.8802286 11.1957474 33.9367519 11.2828331 34.0155308 11.3729023 34.1390857 11.3544902 34.1913023 11.3299609 34.4847459 11.3668511 34.9263278 11.3102857 36.3882707 11.9112602 37.4558857 12.9884992 37.5759218 13.0153203 38.1237895 13.1379609 38.1490105 13.8051789 38.1811489 13.8922707 38.3107789 14.0013955 38.3849383 14.085582 38.5057564 14.3602647 38.598382 14.3796271 38.6833383 14.2694135 38.7968361 14.456012 39.1366316 14.5064902 39.174412 14.6072962 39.0981895 14.685997 39.0295699 14.8034045 39.099206 15.0963188 39.1069955 15.2803489 39.1966376 15.3907068 39.339194 15.4881865 39.3369925 15.6405774 39.221197 15.8030556 39.0848722 15.8596692 38.819615 15.8799338 38.5682586 16.179603 38.4366256 16.6365594 38.3654195 16.7364752 38.1979308 16.8444211 38.1290767 16.9065323 37.9622135 17.2485053 37.8178105 17.3856602 37.8138767 17.4911639 37.7174015 17.7794647 37.5311338 18.1096301 37.4612571 18.3594526 37.3988571 18.4908211 37.3562586 18.8057865 37.4539789 19.1318316 37.5418526 19.2826586 37.5999038 19.3938767 37.6838496 19.7803188 37.7175759 20.0124451 37.6318857 20.241618 37.236788 20.543182 37.2084692 20.6143459 37.248812 20.7614135 37.354394 20.7941173 37.4215519 20.6766195 37.6283008 20.6774617 37.6850466 20.6236451 37.8254917 20.5873925 37.9229353 20.5547489 38.0485113 20.6523188 38.1038857 20.7996812 38.2346586 20.7501474 38.430418 20.7090947 38.5903158 20.6050947 38.7427789 20.7330827 38.8393383 20.7686737 38.9474286 20.7628632 39.0375398 20.6378707 39.1767759 20.6625323 39.426785 20.6018947 39.493991 20.7083008 39.5931248 20.7522346 39.6962346 20.7298406 39.6931308 20.8194707 39.8116571 20.8917835 40.0563128 20.9038496 40.1277053 20.9916451 40.5005654 20.9679639 40.5913203 21.0726977 40.6919639 21.1129203 40.807585 21.2267368 40.9324872 21.2594647 41.0020571 21.3413414 41.2351158 21.3090526 41.3190496 21.2023579 41.483982 21.2345684 41.5272 21.2842226 41.4300571 21.3609624 41.4489383 21.4620752 41.6162226 21.5516812 41.6538947 21.7120722 41.5555008 21.8216421 41.4781955 21.970388 41.4310737 22.133606 41.5101414 22.2267669 41.4694857 22.3299489 41.4827008 22.5734797 41.6769624 22.6195729 41.8022075 22.7175699 41.865582 22.7059188 41.9631579 22.817612 42.1330045 22.9038075 42.2233744 22.9176 42.360403 22.8608481 42.4397233 22.9195609 42.5593023 22.8630376 42.6076271 23.0125774 42.6888541 23.0711038 42.8560421 23.1268211 42.9820692 23.0833624 43.073594 23.1730466 43.2425865 23.4102256 43.3501233 23.4826526 43.3352842 23.664794 43.4237835 23.7136602 43.7176541 23.7073744 43.7733654 23.7537985 43.817606 23.8986466 43.9062195 24.0201985 44.0540692 23.9698045 44.0961023 23.9033865 44.2687519 23.9203308 44.3519579 23.8582436 44.5825323 23.8697203 44.7087639 23.8032361 44.8428211 23.6262496 44.950388 23.6544602 45.1134015 23.6132692 45.2556331 23.6284752 45.2571008 23.5465744 45.2785143 23.344788 45.2020271 23.2595248 45.1820812 23.1710195 45.2622977 23.0830075 45.3018045 22.8659008 45.3545083 22.817606 45.3391519 22.6257263 45.5183158 22.6485774 45.9003429 22.7716391 45.9764752 22.7276451 46.137985 22.7195609 46.1497203 22.6303699 46.0333414 22.488391 46.0670737 22.3329805 46.2624662 22.2746526 46.2814075 22.120788 46.4394165 21.8304602 46.4602707 21.7241203 46.5499609 21.6812511 46.7304722 21.7073985 46.8503519 21.5743519 46.9131368 21.5550436 47.0125895 21.6113744 47.0492872 21.7045353 47.1585143 21.8314947 47.3075368 21.9391519 47.2629955 22.1823699 47.3748211 22.239188 47.5463398 22.3003429 47.6132752 22.291615 47.7544662 22.3809985 47.8366316 22.4740451 47.9716752 22.5248481 47.9287699 22.622809 47.9606376 22.7025805 47.9385263 22.8697504 47.8572992 22.9448782 47.820782 23.1965955 47.7107729 23.3511218 47.7587609 23.4001323 47.7802887 23.5257865 47.7458165 23.693191 47.7860451 23.8989774 47.7029474 24.0122707 47.7301835 24.097588 47.6257744 24.1846677 47.6648301 24.2726556 47.5634286 24.5852451 47.4387429 24.6872722 47.3388932 24.7005113 47.2665383 24.8320481 47.3838737 24.9300992 47.4669474 25.0833985 47.489618 25.3087759 47.0282286 25.6854737 47.1210226 25.752403 47.2243068 25.8973113 47.1954827 26.0519398 47.0613053 26.1058105 46.9554165 26.356409 46.8337263 26.4317714 46.9458286 26.6306466 46.9309835 26.8229474 46.9635248 26.8878556 47.0290707 27.020788 47.0502857 27.1617504 47.1226647 27.1886917 47.2399338 27.1387248 47.4858286 27.1223218 47.5136541 27.0932451 47.6881444 27.2195489 47.9177805 27.4596271 48 27.4915549 47.9200301 27.6499128 47.9562226 27.8887459 47.9239038 28.0771068 47.8170827 28.2417744 47.8488 28.3854075 47.7781654 28.519982 47.7902195 28.593991 47.6515789 28.6275128 47.584794 28.7906045 47.4142857 28.6877474 47.2179248 28.4741173 46.9977504 28.5873744 46.8595729 28.4936602 46.7137143 28.433985 46.5189895 28.4071398 46.4991639 28.5027188 46.3750135 28.6064962 46.2302977 28.468782 46.0806496 28.5460872 46.0458586 28.503194 45.9195549 28.4959759 45.9171609 28.3606075 45.8264842 28.1836391 45.5765955 28.0807639 45.4766135 28.1684331 45.3709955 28.0678015 45.3494617 27.8564632 45.5328361 27.5667368 45.3846015 27.3876932 45.3245053 27.1844812 45.1633083 27.2818165 45.0717654 27.4669534 44.9770647 27.4081925 44.7304662 27.3589895 44.5104301 27.4858586 44.247206 27.5618105 44.1526015 27.6424962 43.9917474 27.6179549 43.8763429 27.5624481 43.8657143 27.7120541 43.8206556 27.8314586 43.8636451 27.896 43.802394 28.074791 43.6251729 28.1085293 43.6958135 28.2311158 43.5461835 28.3617383 43.5097925 28.4893113 43.4441865 28.5579549 43.2881023 28.5856421 43.2579669 28.6855278 43.3566496 28.772794 43.3639459 28.9133835 43.338009 29.056391 43.2416962 29.1066707 43.2686857 29.357588 43.3067669 29.4475669 43.2579188 29.5203008 43.2713744 29.6138045 43.3408782 29.6932511 43.3486617 29.8673504 43.2374797 29.9896662 43.2373414 30.1396992 43.3887338 30.1664842 43.4307308 30.3574917 43.4745985 30.3960241 43.6112602 30.3625684 43.6447398 30.470015 43.7718677 30.4450286 43.8568301 30.4650767 43.9369925 30.3588391 44.1607759 30.3062737 44.3085173 30.359212 44.3496842 30.4403729 44.3558316 30.5742496 44.4972511 30.5555789 44.5570165 30.6748632 44.5078135 30.7388451 44.5271579 30.9352241 44.4444632 31.0211188 44.3024481 31.0025504 44.1410466 31.1331368 44.128 31.2522466 44.1603729 31.3883188 43.9361263 31.5437113 43.8965895 31.8058226 43.9859789 31.9612391 44.0247699 32.1045113 44.257215 32.2495218 44.2484571 32.3034165 44.425618 32.4311338 44.4314526 32.5520722 44.5119278 32.5893774 44.5216842 32.7561504 44.6125835 32.829588 44.6611368 32.956782 44.6442947 33.0126797 44.3896902 33.2410165 44.3375759 33.3806917 44.1933895 33.4661594 44.0977023 33.4827669 43.948403 33.4533113 43.8882286 33.4098466 43.7625504 33.415609 43.6416782 33.4680421 43.5401504 33.5844271 43.4133714 33.4646677 43.2552481 33.3919278 43.3531429 33.3085714 43.3586045 33.2124331 43.4340752 33.1100331 43.3615759 32.822791 43.1006737 32.6647038 42.890797 32.615206 42.7509714 32.5525414 42.7057444 32.3789895 42.799603 32.2979368 42.7393083 32.1056602 42.5838316 31.9665143 42.6411008 31.7963609 42.7521444 31.6732571 42.7272962 31.5194647 42.6369624 31.5289444 42.4182617 31.3453353 42.3277353 31.197594 42.3618466 31.1263519 42.2978346 31.1105744 42.0979068 31.1760902 41.9972692 31.3130526 41.911988 31.2422977 41.8186767 31.0875429 41.566394 31.1981353 41.529997 31.2742797 41.3987008 31.3665323 41.2723128 31.3607459 41.0161444 31.3882947 40.8883609 31.5457564 40.7762526 31.578388 40.7021113 31.6448 40.5127459 31.6938226 40.4500571 31.7783639 40.3555429 31.7714526 40.2283549 31.6415579 40.079194 31.528397 39.9977744 31.5514286 39.8635068 31.6977023 39.9048902 31.8205774 39.8018586 31.9537323 39.8937684 32.0192 39.8775218 32.1670135 39.8113143 32.2240241 39.7714346 32.4280421 39.6471398 32.4602226 39.4260692 32.3642887 39.3699669 32.2733835 39.2931429 32.3762286 39.1949774 32.3801985 39.0863038 32.4754286 38.9755188 32.5312902 38.8195729 32.4965353 38.7595489 32.512806 38.6707729 32.4016241 38.5529985 32.3854075 38.340818 32.3977083 38.275597 32.3343218 38.0776842 32.2287519 38.0262195 32.2835789 37.9161985 32.1962346 37.6996391 31.9099789 37.6527098 31.8259669 37.5917654 31.5335459 37.5077233 31.4619308 37.4642707 31.3406256 37.322418 31.291218 37.0874346 31.159194 37.170406 30.9608782 37.0953564 30.6053955 37.0397233 30.5482466 37.0181113 30.4738647 37.0479038 30.2300571 37.086015 30.1408662 37.0686436 29.8224301 37.136018 29.7257383 37.1026346 29.5599398 36.9698827 29.5674707 36.9634647 29.5001203 37.0898226 29.4929624 37.124818 29.1414857 36.8051248 29.2917594 36.7066165 29.4354105 36.7024361 29.6182436 36.5580872 29.7694797 36.3358135 29.6730286 36.2869353 29.5343338 36.2088782 29.5066827 36.1092632 29.3455278 36.162803 29.2063158 36.0454797 29.1150677 35.9688902 29.1953865 35.7992782 29.2024361 35.7825985 29.1691549 35.5026406 29.1973113 35.2873383 29.3055338 35.2030677 29.3113624 35.1634286 29.452812 35.1067729 29.7795429 35.1518135 29.8580571 35.0282586 30.0030917 34.8248842 30.0756331 34.8550195 30.317203 34.9712241 30.4091549 34.9997414 30.4767699 35.1162165 30.5033925 35.1790977 30.5918917 35.1919639 30.7682165 35.1254316 30.8689143 35.2111519 31.0417263 35.1231459 31.1974857 35.1324872 31.2839038 35.200818 31.4362647 35.3487398 31.4697504 35.3448842 31.5696962 35.3854376 31.653215 35.3043368 31.7717654 35.3871759 31.9158376 35.3298887 32.0566256 35.229997 32.1001564 35.1910797 32.1790677 35.2276271 32.3669955 35.0890045 32.4795068 35.0445414 32.5920962 34.9540451 32.6470797 34.9311398 32.7863218 34.8789654 32.8175519 34.839182 33.1205053 34.8544602 33.2399218 34.8188632 33.3568301 34.7034346 33.3357955 34.5486797 33.4047639 34.570809 33.4818165 34.5267068 33.6276992 34.4798376 33.6813835 34.3504361 33.7186105 34.2728842 33.9423459 34.307212 34.0431278 34.2643489 34.1737263 34.1274226 34.3148632 34.0390316 34.2878857 33.9958556 34.2814977 33.8975579 34.3083308 33.8679459 34.421606 33.6344 34.5562286 33.4964692 34.8379368 33.3190556 34.8812752 33.2670075 34.961209 33.1550857 34.9754647 33.0436932 35.0445594 32.978388 35.0923188 33.1543459 35.518797 33.1573774 35.5853414 33.0477414 35.7340211 33.0397895 35.8969143 32.9929744 35.9377805 32.850388 35.9658406 32.7425323 35.9400481 32.6276812 35.9920541 32.5157955 36.0818887 32.393185 36.1320602 32.3905564 36.2314827 32.3117774 36.3211429 32.2913383 36.4349233 32.4507549 36.6459248 32.4701293 36.8734316 32.5121504 36.9842947 32.4022797 37.0750195 32.3311699 37.071182 32.2886797 37.1866226 32.1617444 37.1833805 32.1667429 37.3002346 32.1164692 37.317997 32.1477414 37.3952421 32.3587308 37.4863398 32.3936842 37.6588632 32.3410045 37.7397654 32.4488301 37.8413173 32.4140812 37.9733474 32.5264361 38.0038617 32.663188 37.9877353 32.7340632 38.0698045 32.8448782 38.0869835 32.8359579 38.1546647 33.0212872 38.2314887 33.0250466 38.4151639 33.1122586 38.4657323 33.0346346 38.6306406 32.9134556 38.7774556 32.8166075 38.7809805 32.7313564 38.9709353 32.7544902 39.078406 32.7482406 39.1285173 32.6408722 39.2151278 32.5858767 39.3186045 32.6112722 39.381197 32.5384782 39.545185 32.3858105 39.6468932 32.1943759 39.5720301 32.1486617 39.5222015 32.1843489 39.3899609 31.958791 39.3643729 31.8933053 39.4291789 31.8030977 39.3683188 31.7429293 39.2693774 31.6479639 39.2713564 31.5006436 39.329991 31.4599759 39.4137023 31.3694075 39.4012752 31.2812692 39.4580632 31.3032722 39.2796632 31.4970406 38.995994 31.5693053 38.9543038 31.5978105 38.8539008 31.5140511 38.8503579 31.4903338 38.6303218 31.3806556 38.4687218 31.4156331 38.348403 31.3669594 38.2681323 31.3240481 38.1858947 31.228385 38.135603 31.0758376 37.903982 31.1397895 37.6799098 31.0866707 37.509582 30.9580632 37.542406 30.7985865 37.451609 30.7287278 37.4000602 30.6629714 37.3370226 30.546382 37.168788 30.4293594 37.0702797 30.3442105 37.0747308 30.2417684 37.0335699 30.0500992 37.0080421 29.9454195 37.0533414 30.0214797 36.7643549 30.0639218 36.7023579 30.1571128 36.5543759 30.302797 36.5002466 30.3926256 36.367609 30.4123789 36.2554286 30.469582 36.2225444 30.46 36.1071278 30.5622015 36.1505263 30.6722947 35.9517594 30.6460451 35.7381594 30.4518376 35.6283729 30.2570887 35.4089985 30.1584481 35.3481744 30.0922827 35.4481504 29.9150617 35.4561684 29.6255338 35.2893173 29.4843188 35.0295759 29.2946226 35.2105805 29.1838376 35.4091789 29.0155308 35.3432 28.8866586 35.3356992 28.8170406 35.2097684 28.7191759 35.2334015 28.5888962 35.1745925 28.4864301 35.0127639 28.1036511 35.0379729 28.0809865 34.8674346 27.9324271 34.7166797 28.009991 34.5249865 27.8510617 34.5049985 27.8440241 34.4301414 27.7285774 34.4142376 27.6831639 34.3489143 27.6574797 34.1946466 27.5943338 34.091982 27.4919278 34.0561865 27.4870195 33.9665805 27.3691549 33.8850767 27.305191 33.7800842 27.2632842 33.5664361 27.1494556 33.5120361 27.0801444 33.5378346 26.8393564 33.4014737 26.6821594 33.3821113 26.5885774 33.3436331 26.5401504 33.1658827 26.3620211 33.114803 26.3091429 33.0194286 26.3749113 32.9089263 26.4531008 32.8729143 26.3884511 32.7116511 26.2459549 32.5385444 26.1553203 32.3456782 26.2907068 32.2568421 26.3244451 32.0220451 26.431585 31.9950496 26.4507429 31.9035789 26.5534015 31.8041023 26.5428812 31.6376962 26.5132391 31.5062376 26.6050165 31.3641805 26.568812 31.2760361 26.5656421 31.0965835 26.505582 30.9953383 26.6149474 30.8539308 26.5290406 30.7171128 26.5847218 30.6119218 26.463609 30.4369504 26.5047699 30.3570707 26.4706226 30.2597173 26.562785 30.1385143 26.5178887 30.0165534 26.4205113 29.9445113 26.3910496 29.8450767 26.2695218 29.8075429 26.0427609 29.8922586 25.9508812 29.8926556 25.7872902 30.0023038 25.7000842 29.9933774 25.5119218 29.9969925 25.3936782 30.0729143 25.3587729 30.1543579 25.072812 30.3981474 24.9619368 30.430015 24.8828692 30.3960481 24.7919158 30.524782 24.7924571 30.573618 24.6864842 30.6675008 24.8411248 30.7540692 24.9059429 30.729991 24.9700692 30.8073744 24.9400842 31.1422677 24.8037233 31.188006 24.6955729 31.2634647 24.6372571 31.3476571 24.5186586 31.2982617 24.4202165 31.3416541 24.4425083 31.5278075 24.305618 31.6103519 24.2749173 31.697197 24.1202226 31.703212 23.9992842 31.793594 24.0106526 31.9163789 23.9004271 32.0194526 23.8724692 32.1780511 23.802388 32.2277414 23.7321323 32.2853353 23.670815 32.2550677 23.5220391 32.3595489 23.3371128 32.3825323 23.1845173 32.2962165 23.1222496 32.2902376 22.9078556 32.4437474 22.8306647 32.6075248 22.7448662 32.6303639 22.692403 32.7211068 22.5382256 32.829191 22.4798556 32.9205594 22.5415759 33.0173714 22.7014256 33.0459068 22.7042526 33.090815 22.7945925 33.0902677 22.8250586 33.2544782 22.9038436 33.2957534 22.943994 33.3934917 23.0985383 33.4464602 23.1477173 33.6683128 23.2309654 33.8020511 23.2510977 33.9806075 23.3803489 34.1158436 23.3766075 34.1971489 23.3070376 34.2402045 23.2149353 34.4162827 23.2134857 34.5010346 23.2727759 34.6427429 23.1568481 34.8072722 22.9536421 34.8308812 22.8502376 34.9058586 22.833215 35.1022737 22.7742316 35.1906887 22.4944902 35.2846857 22.3613774 35.276385 22.203603 35.3478857 21.9923669 35.354803 21.9419549 35.5257684 21.936818 35.6577504 21.8673143 35.7522226 21.8815218 35.9304722 22.0036451 36.2183218 21.8622436 36.2955068 21.7547188 36.4133414 21.8140752 36.5121744 21.7427248 36.6010466 21.7602346 36.705594 21.6403489 36.7019368 21.5647158 36.8892872 21.5134737 36.9491068 21.3866947 36.8956632 21.1773895 36.9469895 21.094388 36.9237053 20.915994 36.9484211 20.6626165 36.9334015 20.5055699 37.2116932 20.3317714 37.2841684 20.3781835 37.4336602 20.3049564 37.5258647 20.3294496 37.6596511 20.2571549 37.6862015 20.2373173 37.8533835 20.3275188 37.9936602 20.2857083 38.0941233 19.9010226 38.0750376 19.7282165 37.9956451 19.5071699 38.1407338 19.4152241 38.0261353 19.264403 37.9333654 19.1872361 37.8416 18.9595429 37.7825805 18.9392 37.8755609 18.844403 37.9753323 18.8256361 38.0406617 18.6709594 38.0436992 18.5883429 37.976403 18.5322286 37.8771128 18.5576241 37.6741654 18.4509714 37.5851128 18.323212 37.5717293 18.2386767 37.5282707 18.210797 37.4178767 18.1174496 37.2822316 18.0041504 37.2420692 17.8140271 37.3410226 17.6038075 37.3067669 17.5018827 37.3519579 17.2774135 37.3348692 17.2026707 37.2760962 17.1696541 37.0996692 17.1283368 37.0759639 16.9938827 37.1046015 16.8683429 37.0914105 16.7773714 37.2489564 16.8322346 37.446809 16.7903519 37.5408361 16.6338887 37.5476451 16.5243549 37.4591759 16.4175158 37.5252752 16.329203 37.4577444 16.268391 37.5598556 16.2049684 37.558015 16.1043429 37.6096361 16.0357955 37.688782 16.0725353 37.8489925 16.0377444 37.8879398 15.9011308 37.8652271 15.8711338 37.9169263 15.7517835 37.9230135 15.6438015 38.0977203 15.5659128 38.1708451 15.3939489 38.2722647 15.2979368 38.2303759 15.2499308 38.3306346 15.093185 38.4572872 14.9205173 38.341588 14.869185 38.3538707 14.6902075 38.1732812 14.5465083 38.2448962 14.4130526 38.2273744 14.3925474 38.1529744 14.2378647 38.1432421 14.1633203 38.0738827 14.065991 38.1655398 13.9755789 38.3941714 13.9195429 38.4065444 13.7650586 38.5828451 13.6868451 38.5083489 13.5921744 38.5548752 13.4625624 38.5252331 13.3371368 38.5743338 13.3293173 38.6486977 13.2276511 38.7046195 13.1388391 38.8536602 13.1718857 38.9636391 13.0637233 39.0303218 12.9008902 38.9670797 12.7583218 38.8361383 12.7832662 38.757588 12.6715669 38.7187248 12.4782617 38.8178045 12.4374376 38.9083068 12.2944241 39.0225444 12.1173955 39.0213654 12.0218165 38.8275489 12.0551398 38.7704722 11.8926797 38.6271519 11.8574015 38.4772932 11.7260511 38.4053594 11.7288301 38.2623038 11.6087398 38.1686135 11.5217504 38.0644992 11.4895038 37.9350376 11.4242466 37.8218827 11.4545865 37.7250286 11.4446496 37.5812752 11.2411489 37.4917353 11.1425383 37.3518797 11.1603489 37.2924872 11.2686977 37.2477955 11.2821293 37.1826586 11.1743459 37.0792301 11.1582135 36.9285955 11.0437474 36.9003308 10.8854256 36.8093895 10.8449865 36.5797293 10.6542436 36.4234406 10.5149474 36.1013835 10.4436872 36.1131549 10.3682346 36.0496602 10.3867549 35.9143218 10.3394045 35.8734977 10.2400782 35.9038857 10.0836932 36.1179489 9.93225263 36.1566857 9.88950977 36.2422436 9.73077293 36.1627128 9.70371128 36.0430496 9.7856 35.8319699 9.8984 35.7646316 9.86549173 35.6918376 9.9016 35.5949053 9.80821053 35.4403489 9.93892932 35.2423519 9.9172391 35.1706105 9.98301353 35.0014436 9.88719398 34.9812571 9.80119699 35.0185865 9.73693233 34.9751639 9.47399699 34.9634346 9.37013534 34.8800662 9.13490526 34.8946887 9.01456241 34.8180992 8.90803609 34.8074707 8.82905263 34.540782 8.84904662 34.4055519 8.98990677 34.2592541 9.06183459 34.127982 9.00419248 33.8986887 8.96809624 33.7970707 9.03717895 33.6332211 9.15966917 33.4872602 9.14991278 33.3880361 9.25326316 33.3228271 9.32212932 33.2244571 9.35493534 33.1083789 9.51355789 33.0116211 9.50729624 32.9468451 9.56490827 32.840397 9.55541654 32.7194406 9.61620451 32.6157534 9.55393083 32.465594 9.42931128 32.4724632 9.29366015 32.3226827 9.24816241 32.2271038 9.13510376 32.0853173 9.00057143 32.0041564 8.93737143 32.016385 8.89295639 31.8185624 8.76535338 31.8165835 8.71156692 31.6412692 8.66255639 31.5972331 8.61762406 31.4762346 8.63026165 31.3848782 8.72726617 31.3040541 8.84348872 31.2937925 8.97082707 31.1476511 8.99269774 31.0495459 8.94939549 30.9910977 8.98546165 30.8820451 9.15332331 30.3759098 7.68023459 29.9598436 5.95794887 29.9286977 4.96867368 30.5495158 4.01173534 30.7344541 3.14153985 31.3964812 3.01881504 31.6537925 2.91652331 31.8700211 2.78798195 32.1380872 3.01912782 32.2497684 3.08037293 32.3154526 3.1232 32.5043068 3.04981053 32.5471639 2.98181053 32.5973534 2.98057143 32.6763549 3.11078496 32.8949233 3.2251609 33.0081263 3.2849203 33.1175759 3.47660752 33.0135338 3.58892632 32.9916571 3.72963609 33.0058586 3.74738647 33.1733173 3.58075188 33.464812 3.55178947 33.4871459 3.38929925 33.612409 3.27465865 33.6407278 3.0969985 33.7687579 3.05739549 33.7449203 2.94231579 33.7478316 2.83354586 33.8232301 2.73184962 33.9393744 2.65325714 33.9639038 2.56445113 34.091994 2.43405714 34.1765594 2.46300752 34.3598316 2.32096842 34.4824602 2.07575338 34.5831759 2.01702256 34.6685534 1.96323008 34.652 1.89900752 34.7410286 1.51370226 34.6982857 1.43658947 34.5810226 1.25367218 34.6169684 1.01413534 34.5871158 0.970628571 34.7442707 0.803115789 34.7683128 0.722748872 34.7479459 0.626213534 34.7138346 0.504547368 34.7290526 0.401016541 34.6912421 0.281864662 34.7261594 0.21444812 34.8708511 0.0973052632 34.9171789 0 34.8790797 0.104246617 34.8015218 0.090724812 34.6871759 0.213142857 34.449215 0.272806015 34.2610286 0.34084812 34.2906165 0.383326316 34.1973414 0.414129323 34.1054135 0.373070677 34.0363068 0.0805654135 33.8909895 0.178478195 33.8062917 0.139590977 33.743615 0.235861654 33.5870857 0.39206015 33.6084872 0.4656 33.5381774 0.537365414 33.4870556 0.570586466 33.4003368 0.731290226 33.3381053 0.82155188 33.2589895 0.955031579 33.3655639 1.1116812 33.156018 1.2014797 33.2185564 1.39736541 33.1275669 1.54214135 33.2725474 1.61829774 33.2401504 1.7724391 33.0737504 1.73550677 32.9123729 1.56142556 32.6493895 1.54796391 32.5506406 1.66318797 32.4082707 1.74664662 32.3626767 1.73253534 32.1300391 1.79552481 32.0520842 1.85583158 31.9428632 1.9379609 31.7904541 1.93159699 31.7190135 2.0431218 31.6670797 2.13703459 31.5409744 2.15097744 31.4398496 2.26533534 31.3045774 2.14280902 31.1041865 2.05033383 31.1369684 1.90233383 30.977606 1.66647218 30.7924271 1.58125113 30.7956391 1.50411429 30.659615 1.14225564 30.5430857 1.25741353 30.3040782 1.35544662 30.1859008 1.35818947 30.0663098 1.25726917 29.9752 1.2353985 29.7849564 1.49268571 29.5424 1.66010827 29.1085293 1.91971729 28.7916451 1.99071278 28.8309474 2.08821654 28.6989895 2.03698045 28.6569985 2.12063759 28.5665744 1.63895338 28.084788 1.75305865 27.9718556 1.79930226 27.8880782 1.93399098 27.7707248 2.09204812 27.6687579 2.17085714 27.5744602 2.36039098 27.4783338 2.37332331 27.4162346 2.53896541 27.2937263 2.57959098 27.2004331 2.6667188 27.1726015 2.78691729 27.0368902 2.87442406 26.9874526 2.93651128 26.8825203 3.29594586 26.5516331 3.316 26.4555669 3.46065564 26.3366075 3.71778045 26.2116451 3.89481504 26.0969323 4.08396992 26.0302135 4.19416541 25.9568602 4.27689624 25.8346526 4.39879098 25.8151098 4.38086617 25.7226466 4.54401805 25.6958256 4.60884812 25.6028331 4.57566316 25.5249564 4.70491429 25.4097383 4.87904361 25.3778586 5.02378947 25.3113083 5.11482707 25.2268451 5.10929323 25.1683368 5.24463158 25.0510677 5.24563609 24.9804331 5.3160782 24.830412 5.06409023 24.6188692 5.02564812 24.4603068 5.12812632 24.3996271 5.11675188 24.2784842 5.1474406 24.1589233 5.33268571 23.8555308 5.36224361 23.4854075 5.37974737 23.2558556 5.30929323 23.0927278 5.07637293 22.7735699 5.04421654 22.6684511 5.17122406 22.5919098 5.32709173 22.4426226 5.45577744 22.2487699 5.60793383 22.0703218 5.72093835 21.9618767 5.81898346 22.0861353 5.95276391 22.014015 6.42775338 21.8809083 6.72869774 21.7050707 6.77326316 21.6781654 6.99307669 21.6920962 7.17081504 21.587188 7.27702857 21.4610947 7.43288421 21.1550617 7.63885714 21.0174977 7.86128722 20.9621835 8.08124511 20.7528902 7.96619549 20.6650045 7.88256842 20.6512361 7.78545564 20.5347429 7.93349173 20.4192301 7.9017985 20.3009925 8.03959699 20.1929023 8.14672481 20.1415398 8.28544361 20.1618466 8.3595609 20.0693113 8.2952782 19.8804271 8.56171429 19.699188 8.66919098 19.6879519 8.84956391 19.5954165 8.98336241 19.5461233 9.09014737 19.4643789 9.2330406 19.2957654 9.45938647 19.1389594 9.5539609 19.0019789 9.40926917 18.9846677 9.36788571 18.907182 9.60548571 18.7736782 9.7105985 18.625185 9.77647519 18.4627368 9.87706466 18.3844932 10.0979128 18.1807098 10.2411188 18.1195068 10.2801083 18.020782 10.4059068 17.9808421 10.4410346 17.9269774 10.4463338 17.8702436 10.5758556 17.7957233 10.4809263 17.6326556 10.529606 17.5361263 10.5384541 17.3905985 10.4199158 17.1190015 10.552012 17.0274586 10.7137744 17.0218827 10.7991098 16.9656301 11.0107188 16.9693654 11.0822977 16.8872421 11.1253293 16.8889684 11.2185744 16.6915729 11.1500571 16.529985 11.4114406 16.4671098 11.530803 16.4933654 11.6462797 16.3739609 11.6992421 16.2285293 11.5753143 16.1742376 11.6034767 16.1051008 11.5647398 15.9465504 11.4118256 15.9193444 11.4031098 15.8525594 11.1776361 15.7759579 11.1118256 15.8575338 11.0046436 15.9215278 10.8680842 15.9206316 10.7764511 15.9774316 10.5328 15.9788511 10.4306586 16.0133113 10.3377684 16.0000541 10.2120722 16.0482346 10.0083368 15.9844932 9.82761504 16.0872 9.76623759 16.0152 9.82847519 15.8660211 9.81597594 15.7702977 9.94208722 15.6646376 10.043615 15.6178647 10.1334436 15.5163489 10.1521744 15.3931669 10.2097023 15.2709293 10.3972632 15.2510737 10.4298767 15.1022256 10.4034767 14.8265865 10.6623579 14.7954707 10.7326677 14.6182737 10.8505203 14.5881684 10.9439639 14.6052511 11.0634226 14.514009 11.0585805 14.3889083 11.0508451 14.3090767 10.9045835 14.1633985 10.9249865 13.9908932 10.9020872 13.8922586 11.0560602 13.792794 11.3052992 13.7260752 11.4383038 13.8310376 11.6862556 13.866791 11.8019789 13.9127639 11.8393985 13.976782 12.0171188 13.8726797 12.2307308 13.8684571 12.4017263 13.735982 12.5081624 13.7593263 12.6394647 13.8370707 12.7334376 13.9361263 12.8390857 13.958394 13.1749173 13.887591 13.0667789 13.9762647 12.9264481 14.2894015 12.9394226 14.3512541 12.9334195 14.4454376 12.8504541 14.6745383 13.081618 14.7478436 13.1230316 14.7998436 13.2294737 14.8080602 13.4340271 14.7319038 13.5434346 14.7769444 13.5716511 14.903182 13.6398256 14.933582 13.6458767 15.0356511 13.7366195 14.9780812 13.9091609 14.9304902 14.0371549 14.8122346 14.1391519 14.8357353 14.2531489 14.7482165 14.5017323 14.7307308 14.6312541 14.7142436 14.7213714 14.8008782 15.0776962 14.8548992 15.2836451 14.8002286 15.3495218 14.7253173 15.5035789 14.628812 15.5812391 14.5175278 15.5981113 14.4276511 15.7562827 14.3895579 15.8645233 14.254785 15.743206 14.1281504 15.5906767 14.0659188 15.5502015 13.9733774 15.6478857 13.8237654 15.8580571 13.9570045 15.9373053 13.9623579 16.0301293 14.0973113 16.207182 14.0683068 16.3117113 13.9598677 16.4542135 13.8416421 16.4535098 13.7517534 16.4354286 13.6424361 16.3753444 13.5637293 16.5153925 13.5258947 16.5910195 13.5541955 16.671182 13.3591519 16.6324451 13.2874526 16.5095038 13.2827368 16.441997 13.3465083 16.3638556 13.3471639 16.3300571 13.1698346 16.3859368 13.1207759 16.5416421 13.0714105 16.6051368 12.9852511 16.9218226 12.7832722 16.946412 12.6573654 17.0393684 12.5824301 17.2357835 12.6098226 17.2803489 12.3874045 17.4485955 12.466418 17.4440662 12.5764391 17.5980812 12.5914827 17.6558436 12.5505744 17.8535158 12.3649263 17.8811729 12.2764932 18.1081023 12.3535218 18.2546947 12.5275188 18.2792842 12.6798316 18.1387729 12.7626947 17.9752421 12.8166677 17.9059248 12.8564632 17.7571489 12.8372271 17.8757594 12.9700812 17.9415699 13.0579008 18.0460271 13.0915308 18.1032541 13.2201444 18.1930586 13.2679699 18.3087579 13.2844812 18.4225985 13.2781474 18.600415 13.1765534 18.7090466 13.1324211 19.0119759 13.0886977 19.0667429 13.0363489 19.336397 12.9594406 19.4669654 12.8945925 19.5072782 12.8134256 19.6396992 12.6865444 19.7119218 12.430797 19.8592662 12.4393203 19.9104541 12.5007038 20.0123248 12.5047038 20.1528301 12.4269474 20.4127278 12.4031699 20.5493774 12.4785444 20.640006 12.5900571 20.6929925 12.7137083 20.6491549 12.8419008 20.6611128 12.9262316 20.7530466 13.0465323 20.9129805 13.059194 20.9995429 13.0972571 21.0857203 13.0805835 21.1574496 12.8997654 21.2556511 12.8987609 21.3961263 12.9294857 21.6203669 12.9110075 21.7057263 12.9332692 21.715982 12.9398977 21.836 13.0039038 22.1163429 12.9281684 22.2564632 12.8012271 22.3841564 12.790394 22.5135278 12.8947729 22.6575699 12.8386165 22.7026346 12.755212 22.7190376 12.6029835 22.8219669 12.4865985 22.963609 12.4905805 23.0727038 12.4786406 23.0933714 12.3733474 23.1878797 12.307603 23.3138887 12.3205955 23.3810346 12.3181774 23.4752782 12.1985985 23.581197 12.1538887 23.681209 11.9744782 23.763212 11.9105624 23.8938346 11.9164812 23.9704962 11.986418 24.0001023 12.1219729 24.0562226 12.1447098 24.1501714 12.0299789 24.3638075 11.9909414 24.3927098 12.0184722 24.4346707 12.0817744 24.5903398 12.0473744 24.6819789 12.0676872 24.7787789 12.1434165 24.7512421 12.313582 24.7854917 12.4052271 24.9768722 12.5585684 25.0626586 12.6576301 25.1972271 12.6921684 25.4610346 12.706394 25.6878617 12.7688361 25.7784421 12.6199639 25.8568301 12.5878737 26.034412 12.686791 26.1417865 12.7367278 26.2553805 12.7437173 26.4535158 12.661582 26.5405835 12.6638135 26.6750617 12.5754767 26.7482887 12.5851549 26.7818647 12.5777263 26.8624962 12.5232481 26.7828331 12.4270135 26.5901895 12.4802526 26.4657383 12.2716571 26.4610045 12.1923248 26.582797 12.1719398 26.6854857 12.0612752 26.7429414 12.0157594 27.007597 11.9552301 26.997594 11.8560301 27.0943519 11.7291669 27.3236511 11.7418767 27.3282887 11.8208301 27.5270376 11.8448241 27.6229955 12.0747008 27.5852632 12.2380752 27.7917654 12.2896782 27.9318857 12.1425383 28.0149835 12.0529925 28.0309714 11.9791158 27.9508812 11.7759098 27.9290165 11.562003 28.0600541 11.4085654 28.1250406 11.5383699 28.0257323 11.5789233 28.0475248 11.6491549 28.2263639 11.5871579 28.2779489 11.4665504 28.2746707 11.3947729 28.1317895 11.266003 28.0457624 11.1488962 27.9580391 11.0893113 27.913191 11.1793383 27.7426346 11.2647398 27.6042406 11.206412 27.5938827 11.1341594 27.4193263 11.1793383 27.3441143 11.2104782 27.3587188 11.3359759 27.2061053 11.2837414 27.273985 11.4369323 27.2539068 11.5124992 27.1606376 11.5251308 27.0613173 11.4857203 26.8473985 11.4926496 26.6841444 11.5299248 26.5760962 11.5828752 26.5369083 11.4690887 26.3811368 11.3723068 26.251194 11.330785 26.1127038 11.1831579 25.992818 11.1916211 25.9209744 11.0625444 26.080788 10.916018 25.9905083 10.7531609 25.9089203 10.6934797 26.0398075 10.5068571 26.1359338 10.4886135 26.3407759 10.3031278 26.4462436 10.3082406 26.4649203 10.2059368 26.3878496 10.0646376 26.4531068 9.99230677 26.4640241 9.88776541 26.5669474 9.81959699 26.6421293 9.65005113 26.8041985 9.51380451 26.8782617 9.55425564 27.0272722 9.468 27.133203 9.55741353 27.2005534 9.43743759 27.2659609 9.43977744 27.4777263 9.33533835 27.6208241 9.43990376 27.736012 9.38395789 27.7131489 9.25856241 27.5731789 9.20760301 27.5926917 9.01054436 27.6931008 9 27.7163008 9.09837594 27.8489624 9.05255338 27.8985564 9.11339549 27.9929023 9.04883008 28.1249023 9.07714286 28.2119579 9.17790075 28.1373895 9.33128421"></polygon>
    </g>
</svg>