<?xml version="1.0" encoding="UTF-8"?>
<svg width="48px" height="48px" viewBox="0 0 48 48" version="1.1" xmlns="http://www.w3.org/2000/svg" xmlns:xlink="http://www.w3.org/1999/xlink">
    <title>Icons/IXT/Chart-Types/48dp/ic_map-symbol</title>
    <g id="Icons/IXT/Chart-Types/48dp/ic_map-symbol" stroke="none" stroke-width="1" fill="none" fill-rule="evenodd">
        <g id="map-symbol">
            <rect id="Container" x="0" y="0" width="48" height="48"></rect>
            <g id="map" transform="translate(0.000000, 9.000000)" fill="#006699">
                <g id="alpha" opacity="0.5">
                    <polygon id="Map" points="48 17.7326782 47.8820003 17.6325279 47.6539788 17.437586 47.5024699 17.3374357 47.2563618 17.4067453 47.0558525 17.4329381 46.9881646 17.4235464 46.9472376 17.2561781 46.9002864 17.168755 46.8795224 16.8972855 46.7721916 16.723246 46.913701 16.6291243 46.9653788 16.4066364 47.1081723 16.3582701 47.1417089 16.1875661 46.9391779 15.9731985 47.3724216 15.6774775 47.4025431 15.5282226 47.3509199 15.363602 47.1806141 15.0947846 47.4608735 14.8797061 47.5480414 14.655236 47.5239442 14.4791458 47.6117541 14.3877857 47.6512877 14.1357694 47.602383 14.0261454 47.6177784 13.8165214 47.5265534 13.5913267 47.6271495 13.4515455 47.6419575 13.2472257 47.7270626 13.1504656 47.757266 12.9831246 47.7116945 12.8950454 47.7787131 12.7976428 47.5963587 12.7425232 47.3724216 12.5818535 47.0511533 12.4656129 47.0726413 12.2458181 47.046495 12.216276 46.7601567 11.8963856 46.5684038 11.884957 46.4590649 12.0126398 46.2586377 12.0126398 46.0554373 12.4205958 46.0521041 12.6174789 45.8703781 12.6604727 45.8220335 12.8460229 45.9447597 13.0637261 45.6973811 13.1181895 45.3298719 13.0160706 45.1514927 13.0005819 45.102588 13.3943616 45.0026612 13.6000622 45.0938863 13.7217436 45.0951977 13.9421536 44.6928814 13.9999663 44.5479978 14.1222355 44.3321205 14.2755506 44.1805842 14.2452293 44.0987986 14.3124337 43.9311703 14.3178199 43.7736507 14.422044 43.6904581 14.3158376 43.6280431 14.1202806 43.243226 14.1202806 43.2217517 13.9132678 42.8086846 13.5268291 42.6859584 13.5731585 42.4961726 13.519488 42.4325419 13.3325572 42.0241057 13.380322 41.8873228 13.3385995 41.7572746 13.2539242 41.3347817 13.0442866 41.3347817 12.7330769 41.2623536 12.63901 41.4709089 12.277438 41.458874 12.0616623 41.2402372 11.9279508 41.3529366 11.8304936 41.3314486 11.7391334 41.1282482 11.703508 41.0244145 11.7962489 40.8211595 11.8694683 40.302196 11.4971513 39.9723078 11.5173153 39.9025435 11.4421 39.5572053 11.394964 39.5203355 11.2680331 39.3259189 11.2801042 39.2413602 11.1618404 39.0590058 11.2283066 38.8511608 11.2162355 38.7378194 11.3391746 38.5949986 11.3257911 38.5466813 11.2195984 38.4125622 11.182647 38.2516958 11.2807604 37.9425171 11.4265977 37.9063986 11.2706716 37.7568295 11.1772608 37.6622713 11.21223 37.0942665 11.4017173 37.0534078 11.234431 37.1291828 11.1429341 37.2539171 11.0549095 37.4664886 10.878833 37.5301193 10.7114647 37.5268681 10.5838093 37.4926075 10.4178353 37.4711741 10.3136112 37.4208897 10.1126406 37.3370824 9.93529281 37.2545591 9.78670778 37.1660389 9.52063818 37.1647275 9.27530678 37.188811 9.1556486 37.259955 8.9997635 37.2814294 8.92378267 37.2995159 8.81022155 37.3175478 8.75305138 37.4094969 8.5883898 37.4946293 8.4177542 37.5569896 8.23292858 37.5784639 8.14484933 37.5757728 8.05008519 37.6059626 7.98956574 37.7072008 7.90830808 37.7514336 7.86189662 37.7755581 7.80407026 37.8124825 7.65562194 37.836566 7.5977409 37.9244578 7.5184518 38.094067 7.39074168 38.1450754 7.31484287 38.185292 7.22074859 38.2610396 6.8860119 38.3066385 6.80673647 38.513172 6.53854794 38.8571851 6.48277217 39.006686 6.31075584 39.0134343 6.14005188 38.778077 5.94248533 38.7686649 5.75964194 38.7465485 5.62122779 38.6902261 5.48141924 38.7552366 5.35705839 38.839768 5.26096821 38.8055347 5.18706531 38.6492992 5.14677824 38.4534892 5.13999766 38.3884924 5.05528136 38.3368556 4.94580773 38.2912431 4.96120075 38.282514 5.03715423 38.2469693 5.07746864 38.1598151 5.04057187 38.0484954 4.80599918 37.8486556 4.62053105 37.7983438 4.49884962 37.7299865 4.53783799 37.6126426 4.7428003 37.4838784 4.79997047 37.2907869 4.83422883 37.1445509 4.84028488 36.9856926 4.80862392 36.925313 4.69312158 36.8174222 4.58889743 36.6416521 4.51632057 36.4982439 4.44036708 36.4982439 4.35707252 36.535059 4.31336782 36.5103062 4.24949909 36.3828671 4.20986821 36.2943468 4.12446839 36.1756915 4.00962223 35.9764936 3.87381915 35.9356213 3.76560321 35.9074806 3.69234282 35.9375748 3.50817338 35.9201713 3.4625138 35.6566733 3.32270525 35.3878204 3.16880238 35.1993461 3.02225426 35.0538478 2.8778114 34.8533522 2.77696387 34.6810383 2.68758593 34.4986839 2.57536451 34.2150093 2.45912396 34.0675439 2.38449652 33.915311 2.3313865 33.8147148 2.21174199 33.7255252 2.20906256 33.6222516 2.14724441 33.5947667 2.11231619 33.5578969 2.0659184 33.4633387 2.0659184 33.3634666 2.11166001 33.2360411 2.06389516 33.1380678 2.08002639 32.9282831 2.07669078 32.8826296 2.04307494 32.8625349 1.9718788 32.7813777 1.95033404 32.751871 2.00809204 32.6942372 2.0054673 32.6607006 1.95572023 32.6097605 1.95839965 32.4434299 1.95033404 32.3851131 1.97987606 32.1490455 1.94161224 32.0907697 1.95164641 31.9835208 2.00140715 31.7615099 2.04039552 31.6528814 2.11632166 31.6354642 2.1822273 31.5328463 2.24673855 31.4088087 2.27626691 31.2311125 2.32537146 31.1640393 2.39591142 31.0782649 2.38587724 30.9736252 2.44297906 30.8549699 2.45235705 30.7316016 2.36565853 30.5190438 2.29372418 30.4868322 2.26084654 30.4941679 2.24870711 30.4995365 2.24070985 30.5418432 2.24200855 30.6484363 2.27160525 30.5659131 1.9731775 30.3956072 1.89726503 30.4070001 1.68885774 30.6430814 1.69358775 30.6081514 1.52157142 30.3560737 1.55443538 30.348656 1.43356052 30.1515619 1.38780525 30.1575998 1.29099053 30.0543126 1.31790781 29.9805184 1.24662964 29.939004 1.01677329 29.8136004 1.08604188 29.8417684 1.19898783 29.6935926 1.18755927 29.644606 1.27289074 29.5446519 1.31521471 29.5386276 1.5148045 29.7881235 1.5524805 29.8424104 1.65865953 29.9181581 1.71641754 29.8296378 1.76485224 29.7511991 1.98728549 29.2710724 1.76012223 29.1148233 1.73663626 29.1953794 1.37572049 29.1262708 1.32734048 29.0049653 1.29915183 28.949968 1.132426 29.0471217 0.965727516 29.220146 0.946944203 29.256401 0.840751497 29.1732357 0.788967515 29.1048238 0.672070781 28.9546672 0.627709899 28.8138135 0.721106985 28.6810878 0.726493175 28.6703506 0.490526092 28.6099848 0.307819409 28.4953046 0.300396309 28.4101176 0.228475631 28.3772367 0.0947094579 28.2813807 0.131004725 28.2364512 0.291660838 28.3062429 0.501298473 28.244511 0.645194511 28.127167 0.719726261 27.9776662 0.608161035 28.015902 0.485235596 27.9548804 0.417306713 27.9984302 0.190211807 27.9125737 0.0940532722 27.8180156 0.065181105 27.7215039 0.116883064 27.6577639 0.080601467 27.5136726 0.125632205 27.493496 0.0234996475 27.3868756 0 27.3634614 0.247969812 27.4968838 0.311838546 27.5397916 0.399193256 27.4278025 0.459042853 27.2897082 0.361517265 27.0294888 0.454326519 26.9624156 0.536951225 26.8497982 0.493943726 26.7137257 0.549090659 26.6050288 0.527545898 26.4260076 0.71304137 26.4166092 0.846793873 26.2925442 0.914011887 26.2892657 1.01075825 26.2194604 1.08397763 26.2617807 1.18414163 26.309292 1.22181763 26.2892657 1.32460637 26.1711977 1.31790781 25.9768084 1.50076487 25.8828923 1.51551537 25.7494289 1.71037516 25.9439138 1.92146187 25.7956698 2.04039552 25.8601065 2.18963673 26.0103177 2.24870711 26.1933415 2.38986904 26.2409484 2.36565853 26.3804088 2.4228287 26.3891242 2.54378558 26.5044464 2.64124282 26.5654816 2.54647868 26.7109799 2.5585771 26.72643 2.47055253 27.0838441 2.52764068 27.1005919 2.45373777 27.0496654 2.27968454 27.1984832 2.31932909 27.250161 2.15466751 27.4244694 2.11364224 27.4666804 2.1909491 27.570637 2.24133869 27.7302057 2.16068254 27.7765012 2.06664294 27.8596665 2.0773333 27.8904574 2.15196074 28.0675115 2.34282873 28.092961 2.44094215 28.0426903 2.54378558 27.9642242 2.5995887 27.8824523 2.60765431 27.8670022 2.56794141 27.9427772 2.50414103 27.9461103 2.44230921 27.9032299 2.379124 27.8489293 2.379124 27.8214034 2.46174871 27.7617205 2.5215983 27.7758592 2.74739451 27.8549673 2.92353934 27.8475769 3.014257 27.7684415 3.09693639 27.61961 3.21856313 27.4324744 3.19637585 27.5089461 3.08479695 27.5940785 3.03905535 27.5572087 2.94835136 27.4693988 2.90870681 27.3875176 2.78098301 27.2239601 2.78373079 27.1870357 2.69566521 26.9443564 2.70169392 26.8618605 2.92615041 26.6016957 2.96318389 26.5474224 3.03707312 26.33078 3.16677914 26.3730867 3.37982074 26.4548177 3.44839214 26.6499583 3.38992327 26.72643 3.4900736 26.6218176 3.54921233 26.5044464 3.59424306 26.4146147 3.62784524 26.1376885 3.71112613 26.0176534 3.69969756 25.8788351 3.63723689 25.7326538 3.55926017 25.6461826 3.59561012 25.6099412 3.72058614 25.5489196 3.73868592 25.3551723 3.67890468 25.1010319 3.67284863 24.9729371 3.63860395 24.8837475 3.54449599 24.6892489 3.38925341 24.6664904 3.31936964 24.6913526 3.13252079 24.5927372 3.06799587 24.3721197 3.0639904 24.3090763 3.01895966 24.0831448 3.0229788 23.9228658 3.12516604 23.8853403 2.98666986 23.7619858 2.92079156 23.6043569 2.98470131 23.516547 3.16008058 23.2550708 3.33413382 23.1383826 3.30255489 23.0156701 3.36505657 23.0216807 3.46788632 22.9137079 3.49677216 22.7762693 3.49547346 22.6911368 3.60564429 22.615963 3.83884993 22.4906276 3.88794081 22.3833788 3.82743503 22.2277853 3.80326553 22.0876556 3.93164551 21.8348129 4.00962223 21.6939592 3.94373026 21.2434486 3.90606794 21.1482483 3.91275283 20.9952777 4.1029373 20.9235736 4.06803642 20.7613138 4.06803642 20.6640645 3.94844659 20.6868503 3.71250685 20.5514198 3.50281454 20.4126015 3.42891163 20.1671764 3.44098271 20.045789 3.51088015 19.9271199 3.52303325 19.8332175 3.44977286 19.7058467 3.46788632 19.6448251 3.70509742 19.4966493 3.91617046 19.1097695 4.04455045 19.0514253 4.10702479 18.7476562 4.15268437 18.6457623 4.1916864 18.4687081 4.26092766 18.3594102 4.29991602 18.250768 4.28515184 17.9376414 4.00083208 17.8062134 3.85905497 17.9429963 3.87246577 18.0248502 3.87246577 18.1643379 3.82408575 18.2460552 3.8448923 18.2735675 3.78779048 18.3098362 3.77833047 18.3794912 3.81469409 18.4104187 3.69038793 18.3091122 3.55859031 18.2253048 3.4900736 18.3929332 3.32811878 18.2937168 3.24140659 18.1421942 3.38184398 17.9376414 3.31463964 17.845829 3.45306746 17.7231164 3.58347068 17.642574 3.61707286 17.51855 3.6076812 17.5144792 3.50345705 17.4789891 3.45306746 17.3549652 3.42418162 17.3308133 3.54382614 17.3113608 3.6432656 17.1202773 3.61170034 17.0236837 3.67489921 17.0478491 3.73198736 16.9975784 3.81667632 16.7293539 3.97260243 16.6173922 4.07610204 16.4751451 4.14062696 16.4007635 4.21256131 16.4443679 4.34698367 16.5288446 4.35033295 16.5958905 4.29920515 16.7527954 4.39068836 16.6930715 4.47797472 16.6776898 4.57012779 16.5898662 4.52642309 16.5054032 4.56270469 16.4336307 4.46392141 16.3685383 4.51159056 16.4014192 4.59362744 16.4926306 4.6635112 16.5408932 4.76571211 16.4443679 4.87320352 16.3987964 4.95518571 16.3008231 5.0781795 16.1292058 5.09962857 16.0467782 5.00094099 15.7402906 4.84833682 15.610898 5.10568462 15.7221494 5.116457 15.9736124 5.25426965 15.8709809 5.3873523 15.7087347 5.42228051 15.6128651 5.6332852 15.2004538 5.84568428 14.845157 5.78850044 14.7512682 5.71264265 14.6466149 5.70660027 14.3810679 5.7334492 14.2872474 5.81541772 14.1624994 5.77642936 14.029036 5.89470681 13.7897172 5.98278606 13.6924133 5.7394779 13.5408907 5.70319631 13.3464603 5.7697308 13.2418753 5.73547244 13.010466 5.67431047 13.0977021 5.47204125 13.0977021 5.34903379 13.2646611 5.02166552 13.3497935 4.96120075 13.3222812 4.87584193 13.1131522 4.92491915 12.9019057 4.94239009 12.8402148 4.85169977 12.7033636 4.76360685 12.5719903 4.73473468 12.4103862 4.87320352 12.2421022 4.84900668 12.1361511 4.89131698 12.0241757 4.97663478 11.9269264 4.87320352 11.6700948 4.82616321 11.6338807 4.8315494 11.4716346 4.72463216 11.3019708 4.74817282 11.0699604 4.87387338 11.1075405 5.01904078 11.0860525 5.12859643 11.1537678 5.29797435 11.2510171 5.29455671 11.2556753 5.3665184 11.2013747 5.56338776 10.9365107 5.60171994 10.867484 5.77380461 10.6227147 5.81068771 10.601896 6.22810379 10.3336852 6.22338746 10.3396822 6.34508255 10.2760378 6.38130946 10.2525963 6.5876525 10.1460168 6.6125192 10.0272795 6.7315212 9.97837481 7.0271875 10.2592899 6.94520531 10.4067554 7.00428936 10.5489888 6.96135021 10.9519608 6.92774804 11.2410176 6.8860119 11.3643585 6.74156904 11.591656 6.81815137 11.6144418 6.90419371 11.723084 6.92237552 11.6687287 7.10115876 11.8840323 7.18647656 11.8277236 7.33429604 11.7170597 7.40890982 11.5930357 7.42572457 11.3777185 7.45190364 11.3287455 7.52448051 11.4011736 7.63744013 11.3040063 7.81149336 11.180638 7.90766557 11.0042123 7.91970931 10.943901 7.97486991 10.8346168 7.95936753 10.6837636 7.99429574 10.6126332 8.06752879 10.7313432 8.3337351 10.6770699 8.58903231 10.7319989 8.70266179 10.6307744 8.85656466 10.4886093 8.93585375 10.071485 9.30613383 9.98163968 9.37946257 9.91197098 9.50446594 9.89993605 9.61068598 9.84555348 9.60792454 9.79658048 9.67184795 9.54513112 9.79615411 9.60281953 9.893543 9.74091383 9.91035775 9.6330093 10.0575757 9.58141348 10.0636044 9.52365676 10.109346 9.50559754 10.1583822 9.4177057 10.2007199 9.26014515 10.3620459 9.21457362 10.3680746 9.18707498 10.4318749 9.10195622 10.4500431 9.04889872 10.4957984 8.89004042 10.5683889 8.73786212 10.5992296 8.62850958 10.6873089 8.56485151 10.7538707 8.50448563 10.7692911 8.50448563 10.8358529 8.56210575 10.8970149 8.55609511 10.9910545 8.45079975 11.0623326 8.23561909 11.082483 8.14039154 11.1248206 8.10753797 11.1557297 8.11151318 11.1967413 8.13700373 11.2377119 8.13429894 11.2834398 8.09809854 11.349947 7.99084972 11.394964 8.08872742 11.5475409 8.27778915 11.6383269 8.06122877 11.8392974 7.83059805 11.8580671 7.58517298 12.0247655 7.40615173 12.3715733 7.20295136 12.5113545 7.05411989 12.4931727 6.92871623 12.5630701 6.70812599 12.6867475 6.01746328 12.9394199 5.93095115 12.8097276 5.81826544 12.9098779 5.65265884 13.0684424 5.46426647 13.3359748 5.25367575 13.4965762 5.56616036 14.0489888 5.56215783 14.3158376 5.52725518 14.6861587 5.33413627 14.9382024 5.28521791 15.2057074 5.21477056 15.2789541 5.25235068 15.4449417 5.46288676 15.6654064 5.36164858 15.9193776 5.29060016 15.975167 5.23691428 16.0572039 5.05722367 16.1922824 4.86948702 16.2090835 4.73937047 16.3307103 4.76954658 16.400594 4.67834889 16.4893295 4.51476404 16.5283178 4.45103767 16.6560416 3.89118819 17.001414 3.48014285 17.2191719 3.46200167 17.2978048 3.11598046 17.6083583 2.94298351 17.8146604 2.44545336 18.2951386 2.23624235 18.4080709 1.7876852 18.8456647 2.21213152 19.274359 2.26707417 19.3315291 1.79306745 19.8665118 1.61938748 20.3020413 1.36389459 20.541262 1.34109517 20.7186782 1.469832 20.9397854 1.37056093 21.051378 1.25254762 21.2919657 1.30755857 21.3390333 1.58115166 21.4243511 1.72330313 21.5917195 1.81984209 21.6018357 2.15176564 21.9028882 2.24502607 21.8713092 2.27316676 21.9438861 2.36366777 22.0809332 2.25436988 22.1784725 2.2368844 22.3054717 2.03312394 22.479525 2.02970881 22.5541387 1.9466118 22.7053622 1.86881509 22.7960798 1.81445984 22.8747127 1.79640062 23.014494 1.82186385 23.125403 1.72330313 23.1394563 1.60191566 23.2705977 1.6079946 23.4190734 1.8030533 23.685266 1.84398025 23.8397704 1.73267425 23.9453069 1.60191566 23.9970772 1.47789171 23.8660042 1.26866704 23.9453069 1.1989437 23.8787451 1.10770502 23.9392509 1.00449972 24.0790594 0.883098595 23.9728667 0.783171821 24.0394012 0.682603003 24.0824771 0.543128996 24.2558878 0.391606401 24.2524702 0.370118388 24.3136321 0.267582453 24.3102145 0.179034901 24.4379246 0.176357437 24.5353818 0.0945581857 24.6449375 0.300436027 24.7363797 0.437177928 24.8607269 0.421782511 24.9480269 0.409665622 25.0340692 0.388901617 25.0462224 0.325202567 25.0098587 0.319164613 25.0798245 0.246736485 25.1946707 0.11865536 25.4474115 0.152205621 25.5173089 0.11865536 25.575067 0 25.6389357 0.0395745542 25.696762 0.24944127 25.6174866 0.313809685 25.4803028 0.4405794 25.4776917 0.586077701 25.5267143 0.754389085 25.5085325 0.875066204 25.6100635 1.0225726 25.5146432 1.07418208 25.3895988 1.28071563 25.4232147 1.41083217 25.3869057 1.47186742 25.3775414 1.51743895 25.4998517 1.88761198 25.5327977 2.05655175 25.4333172 2.36970573 25.2639803 2.51387896 25.1436112 2.48638031 24.9621896 2.6305672 24.9003851 2.71569962 24.7847324 2.8370461 24.7209457 2.8987917 24.6154092 3.07644688 24.5475486 3.16562282 24.5582937 3.2863136 24.4803443 3.4586685 24.4379246 3.67121268 24.2827094 3.81672464 23.9762844 3.85023392 23.8082598 3.81070035 23.757132 3.6671555 23.7914587 3.70141611 23.7174738 3.70474928 23.6502695 3.62564116 23.641534 3.51628862 23.7961067 3.38624037 23.8814929 3.31918083 23.8633247 3.33124308 23.7961067 3.18573112 23.6872209 3.14349276 23.5380481 3.0583057 23.4486564 3.13414896 23.3525116 3.20721913 23.3188957 3.25546813 23.2490666 3.21324343 23.072252 3.10995616 23.0514317 3.11737383 23.1327714 3.03689965 23.2719101 2.96382948 23.3242819 2.83369927 23.5360248 2.75931769 23.6301328 2.64660466 23.6516502 2.59233138 23.7490527 2.56883527 23.9352728 2.58428533 24.042108 2.34820405 24.4453477 2.15445676 24.5589772 2.08805293 24.5199752 2.10350299 24.5044728 2.15982535 24.4460039 2.15844564 24.381479 2.15646486 24.3028597 2.11693129 24.2188543 2.13565987 24.1173916 2.15916964 23.9258674 2.15777627 23.8492167 2.21076546 23.7820124 2.25169241 23.688547 2.30263253 23.661698 2.33819088 23.5528122 2.36237002 23.4600713 2.32541829 23.3639948 2.36032094 23.1583627 2.41729901 23.1213565 2.47970031 23.036025 2.53732042 22.9453347 2.62522593 22.8505432 2.68348809 22.7140293 2.75657192 22.505704 2.76933086 22.3793746 2.81222492 22.2853214 2.96649328 22.0870303 3.03689965 22.0151096 3.19582625 21.78796 3.31047908 21.6912136 3.35939743 21.6884659 3.47137279 21.7294775 3.51164404 21.6515828 3.5639502 21.6206053 3.55925098 21.498254 3.64706087 21.3705986 3.6598198 21.2335105 3.72484392 21.1945085 3.83080865 21.1313643 3.85359441 21.0917334 3.92738859 21.0002365 3.96824724 20.9250212 4.11579462 20.8147684 4.17950733 20.7193344 4.25592433 20.655534 4.30693275 20.6548915 4.58986964 20.6044745 4.65757122 20.6091362 4.72732188 20.6689311 4.81048719 20.6971334 4.89829707 20.6756707 4.91977143 20.6373522 5.04175995 20.5486714 5.19802275 20.5224377 5.33413627 20.4754384 5.40519834 20.4007563 5.45889789 20.4149463 5.47762647 20.3994302 5.48168365 20.3013031 5.5789193 20.2159306 5.66136059 20.2186784 5.69358578 20.1823285 5.74387019 20.0532923 5.84241725 20.0217817 5.93697544 19.8738529 6.00199956 19.835589 6.13073639 19.8611119 6.27827011 19.9706676 6.50425625 19.9746731 6.66180314 19.8852678 6.7242181 19.8261974 6.79859968 19.8194305 6.8569438 19.8174072 6.95685692 19.8974072 7.1520249 19.9639007 7.28076173 20.0009342 7.38067485 20.0291365 7.61267162 20.0204147 7.64685027 20.0386101 7.74005606 20.0486306 7.8828769 20.0956983 8.01900407 20.167619 8.12899866 20.2616859 8.21281967 20.3228616 8.30666751 20.3228616 8.37038022 20.2784733 8.44346405 20.2784733 8.52725774 20.3228616 8.61176177 20.4203188 8.7988154 20.5143584 8.90341408 20.52375 9.0335033 20.5607699 9.18641927 20.5902982 9.3848931 20.6205511 9.4116814 20.7167096 9.46406953 20.7522804 9.59411778 20.7831894 9.65645077 20.888726 9.7215432 20.9196487 9.86429573 20.9472085 9.87706833 21.0117334 10.0286592 21.0600998 10.1103902 21.0419863 10.1841707 21.1172016 10.1868618 21.1864292 10.2223519 21.2207559 10.2793846 21.209341 10.3203115 21.2556841 10.3450781 21.328261 10.4235168 21.5245015 10.3585474 21.6206053 10.3417995 21.6884659 10.2934686 21.725472 10.0997076 21.7112956 10.0360086 21.7408923 9.96957743 21.7140571 9.85493827 21.7214118 9.76109043 21.7416306 9.67792512 21.7140571 9.66181936 21.7280967 9.64635564 21.7422867 9.6691414 21.8262922 9.63837789 21.8726353 9.59142665 21.8403181 9.53504965 21.8215622 9.36740763 21.8558205 9.29237034 21.8377071 9.09455221 21.7308582 9.05231385 21.7953147 9.07574166 21.9997029 8.94439567 22.1145627 8.7197346 22.1939065 8.70498123 22.3760117 8.78679414 22.4828742 8.85311601 22.7073444 8.98996719 22.7228194 9.01144155 22.8928125 9.12343057 22.8867702 9.23802875 22.9378569 9.32052469 23.0790052 9.31448674 23.1730721 9.50898536 23.3370912 9.65310394 23.3290119 9.6880066 23.4802217 9.62422558 23.5958607 9.59883066 23.8048422 9.549844 23.8767629 9.41442717 23.9755598 9.35404763 24.118704 9.21124045 24.2067696 9.21124045 24.3559561 9.04287443 24.6583893 9.14419457 24.9930576 8.92626815 25.285443 8.90210267 25.4656207 8.98185284 25.681246 9.1629778 25.7941373 9.39628599 25.7787306 9.50559754 25.8580607 9.78185443 25.8795507 9.86965066 25.9373634 9.98766397 25.8822438 10.071485 25.8828864 9.96698193 26.0193456 9.9910791 26.131567 9.86029319 26.3567617 9.9635668 26.4844035 9.96762398 26.646372 9.84215201 26.7156269 9.75370008 26.9878209 9.79658048 27.0865905 9.98163968 27.1746698 10.0312684 27.0718127 10.1727778 27.0469323 10.3458021 26.8372537 10.4188722 26.7949023 10.4611106 26.8325783 10.4282297 26.9286685 10.5402051 27.0227901 10.6220726 27.1658796 10.6891185 27.3480532 10.7648798 27.3513341 10.8982612 27.5240886 10.9405679 27.7284768 11.0860525 27.8312518 11.1926866 27.8131384 11.2228627 27.9925778 11.3555884 28.0893105 11.2470282 28.1599462 11.2087787 28.2654143 11.298624 28.4247034 11.4836695 28.5006432 11.4682331 28.7499801 11.5594991 28.9959676 11.7626312 29.1727003 11.7841192 29.3460974 11.9115447 29.4435819 11.9476904 29.5497746 12.0965902 29.6868081 12.0603215 29.7567465 12.1180099 29.8783869 12.2085656 30 12.364801 29.9805742 12.5518273 29.8663159 12.5881234 29.7715244 12.7577052 29.6835271 12.8214179 29.6989612 12.830789 29.7991115 12.9816696 29.8991798 13.1606771 29.9711278 13.276054 29.9059331 13.2746879 29.7130555 13.4282459 29.6102941 13.4590914 29.5282572 13.5529939 29.4919346 13.6502295 29.5255641 13.7682292 29.4704992 13.8104676 29.5591526 13.8949306 29.5390159 14.0961092 29.3246346 14.1960223 29.1027892 14.250965 29.0598227 14.460258 29.1027892 14.502428 29.1814221 14.5842956 29.2305267 14.7666363 29.1484898 14.8759479 29.1881343 14.9363138 29.3003831 15.0395874 29.3098021 15.2092375 29.4247303 15.3366083 29.3460974 15.4123559 29.2124269 15.5189763 29.2453045 15.7738135 29.063172 15.8797782 28.8931789 15.9756478 28.8796587 16.0527752 28.8198775 16.2076583 28.8138351 16.1774685 28.618948 16.2223843 28.5524272 16.3437854 28.5160636 16.4323057 28.4213541 16.5408932 28.442147 16.6414894 28.4247034 16.7139038 28.4824614 16.8660821 28.5160636 16.9566378 28.432769 16.910998 28.2056194 16.9720195 28.0503221 17.1269573 28.0503221 17.2543963 27.9945464 17.3361683 28.2539858 17.6332028 28.2997274 17.7579508 28.257335 17.9557143 28.285551 18.1340798 28.199577 18.2400309 28.2297752 18.3869089 28.4932338 18.5464912 28.5067403 18.6739166 28.6041291 18.6618817 28.8138351 18.7985963 28.9832267 18.953534 28.9764735 19.1205066 28.7405747 19.286769 28.7741906 19.6837303 29.1155438 19.8473698 28.9421878 20.0089875 29.0086949 20.2456288 29.0390162 20.3066641 29.1027892 20.4581867 29.0235274 20.506504 28.9233498 20.4246501 28.7714975 20.4401138 28.6249904 20.5218994 28.5369248 20.5118862 28.2123043 20.6513739 28.1168703 20.812254 27.8534391 21.2166056 27.8312518 21.3560796 27.8621746 21.5170417 27.8285587 21.6718428 27.864854 21.8052925 27.6074515 21.9266936 27.6188664 21.9232921 27.4851003 21.9931111 27.3903224 21.9528808 27.278101 22.1433223 27.1006985 22.0339561 26.8258251 22.0292569 26.612059 22.1023953 26.5119907 22.13794 26.2693387 22.317617 26.250569 22.5147248 26.1805896 22.8246002 26.1288876 22.9854803 25.9917722 23.0277323 25.7975549 23.1491198 25.7028044 23.2402765 25.7269329 23.3462139 25.6786349 23.4494875 25.496434 23.3857748 25.2773774 23.5682112 25.0494896 23.5192245 24.8909251 23.3952005 24.772634 23.3495744 24.544131 23.2557265 24.2765986 23.1155968 24.2497497 23.0492067 24.1247464 22.9733497 24.1093123 22.8882446 23.9056624 22.7246598 23.8539331 22.6516033 23.7961067 22.7092097 23.7658538 22.6997976 23.6993193 22.8003664 23.6536324 22.8787915 23.5226277 22.9821335 23.4708437 23.0612689 23.3007823 23.2429676 23.1381439 23.4783658 23.2369819 23.9443265 23.1240359 24.0408655 23.0393743 24.0502639 22.8901878 24.1475132 22.8021085 24.1293994 22.6502426 24.3748108 22.5857177 24.4203823 22.479525 24.5961523 22.5009877 24.5873823 22.3363808 24.5512229 22.2482879 24.6235827 22.1509127 24.7603792 22.1965859 25.0788881 21.9714596 25.1057311 21.7987324 25.1151022 21.6434351 25.0366498 21.5278508 24.9420916 21.5554379 24.8160595 21.4855268 24.97097 21.2233943 25.154021 21.2375706 25.3611966 21.1024237 25.5730988 20.8315558 25.7520927 20.8497513 25.870188 20.7899563 26.2288862 20.6736611 26.4561837 20.6460877 26.5138585 20.7677691 26.6157797 20.822916 26.6258611 20.9411661 26.5447039 21.0889719 26.5796066 21.2395255 26.6908853 21.4183088 26.6399315 21.4996484 26.7109799 21.6522389 26.6258611 21.79269 26.6767739 21.903599 26.7076467 22.1602907 26.62317 22.2973924 26.6513244 22.4667293 26.6439067 22.643544 26.574238 22.7073444 26.5353328 22.7779664 26.4260076 22.8357107 26.4180025 23.0715821 26.2510299 23.1233798 26.386433 23.4164213 26.5882674 23.688547 26.4468126 23.7692715 26.4455012 23.9237758 26.6767739 23.9809323 26.7365114 24.1624087 27.0717818 24.2679589 27.1689492 24.3835159 27.4110547 24.3741379 27.4425286 24.4823128 27.5042469 24.6940284 27.7362846 24.9245409 27.8160621 25.002504 27.8495714 25.1543699 27.8589698 25.1940282 28.18282 25.3546843 28.0694786 25.519961 28.2498932 25.6725242 28.2760121 25.8748754 28.6602692 25.8116765 28.7641712 25.9735904 28.8968969 26.0240073 29.0135988 26.0159827 29.0685961 26.140945 29.1840139 26.131567 29.3630215 25.8499404 29.4387145 25.6228591 29.6217929 25.4124286 29.916874 25.3237068 30.0744345 25.4447184 30.1803856 25.4460445 30.2668841 25.3439256 30.3231928 25.2773774 30.2796567 25.0596195 30.3748569 25.0488608 30.5498209 24.9863728 30.6041762 24.9232149 30.7275444 25.0058533 30.8321841 25.1268238 30.8596144 25.2786898 30.8724007 25.3391956 30.7952324 25.4164888 30.6933658 25.433946 30.5947504 25.4742741 30.5069269 25.5106377 30.4150598 25.5461948 30.3318945 25.5851831 30.2051931 25.6947388 30.0958815 25.7713075 30.0389171 25.8580607 29.9342775 25.9830504 29.8122343 26.0778008 30.105963 26.2350803 30.3011037 26.1846771 30.3460332 26.1221754 30.6215934 26.3869326 30.7543874 26.440111 30.8569233 26.5193864 30.858262 26.7243624 30.7765311 26.8708558 30.6584631 26.8372537 30.5914173 26.9555721 30.6738449 26.9992221 30.5988076 27.14711 30.5358189 27.2634052 30.5115988 27.2821749 30.3641334 27.3413136 30.2768836 27.4871508 30.2300006 27.555066 30.1743476 27.7788664 30.1696211 27.8372805 30.2306427 27.8561185 30.272881 27.7982922 30.5632492 27.8621746 30.6645557 27.8769388 30.7670917 27.9501718 30.8750099 28.1054554 30.9609209 28.1787158 30.9863158 28.1317028 31.0473374 28.0960091 31.0742077 28.1048129 31.102362 28.157171 31.0715166 28.1955032 31.0654786 28.2579912 31.1607062 28.285551 31.253871 28.2566789 31.262682 28.2197274 31.219064 28.141778 31.2217551 28.1101854 31.2954673 28.0745463 31.3283482 28.0288047 31.3276242 27.9569387 31.3108627 27.8473831 31.3618848 27.7748062 31.456443 27.7317577 31.4885862 27.7559819 31.4999791 27.797636 31.4966459 27.8217918 31.471169 27.9139586 31.3933586 28.01672 31.3860229 28.0577452 31.3632372 28.107424 31.3618848 28.1377452 31.3772802 28.2022018 31.4161444 28.3742728 31.4282067 28.4556125 31.3632372 28.6418051 31.3679091 28.69687 31.4658004 28.7795221 31.5281334 28.8480935 31.5777485 28.839358 31.6261068 28.7984148 31.7078787 28.7069726 31.7842957 28.5893786 31.8212201 28.5026664 31.8440059 28.4126186 31.8882933 28.385715 31.9465691 28.3803425 31.9699833 28.3245531 31.9190841 28.3090507 31.9110791 28.217048 31.9264745 28.1162278 31.9874961 28.0234185 32.0002687 27.9723591 31.9941897 27.8957631 31.9888758 27.8258657 31.9532355 27.792906 31.8741273 27.7492833 31.9103551 27.653781 31.9291656 27.6054693 31.9941897 27.5879574 32.0303901 27.6094748 32.0612356 27.5671371 32.1208638 27.5718671 32.1503979 27.6296115 32.1926362 27.6511562 32.2751595 27.6369799 32.3697177 27.577267 32.4890151 27.5671371 32.5728361 27.4636375 32.6808226 27.3836376 32.613763 27.3043485 32.5117872 27.1793861 32.5976709 26.91724 32.634527 26.8534122 32.9604263 26.6867411 33.219949 26.6517582 33.2541004 26.569776 33.2681844 26.4380057 33.3560216 26.3238021 33.3768402 26.2075069 33.2594963 26.0045951 33.1743502 25.8130709 33.2407677 25.7605488 33.6953491 25.5603028 33.8563112 25.2363931 34.0600716 25.1113898 34.081546 25.0018478 34.1593563 24.9930576 34.222427 24.9930576 34.3417927 25.0098587 34.4477165 24.8573229 34.5208003 24.415751 34.6723502 24.3895719 34.7420872 24.3196745 34.7601464 24.0971729 34.8814929 24.0306931 35.0089183 24.0454436 35.0451324 23.7961067 35.0847479 23.4950542 35.1269043 23.3250065 35.2274868 23.2578158 35.3730124 23.014494 35.3650347 22.7510491 35.4722562 22.696572 35.5184971 22.5588687 35.4535549 22.4230793 35.5004378 22.3094772 35.468199 22.1166406 35.2959261 22.0655265 35.2516659 21.9372012 35.2657226 21.7778575 35.3327685 21.6804549 35.2348772 21.5197715 35.3180698 21.3820272 35.2610234 21.1958208 34.9492628 20.970052 34.9150022 20.7314055 35.0947611 20.6716789 35.2060944 20.5788833 35.2402731 20.4955204 35.2034033 20.4270037 35.2483328 20.211269 35.1967233 20.168945 35.2644112 19.9975165 35.3703896 19.982807 35.5687951 19.8382685 36.0067517 19.8066485 36.1105991 19.7414674 36.2286534 19.8234496 36.1709786 19.9545774 36.4144366 20.2919251 36.6484005 20.3813304 36.8106739 20.2415355 36.7925327 20.0378719 36.8898367 19.9068125 37.0600878 19.7992938 37.1506708 19.7643792 37.1814753 20.0049943 36.9957877 20.0532923 37.0111831 20.211269 37.1780875 20.2052266 37.1928955 20.3967645 37.1144294 20.4666346 37.1177899 21.0910088 37.2833692 21.5608104 37.2023213 21.6434351 37.2076216 21.7630796 37.5630139 21.9217262 37.6374501 22.0843508 37.7903661 22.4203999 37.9579671 22.701302 38.14972 22.8981714 38.242311 22.8216027 38.4830232 22.9936327 38.7606052 22.9795794 38.9322361 23.0911583 39.160927 23.0864146 39.5149806 22.8377476 39.6330349 22.9842274 39.926026 22.9621221 39.941435 22.7846649 40.0500362 22.6986089 40.066142 22.537365 39.9541393 22.5158339 40.0474134 22.3471532 39.9930445 22.2261279 40.1366167 22.0695046 40.4966126 22.3021224 40.6468238 22.2053214 40.9338588 22.1213023 41.1370319 21.8874678 41.6017085 21.8531821 41.7136838 21.6576115 41.9268837 21.5507626 42.0751551 21.79269 42.247428 21.7738383 42.2051897 21.6616169 42.3962595 21.5943989 42.6879801 21.9654445 42.8697062 21.9654445 42.8730393 22.0998396 42.7456959 22.2335374 42.6967092 22.4216986 42.909267 22.5735646 42.9246898 22.7530313 42.8395027 22.8357107 42.9152777 23.0279458 43.2787161 23.1045418 43.5609973 23.2463599 43.6166503 23.5306386 43.430908 23.8297226 43.7407425 24.0031059 43.8942459 23.8377882 44.2348712 23.903024 44.4320473 23.8814929 44.530608 23.7712537 44.6231854 23.6200166 44.7633151 23.4923065 44.8397321 23.3343844 44.8162223 23.1892034 44.7083042 23.1153005 44.6023804 22.7779664 44.4568548 22.6925666 44.4233455 22.6193335 44.1698607 22.4761757 44.0739911 22.2120883 44.11959 21.9230249 44.322763 21.7798944 44.2576569 21.5251713 44.4441642 21.4001953 44.5507436 21.4700517 44.6781554 21.332991 44.6325565 21.1232303 44.6928814 21.0688352 44.6083774 20.8920752 44.4990931 20.9377622 44.405259 20.7186782 44.2838578 20.6581587 44.0136116 20.7402093 43.9680401 20.8403459 43.7828989 20.85578 43.7313031 20.7496009 43.5167918 20.7597035 43.4886374 20.551966 43.3088922 20.564789 43.2881418 20.4814671 43.403423 20.1769423 43.3088922 20.0150285 43.3766074 19.7704216 43.3008325 19.566758 43.409461 19.4719802 43.4282579 19.2077971 43.290109 19.0337712 43.5040328 18.9551383 43.7373274 18.6634638 43.6797073 18.5385015 43.8285524 18.5082486 43.9043273 18.3623566 43.8439478 18.1278386 43.8641244 17.9873876 44.1316795 18.0613041 44.7176889 17.7507916 44.8142689 17.7360411 45.0998969 17.8240384 45.1542658 17.6412497 45.2152874 17.5868409 45.2782761 17.541154 45.3654439 17.733348 45.4941808 17.8818647 45.3520293 18.1957128 45.3821781 18.4101352 45.491517 18.5096156 45.6497605 18.4067175 45.7824862 18.5115842 45.9219739 18.6755349 45.8871396 18.7858014 46.1372638 18.8973803 46.2546351 18.7810714 46.3927294 18.9148376 46.5375037 18.8516934 46.5589781 18.7273325 46.7078915 18.7420967 47.0136141 18.8738807 47.2201887 18.7851589 47.581578 19.0768061 47.6875154 18.9887542 47.7116945 18.9094514 47.8269757 18.870463 47.8880246 18.6419464 47.8511549 18.4746327 47.9423799 18.3046123 47.9725014 18.1493014 47.9275719 17.9241887"></polygon>
                </g>
                <path d="M19,19 C20.6568542,19 22,20.3431458 22,22 C22,23.6568542 20.6568542,25 19,25 C17.3431458,25 16,23.6568542 16,22 C16,20.3431458 17.3431458,19 19,19 Z M12,11 C14.209139,11 16,12.790861 16,15 C16,17.209139 14.209139,19 12,19 C9.790861,19 8,17.209139 8,15 C8,12.790861 9.790861,11 12,11 Z M37,13 C38.6568542,13 40,14.3431458 40,16 C40,17.6568542 38.6568542,19 37,19 C35.3431458,19 34,17.6568542 34,16 C34,14.3431458 35.3431458,13 37,13 Z M26,5 C29.3137085,5 32,7.6862915 32,11 C32,14.3137085 29.3137085,17 26,17 C22.6862915,17 20,14.3137085 20,11 C20,7.6862915 22.6862915,5 26,5 Z M16,5 C17.1045695,5 18,5.8954305 18,7 C18,8.1045695 17.1045695,9 16,9 C14.8954305,9 14,8.1045695 14,7 C14,5.8954305 14.8954305,5 16,5 Z M34,3 C35.1045695,3 36,3.8954305 36,5 C36,6.1045695 35.1045695,7 34,7 C32.8954305,7 32,6.1045695 32,5 C32,3.8954305 32.8954305,3 34,3 Z" id="Symbols"></path>
            </g>
        </g>
    </g>
</svg>