<svg width="24" height="24" viewBox="0 0 24 24" fill="none" xmlns="http://www.w3.org/2000/svg">
<path d="M19.4238 10.2188L16.2423 12.6562L16.1299 12.5895C15.4188 12.17 13.5856 11.09 13.4755 11.0301L13.2298 10.8943L12.9919 11.0436C12.8499 11.1321 12.0902 11.7158 10.5451 12.9104C10.2777 13.1181 10.0421 13.3003 9.87944 13.425L8.56698 12.6596L5.875 14.3431L6.37507 15.2188L8.58533 13.8362L9.92288 14.6171L10.1695 14.4644C10.2091 14.4388 10.8564 13.9392 11.1557 13.7082C11.8242 13.1911 12.8181 12.4223 13.2757 12.0777C13.5889 12.2614 14.132 12.5813 14.6538 12.8886L16.3142 13.8652L19.9991 11.0432L19.4238 10.2188Z" fill="#1F2937"/>
<path d="M14.2132 8.011L19.642 9.52145L19.8898 8.47244L14.0905 6.85846L14.0385 6.84375L10.1561 9.5677L6.28094 7.02664L5.76562 7.95372L10.1739 10.8438L14.2132 8.011Z" fill="#1F2937"/>
<path d="M4.99824 16.9231V4H4V18H19.9718V16.9231H4.99824Z" fill="#1F2937"/>
</svg>
