<?xml version="1.0" encoding="UTF-8"?>
<svg width="24px" height="24px" viewBox="0 0 24 24" version="1.1" xmlns="http://www.w3.org/2000/svg" xmlns:xlink="http://www.w3.org/1999/xlink">
    <title>Icons/IXT/24dp/ic_map_symbols</title>
    <g id="Icons/IXT/24dp/ic_map_symbols" stroke="none" stroke-width="1" fill="none" fill-rule="evenodd">
        <g id="ic_map_symbols">
            <rect id="Container" x="0" y="0" width="24" height="24"></rect>
            <path d="M6,10.8 C9.3137085,10.8 12,13.4862915 12,16.8 C12,20.1137085 9.3137085,22.8 6,22.8 C2.6862915,22.8 0,20.1137085 0,16.8 C0,13.4862915 2.6862915,10.8 6,10.8 Z M6,12.8 C3.790861,12.8 2,14.590861 2,16.8 C2,19.009139 3.790861,20.8 6,20.8 C8.209139,20.8 10,19.009139 10,16.8 C10,14.590861 8.209139,12.8 6,12.8 Z M18.6,8.7 C21.5823376,8.7 24,11.1176624 24,14.1 C24,17.0823376 21.5823376,19.5 18.6,19.5 C15.6176624,19.5 13.2,17.0823376 13.2,14.1 C13.2,11.1176624 15.6176624,8.7 18.6,8.7 Z M18.6,10.7 C16.7222319,10.7 15.2,12.2222319 15.2,14.1 C15.2,15.9777681 16.7222319,17.5 18.6,17.5 C20.4777681,17.5 22,15.9777681 22,14.1 C22,12.2222319 20.4777681,10.7 18.6,10.7 Z M11,1 C13.3748244,1 15.3,2.92517558 15.3,5.3 C15.3,7.67482442 13.3748244,9.6 11,9.6 C8.62517558,9.6 6.7,7.67482442 6.7,5.3 C6.7,2.92517558 8.62517558,1 11,1 Z M11,3 C9.72974508,3 8.7,4.02974508 8.7,5.3 C8.7,6.57025492 9.72974508,7.6 11,7.6 C12.2702549,7.6 13.3,6.57025492 13.3,5.3 C13.3,4.02974508 12.2702549,3 11,3 Z" id="Combined-Shape" fill="#454545"></path>
        </g>
    </g>
</svg>