<svg width="24" height="24" viewBox="0 0 24 24" fill="none" xmlns="http://www.w3.org/2000/svg">
<path d="M9.23438 16.8688V4.41406L13.9267 6.84271V16.3129L14.7656 15.4246V6.83301L19.1572 4.42969V11H20.0035V3.00781L14.3397 6.10779L8.80438 3.24304L3.05469 6.33325V20.6973L8.81208 17.6028L11.4291 18.9574L12.0335 18.3174L9.23438 16.8688ZM8.38513 16.8681L3.89844 19.2805V6.83429L8.38513 4.42188V16.8681ZM22.1416 13.6865L20.4447 12L13.3907 19.0695L13 21.1426L15.0843 20.7599L22.1416 13.6865ZM19.4488 13.963L20.4459 12.9637L21.1766 13.6895L20.1816 14.6868L19.4488 13.963ZM14.0208 19.4008L18.9671 14.4439L19.6999 15.1675L14.7501 20.1286L13.8529 20.2933L14.0208 19.4008Z" fill="#1F2937"/>
</svg>
