<svg width="24" height="24" viewBox="0 0 24 24" fill="none" xmlns="http://www.w3.org/2000/svg">
<path fill-rule="evenodd" clip-rule="evenodd" d="M6.61255 12.4853L11.8723 20.911L17.1511 12.4521C17.5893 11.5552 17.7917 10.5614 17.7392 9.56463C17.6866 8.56781 17.3809 7.60083 16.8509 6.75496C16.3209 5.90909 15.5841 5.21226 14.71 4.73024C13.8359 4.24822 12.8533 3.99692 11.8551 4.00006C10.8569 4.0032 9.87602 4.26069 9.00498 4.74821C8.13393 5.23573 7.4015 5.93719 6.87682 6.78638C6.35215 7.63557 6.05255 8.60447 6.00631 9.60159C5.96007 10.5987 6.16872 11.5912 6.61255 12.4853ZM8.2527 6.24487C9.21351 5.28406 10.5162 4.74364 11.875 4.74219V4.7422C13.2338 4.74365 14.5365 5.28407 15.4973 6.24487C16.4581 7.20566 16.9985 8.50837 17 9.86715C17.0033 10.6354 16.8319 11.3944 16.499 12.0868L11.875 19.4931L7.27002 12.1201C6.9256 11.4191 6.74764 10.6481 6.75002 9.86719C6.75147 8.5084 7.2919 7.20568 8.2527 6.24487ZM11.8701 12.1621C11.4168 12.1621 10.9736 12.0277 10.5967 11.7759C10.2198 11.524 9.92604 11.1661 9.75264 10.7472C9.57914 10.3284 9.53374 9.86758 9.62214 9.42298C9.71064 8.97838 9.92894 8.56998 10.2494 8.24944C10.5699 7.9289 10.9783 7.7106 11.4229 7.62217C11.8675 7.53373 12.3284 7.57912 12.7472 7.7526C13.166 7.92607 13.524 8.21984 13.7758 8.59676C14.0277 8.97368 14.1621 9.41681 14.1621 9.87013C14.1614 10.4778 13.9196 11.0603 13.49 11.49C13.0603 11.9197 12.4777 12.1614 11.8701 12.1621ZM11.0134 8.58801C11.267 8.41856 11.5651 8.32814 11.8701 8.32814V8.32812C12.2789 8.32856 12.6709 8.49116 12.96 8.78024C13.2491 9.06933 13.4117 9.4613 13.4121 9.87013C13.4121 10.1751 13.3217 10.4732 13.1522 10.7268C12.9828 10.9804 12.7419 11.178 12.4602 11.2948C12.1784 11.4115 11.8684 11.442 11.5693 11.3825C11.2701 11.323 10.9954 11.1761 10.7797 10.9605C10.5641 10.7448 10.4172 10.4701 10.3577 10.171C10.2982 9.87185 10.3288 9.5618 10.4455 9.28004C10.5622 8.99827 10.7598 8.75744 11.0134 8.58801Z" fill="#1F2937"/>
</svg>
