<svg width="24" height="24" viewBox="0 0 24 24" fill="none" xmlns="http://www.w3.org/2000/svg">
<mask id="path-1-inside-1_3393_120" fill="white">
<path fill-rule="evenodd" clip-rule="evenodd" d="M13.9093 6.17185L13.9359 6.19198L13.9169 6.25749L13.9577 6.31123L13.9847 6.30543L14.0441 6.27284L14.0658 6.16456L14.0442 6.12753L14.0632 6.04995L14.1 6.03748L14.1231 6.09569L14.1493 6.12179L14.216 6.12871L14.2271 6.23633L14.2488 6.31064L14.2727 6.33189L14.3773 6.26968L14.4351 6.28831L14.4484 6.32039L14.5077 6.36054L14.4996 6.39667L14.4225 6.40121L14.3781 6.44808L14.3632 6.50548L14.3966 6.56298L14.4696 6.58335L14.4365 6.72762L14.4442 6.75419L14.5827 6.77441L14.724 6.86198L14.7726 6.86772L14.7612 6.83895L14.7924 6.76048L14.7825 6.69011L14.7615 6.67634L14.6456 6.66079L14.6617 6.61775L14.6475 6.58613L14.7004 6.56107L14.721 6.52474L14.7886 6.52407L14.7762 6.47488L14.8248 6.45069L14.8549 6.5467L14.9105 6.63287L14.9548 6.60857L15.0145 6.63213L15.0289 6.68229L15.1397 6.67252L15.1008 6.71421L15.0408 6.80049L15.0435 6.83233L15.0861 6.83456L15.1498 6.90189L15.1572 6.9982L15.1566 7.0068L15.1933 7.00683L15.2629 7.05217L15.4749 6.99553L15.5909 6.9375L15.676 6.87446L15.8692 6.79447L16.0379 6.80953L16.1145 6.84513L16.2239 6.84569L16.279 6.8707L16.3339 6.91544L16.4346 6.94308L16.4551 6.94046L16.4808 6.9211L16.5284 6.93141L16.5543 6.96835L16.5905 7.00655L16.6471 6.99874L16.671 6.98834L16.8055 7.00399L17.0079 6.97999L17.678 7.23492L18.1673 7.69187L18.4734 7.75527L18.485 8.03829L18.4997 8.07524L18.5591 8.12152L18.5931 8.15724L18.6485 8.27375L18.6909 8.28197L18.7299 8.23521L18.7819 8.31437L18.9376 8.33578L18.9549 8.37854L18.92 8.41192L18.8886 8.46173L18.9205 8.58598L18.924 8.66404L18.9651 8.71085L19.0305 8.7522L19.0295 8.81684L18.9764 8.88576L18.9139 8.90978L18.7923 8.91838L18.6771 9.04549L18.6168 9.23933L18.5842 9.28171L18.5074 9.3275L18.4758 9.35384L18.3993 9.49891L18.3332 9.55708L18.3314 9.60184L18.2871 9.72413L18.2018 9.86418L18.1697 9.97015L18.1411 10.0259L18.1216 10.1595L18.1664 10.2978L18.2067 10.3618L18.2333 10.4089L18.2718 10.5729L18.2872 10.6713L18.2479 10.7685L18.0669 10.8965L18.0539 10.9266L18.0724 10.989L18.1208 11.0029L18.1515 10.9531L18.2463 10.9534L18.2723 10.9306L18.3367 10.9152L18.3813 10.9014L18.4389 10.9428L18.4643 11.0053L18.5242 10.9843L18.6139 10.9668L18.6872 10.9227L18.7571 10.977L18.8014 10.9921L18.8509 10.9896L18.8922 10.9366L18.956 10.9471L19.0706 10.9214L19.1014 10.9665L19.1468 10.9851L19.1941 10.9756L19.1927 11.0137L19.247 11.0443L19.3591 11.0495L19.3919 11.0867L19.5628 11.0766L19.6044 11.1211L19.6505 11.1381L19.7035 11.1864L19.7607 11.2003L19.7926 11.235L19.8994 11.2213L19.9379 11.1761L20.0135 11.1897L20.0333 11.2108L19.9888 11.2434L19.9974 11.2862L20.0741 11.3243L20.0914 11.3923L20.0463 11.4388L20.0108 11.5019L19.9892 11.5711L20.0255 11.6106L20.0068 11.6544L20.0129 11.7577L20.1019 11.7772L20.1593 11.8188L20.1884 11.8139L20.2331 11.8612L20.311 11.8978L20.3524 11.9037L20.4152 11.8796L20.4515 11.9045L20.5063 11.8805L20.5285 11.9439L20.5657 11.9688L20.6424 11.9924L20.7001 11.974L20.7421 12.012L20.8195 12.1126L20.8688 12.1433L20.862 12.2206L20.9026 12.2413L21.0373 12.2387L21.0628 12.2584L21.0831 12.3198L21.1237 12.3714L21.1914 12.35L21.2107 12.3218L21.2898 12.329L21.328 12.3027L21.4337 12.3075L21.4915 12.2793L21.553 12.2043L21.6023 12.2162L21.677 12.1988L21.7422 12.2052L21.7428 12.1705L21.7527 12.0849L21.7176 12.0487L21.7085 12.0112L21.7452 11.9738L21.7633 11.8817L21.7875 11.8612L21.7804 11.7799L21.8626 11.7895L22.0377 11.8417L22.0726 11.8231L22.1466 11.8197L22.152 11.7818L22.0986 11.7216L22.1141 11.6557L22.2036 11.6309L22.2123 11.5657L22.2847 11.4425L22.2943 11.3974L22.3354 11.3792L22.4181 11.3903L22.4731 11.3339L22.5019 11.3257L22.5474 11.3496L22.5643 11.3891L22.6143 11.4429L22.6826 11.4886L22.6622 11.5918L22.7135 11.6159L22.7921 11.6418L22.8228 11.6381L22.8875 11.676L22.9251 11.7155L22.987 11.7371L22.9674 11.7786L22.982 11.8125L22.9718 11.8834L22.9346 11.9152L22.9179 12.022L22.8674 12.0876L22.8894 12.1083L22.8993 12.1616L22.8835 12.2327L22.9019 12.3199L22.8638 12.368L22.8763 12.4042L22.8285 12.4411L22.8464 12.4785L22.7999 12.6111L22.7428 12.6543L22.697 12.6599L22.6638 12.7157L22.7176 12.7573L22.7557 12.8224L22.7661 12.918L22.5546 13.0778L22.5971 13.1061L22.6445 13.1676L22.6313 13.2332L22.5698 13.2561L22.5212 13.3624L22.4655 13.3943L22.5168 13.4787L22.51 13.5603L22.5249 13.5878L22.555 13.6442L22.5647 13.704L22.5979 13.7154L22.6516 13.6942L22.7643 13.6872L22.7771 13.6749L22.8571 13.7285L22.9623 13.8303L23 13.8439L22.9633 13.911L22.9799 14.0124L22.9651 14.0923L22.9162 14.1621L22.9307 14.223L22.8983 14.2801L22.9039 14.3115L22.8403 14.3257L22.8097 14.3949L22.7315 14.3513L22.6416 14.2607L22.5406 14.3087L22.4773 14.2689L22.4105 14.2436L22.3212 14.2322L22.3121 14.2728L22.2552 14.3168L22.1889 14.2584L22.1203 14.2912L22.1044 14.273L22.0465 14.2699L22.0454 14.2125L22.0038 14.1374L21.8893 14.0938L21.8434 14.131L21.795 14.0883L21.7852 13.9987L21.8692 13.8758L21.8013 13.7998L21.7737 13.7136L21.6999 13.7549L21.6579 13.8334L21.6145 13.8085L21.5015 13.7876L21.4006 13.8415L21.28 13.8737L21.2366 13.9079L21.1629 13.8975L21.11 13.8739L21.1051 13.9374L21.0845 13.9881L21.1042 14.0154L21.0761 14.0913L20.9949 14.1056L21.0272 14.1576L20.9587 14.213L20.942 14.2671L20.9119 14.2962L20.8404 14.308L20.8266 14.3503L20.8718 14.3874L20.8751 14.447L20.8633 14.5077L20.8191 14.529L20.8315 14.6354L20.8489 14.6736L20.8265 14.7044L20.8327 14.7441L20.8646 14.7778L20.8681 14.8516L20.8172 14.9035L20.8171 14.9672L20.8865 14.9785L20.9058 15.0596L20.9259 15.0759L20.9885 15.0617L21.0038 15.1073L21.0621 15.0967L21.101 15.1052L21.1378 15.0601L21.2404 15.0378L21.3081 15.0603L21.3269 15.0947L21.3298 15.1515L21.3946 15.1436L21.422 15.1942L21.3994 15.2213L21.4083 15.3046L21.3704 15.3411L21.3053 15.3332L21.2313 15.3886L21.2253 15.4391L21.2402 15.4968L21.1374 15.5627L21.1193 15.6739L21.1602 15.7398L21.178 15.8006L21.2846 15.8621L21.2805 15.885L21.3617 15.9392L21.3644 15.9905L21.4013 16.0063L21.4058 16.077L21.4474 16.1082L21.4697 16.1621L21.462 16.1859L21.3453 16.2827L21.3214 16.342L21.2553 16.3782L21.2114 16.3853L21.143 16.3728L21.1154 16.3543L21.0578 16.3568L21.0024 16.379L20.9559 16.4284L20.8978 16.3776L20.8253 16.3467L20.8702 16.3114L20.8727 16.2706L20.9073 16.2272L20.8741 16.1053L20.7545 16.0382L20.6583 16.0173L20.5942 15.9907L20.5735 15.9171L20.6165 15.8827L20.5889 15.8011L20.5176 15.7421L20.5438 15.6699L20.5947 15.6177L20.5833 15.5525L20.5419 15.5565L20.4417 15.4786L20.4002 15.4159L20.4158 15.3857L20.3865 15.379L20.2949 15.4068L20.2487 15.4649L20.2097 15.4349L20.1669 15.3692L20.0513 15.4162L20.0346 15.4485L19.9744 15.4876L19.9165 15.4851L19.7991 15.4968L19.7405 15.5636L19.6891 15.5774L19.6551 15.6056L19.5683 15.6264L19.5396 15.6623L19.4963 15.6593L19.438 15.6042L19.3696 15.5562L19.3323 15.566L19.2708 15.6281L19.2897 15.6802L19.2425 15.7367L19.2846 15.7644L19.2772 15.8271L19.2469 15.8513L19.2286 15.9379L19.1716 15.9515L19.0703 15.9108L19.0446 15.8723L19.0094 15.9159L18.9644 15.9176L18.9146 15.958L18.8638 15.9817L18.7923 15.9669L18.7648 15.9738L18.7241 15.9267L18.6701 15.9198L18.5729 15.925L18.543 15.8981L18.4523 15.8533L18.4287 15.8766L18.3783 15.8395L18.279 15.7181L18.2575 15.6825L18.2296 15.5584L18.191 15.528L18.1711 15.4766L18.1061 15.4556L17.9984 15.3996L18.0364 15.3155L18.002 15.1647L17.9765 15.1405L17.9666 15.1089L17.9803 15.0055L17.9978 14.9677L17.9898 14.8326L18.0207 14.7916L18.0054 14.7213L17.9445 14.7244L17.9416 14.6959L17.9995 14.6928L18.0155 14.5437L17.869 14.6075L17.8239 14.6684L17.8219 14.746L17.7558 14.8101L17.6539 14.7692L17.6315 14.7104L17.5957 14.6987L17.5501 14.6303L17.5746 14.5712L17.5208 14.5325L17.4857 14.5666L17.408 14.5696L17.4004 14.5555L17.272 14.5674L17.1734 14.6133L17.1347 14.6158L17.1166 14.6758L17.0906 14.8144L17.1112 14.8477L17.0546 14.9092L16.9614 14.94L16.9752 15.0425L17.0285 15.0815L17.0415 15.1102L17.0949 15.1215L17.1238 15.159L17.1297 15.2338L17.0992 15.2765L17.1384 15.3498L17.0981 15.4159L17.1024 15.4525L17.1337 15.5172L17.2015 15.5314L17.1997 15.5738L17.2183 15.6092L17.1812 15.6595L17.2191 15.7206L17.1929 15.7803L17.1471 15.7988L17.1292 15.8322L17.146 15.912L17.0825 15.9597L17.0621 16.0075L17.0206 16.0308L17.0101 16.0898L16.9862 16.1031L16.968 16.2316L16.975 16.2822L16.9586 16.3318L16.9057 16.3229L16.8348 16.3522L16.845 16.3849L16.8247 16.4467L16.8033 16.4695L16.744 16.4853L16.7084 16.5802L16.7241 16.623L16.7045 16.6784L16.6417 16.7382L16.6012 16.7268L16.5814 16.7241L16.5364 16.7355L16.5228 16.7835L16.4158 16.8406L16.3525 16.9601L16.2712 16.9785L16.2474 17.0124L16.1961 17.0184L16.145 17.0478L16.1151 17.068L16.1957 17.2489L16.1971 17.2771L16.1469 17.3402L16.1432 17.4093L16.1218 17.4266L16.0564 17.4385L16.007 17.4276L15.9544 17.4497L15.9031 17.4878L15.8469 17.5091L15.8457 17.5512L15.8096 17.5893L15.8002 17.6375L15.8733 17.727L15.8821 17.8235L15.9014 17.8706L15.851 17.909L15.8185 17.9074L15.799 17.9564L15.7408 17.955L15.7431 18.0046L15.72 18.0121L15.7344 18.0449L15.8311 18.0835L15.8471 18.1567L15.823 18.191L15.8724 18.2341L15.8565 18.2901L15.908 18.303L15.9706 18.2962L16.0031 18.331L16.0539 18.3383L16.0498 18.367L16.1348 18.3996L16.1365 18.4775L16.1765 18.499L16.1409 18.5689L16.0853 18.6312L16.0409 18.6327L16.0019 18.7133L16.0125 18.7589L16.0096 18.7801L15.9604 18.8169L15.9352 18.8607L15.9468 18.8873L15.9135 18.9569L15.8435 19L15.7558 18.9682L15.7348 18.9471L15.7512 18.891L15.6478 18.8802L15.6178 18.9076L15.5764 18.8818L15.5488 18.8399L15.5053 18.8407L15.4378 18.8656L15.4192 18.9011L15.3776 18.8958L15.3372 18.9199L15.3473 18.8442L15.4361 18.7239L15.4693 18.7062L15.4823 18.6636L15.4439 18.6621L15.4331 18.5688L15.3828 18.5002L15.3988 18.4492L15.3765 18.4151L15.3569 18.3803L15.313 18.3589L15.2431 18.2607L15.2724 18.1656L15.2481 18.0934L15.1891 18.1073L15.116 18.0688L15.084 18.0469L15.0539 18.0202L15.0004 17.9488L14.9468 17.907L14.9078 17.9089L14.8608 17.8915L14.773 17.8806L14.725 17.8998L14.7598 17.7773L14.7793 17.751L14.822 17.6882L14.8888 17.6652L14.93 17.609L14.939 17.5614L14.9652 17.5474L14.9608 17.4985L15.0077 17.5169L15.0581 17.4326L15.0461 17.342L14.9571 17.2954L14.8678 17.2023L14.8226 17.1765L14.7923 17.219L14.7111 17.2224L14.5784 17.1516L14.5136 17.0414L14.4267 17.1182L14.3759 17.2024L14.2988 17.1744L14.2397 17.1712L14.2078 17.1178L14.163 17.1279L14.1032 17.1029L14.0563 17.0343L13.8808 17.045L13.8705 16.9726L13.8024 16.9087L13.8379 16.8274L13.7651 16.8189L13.7618 16.7871L13.7089 16.7804L13.6881 16.7527L13.6763 16.6872L13.6474 16.6437L13.6005 16.6285L13.5982 16.5905L13.5442 16.5559L13.5149 16.5114L13.4957 16.4208L13.4435 16.3977L13.4117 16.4086L13.3014 16.3508L13.2293 16.3426L13.1864 16.3262L13.1642 16.2508L13.0826 16.2292L13.0584 16.1887L13.0885 16.1418L13.1243 16.1266L13.0947 16.0582L13.0294 15.9847L12.9879 15.9029L13.0499 15.8652L13.0654 15.7656L13.1145 15.7542L13.1233 15.7154L13.1703 15.6732L13.1655 15.6026L13.1519 15.5468L13.194 15.4866L13.1774 15.4492L13.1759 15.3731L13.1484 15.3301L13.1985 15.2701L13.1591 15.2121L13.1847 15.1675L13.1292 15.0933L13.148 15.0594L13.1324 15.0181L13.1746 14.9667L13.154 14.9149L13.1094 14.8844L13.0959 14.8422L13.0402 14.8263L12.9363 14.8622L12.8942 14.8624L12.8192 14.9089L12.7792 14.9051L12.693 14.9066L12.6388 14.9388L12.6228 14.9734L12.4917 15.0768L12.4409 15.0903L12.4046 15.0759L12.363 15.1305L12.3632 15.1512L12.3146 15.1911L12.3855 15.2278L12.4152 15.2176L12.4446 15.2504L12.4309 15.3925L12.3684 15.4119L12.3188 15.4439L12.2921 15.4796L12.2377 15.4586L12.1926 15.477L12.2028 15.556L12.1401 15.591L12.126 15.6278L12.0551 15.6304L11.9997 15.6687L12.0049 15.7208L11.9544 15.7645L11.9415 15.8318L11.9094 15.8529L11.8772 15.8773L11.8491 15.8645L11.7809 15.9088L11.6962 15.9186L11.6262 15.8819L11.5977 15.8794L11.4994 15.9445L11.4641 16.014L11.4247 16.0237L11.4007 16.0622L11.33 16.108L11.3033 16.1468L11.3316 16.1878L11.4048 16.2L11.4061 16.219L11.4475 16.2188L11.4615 16.2884L11.4976 16.3059L11.516 16.3474L11.5868 16.3699L11.6094 16.464L11.6475 16.5207L11.6568 16.5964L11.716 16.6538L11.7143 16.6883L11.6824 16.7066L11.6402 16.7812L11.6395 16.8172L11.6667 16.8773L11.6136 16.9471L11.5204 16.9571L11.473 16.9889L11.4652 17.0722L11.4382 17.1097L11.31 17.1496L11.249 17.1461L11.1767 17.1764L11.0798 17.1794L11.0567 17.2519L11.0544 17.3079L11.0225 17.3479L11.029 17.4235L11.085 17.5456L11.0202 17.5784L10.9709 17.6284L10.9981 17.6703L10.9654 17.708L10.9734 17.7523L10.9185 17.7508L10.8838 17.8303L10.8603 17.8556L10.8022 17.833L10.7063 17.8547L10.6683 17.8449L10.5865 17.8553L10.4704 17.849L10.3984 17.967L10.3187 17.9978L10.34 18.0612L10.3064 18.1003L10.3177 18.157L10.2845 18.1683L10.2754 18.2392L10.3168 18.2987L10.2976 18.3413L10.1213 18.3332L10.0421 18.2996L9.94079 18.3611L9.89864 18.3125L9.82952 18.2731L9.79415 18.2342L9.68979 18.2092L9.68047 18.2486L9.63702 18.2909L9.62842 18.3187L9.55752 18.3199L9.51966 18.2914L9.49394 18.2493L9.50558 18.1632L9.4567 18.1254L9.39814 18.1197L9.35939 18.1013L9.34661 18.0545L9.30383 17.9969L9.2519 17.9799L9.16476 18.0219L9.06841 18.0073L9.0217 18.0265L8.91882 18.0193L8.88456 17.9943L8.86943 17.9195L8.85049 17.9094L8.78886 17.9216L8.73132 17.916L8.68963 17.9828L8.71477 18.0668L8.69558 18.1066L8.62387 18.1095L8.57366 18.072L8.5247 18.1L8.48422 18.0714L8.45635 18.1147L8.42728 18.1139L8.38116 18.1358L8.34974 18.1694L8.36658 18.2374L8.35063 18.2539L8.28802 18.2442L8.27427 18.2662L8.21957 18.2688L8.17008 18.3429L8.13438 18.3739L8.05556 18.4169L8.01155 18.3991L7.98955 18.4417L7.91771 18.4954L7.83857 18.4463L7.81504 18.4515L7.73301 18.3749L7.66715 18.4053L7.60598 18.3979L7.59658 18.3663L7.52569 18.3622L7.49152 18.3328L7.44691 18.3716L7.40547 18.4686L7.37979 18.4739L7.30899 18.5486L7.27314 18.517L7.22975 18.5368L7.17034 18.5242L7.11285 18.545L7.10927 18.5766L7.06267 18.6003L7.02197 18.6635L7.03711 18.7102L6.98754 18.7385L6.91291 18.7116L6.84756 18.6561L6.859 18.6228L6.8078 18.6063L6.7192 18.6483L6.70049 18.6867L6.63494 18.7352L6.55381 18.7347L6.51 18.6524L6.52527 18.6282L6.45081 18.5674L6.43464 18.5039L6.37444 18.4734L6.37571 18.4127L6.32067 18.3729L6.2808 18.3288L6.26602 18.2739L6.23611 18.2259L6.25002 18.1848L6.24546 18.1238L6.15219 18.0858L6.107 18.0265L6.11516 18.0013L6.16482 17.9823L6.17098 17.9547L6.12158 17.9108L6.11418 17.8469L6.06172 17.8349L5.98915 17.7964L5.97062 17.699L5.88319 17.6327L5.81935 17.496L5.78669 17.501L5.75211 17.4741L5.7606 17.4167L5.73889 17.3994L5.69337 17.4123L5.62169 17.5031L5.55228 17.5195L5.53269 17.5558L5.45994 17.5221L5.44753 17.4713L5.48507 17.3818L5.53677 17.3532L5.52168 17.3223L5.53823 17.2812L5.49543 17.2156L5.55534 17.1317L5.5454 17.1012L5.57555 17.0295L5.53163 17.0209L5.49222 17.0367L5.46276 17.0183L5.34225 17.0133L5.29465 16.978L5.18683 16.9842L5.13167 16.9517L5.08285 16.9472L5.04665 16.8341L5.05581 16.7767L5.12037 16.7146L5.15334 16.659L5.12692 16.5617L5.11038 16.5186L5.14204 16.4491L5.19818 16.3872L5.19371 16.3451L5.24108 16.3174L5.27264 16.2757L5.28768 16.2265L5.36038 16.1854L5.35751 16.1579L5.38392 16.1128L5.37957 16.0615L5.40743 16.0175L5.37889 15.9538L5.32177 15.9567L5.25959 15.8932L5.23874 15.8526L5.18692 15.7925L5.12526 15.7581L5.0963 15.7632L5.07594 15.6793L5.01745 15.6785L4.9928 15.6041L4.97034 15.5854L4.94974 15.5341L4.95554 15.4954L5 15.4611L5.05327 15.4567L5.11163 15.3947L5.12165 15.3531L5.10181 15.3283L5.19527 15.0674L4.52011 14.8909L3.73073 14.8777L3.27731 15.141L2.83871 15.2195L2.43987 15.5003L2.38362 15.6094L2.33674 15.7012L2.27783 15.8149L2.38377 15.8622L2.41184 15.8901L2.43147 15.9702L2.39783 15.9884L2.36666 16.0097L2.3661 16.0432L2.42578 16.1359L2.4782 16.1839L2.50559 16.2304L2.59345 16.1862L2.64492 16.1769L2.70942 16.183L2.71755 16.254L2.64118 16.3776L2.55343 16.4403L2.50089 16.4523L2.41946 16.5066L2.40131 16.4965L2.34856 16.4977L2.29871 16.5297L2.2521 16.5789L2.21608 16.5894L2.17537 16.6437L2.11561 16.6796L2.12888 16.7573L2.06378 16.8093L1.95139 16.852L1.92447 16.8883L1.89981 16.8812L1.87038 16.919L1.69378 16.9009L1.65844 16.8511L1.5746 16.8664L1.46481 16.8537L1.44487 16.9204L1.36809 16.9306L1.33126 16.9219L1.28701 16.9075L1.23125 16.9139L1.1838 16.8979L1.12919 16.9127L1.09829 16.9741L1.0446 16.9937L1 16.9776L1.04778 16.9447L1.04158 16.8962L1.09769 16.7952L1.12504 16.7154L1.15622 16.7279L1.17569 16.6884L1.18981 16.6494L1.17099 16.6201L1.03693 16.5584L1.0818 16.5225L1.06398 16.4959L1.1081 16.4295L1.17969 16.4386L1.2134 16.4088L1.24629 16.3871L1.26152 16.3503L1.33517 16.3239L1.37654 16.2903L1.43772 16.3355L1.50952 16.2467L1.55068 16.2732L1.64046 16.2346L1.70681 16.2961L1.74172 16.2823L1.81237 16.2118L1.79544 16.1433L1.71565 16.0318L1.70948 15.9899L1.76229 15.9295L1.80055 15.9101L1.79408 15.8115L1.82295 15.7784L1.85059 15.7321L1.88823 15.6674L1.88532 15.6371L1.93643 15.6151L1.97947 15.5616L1.98586 15.5187L2.03828 15.4613L1.98212 15.3763L1.93974 15.3902L1.8719 15.3226L1.7638 15.2441L1.72474 15.2454L1.68939 15.1877L1.52353 15.1383L1.57631 15.0369L1.62125 14.9868L1.6225 14.936L1.57625 14.8974L1.56622 14.8167L1.68415 14.7138L1.76088 14.5298L1.87987 14.3953L1.91241 14.412L1.9571 14.356L1.93362 14.3382L1.97196 14.2999L1.75119 14.0955L1.80349 14.0476L1.82468 14.0121L1.88641 13.9623L1.95886 13.919L1.99498 13.879L2.08185 13.8383L2.08777 13.8119L2.16369 13.76L2.18231 13.7204L2.22225 13.7086L2.27734 13.651L2.31744 13.63L2.3459 13.5855L2.51064 13.4452L2.51983 13.4044L2.58613 13.354L2.70398 13.3009L2.78512 13.2523L2.87182 13.224L2.92233 13.1929L2.96024 13.141L3.01611 13.1327L3.0079 13.0935L3.08267 13.0821L3.11239 13.0427L3.09718 13.0097L3.15642 12.9608L3.23623 12.9473L3.30257 12.919L3.3443 12.8832L3.34176 12.8584L3.40379 12.8086L3.40425 12.7787L3.43654 12.715L3.32104 12.6253L3.30342 12.5581L3.35039 12.5323L3.34518 12.4809L3.35924 12.4302L3.44415 12.3015L3.4577 12.1445L3.46572 12.0471L3.43343 11.9779L3.32667 11.8426L3.31193 11.798L3.37014 11.7655L3.44158 11.7022L3.50056 11.6199L3.5703 11.5443L3.6221 11.4983L3.66703 11.551L3.72835 11.5204L3.94605 11.4639L4.08399 11.3893L4.10441 11.3779L4.20516 11.3838L4.28662 11.3393L4.3353 11.2858L4.40674 11.156L4.50114 11.0977L4.60309 11.0742L4.7039 10.9854L4.65117 10.9481L4.61284 10.9423L4.56833 10.8929L4.63618 10.8439L4.62166 10.7937L4.68482 10.7479L4.73392 10.7261L4.79749 10.7347L4.83147 10.6955L4.802 10.6153L4.92412 10.5385L4.97338 10.5337L5.05605 10.4944L5.11737 10.4735L5.16632 10.4388L5.23181 10.3673L5.33555 10.3008L5.3789 10.2427L5.31258 10.2354L5.29361 10.2025L5.40251 10.1459L5.45069 10.0829L5.48088 10.014L5.52699 9.98078L5.62821 9.89433L5.69385 9.86837L5.71172 9.82649L5.76937 9.80955L5.78547 9.7867L5.7879 9.76264L5.84727 9.73103L5.80376 9.66186L5.82607 9.62091L5.83012 9.55918L5.77579 9.44397L5.83634 9.40514L5.91048 9.40278L5.94959 9.37891L6.04658 9.3805L6.07939 9.34566L6.09911 9.34639L6.14185 9.26266L6.11044 9.19412L6.23024 9.16745L6.28495 9.17858L6.33788 9.12794L6.36215 9.06625L6.30535 9.04322L6.31826 9.01389L6.30051 8.94663L6.23042 8.93509L6.22643 8.90676L6.12308 8.87427L6.09292 8.90887L6.0438 8.93602L5.98121 8.93564L5.93921 8.95973L5.82753 8.96034L5.78072 8.97495L5.73814 8.96933L5.68053 8.98977L5.58715 8.96273L5.50432 9.00629L5.47619 8.97575L5.50472 8.91247L5.49899 8.87187L5.55679 8.82705L5.60332 8.80721L5.6445 8.76415L5.65308 8.7119L5.67945 8.66004L5.76541 8.65162L5.78036 8.58848L5.76826 8.47156L5.88691 8.45836L5.91914 8.3832L5.97316 8.37043L6.01598 8.37767L6.07074 8.33897L6.06852 8.2859L6.06497 8.25204L5.99793 8.19024L6.00729 8.11707L5.99679 8.07523L6.06736 8.03304L6.1816 8.00474L6.24256 8.04926L6.3562 8.06443L6.40924 8.08393L6.42639 8.11108L6.50785 8.06693L6.60575 8.06513L6.68412 8.00894L6.73291 8.01884L6.79309 8.05182L6.83616 8.09384L6.88458 8.10328L7.0385 8.07325L6.98894 8.11086L6.92462 8.24369L6.93057 8.26993L6.92782 8.30988L6.88979 8.40706L6.99574 8.43816L7.01472 8.46022L7.06351 8.4637L7.15726 8.4314L7.20741 8.4505L7.22034 8.50405L7.25159 8.51695L7.25436 8.56024L7.29595 8.53582L7.37503 8.51563L7.4337 8.46547L7.48044 8.47544L7.53269 8.43832L7.64663 8.4309L7.70599 8.42391L7.7473 8.46065L7.91061 8.48357L8.005 8.46038L8.0352 8.4286L8.10581 8.38767L8.1414 8.34046L8.14913 8.30234L8.22163 8.28618L8.27124 8.22901L8.21564 8.17529L8.14573 8.14889L8.12718 8.10964L8.17195 8.04618L8.26828 8.10269L8.3046 8.10497L8.34714 8.16221L8.42829 8.14991L8.4762 8.10391L8.54151 8.05376L8.54119 8.01563L8.53291 7.96926L8.50537 7.93587L8.56955 7.91982L8.60422 7.93183L8.64096 7.84909L8.6232 7.81868L8.56686 7.81668L8.53592 7.84373L8.5001 7.84401L8.48461 7.76879L8.51022 7.74798L8.58159 7.72704L8.61069 7.69049L8.75584 7.60481L8.76711 7.55141L8.80971 7.51962L8.89973 7.53124L8.92016 7.43689L8.99727 7.47041L8.9952 7.51708L9.06579 7.52346L9.09226 7.50611L9.18286 7.42736L9.19554 7.38984L9.29955 7.42252L9.36673 7.49633L9.37801 7.56094L9.3136 7.59608L9.23865 7.61898L9.20688 7.63586L9.13869 7.6277L9.19306 7.68406L9.22322 7.72131L9.2711 7.73557L9.29733 7.79013L9.33848 7.81042L9.39151 7.81742L9.44369 7.81473L9.52519 7.77164L9.57498 7.75292L9.71382 7.73437L9.73892 7.71216L9.86252 7.67954L9.92236 7.65203L9.94084 7.6176L10.0015 7.56378L10.0346 7.4553L10.1022 7.45891L10.1256 7.48495L10.1723 7.48665L10.2367 7.45367L10.3558 7.44358L10.4185 7.47555L10.46 7.52285L10.4843 7.57531L10.4642 7.62968L10.4697 7.66545L10.5118 7.71648L10.5851 7.72186L10.6248 7.738L10.6643 7.73093L10.6972 7.65423L10.7422 7.6538L10.8066 7.66684L10.9093 7.659L10.9485 7.66844L10.9532 7.67125L11.0082 7.6984L11.1367 7.66628L11.2009 7.61243L11.2594 7.60783L11.3187 7.65211L11.3847 7.62829L11.4054 7.59291L11.4129 7.52834L11.4601 7.47897L11.525 7.48066L11.575 7.47559L11.5845 7.43093L11.6278 7.40304L11.6855 7.40855L11.7163 7.40753L11.7595 7.3568L11.808 7.33784L11.8539 7.26173L11.8915 7.23462L11.9513 7.23713L11.9865 7.2668L12 7.3243L12.0258 7.33394L12.0688 7.28528L12.1667 7.26872L12.18 7.2804L12.1992 7.30725L12.2706 7.29266L12.3126 7.30127L12.3569 7.3334L12.3443 7.40558L12.36 7.44445L12.4477 7.5095L12.4871 7.55152L12.5487 7.56617L12.6696 7.5722L12.7736 7.59869L12.8151 7.53554L12.851 7.52193L12.9324 7.56389L12.9817 7.58507L13.0337 7.58803L13.1245 7.55319L13.1644 7.55414L13.2261 7.51667L13.2596 7.52077L13.275 7.51762L13.312 7.49451L13.2755 7.45369L13.1872 7.47628L13.1301 7.38779L13.128 7.35414L13.1838 7.34549L13.2308 7.29855L13.2572 7.27924L13.3785 7.25357L13.3739 7.21149L13.4182 7.15768L13.5233 7.16307L13.5255 7.19656L13.6166 7.20674L13.6605 7.30425L13.6432 7.37355L13.7379 7.39544L13.8021 7.33302L13.8402 7.29504L13.8475 7.2637L13.8108 7.1775L13.8008 7.08677L13.8609 7.02168L13.8906 7.07674L13.8451 7.09394L13.8551 7.12374L13.9371 7.09744L13.9607 7.04628L13.9592 7.01583L13.8937 6.96121L13.8543 6.91153L13.8141 6.88626L13.7935 6.92445L13.7154 6.96067L13.6519 6.93593L13.6472 6.90528L13.5672 6.92445L13.5327 6.93766L13.5394 6.99089L13.4695 6.96873L13.5006 7.03371L13.4914 7.06577L13.4486 7.07113L13.4031 7.05441L13.3051 7.05735L13.2302 7.07316L13.1807 7.09562L13.1628 7.04735L13.0914 7.0063L13.0318 6.98869L12.9683 6.92607L12.9134 6.92966L12.8804 6.8749L12.9537 6.81275L12.9123 6.74367L12.8749 6.71835L12.9349 6.63919L12.979 6.63145L13.0729 6.55277L13.1212 6.55494L13.1298 6.51154L13.0944 6.4516L13.1243 6.42092L13.1293 6.37658L13.1765 6.34766L13.211 6.27574L13.2853 6.21795L13.3192 6.23511L13.3875 6.19852L13.4361 6.23645L13.4669 6.18556L13.4969 6.18655L13.594 6.14225L13.6595 6.1866L13.7123 6.16287L13.7019 6.10968L13.6377 6.08806L13.6467 6.00447L13.6927 6L13.7033 6.04173L13.7641 6.02229L13.7868 6.0481L13.8301 6.02071L13.8906 6.03272L13.9305 6.07546L13.8963 6.14053L13.9093 6.17185Z"/>
</mask>
<path fill-rule="evenodd" clip-rule="evenodd" d="M13.9093 6.17185L13.9359 6.19198L13.9169 6.25749L13.9577 6.31123L13.9847 6.30543L14.0441 6.27284L14.0658 6.16456L14.0442 6.12753L14.0632 6.04995L14.1 6.03748L14.1231 6.09569L14.1493 6.12179L14.216 6.12871L14.2271 6.23633L14.2488 6.31064L14.2727 6.33189L14.3773 6.26968L14.4351 6.28831L14.4484 6.32039L14.5077 6.36054L14.4996 6.39667L14.4225 6.40121L14.3781 6.44808L14.3632 6.50548L14.3966 6.56298L14.4696 6.58335L14.4365 6.72762L14.4442 6.75419L14.5827 6.77441L14.724 6.86198L14.7726 6.86772L14.7612 6.83895L14.7924 6.76048L14.7825 6.69011L14.7615 6.67634L14.6456 6.66079L14.6617 6.61775L14.6475 6.58613L14.7004 6.56107L14.721 6.52474L14.7886 6.52407L14.7762 6.47488L14.8248 6.45069L14.8549 6.5467L14.9105 6.63287L14.9548 6.60857L15.0145 6.63213L15.0289 6.68229L15.1397 6.67252L15.1008 6.71421L15.0408 6.80049L15.0435 6.83233L15.0861 6.83456L15.1498 6.90189L15.1572 6.9982L15.1566 7.0068L15.1933 7.00683L15.2629 7.05217L15.4749 6.99553L15.5909 6.9375L15.676 6.87446L15.8692 6.79447L16.0379 6.80953L16.1145 6.84513L16.2239 6.84569L16.279 6.8707L16.3339 6.91544L16.4346 6.94308L16.4551 6.94046L16.4808 6.9211L16.5284 6.93141L16.5543 6.96835L16.5905 7.00655L16.6471 6.99874L16.671 6.98834L16.8055 7.00399L17.0079 6.97999L17.678 7.23492L18.1673 7.69187L18.4734 7.75527L18.485 8.03829L18.4997 8.07524L18.5591 8.12152L18.5931 8.15724L18.6485 8.27375L18.6909 8.28197L18.7299 8.23521L18.7819 8.31437L18.9376 8.33578L18.9549 8.37854L18.92 8.41192L18.8886 8.46173L18.9205 8.58598L18.924 8.66404L18.9651 8.71085L19.0305 8.7522L19.0295 8.81684L18.9764 8.88576L18.9139 8.90978L18.7923 8.91838L18.6771 9.04549L18.6168 9.23933L18.5842 9.28171L18.5074 9.3275L18.4758 9.35384L18.3993 9.49891L18.3332 9.55708L18.3314 9.60184L18.2871 9.72413L18.2018 9.86418L18.1697 9.97015L18.1411 10.0259L18.1216 10.1595L18.1664 10.2978L18.2067 10.3618L18.2333 10.4089L18.2718 10.5729L18.2872 10.6713L18.2479 10.7685L18.0669 10.8965L18.0539 10.9266L18.0724 10.989L18.1208 11.0029L18.1515 10.9531L18.2463 10.9534L18.2723 10.9306L18.3367 10.9152L18.3813 10.9014L18.4389 10.9428L18.4643 11.0053L18.5242 10.9843L18.6139 10.9668L18.6872 10.9227L18.7571 10.977L18.8014 10.9921L18.8509 10.9896L18.8922 10.9366L18.956 10.9471L19.0706 10.9214L19.1014 10.9665L19.1468 10.9851L19.1941 10.9756L19.1927 11.0137L19.247 11.0443L19.3591 11.0495L19.3919 11.0867L19.5628 11.0766L19.6044 11.1211L19.6505 11.1381L19.7035 11.1864L19.7607 11.2003L19.7926 11.235L19.8994 11.2213L19.9379 11.1761L20.0135 11.1897L20.0333 11.2108L19.9888 11.2434L19.9974 11.2862L20.0741 11.3243L20.0914 11.3923L20.0463 11.4388L20.0108 11.5019L19.9892 11.5711L20.0255 11.6106L20.0068 11.6544L20.0129 11.7577L20.1019 11.7772L20.1593 11.8188L20.1884 11.8139L20.2331 11.8612L20.311 11.8978L20.3524 11.9037L20.4152 11.8796L20.4515 11.9045L20.5063 11.8805L20.5285 11.9439L20.5657 11.9688L20.6424 11.9924L20.7001 11.974L20.7421 12.012L20.8195 12.1126L20.8688 12.1433L20.862 12.2206L20.9026 12.2413L21.0373 12.2387L21.0628 12.2584L21.0831 12.3198L21.1237 12.3714L21.1914 12.35L21.2107 12.3218L21.2898 12.329L21.328 12.3027L21.4337 12.3075L21.4915 12.2793L21.553 12.2043L21.6023 12.2162L21.677 12.1988L21.7422 12.2052L21.7428 12.1705L21.7527 12.0849L21.7176 12.0487L21.7085 12.0112L21.7452 11.9738L21.7633 11.8817L21.7875 11.8612L21.7804 11.7799L21.8626 11.7895L22.0377 11.8417L22.0726 11.8231L22.1466 11.8197L22.152 11.7818L22.0986 11.7216L22.1141 11.6557L22.2036 11.6309L22.2123 11.5657L22.2847 11.4425L22.2943 11.3974L22.3354 11.3792L22.4181 11.3903L22.4731 11.3339L22.5019 11.3257L22.5474 11.3496L22.5643 11.3891L22.6143 11.4429L22.6826 11.4886L22.6622 11.5918L22.7135 11.6159L22.7921 11.6418L22.8228 11.6381L22.8875 11.676L22.9251 11.7155L22.987 11.7371L22.9674 11.7786L22.982 11.8125L22.9718 11.8834L22.9346 11.9152L22.9179 12.022L22.8674 12.0876L22.8894 12.1083L22.8993 12.1616L22.8835 12.2327L22.9019 12.3199L22.8638 12.368L22.8763 12.4042L22.8285 12.4411L22.8464 12.4785L22.7999 12.6111L22.7428 12.6543L22.697 12.6599L22.6638 12.7157L22.7176 12.7573L22.7557 12.8224L22.7661 12.918L22.5546 13.0778L22.5971 13.1061L22.6445 13.1676L22.6313 13.2332L22.5698 13.2561L22.5212 13.3624L22.4655 13.3943L22.5168 13.4787L22.51 13.5603L22.5249 13.5878L22.555 13.6442L22.5647 13.704L22.5979 13.7154L22.6516 13.6942L22.7643 13.6872L22.7771 13.6749L22.8571 13.7285L22.9623 13.8303L23 13.8439L22.9633 13.911L22.9799 14.0124L22.9651 14.0923L22.9162 14.1621L22.9307 14.223L22.8983 14.2801L22.9039 14.3115L22.8403 14.3257L22.8097 14.3949L22.7315 14.3513L22.6416 14.2607L22.5406 14.3087L22.4773 14.2689L22.4105 14.2436L22.3212 14.2322L22.3121 14.2728L22.2552 14.3168L22.1889 14.2584L22.1203 14.2912L22.1044 14.273L22.0465 14.2699L22.0454 14.2125L22.0038 14.1374L21.8893 14.0938L21.8434 14.131L21.795 14.0883L21.7852 13.9987L21.8692 13.8758L21.8013 13.7998L21.7737 13.7136L21.6999 13.7549L21.6579 13.8334L21.6145 13.8085L21.5015 13.7876L21.4006 13.8415L21.28 13.8737L21.2366 13.9079L21.1629 13.8975L21.11 13.8739L21.1051 13.9374L21.0845 13.9881L21.1042 14.0154L21.0761 14.0913L20.9949 14.1056L21.0272 14.1576L20.9587 14.213L20.942 14.2671L20.9119 14.2962L20.8404 14.308L20.8266 14.3503L20.8718 14.3874L20.8751 14.447L20.8633 14.5077L20.8191 14.529L20.8315 14.6354L20.8489 14.6736L20.8265 14.7044L20.8327 14.7441L20.8646 14.7778L20.8681 14.8516L20.8172 14.9035L20.8171 14.9672L20.8865 14.9785L20.9058 15.0596L20.9259 15.0759L20.9885 15.0617L21.0038 15.1073L21.0621 15.0967L21.101 15.1052L21.1378 15.0601L21.2404 15.0378L21.3081 15.0603L21.3269 15.0947L21.3298 15.1515L21.3946 15.1436L21.422 15.1942L21.3994 15.2213L21.4083 15.3046L21.3704 15.3411L21.3053 15.3332L21.2313 15.3886L21.2253 15.4391L21.2402 15.4968L21.1374 15.5627L21.1193 15.6739L21.1602 15.7398L21.178 15.8006L21.2846 15.8621L21.2805 15.885L21.3617 15.9392L21.3644 15.9905L21.4013 16.0063L21.4058 16.077L21.4474 16.1082L21.4697 16.1621L21.462 16.1859L21.3453 16.2827L21.3214 16.342L21.2553 16.3782L21.2114 16.3853L21.143 16.3728L21.1154 16.3543L21.0578 16.3568L21.0024 16.379L20.9559 16.4284L20.8978 16.3776L20.8253 16.3467L20.8702 16.3114L20.8727 16.2706L20.9073 16.2272L20.8741 16.1053L20.7545 16.0382L20.6583 16.0173L20.5942 15.9907L20.5735 15.9171L20.6165 15.8827L20.5889 15.8011L20.5176 15.7421L20.5438 15.6699L20.5947 15.6177L20.5833 15.5525L20.5419 15.5565L20.4417 15.4786L20.4002 15.4159L20.4158 15.3857L20.3865 15.379L20.2949 15.4068L20.2487 15.4649L20.2097 15.4349L20.1669 15.3692L20.0513 15.4162L20.0346 15.4485L19.9744 15.4876L19.9165 15.4851L19.7991 15.4968L19.7405 15.5636L19.6891 15.5774L19.6551 15.6056L19.5683 15.6264L19.5396 15.6623L19.4963 15.6593L19.438 15.6042L19.3696 15.5562L19.3323 15.566L19.2708 15.6281L19.2897 15.6802L19.2425 15.7367L19.2846 15.7644L19.2772 15.8271L19.2469 15.8513L19.2286 15.9379L19.1716 15.9515L19.0703 15.9108L19.0446 15.8723L19.0094 15.9159L18.9644 15.9176L18.9146 15.958L18.8638 15.9817L18.7923 15.9669L18.7648 15.9738L18.7241 15.9267L18.6701 15.9198L18.5729 15.925L18.543 15.8981L18.4523 15.8533L18.4287 15.8766L18.3783 15.8395L18.279 15.7181L18.2575 15.6825L18.2296 15.5584L18.191 15.528L18.1711 15.4766L18.1061 15.4556L17.9984 15.3996L18.0364 15.3155L18.002 15.1647L17.9765 15.1405L17.9666 15.1089L17.9803 15.0055L17.9978 14.9677L17.9898 14.8326L18.0207 14.7916L18.0054 14.7213L17.9445 14.7244L17.9416 14.6959L17.9995 14.6928L18.0155 14.5437L17.869 14.6075L17.8239 14.6684L17.8219 14.746L17.7558 14.8101L17.6539 14.7692L17.6315 14.7104L17.5957 14.6987L17.5501 14.6303L17.5746 14.5712L17.5208 14.5325L17.4857 14.5666L17.408 14.5696L17.4004 14.5555L17.272 14.5674L17.1734 14.6133L17.1347 14.6158L17.1166 14.6758L17.0906 14.8144L17.1112 14.8477L17.0546 14.9092L16.9614 14.94L16.9752 15.0425L17.0285 15.0815L17.0415 15.1102L17.0949 15.1215L17.1238 15.159L17.1297 15.2338L17.0992 15.2765L17.1384 15.3498L17.0981 15.4159L17.1024 15.4525L17.1337 15.5172L17.2015 15.5314L17.1997 15.5738L17.2183 15.6092L17.1812 15.6595L17.2191 15.7206L17.1929 15.7803L17.1471 15.7988L17.1292 15.8322L17.146 15.912L17.0825 15.9597L17.0621 16.0075L17.0206 16.0308L17.0101 16.0898L16.9862 16.1031L16.968 16.2316L16.975 16.2822L16.9586 16.3318L16.9057 16.3229L16.8348 16.3522L16.845 16.3849L16.8247 16.4467L16.8033 16.4695L16.744 16.4853L16.7084 16.5802L16.7241 16.623L16.7045 16.6784L16.6417 16.7382L16.6012 16.7268L16.5814 16.7241L16.5364 16.7355L16.5228 16.7835L16.4158 16.8406L16.3525 16.9601L16.2712 16.9785L16.2474 17.0124L16.1961 17.0184L16.145 17.0478L16.1151 17.068L16.1957 17.2489L16.1971 17.2771L16.1469 17.3402L16.1432 17.4093L16.1218 17.4266L16.0564 17.4385L16.007 17.4276L15.9544 17.4497L15.9031 17.4878L15.8469 17.5091L15.8457 17.5512L15.8096 17.5893L15.8002 17.6375L15.8733 17.727L15.8821 17.8235L15.9014 17.8706L15.851 17.909L15.8185 17.9074L15.799 17.9564L15.7408 17.955L15.7431 18.0046L15.72 18.0121L15.7344 18.0449L15.8311 18.0835L15.8471 18.1567L15.823 18.191L15.8724 18.2341L15.8565 18.2901L15.908 18.303L15.9706 18.2962L16.0031 18.331L16.0539 18.3383L16.0498 18.367L16.1348 18.3996L16.1365 18.4775L16.1765 18.499L16.1409 18.5689L16.0853 18.6312L16.0409 18.6327L16.0019 18.7133L16.0125 18.7589L16.0096 18.7801L15.9604 18.8169L15.9352 18.8607L15.9468 18.8873L15.9135 18.9569L15.8435 19L15.7558 18.9682L15.7348 18.9471L15.7512 18.891L15.6478 18.8802L15.6178 18.9076L15.5764 18.8818L15.5488 18.8399L15.5053 18.8407L15.4378 18.8656L15.4192 18.9011L15.3776 18.8958L15.3372 18.9199L15.3473 18.8442L15.4361 18.7239L15.4693 18.7062L15.4823 18.6636L15.4439 18.6621L15.4331 18.5688L15.3828 18.5002L15.3988 18.4492L15.3765 18.4151L15.3569 18.3803L15.313 18.3589L15.2431 18.2607L15.2724 18.1656L15.2481 18.0934L15.1891 18.1073L15.116 18.0688L15.084 18.0469L15.0539 18.0202L15.0004 17.9488L14.9468 17.907L14.9078 17.9089L14.8608 17.8915L14.773 17.8806L14.725 17.8998L14.7598 17.7773L14.7793 17.751L14.822 17.6882L14.8888 17.6652L14.93 17.609L14.939 17.5614L14.9652 17.5474L14.9608 17.4985L15.0077 17.5169L15.0581 17.4326L15.0461 17.342L14.9571 17.2954L14.8678 17.2023L14.8226 17.1765L14.7923 17.219L14.7111 17.2224L14.5784 17.1516L14.5136 17.0414L14.4267 17.1182L14.3759 17.2024L14.2988 17.1744L14.2397 17.1712L14.2078 17.1178L14.163 17.1279L14.1032 17.1029L14.0563 17.0343L13.8808 17.045L13.8705 16.9726L13.8024 16.9087L13.8379 16.8274L13.7651 16.8189L13.7618 16.7871L13.7089 16.7804L13.6881 16.7527L13.6763 16.6872L13.6474 16.6437L13.6005 16.6285L13.5982 16.5905L13.5442 16.5559L13.5149 16.5114L13.4957 16.4208L13.4435 16.3977L13.4117 16.4086L13.3014 16.3508L13.2293 16.3426L13.1864 16.3262L13.1642 16.2508L13.0826 16.2292L13.0584 16.1887L13.0885 16.1418L13.1243 16.1266L13.0947 16.0582L13.0294 15.9847L12.9879 15.9029L13.0499 15.8652L13.0654 15.7656L13.1145 15.7542L13.1233 15.7154L13.1703 15.6732L13.1655 15.6026L13.1519 15.5468L13.194 15.4866L13.1774 15.4492L13.1759 15.3731L13.1484 15.3301L13.1985 15.2701L13.1591 15.2121L13.1847 15.1675L13.1292 15.0933L13.148 15.0594L13.1324 15.0181L13.1746 14.9667L13.154 14.9149L13.1094 14.8844L13.0959 14.8422L13.0402 14.8263L12.9363 14.8622L12.8942 14.8624L12.8192 14.9089L12.7792 14.9051L12.693 14.9066L12.6388 14.9388L12.6228 14.9734L12.4917 15.0768L12.4409 15.0903L12.4046 15.0759L12.363 15.1305L12.3632 15.1512L12.3146 15.1911L12.3855 15.2278L12.4152 15.2176L12.4446 15.2504L12.4309 15.3925L12.3684 15.4119L12.3188 15.4439L12.2921 15.4796L12.2377 15.4586L12.1926 15.477L12.2028 15.556L12.1401 15.591L12.126 15.6278L12.0551 15.6304L11.9997 15.6687L12.0049 15.7208L11.9544 15.7645L11.9415 15.8318L11.9094 15.8529L11.8772 15.8773L11.8491 15.8645L11.7809 15.9088L11.6962 15.9186L11.6262 15.8819L11.5977 15.8794L11.4994 15.9445L11.4641 16.014L11.4247 16.0237L11.4007 16.0622L11.33 16.108L11.3033 16.1468L11.3316 16.1878L11.4048 16.2L11.4061 16.219L11.4475 16.2188L11.4615 16.2884L11.4976 16.3059L11.516 16.3474L11.5868 16.3699L11.6094 16.464L11.6475 16.5207L11.6568 16.5964L11.716 16.6538L11.7143 16.6883L11.6824 16.7066L11.6402 16.7812L11.6395 16.8172L11.6667 16.8773L11.6136 16.9471L11.5204 16.9571L11.473 16.9889L11.4652 17.0722L11.4382 17.1097L11.31 17.1496L11.249 17.1461L11.1767 17.1764L11.0798 17.1794L11.0567 17.2519L11.0544 17.3079L11.0225 17.3479L11.029 17.4235L11.085 17.5456L11.0202 17.5784L10.9709 17.6284L10.9981 17.6703L10.9654 17.708L10.9734 17.7523L10.9185 17.7508L10.8838 17.8303L10.8603 17.8556L10.8022 17.833L10.7063 17.8547L10.6683 17.8449L10.5865 17.8553L10.4704 17.849L10.3984 17.967L10.3187 17.9978L10.34 18.0612L10.3064 18.1003L10.3177 18.157L10.2845 18.1683L10.2754 18.2392L10.3168 18.2987L10.2976 18.3413L10.1213 18.3332L10.0421 18.2996L9.94079 18.3611L9.89864 18.3125L9.82952 18.2731L9.79415 18.2342L9.68979 18.2092L9.68047 18.2486L9.63702 18.2909L9.62842 18.3187L9.55752 18.3199L9.51966 18.2914L9.49394 18.2493L9.50558 18.1632L9.4567 18.1254L9.39814 18.1197L9.35939 18.1013L9.34661 18.0545L9.30383 17.9969L9.2519 17.9799L9.16476 18.0219L9.06841 18.0073L9.0217 18.0265L8.91882 18.0193L8.88456 17.9943L8.86943 17.9195L8.85049 17.9094L8.78886 17.9216L8.73132 17.916L8.68963 17.9828L8.71477 18.0668L8.69558 18.1066L8.62387 18.1095L8.57366 18.072L8.5247 18.1L8.48422 18.0714L8.45635 18.1147L8.42728 18.1139L8.38116 18.1358L8.34974 18.1694L8.36658 18.2374L8.35063 18.2539L8.28802 18.2442L8.27427 18.2662L8.21957 18.2688L8.17008 18.3429L8.13438 18.3739L8.05556 18.4169L8.01155 18.3991L7.98955 18.4417L7.91771 18.4954L7.83857 18.4463L7.81504 18.4515L7.73301 18.3749L7.66715 18.4053L7.60598 18.3979L7.59658 18.3663L7.52569 18.3622L7.49152 18.3328L7.44691 18.3716L7.40547 18.4686L7.37979 18.4739L7.30899 18.5486L7.27314 18.517L7.22975 18.5368L7.17034 18.5242L7.11285 18.545L7.10927 18.5766L7.06267 18.6003L7.02197 18.6635L7.03711 18.7102L6.98754 18.7385L6.91291 18.7116L6.84756 18.6561L6.859 18.6228L6.8078 18.6063L6.7192 18.6483L6.70049 18.6867L6.63494 18.7352L6.55381 18.7347L6.51 18.6524L6.52527 18.6282L6.45081 18.5674L6.43464 18.5039L6.37444 18.4734L6.37571 18.4127L6.32067 18.3729L6.2808 18.3288L6.26602 18.2739L6.23611 18.2259L6.25002 18.1848L6.24546 18.1238L6.15219 18.0858L6.107 18.0265L6.11516 18.0013L6.16482 17.9823L6.17098 17.9547L6.12158 17.9108L6.11418 17.8469L6.06172 17.8349L5.98915 17.7964L5.97062 17.699L5.88319 17.6327L5.81935 17.496L5.78669 17.501L5.75211 17.4741L5.7606 17.4167L5.73889 17.3994L5.69337 17.4123L5.62169 17.5031L5.55228 17.5195L5.53269 17.5558L5.45994 17.5221L5.44753 17.4713L5.48507 17.3818L5.53677 17.3532L5.52168 17.3223L5.53823 17.2812L5.49543 17.2156L5.55534 17.1317L5.5454 17.1012L5.57555 17.0295L5.53163 17.0209L5.49222 17.0367L5.46276 17.0183L5.34225 17.0133L5.29465 16.978L5.18683 16.9842L5.13167 16.9517L5.08285 16.9472L5.04665 16.8341L5.05581 16.7767L5.12037 16.7146L5.15334 16.659L5.12692 16.5617L5.11038 16.5186L5.14204 16.4491L5.19818 16.3872L5.19371 16.3451L5.24108 16.3174L5.27264 16.2757L5.28768 16.2265L5.36038 16.1854L5.35751 16.1579L5.38392 16.1128L5.37957 16.0615L5.40743 16.0175L5.37889 15.9538L5.32177 15.9567L5.25959 15.8932L5.23874 15.8526L5.18692 15.7925L5.12526 15.7581L5.0963 15.7632L5.07594 15.6793L5.01745 15.6785L4.9928 15.6041L4.97034 15.5854L4.94974 15.5341L4.95554 15.4954L5 15.4611L5.05327 15.4567L5.11163 15.3947L5.12165 15.3531L5.10181 15.3283L5.19527 15.0674L4.52011 14.8909L3.73073 14.8777L3.27731 15.141L2.83871 15.2195L2.43987 15.5003L2.38362 15.6094L2.33674 15.7012L2.27783 15.8149L2.38377 15.8622L2.41184 15.8901L2.43147 15.9702L2.39783 15.9884L2.36666 16.0097L2.3661 16.0432L2.42578 16.1359L2.4782 16.1839L2.50559 16.2304L2.59345 16.1862L2.64492 16.1769L2.70942 16.183L2.71755 16.254L2.64118 16.3776L2.55343 16.4403L2.50089 16.4523L2.41946 16.5066L2.40131 16.4965L2.34856 16.4977L2.29871 16.5297L2.2521 16.5789L2.21608 16.5894L2.17537 16.6437L2.11561 16.6796L2.12888 16.7573L2.06378 16.8093L1.95139 16.852L1.92447 16.8883L1.89981 16.8812L1.87038 16.919L1.69378 16.9009L1.65844 16.8511L1.5746 16.8664L1.46481 16.8537L1.44487 16.9204L1.36809 16.9306L1.33126 16.9219L1.28701 16.9075L1.23125 16.9139L1.1838 16.8979L1.12919 16.9127L1.09829 16.9741L1.0446 16.9937L1 16.9776L1.04778 16.9447L1.04158 16.8962L1.09769 16.7952L1.12504 16.7154L1.15622 16.7279L1.17569 16.6884L1.18981 16.6494L1.17099 16.6201L1.03693 16.5584L1.0818 16.5225L1.06398 16.4959L1.1081 16.4295L1.17969 16.4386L1.2134 16.4088L1.24629 16.3871L1.26152 16.3503L1.33517 16.3239L1.37654 16.2903L1.43772 16.3355L1.50952 16.2467L1.55068 16.2732L1.64046 16.2346L1.70681 16.2961L1.74172 16.2823L1.81237 16.2118L1.79544 16.1433L1.71565 16.0318L1.70948 15.9899L1.76229 15.9295L1.80055 15.9101L1.79408 15.8115L1.82295 15.7784L1.85059 15.7321L1.88823 15.6674L1.88532 15.6371L1.93643 15.6151L1.97947 15.5616L1.98586 15.5187L2.03828 15.4613L1.98212 15.3763L1.93974 15.3902L1.8719 15.3226L1.7638 15.2441L1.72474 15.2454L1.68939 15.1877L1.52353 15.1383L1.57631 15.0369L1.62125 14.9868L1.6225 14.936L1.57625 14.8974L1.56622 14.8167L1.68415 14.7138L1.76088 14.5298L1.87987 14.3953L1.91241 14.412L1.9571 14.356L1.93362 14.3382L1.97196 14.2999L1.75119 14.0955L1.80349 14.0476L1.82468 14.0121L1.88641 13.9623L1.95886 13.919L1.99498 13.879L2.08185 13.8383L2.08777 13.8119L2.16369 13.76L2.18231 13.7204L2.22225 13.7086L2.27734 13.651L2.31744 13.63L2.3459 13.5855L2.51064 13.4452L2.51983 13.4044L2.58613 13.354L2.70398 13.3009L2.78512 13.2523L2.87182 13.224L2.92233 13.1929L2.96024 13.141L3.01611 13.1327L3.0079 13.0935L3.08267 13.0821L3.11239 13.0427L3.09718 13.0097L3.15642 12.9608L3.23623 12.9473L3.30257 12.919L3.3443 12.8832L3.34176 12.8584L3.40379 12.8086L3.40425 12.7787L3.43654 12.715L3.32104 12.6253L3.30342 12.5581L3.35039 12.5323L3.34518 12.4809L3.35924 12.4302L3.44415 12.3015L3.4577 12.1445L3.46572 12.0471L3.43343 11.9779L3.32667 11.8426L3.31193 11.798L3.37014 11.7655L3.44158 11.7022L3.50056 11.6199L3.5703 11.5443L3.6221 11.4983L3.66703 11.551L3.72835 11.5204L3.94605 11.4639L4.08399 11.3893L4.10441 11.3779L4.20516 11.3838L4.28662 11.3393L4.3353 11.2858L4.40674 11.156L4.50114 11.0977L4.60309 11.0742L4.7039 10.9854L4.65117 10.9481L4.61284 10.9423L4.56833 10.8929L4.63618 10.8439L4.62166 10.7937L4.68482 10.7479L4.73392 10.7261L4.79749 10.7347L4.83147 10.6955L4.802 10.6153L4.92412 10.5385L4.97338 10.5337L5.05605 10.4944L5.11737 10.4735L5.16632 10.4388L5.23181 10.3673L5.33555 10.3008L5.3789 10.2427L5.31258 10.2354L5.29361 10.2025L5.40251 10.1459L5.45069 10.0829L5.48088 10.014L5.52699 9.98078L5.62821 9.89433L5.69385 9.86837L5.71172 9.82649L5.76937 9.80955L5.78547 9.7867L5.7879 9.76264L5.84727 9.73103L5.80376 9.66186L5.82607 9.62091L5.83012 9.55918L5.77579 9.44397L5.83634 9.40514L5.91048 9.40278L5.94959 9.37891L6.04658 9.3805L6.07939 9.34566L6.09911 9.34639L6.14185 9.26266L6.11044 9.19412L6.23024 9.16745L6.28495 9.17858L6.33788 9.12794L6.36215 9.06625L6.30535 9.04322L6.31826 9.01389L6.30051 8.94663L6.23042 8.93509L6.22643 8.90676L6.12308 8.87427L6.09292 8.90887L6.0438 8.93602L5.98121 8.93564L5.93921 8.95973L5.82753 8.96034L5.78072 8.97495L5.73814 8.96933L5.68053 8.98977L5.58715 8.96273L5.50432 9.00629L5.47619 8.97575L5.50472 8.91247L5.49899 8.87187L5.55679 8.82705L5.60332 8.80721L5.6445 8.76415L5.65308 8.7119L5.67945 8.66004L5.76541 8.65162L5.78036 8.58848L5.76826 8.47156L5.88691 8.45836L5.91914 8.3832L5.97316 8.37043L6.01598 8.37767L6.07074 8.33897L6.06852 8.2859L6.06497 8.25204L5.99793 8.19024L6.00729 8.11707L5.99679 8.07523L6.06736 8.03304L6.1816 8.00474L6.24256 8.04926L6.3562 8.06443L6.40924 8.08393L6.42639 8.11108L6.50785 8.06693L6.60575 8.06513L6.68412 8.00894L6.73291 8.01884L6.79309 8.05182L6.83616 8.09384L6.88458 8.10328L7.0385 8.07325L6.98894 8.11086L6.92462 8.24369L6.93057 8.26993L6.92782 8.30988L6.88979 8.40706L6.99574 8.43816L7.01472 8.46022L7.06351 8.4637L7.15726 8.4314L7.20741 8.4505L7.22034 8.50405L7.25159 8.51695L7.25436 8.56024L7.29595 8.53582L7.37503 8.51563L7.4337 8.46547L7.48044 8.47544L7.53269 8.43832L7.64663 8.4309L7.70599 8.42391L7.7473 8.46065L7.91061 8.48357L8.005 8.46038L8.0352 8.4286L8.10581 8.38767L8.1414 8.34046L8.14913 8.30234L8.22163 8.28618L8.27124 8.22901L8.21564 8.17529L8.14573 8.14889L8.12718 8.10964L8.17195 8.04618L8.26828 8.10269L8.3046 8.10497L8.34714 8.16221L8.42829 8.14991L8.4762 8.10391L8.54151 8.05376L8.54119 8.01563L8.53291 7.96926L8.50537 7.93587L8.56955 7.91982L8.60422 7.93183L8.64096 7.84909L8.6232 7.81868L8.56686 7.81668L8.53592 7.84373L8.5001 7.84401L8.48461 7.76879L8.51022 7.74798L8.58159 7.72704L8.61069 7.69049L8.75584 7.60481L8.76711 7.55141L8.80971 7.51962L8.89973 7.53124L8.92016 7.43689L8.99727 7.47041L8.9952 7.51708L9.06579 7.52346L9.09226 7.50611L9.18286 7.42736L9.19554 7.38984L9.29955 7.42252L9.36673 7.49633L9.37801 7.56094L9.3136 7.59608L9.23865 7.61898L9.20688 7.63586L9.13869 7.6277L9.19306 7.68406L9.22322 7.72131L9.2711 7.73557L9.29733 7.79013L9.33848 7.81042L9.39151 7.81742L9.44369 7.81473L9.52519 7.77164L9.57498 7.75292L9.71382 7.73437L9.73892 7.71216L9.86252 7.67954L9.92236 7.65203L9.94084 7.6176L10.0015 7.56378L10.0346 7.4553L10.1022 7.45891L10.1256 7.48495L10.1723 7.48665L10.2367 7.45367L10.3558 7.44358L10.4185 7.47555L10.46 7.52285L10.4843 7.57531L10.4642 7.62968L10.4697 7.66545L10.5118 7.71648L10.5851 7.72186L10.6248 7.738L10.6643 7.73093L10.6972 7.65423L10.7422 7.6538L10.8066 7.66684L10.9093 7.659L10.9485 7.66844L10.9532 7.67125L11.0082 7.6984L11.1367 7.66628L11.2009 7.61243L11.2594 7.60783L11.3187 7.65211L11.3847 7.62829L11.4054 7.59291L11.4129 7.52834L11.4601 7.47897L11.525 7.48066L11.575 7.47559L11.5845 7.43093L11.6278 7.40304L11.6855 7.40855L11.7163 7.40753L11.7595 7.3568L11.808 7.33784L11.8539 7.26173L11.8915 7.23462L11.9513 7.23713L11.9865 7.2668L12 7.3243L12.0258 7.33394L12.0688 7.28528L12.1667 7.26872L12.18 7.2804L12.1992 7.30725L12.2706 7.29266L12.3126 7.30127L12.3569 7.3334L12.3443 7.40558L12.36 7.44445L12.4477 7.5095L12.4871 7.55152L12.5487 7.56617L12.6696 7.5722L12.7736 7.59869L12.8151 7.53554L12.851 7.52193L12.9324 7.56389L12.9817 7.58507L13.0337 7.58803L13.1245 7.55319L13.1644 7.55414L13.2261 7.51667L13.2596 7.52077L13.275 7.51762L13.312 7.49451L13.2755 7.45369L13.1872 7.47628L13.1301 7.38779L13.128 7.35414L13.1838 7.34549L13.2308 7.29855L13.2572 7.27924L13.3785 7.25357L13.3739 7.21149L13.4182 7.15768L13.5233 7.16307L13.5255 7.19656L13.6166 7.20674L13.6605 7.30425L13.6432 7.37355L13.7379 7.39544L13.8021 7.33302L13.8402 7.29504L13.8475 7.2637L13.8108 7.1775L13.8008 7.08677L13.8609 7.02168L13.8906 7.07674L13.8451 7.09394L13.8551 7.12374L13.9371 7.09744L13.9607 7.04628L13.9592 7.01583L13.8937 6.96121L13.8543 6.91153L13.8141 6.88626L13.7935 6.92445L13.7154 6.96067L13.6519 6.93593L13.6472 6.90528L13.5672 6.92445L13.5327 6.93766L13.5394 6.99089L13.4695 6.96873L13.5006 7.03371L13.4914 7.06577L13.4486 7.07113L13.4031 7.05441L13.3051 7.05735L13.2302 7.07316L13.1807 7.09562L13.1628 7.04735L13.0914 7.0063L13.0318 6.98869L12.9683 6.92607L12.9134 6.92966L12.8804 6.8749L12.9537 6.81275L12.9123 6.74367L12.8749 6.71835L12.9349 6.63919L12.979 6.63145L13.0729 6.55277L13.1212 6.55494L13.1298 6.51154L13.0944 6.4516L13.1243 6.42092L13.1293 6.37658L13.1765 6.34766L13.211 6.27574L13.2853 6.21795L13.3192 6.23511L13.3875 6.19852L13.4361 6.23645L13.4669 6.18556L13.4969 6.18655L13.594 6.14225L13.6595 6.1866L13.7123 6.16287L13.7019 6.10968L13.6377 6.08806L13.6467 6.00447L13.6927 6L13.7033 6.04173L13.7641 6.02229L13.7868 6.0481L13.8301 6.02071L13.8906 6.03272L13.9305 6.07546L13.8963 6.14053L13.9093 6.17185Z" stroke="#1F2937" stroke-width="2" mask="url(#path-1-inside-1_3393_120)"/>
</svg>
