<svg width="24" height="24" viewBox="0 0 24 24" fill="none" xmlns="http://www.w3.org/2000/svg">
<path fill-rule="evenodd" clip-rule="evenodd" d="M11.019 8.19797C11.3959 8.44976 11.8391 8.5841 12.2925 8.584C12.9 8.58314 13.4824 8.34137 13.912 7.91171C14.3416 7.48205 14.5832 6.89957 14.584 6.292C14.584 5.83867 14.4495 5.39551 14.1977 5.01858C13.9458 4.64166 13.5878 4.34788 13.169 4.17442C12.7501 4.00096 12.2893 3.9556 11.8446 4.04408C11.4 4.13255 10.9916 4.35089 10.6711 4.67149C10.3506 4.99208 10.1323 5.40052 10.0439 5.84515C9.95564 6.28979 10.001 6.75065 10.1746 7.16945C10.3481 7.58825 10.642 7.94618 11.019 8.19797ZM11.4356 5.00964C11.6893 4.84026 11.9875 4.7499 12.2925 4.75V4.75001C12.7012 4.75057 13.093 4.91323 13.382 5.2023C13.671 5.49137 13.8335 5.88326 13.834 6.292C13.834 6.597 13.7435 6.89515 13.5741 7.14874C13.4046 7.40233 13.1637 7.59997 12.8819 7.71667C12.6002 7.83337 12.2901 7.86387 11.991 7.80434C11.6918 7.7448 11.4171 7.59789 11.2014 7.38219C10.9858 7.16648 10.839 6.89168 10.7795 6.59253C10.7201 6.29338 10.7507 5.98332 10.8675 5.70156C10.9843 5.41981 11.182 5.17902 11.4356 5.00964Z" fill="#1F2937"/>
<path fill-rule="evenodd" clip-rule="evenodd" d="M11.019 14.198C11.3959 14.4498 11.8391 14.5841 12.2925 14.584C12.9 14.5832 13.4824 14.3414 13.912 13.9117C14.3416 13.4821 14.5832 12.8996 14.584 12.292C14.584 11.8387 14.4495 11.3955 14.1977 11.0186C13.9458 10.6417 13.5878 10.3479 13.169 10.1745C12.7501 10.001 12.2893 9.95558 11.8446 10.0441C11.4 10.1326 10.9916 10.3509 10.6711 10.6715C10.3506 10.9921 10.1323 11.4005 10.0439 11.8452C9.95564 12.2898 10.001 12.7507 10.1746 13.1695C10.3481 13.5883 10.642 13.9462 11.019 14.198ZM11.4356 11.0097C11.6893 10.8403 11.9875 10.7499 12.2925 10.75C12.7012 10.7506 13.093 10.9133 13.382 11.2023C13.671 11.4914 13.8335 11.8833 13.834 12.292C13.834 12.597 13.7435 12.8952 13.5741 13.1488C13.4046 13.4024 13.1637 13.6 12.8819 13.7167C12.6002 13.8334 12.2901 13.8639 11.991 13.8044C11.6918 13.7448 11.4171 13.5979 11.2014 13.3822C10.9858 13.1665 10.839 12.8917 10.7795 12.5926C10.7201 12.2934 10.7507 11.9833 10.8675 11.7016C10.9843 11.4198 11.182 11.179 11.4356 11.0097Z" fill="#1F2937"/>
<path fill-rule="evenodd" clip-rule="evenodd" d="M11.0184 20.1968C11.3952 20.4486 11.8383 20.5831 12.2915 20.5831C12.899 20.5824 13.4814 20.3408 13.911 19.9114C14.3406 19.4819 14.5823 18.8995 14.5831 18.292C14.5832 17.8388 14.4489 17.3957 14.1971 17.0188C13.9454 16.6419 13.5875 16.3481 13.1688 16.1746C12.7501 16.0011 12.2894 15.9556 11.8448 16.044C11.4003 16.1324 10.9919 16.3506 10.6714 16.671C10.3509 16.9915 10.1326 17.3998 10.0441 17.8443C9.95559 18.2888 10.001 18.7496 10.1744 19.1683C10.3478 19.5871 10.6416 19.945 11.0184 20.1968ZM11.4352 17.0098C11.6887 16.8404 11.9867 16.7501 12.2915 16.7501V16.75C12.7003 16.7506 13.0921 16.9133 13.3811 17.2023C13.6701 17.4914 13.8326 17.8833 13.8331 18.292C13.833 18.5969 13.7425 18.8949 13.573 19.1483C13.4036 19.4018 13.1628 19.5993 12.8811 19.7159C12.5994 19.8325 12.2895 19.8629 11.9905 19.8034C11.6915 19.7439 11.4169 19.597 11.2014 19.3814C10.9858 19.1658 10.8391 18.8911 10.7796 18.5921C10.7202 18.2931 10.7507 17.9832 10.8674 17.7015C10.9841 17.4199 11.1817 17.1792 11.4352 17.0098Z" fill="#1F2937"/>
</svg>
