<svg width="24" height="24" viewBox="0 0 24 24" fill="none" xmlns="http://www.w3.org/2000/svg">
<path fill-rule="evenodd" clip-rule="evenodd" d="M12 6.5C12 7.88071 10.8807 9 9.5 9C8.1193 9 7 7.88071 7 6.5C7 5.11929 8.11929 4 9.5 4C10.8807 4 12 5.11929 12 6.5ZM20 9.5C20 11.433 18.433 13 16.5 13C14.567 13 13 11.433 13 9.5C13 7.567 14.567 6 16.5 6C18.433 6 20 7.567 20 9.5ZM14 15C14 17.7614 11.7614 20 9 20C6.2386 20 4 17.7614 4 15C4 12.2386 6.23858 10 9 10C11.7614 10 14 12.2386 14 15ZM11 6.5C11 7.32843 10.3284 8 9.5 8C8.6716 8 8 7.32843 8 6.5C8 5.67157 8.67157 5 9.5 5C10.3284 5 11 5.67157 11 6.5ZM16.5 12C17.8807 12 19 10.8807 19 9.5C19 8.1193 17.8807 7 16.5 7C15.1193 7 14 8.11929 14 9.5C14 10.8807 15.1193 12 16.5 12ZM9 19C11.2091 19 13 17.2091 13 15C13 12.7909 11.2091 11 9 11C6.7909 11 5 12.7909 5 15C5 17.2091 6.79086 19 9 19Z" fill="#1F2937"/>
</svg>
