<?xml version="1.0" encoding="UTF-8"?>
<svg width="24px" height="24px" viewBox="0 0 24 24" version="1.1" xmlns="http://www.w3.org/2000/svg" xmlns:xlink="http://www.w3.org/1999/xlink">
    <title>Icons/IXT/24dp/ic_numerical_hidden</title>
    <g id="Icons/IXT/24dp/ic_numerical_hidden" stroke="none" stroke-width="1" fill="none" fill-rule="evenodd">
        <g id="ic_numerical_hidden">
            <rect id="Container" x="0" y="0" width="24" height="24"></rect>
            <path d="M2.0524531,1.58578644 L22.5857864,22.1191198 L21.1191198,23.5857864 L16.2027864,18.6697864 L15.87,21 L13.2728571,21 L13.8231429,17.1428571 L8.70728571,17.1428571 L8.15571429,21 L5.55857143,21 L6.10885714,17.1428571 L3,17.1428571 L3,14.5714286 L6.47142857,14.5714286 L7.17878644,9.64478644 L6.96178644,9.42778644 L4.28571429,9.42857143 L4.28571429,6.85714286 L4.39078644,6.85678644 L0.585786438,3.0524531 L2.0524531,1.58578644 Z M19.7142857,14.5714286 L19.714,17.007 L17.278,14.571 L19.7142857,14.5714286 Z M9.45478644,11.9217864 L9.075,14.5714286 L12.1037864,14.5707864 L9.45478644,11.9217864 Z M10.7271429,3 L10.1768571,6.85714286 L15.2927143,6.85714286 L15.8442857,3 L18.4414286,3 L17.8911429,6.85714286 L21,6.85714286 L21,9.42857143 L17.5285714,9.42857143 L16.85,14.143 L14.576,11.869 L14.9301429,9.42857143 L12.135,9.428 L7.827,5.12 L8.13,3 L10.7271429,3 Z" id="Combined-Shape" fill="#454545"></path>
        </g>
    </g>
</svg>