<?xml version="1.0" encoding="UTF-8"?>
<svg width="24px" height="24px" viewBox="0 0 24 24" version="1.1" xmlns="http://www.w3.org/2000/svg" xmlns:xlink="http://www.w3.org/1999/xlink">
    <title>Icons/IXT/24dp/ic_numerical</title>
    <g id="Icons/IXT/24dp/ic_numerical" stroke="none" stroke-width="1" fill="none" fill-rule="evenodd">
        <g id="ic_numerical">
            <rect id="Container" x="0" y="0" width="24" height="24"></rect>
            <path d="M5.55857143,21 L8.15571429,21 L8.70728571,17.1428571 L13.8231429,17.1428571 L13.2728571,21 L15.87,21 L16.4215714,17.1428571 L19.7142857,17.1428571 L19.7142857,14.5714286 L16.7892857,14.5714286 L17.5285714,9.42857143 L21,9.42857143 L21,6.85714286 L17.8911429,6.85714286 L18.4414286,3 L15.8442857,3 L15.2927143,6.85714286 L10.1768571,6.85714286 L10.7271429,3 L8.13,3 L7.57842857,6.85714286 L4.28571429,6.85714286 L4.28571429,9.42857143 L7.21071429,9.42857143 L6.47142857,14.5714286 L3,14.5714286 L3,17.1428571 L6.10885714,17.1428571 L5.55857143,21 Z M9.81428571,9.42857143 L14.9301429,9.42857143 L14.1857143,14.5714286 L9.075,14.5714286 L9.81428571,9.42857143 Z" id="Shape" fill="#454545"></path>
        </g>
    </g>
</svg>