<?xml version="1.0" encoding="UTF-8"?>
<svg width="24px" height="24px" viewBox="0 0 24 24" version="1.1" xmlns="http://www.w3.org/2000/svg" xmlns:xlink="http://www.w3.org/1999/xlink">
    <title>Icons/IXT/24dp/ic_numerical_2</title>
    <g id="Icons/IXT/24dp/ic_numerical_2" stroke="none" stroke-width="1" fill="none" fill-rule="evenodd">
        <g id="ic_numerical_2">
            <rect id="Container" x="0" y="0" width="24" height="24"></rect>
            <path d="M16.1514286,9 L15.7845714,11.5714286 L19.1951429,11.5714286 L19.5628571,9 L21.2942857,9 L20.9274286,11.5714286 L23,11.5714286 L23,13.2857143 L20.6857143,13.2857143 L20.1928571,16.7142857 L22.1428571,16.7142857 L22.1428571,18.4285714 L19.9477143,18.4285714 L19.58,21 L17.8485714,21 L18.2154286,18.4285714 L14.8048571,18.4285714 L14.4371429,21 L12.7057143,21 L13.0725714,18.4285714 L11,18.4285714 L11,16.7142857 L13.3142857,16.7142857 L13.8071429,13.2857143 L11.8571429,13.2857143 L11.8571429,11.5714286 L14.0522857,11.5714286 L14.42,9 L16.1514286,9 Z M9,17 L9,20 L2,20 L2,17 L9,17 Z M18.9534286,13.2857143 L15.5428571,13.2857143 L15.05,16.7142857 L18.4571429,16.7142857 L18.9534286,13.2857143 Z M9,13 L9,16 L2,16 L2,13 L9,13 Z M9,9 L9,12 L2,12 L2,9 L9,9 Z M22,4 L22,8 L2,8 L2,4 L22,4 Z" id="Combined-Shape" fill="#454545"></path>
        </g>
    </g>
</svg>