<svg
  width="24"
  height="24"
  viewBox="0 0 24 24"
  fill="none"
  xmlns="http://www.w3.org/2000/svg"
>
  <g id="ic_map_regions">
    <g id="Group 1">
      <path
        id="Path"
        fill-rule="evenodd"
        clip-rule="evenodd"
        d="M14 15L14 22L10 22L10 15L14 15Z"
        fill="#454545"
      />
      <path
        id="Path_2"
        fill-rule="evenodd"
        clip-rule="evenodd"
        d="M7 10L7 22L3 22L3 10L7 10Z"
        fill="#454545"
      />
      <path
        id="Path_3"
        fill-rule="evenodd"
        clip-rule="evenodd"
        d="M21 10L21 22L17 22L17 10L21 10Z"
        fill="#454545"
      />
      <path
        id="Path_4"
        fill-rule="evenodd"
        clip-rule="evenodd"
        d="M7 2L7 8L3 8L3 2L7 2Z"
        fill="#454545"
      />
      <path
        id="Path_5"
        fill-rule="evenodd"
        clip-rule="evenodd"
        d="M21 2L21 8L17 8L17 2L21 2Z"
        fill="#454545"
      />
      <path
        id="Path_6"
        fill-rule="evenodd"
        clip-rule="evenodd"
        d="M14 2L14 13L10 13L10 2L14 2Z"
        fill="#454545"
      />
    </g>
  </g>
</svg>
