<svg width="24" height="24" viewBox="0 0 24 24" fill="none" xmlns="http://www.w3.org/2000/svg">
<path fill-rule="evenodd" clip-rule="evenodd" d="M14.6316 15V22H9.36842V15H14.6316ZM13.5789 16H10.4211V21H13.5789V16ZM7.26316 10V22H2V10H7.26316ZM6.21053 11H3.05264V21H6.21053V11ZM22 10V22H16.7368V10H22ZM20.9474 11H17.7895V21H20.9474V11ZM7.26316 3V9H2V3H7.26316ZM6.21053 4H3.05264V8H6.21053V4ZM22 3V9H16.7368V3H22ZM20.9474 4H17.7895V8H20.9474V4ZM14.6316 3V14H9.36842V3H14.6316ZM13.5789 4H10.4211V13H13.5789V4Z" fill="#1F2937"/>
</svg>
