<?xml version="1.0" encoding="UTF-8"?>
<svg width="24px" height="24px" viewBox="0 0 24 24" version="1.1" xmlns="http://www.w3.org/2000/svg" xmlns:xlink="http://www.w3.org/1999/xlink">
    <title>Icons/IXT/24dp/ic_numerical_2_hidden</title>
    <g id="Icons/IXT/24dp/ic_numerical_2_hidden" stroke="none" stroke-width="1" fill="none" fill-rule="evenodd">
        <g id="ic_numerical_2">
            <rect id="Container" x="0" y="0" width="24" height="24"></rect>
            <path d="M2.0524531,1.58578644 L22.5857864,22.1191198 L21.1191198,23.5857864 L18.5327864,20.9997864 L17.8485714,21 L17.9337864,20.3997864 L15.9607864,18.4277864 L14.8048571,18.4285714 L14.4371429,21 L12.7057143,21 L13.0725714,18.4285714 L11,18.4285714 L11,16.7142857 L13.3142857,16.7142857 L13.4307864,15.8977864 L8.99978644,11.4657864 L9,12 L2,12 L2,9 L6.53378644,8.99978644 L5.53378644,7.99978644 L2,8 L1.99978644,4.46578644 L0.585786438,3.0524531 L2.0524531,1.58578644 Z M9,17 L9,20 L2,20 L2,17 L9,17 Z M16.1514286,9 L15.7845714,11.5714286 L19.1951429,11.5714286 L19.5628571,9 L21.2942857,9 L20.9274286,11.5714286 L23,11.5714286 L23,13.2857143 L20.6857143,13.2857143 L20.1928571,16.7142857 L22.1428571,16.7142857 L22.1428571,18.4285714 L21.135,18.4278932 L18.579,15.8718932 L18.9534286,13.2857143 L15.992,13.2848932 L14.08,11.3738932 L14.42,9 L16.1514286,9 Z M9,13 L9,16 L2,16 L2,13 L9,13 Z M22,4 L22,8 L10.706,7.99989322 L6.706,3.99989322 L22,4 Z" id="Combined-Shape" fill="#454545"></path>
        </g>
    </g>
</svg>