<svg width="24" height="24" viewBox="0 0 24 24" fill="none" xmlns="http://www.w3.org/2000/svg">
<path d="M6 15H4.71273V10.2037H3V9.3179C4.01455 9.2963 4.71273 8.73457 4.86545 8H6V15ZM10.3006 10.3756C10.3006 9.66818 10.6951 9.1086 11.5053 9.1086C12.2836 9.1086 12.6674 9.61538 12.6674 10.175C12.6674 10.6712 12.4009 11.083 11.7825 11.463L10.6418 12.1704C9.4371 12.9095 9.02132 13.8281 9 15H14V13.8808H10.5778C10.6738 13.543 10.951 13.3002 11.2815 13.0995L12.6247 12.276C13.4563 11.7692 13.9574 11.0407 13.9574 10.1538C13.9574 8.9819 13.0512 8 11.5267 8C9.95949 8 9.06397 9.06637 9.06397 10.2489C9.06397 10.3861 9.08529 10.5445 9.09595 10.6395L10.3326 10.724C10.322 10.6078 10.3006 10.4811 10.3006 10.3756ZM18.5918 11.6214C19.1531 11.6214 19.7653 11.9593 19.7653 12.7511C19.7653 13.3741 19.3163 13.9125 18.5102 13.9125C17.7755 13.9125 17.2245 13.3741 17.1939 12.5822L16 12.8356C16.0816 13.9759 16.9898 15 18.5204 15C20.0918 15 21 13.9336 21 12.7617C21 11.4419 20.0102 10.7029 19.0204 10.6817L20.8163 9.05581V8H16.2245V9.1086H19.2347L17.4082 10.7979L17.9694 11.7376C18.0714 11.6848 18.2755 11.6214 18.5918 11.6214Z" fill="#1F2937"/>
</svg>
