<svg width="24" height="24" viewBox="0 0 24 24" fill="none" xmlns="http://www.w3.org/2000/svg">
<path fill-rule="evenodd" clip-rule="evenodd" d="M5 20.583V4H18.5186V20.583H5ZM13.2595 19.833H17.7686V4.75H5.75V19.833H10.2595V18.2529H13.2595V19.833Z" fill="#1F2937"/>
<path d="M7.125 11.0312H7.875V12.3486H7.125V11.0312Z" fill="#1F2937"/>
<path d="M9.2578 11.0312H10.0078V12.3486H9.2578V11.0312Z" fill="#1F2937"/>
<path d="M11.3828 11.0312H12.1328V12.3486H11.3828V11.0312Z" fill="#1F2937"/>
<path d="M13.5156 11.0312H14.2656V12.3486H13.5156V11.0312Z" fill="#1F2937"/>
<path d="M15.6406 11.0312H16.3906V12.3486H15.6406V11.0312Z" fill="#1F2937"/>
<path d="M7.125 8.28125H7.875V9.59863H7.125V8.28125Z" fill="#1F2937"/>
<path d="M9.2578 8.28125H10.0078V9.59863H9.2578V8.28125Z" fill="#1F2937"/>
<path d="M11.3828 8.28125H12.1328V9.59863H11.3828V8.28125Z" fill="#1F2937"/>
<path d="M13.5156 8.28125H14.2656V9.59863H13.5156V8.28125Z" fill="#1F2937"/>
<path d="M15.6406 8.28125H16.3906V9.59863H15.6406V8.28125Z" fill="#1F2937"/>
<path d="M7.125 16.2812H7.875V17.5997H7.125V16.2812Z" fill="#1F2937"/>
<path d="M9.2578 16.2812H10.0078V17.5997H9.2578V16.2812Z" fill="#1F2937"/>
<path d="M11.3828 16.2812H12.1328V17.5997H11.3828V16.2812Z" fill="#1F2937"/>
<path d="M13.5156 16.2812H14.2656V17.5997H13.5156V16.2812Z" fill="#1F2937"/>
<path d="M15.6406 16.2812H16.3906V17.5997H15.6406V16.2812Z" fill="#1F2937"/>
<path d="M7.125 13.5312H7.875V14.8497H7.125V13.5312Z" fill="#1F2937"/>
<path d="M9.2578 13.5312H10.0078V14.8497H9.2578V13.5312Z" fill="#1F2937"/>
<path d="M11.3828 13.5312H12.1328V14.8497H11.3828V13.5312Z" fill="#1F2937"/>
<path d="M13.5156 13.5312H14.2656V14.8497H13.5156V13.5312Z" fill="#1F2937"/>
<path d="M15.6406 13.5312H16.3906V14.8497H15.6406V13.5312Z" fill="#1F2937"/>
<path d="M7.125 5.53125H7.875V6.84863H7.125V5.53125Z" fill="#1F2937"/>
<path d="M9.2578 5.53125H10.0078V6.84863H9.2578V5.53125Z" fill="#1F2937"/>
<path d="M11.3828 5.53125H12.1328V6.84863H11.3828V5.53125Z" fill="#1F2937"/>
<path d="M13.5156 5.53125H14.2656V6.84863H13.5156V5.53125Z" fill="#1F2937"/>
<path d="M15.6406 5.53125H16.3906V6.84863H15.6406V5.53125Z" fill="#1F2937"/>
</svg>
