<?xml version="1.0" encoding="UTF-8"?>
<svg width="24px" height="24px" viewBox="0 0 24 24" version="1.1" xmlns="http://www.w3.org/2000/svg" xmlns:xlink="http://www.w3.org/1999/xlink">
    <g id="Icons/24dp/ic_organisations" stroke="none" stroke-width="1" fill="none" fill-rule="evenodd">
        <g id="home-search" transform="translate(3.000000, 3.000000)" fill="currentColor">
            <polygon id="Path" points="0 7.5421192 8.95918885 0 17.9193423 7.54208354 16.6314015 9.0721843 8.95901279 2.61413392 1.28802558 9.07214864"></polygon>
            <polygon id="Path" points="4.09255837 6.30713392 4.092 15.307 13.825 15.307 13.8258917 6.30713392 15.8258917 6.30713392 15.8258917 17.3071339 2.09255837 17.3071339 2.09255837 6.30713392"></polygon>
            <polygon id="Path" points="10.665565 10.4195474 13.0468983 12.8115117 12.3382184 13.5170419 9.95688511 11.1250776"></polygon>
            <path d="M8.42589171,5.69999106 C6.67649021,5.69999106 5.25922504,7.12358331 5.25922504,8.87856249 C5.25922504,10.6335417 6.67649021,12.0571339 8.42589171,12.0571339 C10.1752932,12.0571339 11.5925584,10.6335417 11.5925584,8.87856249 C11.5925584,7.12358331 10.1752932,5.69999106 8.42589171,5.69999106 Z M8.42589171,6.69999106 C9.62200887,6.69999106 10.5925584,7.67487338 10.5925584,8.87856249 C10.5925584,10.0822516 9.62200887,11.0571339 8.42589171,11.0571339 C7.22977454,11.0571339 6.25922504,10.0822516 6.25922504,8.87856249 C6.25922504,7.67487338 7.22977454,6.69999106 8.42589171,6.69999106 Z" id="Oval"></path>
        </g>
    </g>
</svg>