<svg width="24" height="24" viewBox="0 0 24 24" fill="none" xmlns="http://www.w3.org/2000/svg">
<path fill-rule="evenodd" clip-rule="evenodd" d="M17.1267 12.626C16.9828 12.7222 16.8136 12.7735 16.6406 12.7735C16.4086 12.7732 16.1862 12.6809 16.0221 12.5169C15.8581 12.3529 15.7658 12.1305 15.7656 11.8985C15.7656 11.7254 15.8169 11.5563 15.913 11.4124C16.0092 11.2685 16.1458 11.1563 16.3057 11.0901C16.4656 11.0239 16.6415 11.0065 16.8113 11.0403C16.981 11.0741 17.1369 11.1574 17.2593 11.2798C17.3816 11.4021 17.465 11.5581 17.4987 11.7278C17.5325 11.8975 17.5152 12.0735 17.4489 12.2333C17.3827 12.3932 17.2706 12.5299 17.1267 12.626ZM16.6884 11.7856C16.6732 11.7793 16.657 11.7761 16.6406 11.7761C16.6241 11.7761 16.6079 11.7793 16.5927 11.7856C16.5775 11.7919 16.5637 11.8011 16.5521 11.8127C16.5405 11.8243 16.5313 11.8381 16.525 11.8532C16.5188 11.8684 16.5155 11.8847 16.5156 11.9011C16.5156 12.0398 16.7656 12.0398 16.7656 11.9011C16.7656 11.8847 16.7623 11.8684 16.7561 11.8532C16.7498 11.8381 16.7406 11.8243 16.729 11.8127C16.7174 11.8011 16.7036 11.7919 16.6884 11.7856Z" fill="#1F2937"/>
<path fill-rule="evenodd" clip-rule="evenodd" d="M15.7149 10.0205H18.5186V18.6875H15.7149V20.749H7.78271V18.6875H5V10.0205H7.78222V4H15.7149V10.0205ZM14.9639 4.75H8.53125V10.0205H14.9639V4.75ZM8.53125 19.9971V15.7266H14.9634V19.9971H8.53125ZM15.7149 17.9404H17.7686V10.7734H5.75V17.9404H7.78271V15.7314H7.17578V14.9814H16.3633V15.7314H15.7149V17.9404Z" fill="#1F2937"/>
<path d="M8.98438 16.9297H14.5156V17.6797H8.98438V16.9297Z" fill="#1F2937"/>
<path d="M8.98438 18.3125H14.5156V19.0625H8.98438V18.3125Z" fill="#1F2937"/>
</svg>
