<svg width="24" height="24" viewBox="0 0 24 24" fill="none" xmlns="http://www.w3.org/2000/svg">
<path d="M7.2168 20.5332L6.56739 20.1582L9.11573 15.7441L5 13.3681L5.1875 13.0434C5.5266 12.4607 6.01511 11.9791 6.60259 11.6482C7.19006 11.3174 7.85519 11.1494 8.5293 11.1616C8.99414 10.3569 10.6836 7.43019 11.1416 6.63771C10.9474 6.28236 10.8475 5.88312 10.8516 5.47816C10.8557 5.07319 10.9636 4.67605 11.165 4.32471L11.3525 4L18.7876 8.293L18.6001 8.61771C18.3966 8.9677 18.1067 9.25966 17.7582 9.46568C17.4097 9.6717 17.0141 9.7849 16.6094 9.79447C16.1519 10.5869 14.4619 13.5137 13.9976 14.3184C14.3457 14.8959 14.5331 15.5561 14.5403 16.2305C14.5475 16.9049 14.3743 17.5689 14.0386 18.1538L13.8511 18.479L9.76509 16.1191L7.2168 20.5332Z" fill="#1F2937"/>
</svg>
