<svg width="24" height="24" viewBox="0 0 24 24" fill="none" xmlns="http://www.w3.org/2000/svg">
<path d="M11.6416 12.1797L11.3765 11.9141L6.29688 16.9981L6.61669 17.2598C7.96138 18.3551 9.64264 18.9531 11.377 18.9531C13.1113 18.9531 14.7925 18.3551 16.1372 17.2598L16.457 16.9981L16.166 16.7051C15.8081 16.3457 11.6416 12.1797 11.6416 12.1797ZM7.42089 16.9326L11.3765 12.9746C12.1621 13.7608 14.4751 16.0733 15.333 16.9326C14.1796 17.7594 12.7961 18.2041 11.377 18.2041C9.9578 18.2041 8.57431 17.7594 7.42089 16.9326Z" fill="#1F2937"/>
<path d="M17.2461 6.62501L16.9839 6.30469L11.8906 11.3975L16.9731 16.4805L17.2358 16.1611C18.3372 14.8167 18.94 13.1329 18.9418 11.3949C18.9437 9.65693 18.3446 7.97177 17.2461 6.62501ZM16.9102 15.3565L12.9512 11.3975L16.9194 7.42969C17.7489 8.58518 18.1943 9.97215 18.1927 11.3946C18.191 12.817 17.7424 14.2029 16.9102 15.3565Z" fill="#1F2937"/>
<path d="M10.8239 11.3887L10.8229 3.86719L10.4093 3.91119C8.7376 4.09651 7.18439 4.86397 6.02158 6.07919C4.80896 7.28045 4.04341 8.86015 3.85194 10.5563C3.66046 12.2524 4.05455 13.963 4.96885 15.4044L4.96934 15.4054C5.12877 15.6584 5.30324 15.9017 5.4918 16.1339L5.75352 16.4552L6.04698 16.1632C6.43906 15.7735 10.714 11.4991 10.714 11.4991L10.8239 11.3887ZM5.82141 15.3291C5.74524 15.2227 5.67248 15.1143 5.60315 15.0049C4.78029 13.7071 4.42574 12.167 4.59829 10.64C4.77085 9.11299 5.46015 7.69085 6.55188 6.60938C7.49744 5.6233 8.72956 4.96009 10.0734 4.71387L10.0739 11.0781C9.49328 11.6592 6.77453 14.377 5.82141 15.3291Z" fill="#1F2937"/>
<path d="M16.1089 5.51855C14.9344 4.56592 13.4991 3.99093 11.9917 3.86914L11.5859 3.83594V10.6269L16.4321 5.78026L16.1089 5.51855ZM12.3359 8.81638V4.6611C13.4058 4.81363 14.4235 5.22052 15.3037 5.84763L12.3359 8.81638Z" fill="#1F2937"/>
</svg>
