<?xml version="1.0" encoding="UTF-8"?>
<svg width="24px" height="24px" viewBox="0 0 24 24" version="1.1" xmlns="http://www.w3.org/2000/svg" xmlns:xlink="http://www.w3.org/1999/xlink">
    <title>Icons/IXT/24dp/ic_reset</title>
    <g id="Icons/IXT/24dp/ic_reset" stroke="none" stroke-width="1" fill="none" fill-rule="evenodd">
        <g id="ic_reset">
            <rect id="Container" x="0" y="0" width="24" height="24"></rect>
        </g>
        <g id="minimize" transform="translate(3.000000, 3.000000)" fill="#454545">
            <path d="M18,12 C18.5522847,12 19,12.4477153 19,13 C19,13.5128358 18.6139598,13.9355072 18.1166211,13.9932723 L18,14 L15,14 C14.4871642,14 14.0644928,14.3860402 14.0067277,14.8833789 L14,15 L14,18 C14,18.5522847 13.5522847,19 13,19 C12.4871642,19 12.0644928,18.6139598 12.0067277,18.1166211 L12,18 L12,15 C12,13.4023191 13.24892,12.0963391 14.8237272,12.0050927 L15,12 L18,12 Z M3,12 C4.59768088,12 5.90366088,13.24892 5.99490731,14.8237272 L6,15 L6,18 C6,18.5522847 5.55228475,19 5,19 C4.48716416,19 4.06449284,18.6139598 4.00672773,18.1166211 L4,18 L4,15 C4,14.4871642 3.61395981,14.0644928 3.11662113,14.0067277 L3,14 L0,14 C-0.55228475,14 -1,13.5522847 -1,13 C-1,12.4871642 -0.61395981,12.0644928 -0.116621125,12.0067277 L0,12 L3,12 Z M5,-1 C5.51283584,-1 5.93550716,-0.61395981 5.99327227,-0.116621125 L6,0 L6,3 C6,4.59768088 4.75108004,5.90366088 3.17627279,5.99490731 L3,6 L0,6 C-0.55228475,6 -1,5.55228475 -1,5 C-1,4.48716416 -0.61395981,4.06449284 -0.116621125,4.00672773 L0,4 L3,4 C3.51283584,4 3.93550716,3.61395981 3.99327227,3.11662113 L4,3 L4,0 C4,-0.55228475 4.44771525,-1 5,-1 Z M13,-1 C13.5128358,-1 13.9355072,-0.61395981 13.9932723,-0.116621125 L14,0 L14,3 C14,3.51283584 14.3860402,3.93550716 14.8833789,3.99327227 L15,4 L18,4 C18.5522847,4 19,4.44771525 19,5 C19,5.51283584 18.6139598,5.93550716 18.1166211,5.99327227 L18,6 L15,6 C13.4023191,6 12.0963391,4.75108004 12.0050927,3.17627279 L12,3 L12,0 C12,-0.55228475 12.4477153,-1 13,-1 Z" id="Shape"></path>
        </g>
    </g>
</svg>