<svg width="24" height="24" viewBox="0 0 24 24" fill="none" xmlns="http://www.w3.org/2000/svg">
<path d="M11.2716 19.8127C9.88072 19.8154 8.5162 19.4334 7.3289 18.709C6.14159 17.9845 5.17775 16.9458 4.54396 15.7077C3.91017 14.4696 3.63111 13.0804 3.73764 11.6936C3.84417 10.3068 4.33214 8.97648 5.14759 7.84972C5.96304 6.72297 7.07421 5.84367 8.35824 5.30905C9.64222 4.77443 11.0491 4.60532 12.4233 4.82041C13.7974 5.0355 15.0853 5.62642 16.1445 6.52783C17.2038 7.42924 17.9931 8.60602 18.4253 9.92808L16.005 9.95528L16.0138 10.7053L19.3097 10.6672L20.9249 7.79513L20.2706 7.42794L19.0909 9.52608C18.417 7.61595 17.0664 6.01904 15.2946 5.03744C13.5228 4.05584 11.4527 3.75763 9.47592 4.19921C7.49915 4.6408 5.75272 5.79156 4.56706 7.43381C3.3814 9.07605 2.83873 11.0959 3.0417 13.1112C3.24467 15.1266 4.17921 16.9976 5.66853 18.3705C7.15785 19.7433 9.09862 20.5227 11.1238 20.5613C13.149 20.5998 15.118 19.8948 16.6585 18.5796C18.199 17.2644 19.204 15.4303 19.4835 13.4241L18.7408 13.3206C18.4825 15.1191 17.5857 16.7647 16.2143 17.9566C14.843 19.1486 13.0886 19.8074 11.2716 19.8127Z" fill="#1F2937"/>
</svg>
