<svg width="24" height="24" viewBox="0 0 24 24" fill="none" xmlns="http://www.w3.org/2000/svg">
<path fill-rule="evenodd" clip-rule="evenodd" d="M6.02021 9.29263C7.10937 6.43018 9.73094 4 13.5113 4C17.6718 4 21.0231 7.36982 21.0231 11.5H21.0253C21.0253 12.2343 20.9427 12.9462 20.7877 13.6246L21.7367 13.8529C21.9087 13.0998 22 12.3114 22 11.5H21.9978C21.9978 6.79363 18.1865 3 13.5113 3C9.27042 3 6.33226 5.73892 5.117 8.91674L4.99425 8.84067L3.71147 6.5L3 6.90964L4.75633 10.1137L8.3402 10.1562L8.34976 9.31949L6.02021 9.29263ZM20.9453 16.0822C20.2267 17.5349 19.175 18.7591 17.8999 19.6233L17.3627 18.7889C18.4907 18.0244 19.4307 16.9345 20.0761 15.6296L20.9453 16.0822ZM8.94754 19.6403C7.61463 18.7947 6.47528 17.597 5.67744 16.1689L6.52309 15.6716C7.23971 16.9544 8.26415 18.031 9.46014 18.7897L8.94754 19.6403ZM13.4788 21C12.6721 21 11.8777 20.8749 11.1158 20.6423L11.3937 19.6839C12.0697 19.8902 12.7705 20 13.4788 20C14.1814 20 14.8611 19.8919 15.5058 19.6898L15.7906 20.6462C15.0551 20.8767 14.2795 21 13.4788 21Z" fill="#1F2937"/>
</svg>
