<svg width="24" height="24" viewBox="0 0 24 24" fill="none" xmlns="http://www.w3.org/2000/svg">
<path fill-rule="evenodd" clip-rule="evenodd" d="M10.2593 9.3047C10.8612 8.90238 11.569 8.68759 12.293 8.6875C13.2635 8.68833 14.1941 9.07419 14.8805 9.76039C15.5669 10.4466 15.953 11.3771 15.9541 12.3477C15.9542 13.0717 15.7396 13.7794 15.3374 14.3815C14.9353 14.9835 14.3636 15.4528 13.6948 15.73C13.0259 16.0071 12.2899 16.0797 11.5798 15.9386C10.8697 15.7974 10.2173 15.4488 9.70535 14.937C9.19333 14.4251 8.8446 13.7729 8.70325 13.0628C8.56191 12.3527 8.63431 11.6167 8.91128 10.9477C9.18826 10.2788 9.65738 9.70702 10.2593 9.3047ZM10.6761 14.7681C11.1547 15.0879 11.7173 15.2587 12.293 15.2588C13.0648 15.258 13.8048 14.9511 14.3506 14.4053C14.8964 13.8595 15.2033 13.1195 15.2041 12.3477C15.204 11.772 15.0332 11.2093 14.7134 10.7308C14.3935 10.2522 13.9389 9.8792 13.4071 9.65896C12.8753 9.43872 12.2901 9.38112 11.7255 9.49344C11.1609 9.60576 10.6423 9.88296 10.2353 10.29C9.8283 10.697 9.5511 11.2156 9.43877 11.7802C9.32645 12.3447 9.38405 12.9299 9.60428 13.4618C9.82452 13.9936 10.1975 14.4482 10.6761 14.7681Z" fill="#1F2937"/>
<path fill-rule="evenodd" clip-rule="evenodd" d="M17.375 7.94629C17.9041 8.55285 18.3186 9.25034 18.5986 10.0049H20.5205V14.5557H18.6475C18.3753 15.3287 17.9653 16.046 17.4375 16.6729L18.3823 18.3096L14.4424 20.584L13.5058 18.9629C12.702 19.1135 11.877 19.1131 11.0732 18.9619L10.122 20.6094L6.18164 18.3339L7.14307 16.6689C6.6248 16.0584 6.22102 15.3594 5.95117 14.6054H4V10.0556H5.96436C6.23316 9.31509 6.63162 8.62828 7.14111 8.02734L6.13135 6.30566L10.0816 4.02442L11.062 5.73535C11.8382 5.58742 12.6347 5.57981 13.4136 5.71289L14.396 4L18.3393 6.27636L17.375 7.94629ZM18.0962 13.8036H19.771L19.7711 10.7528H18.0597L17.9756 10.4941C17.7025 9.65631 17.2465 8.88975 16.6406 8.24996L16.4493 8.04683L17.3149 6.54883L14.6723 5.02344L13.7955 6.55173L13.5288 6.49606C12.6796 6.31514 11.8011 6.32381 10.9556 6.52145L10.6851 6.58298L9.80518 5.04782L7.16064 6.57516L8.06494 8.11716L7.87842 8.32126C7.29172 8.95878 6.85188 9.71713 6.58984 10.5429L6.50684 10.8066L4.75 10.8036V13.8534H6.49759L6.57959 14.1171C6.84068 14.9547 7.28446 15.7238 7.87891 16.3691L8.06396 16.5712L7.20605 18.0575L9.84775 19.5829L10.6974 18.1112L10.9664 18.1718C11.8369 18.3742 12.7422 18.3746 13.6128 18.1728L13.8818 18.1122L14.7168 19.5575L17.358 18.0331L16.5166 16.5751L16.7016 16.372C17.3082 15.714 17.7578 14.927 18.0162 14.0702L18.0962 13.8036Z" fill="#1F2937"/>
</svg>
