<svg width="16" height="16" viewBox="0 0 16 16" fill="none" xmlns="http://www.w3.org/2000/svg"><path fill-rule="evenodd" clip-rule="evenodd" d="M11.1667 10.4819C10.7022 10.4819 10.2867 10.6627 9.96889 10.9458L5.61167 8.44578C5.64222 8.30723 5.66667 8.16867 5.66667 8.0241C5.66667 7.87952 5.64222 7.74096 5.61167 7.60241L9.92 5.12651C10.25 5.42771 10.6839 5.61446 11.1667 5.61446C12.1811 5.61446 13 4.80723 13 3.80723C13 2.80723 12.1811 2 11.1667 2C10.1522 2 9.33333 2.80723 9.33333 3.80723C9.33333 3.95181 9.35778 4.09036 9.38833 4.22892L5.08 6.70482C4.75 6.40361 4.31611 6.21687 3.83333 6.21687C2.81889 6.21687 2 7.0241 2 8.0241C2 9.0241 2.81889 9.83133 3.83333 9.83133C4.31611 9.83133 4.75 9.64458 5.08 9.34337L9.43111 11.8494C9.40056 11.9759 9.38222 12.1084 9.38222 12.241C9.38222 13.2108 10.1828 14 11.1667 14C12.1506 14 12.9511 13.2108 12.9511 12.241C12.9511 11.2711 12.1506 10.4819 11.1667 10.4819Z" fill="#454545"/></svg>