<svg width="24" height="24" viewBox="0 0 24 24" fill="none" xmlns="http://www.w3.org/2000/svg">
<path fill-rule="evenodd" clip-rule="evenodd" d="M15.7412 14.8555C16.0586 14.695 16.4091 14.6109 16.7647 14.6099C17.2179 14.6099 17.661 14.7444 18.0378 14.9962C18.4147 15.248 18.7084 15.606 18.8818 16.0247C19.0552 16.4435 19.1006 16.9042 19.0121 17.3488C18.9237 17.7933 18.7054 18.2016 18.385 18.5221C18.0645 18.8426 17.6561 19.0609 17.2116 19.1493C16.7671 19.2378 16.3063 19.1924 15.8875 19.019C15.4688 18.8455 15.1109 18.5518 14.859 18.175C14.6072 17.7982 14.4727 17.3551 14.4727 16.9019C14.4759 16.6639 14.5166 16.4279 14.5934 16.2026L8.37875 12.6143C8.16234 13.0915 7.78893 13.4801 7.32074 13.7154C6.85255 13.9507 6.31786 14.0185 5.80578 13.9074C5.2937 13.7963 4.83515 13.5131 4.50657 13.1049C4.17798 12.6967 3.99919 12.1883 4.00001 11.6643C4.00082 11.1403 4.18118 10.6324 4.51104 10.2253C4.84089 9.81807 5.30031 9.53627 5.81274 9.42677C6.32516 9.31727 6.85964 9.38667 7.3271 9.62347C7.79455 9.86017 8.16676 10.25 8.38168 10.7279L14.6346 7.11814C14.4231 6.58794 14.4186 5.99762 14.6221 5.46429C14.8256 4.93096 15.2221 4.49359 15.7329 4.23894C16.2438 3.9843 16.8317 3.93099 17.3801 4.08959C17.9284 4.24818 18.3971 4.6071 18.6932 5.09514C18.9893 5.58317 19.0911 6.16466 18.9784 6.72426C18.8658 7.28385 18.5469 7.78066 18.0851 8.11613C17.6232 8.45159 17.0521 8.6012 16.4851 8.53528C15.9181 8.46936 15.3966 8.19271 15.0241 7.76023L8.57047 11.4858C8.57238 11.5096 8.57559 11.533 8.5788 11.5565L8.5788 11.5565C8.58385 11.5934 8.5889 11.6302 8.5889 11.6685C8.5889 11.7085 8.58362 11.7471 8.57834 11.7857V11.7857V11.7857L8.57834 11.7857L8.57833 11.7857C8.57507 11.8096 8.57181 11.8334 8.56979 11.8577L14.9367 15.5341C15.1484 15.2483 15.4239 15.0159 15.7412 14.8555ZM17.6253 5.00207C17.3717 4.83263 17.0736 4.74219 16.7686 4.74219C16.3597 4.74251 15.9677 4.90508 15.6786 5.19419C15.3895 5.4833 15.2269 5.87533 15.2266 6.28419C15.2266 6.58917 15.317 6.8873 15.4865 7.14088C15.6559 7.39446 15.8967 7.59211 16.1785 7.70882C16.4603 7.82553 16.7703 7.85606 17.0694 7.79657C17.3685 7.73707 17.6433 7.59021 17.8589 7.37455C18.0746 7.1589 18.2215 6.88414 18.281 6.58502C18.3405 6.2859 18.3099 5.97586 18.1932 5.6941C18.0765 5.41233 17.8789 5.17151 17.6253 5.00207ZM6.29884 13.208C5.99395 13.2079 5.69595 13.1174 5.4425 12.9479C5.18905 12.7785 4.99155 12.5376 4.87497 12.2559C4.75838 11.9742 4.72796 11.6643 4.78753 11.3653C4.84711 11.0662 4.99401 10.7916 5.20967 10.5761C5.42532 10.3606 5.70004 10.2139 5.99909 10.1545C6.29813 10.0951 6.60807 10.1257 6.8897 10.2425C7.17134 10.3593 7.41203 10.5569 7.58133 10.8105C7.75063 11.064 7.84094 11.3621 7.84084 11.667C7.84031 12.0757 7.67764 12.4675 7.38855 12.7564C7.09945 13.0453 6.70755 13.2077 6.29884 13.208ZM15.9045 18.1837C16.1581 18.3531 16.4563 18.4435 16.7613 18.4434C17.17 18.4428 17.5619 18.2801 17.8508 17.9911C18.1398 17.702 18.3024 17.3101 18.3028 16.9014C18.3028 16.5964 18.2123 16.2982 18.0429 16.0446C17.8734 15.791 17.6326 15.5934 17.3508 15.4767C17.069 15.36 16.7589 15.3295 16.4598 15.389C16.1606 15.4486 15.8859 15.5955 15.6703 15.8112C15.4546 16.0269 15.3078 16.3017 15.2484 16.6008C15.1889 16.9 15.2195 17.21 15.3363 17.4918C15.4531 17.7736 15.6508 18.0143 15.9045 18.1837Z" fill="#1F2937"/>
</svg>
