<svg width="24" height="24" viewBox="0 0 24 24" fill="none" xmlns="http://www.w3.org/2000/svg">
<path fill-rule="evenodd" clip-rule="evenodd" d="M10.464 10.3003C10.8409 10.0485 11.284 9.91406 11.7373 9.91406C12.3448 9.91486 12.9272 10.1566 13.3568 10.5861C13.7864 11.0157 14.0281 11.5981 14.0288 12.2056C14.0289 12.6589 13.8945 13.102 13.6427 13.479C13.3909 13.8559 13.033 14.1496 12.6142 14.3231C12.1954 14.4966 11.7346 14.542 11.29 14.4536C10.8454 14.3652 10.4371 14.1469 10.1165 13.8264C9.79602 13.5059 9.57782 13.0975 9.48932 12.6529C9.40092 12.2083 9.44632 11.7475 9.61982 11.3288C9.79332 10.91 10.0871 10.5521 10.464 10.3003ZM10.8807 13.4879C11.1343 13.6573 11.4324 13.7477 11.7373 13.7476C12.146 13.747 12.5378 13.5843 12.8268 13.2952C13.1157 13.0062 13.2783 12.6143 13.2788 12.2056C13.2788 11.9007 13.1883 11.6026 13.0188 11.3491C12.8494 11.0956 12.6086 10.898 12.3268 10.7814C12.0451 10.6647 11.7351 10.6343 11.436 10.6938C11.137 10.7533 10.8623 10.9002 10.6467 11.1159C10.4311 11.3315 10.2843 11.6063 10.2249 11.9053C10.1654 12.2044 10.196 12.5144 10.3128 12.7961C10.4295 13.0778 10.6272 13.3186 10.8807 13.4879Z" fill="#1F2937"/>
<path fill-rule="evenodd" clip-rule="evenodd" d="M16.3597 8.40232C17.7269 9.31986 18.789 10.6248 19.4097 12.1499L19.4678 12.292L19.4097 12.4341C18.7889 13.9591 17.7268 15.2638 16.3595 16.1812C14.9923 17.0986 13.3822 17.5867 11.7357 17.583L11.7344 17.5835H11.7339C10.0871 17.5875 8.47658 17.0994 7.10899 16.182C5.74139 15.2645 4.67902 13.9594 4.05811 12.4341L4 12.292L4.05811 12.1499C4.67899 10.6246 5.74134 9.31945 7.10894 8.40189C8.47653 7.48434 10.087 6.99619 11.7339 7.00005H11.7357C13.3823 6.99648 14.9924 7.48477 16.3597 8.40232ZM14.9465 15.5013C15.7977 14.65 16.2764 13.4958 16.2777 12.292C16.2765 11.0881 15.7978 9.93377 14.9466 9.08231C14.0955 8.23085 12.9414 7.75171 11.7375 7.75001H11.736C11.139 7.74912 10.5477 7.86594 9.99588 8.09379C9.44408 8.32164 8.94259 8.65603 8.52014 9.07787C8.09768 9.49969 7.76254 10.0007 7.53387 10.5522C7.3052 11.1036 7.1875 11.6948 7.1875 12.2918C7.1875 12.8888 7.3052 13.4799 7.53387 14.0314C7.76254 14.5828 8.09768 15.0838 8.52014 15.5057C8.94259 15.9275 9.44408 16.2619 9.99588 16.4897C10.5477 16.7176 11.139 16.8344 11.736 16.8335L11.7375 16.833C12.9413 16.8315 14.0954 16.3526 14.9465 15.5013ZM4.8125 12.2954C5.41064 10.9146 6.4091 9.74494 7.67889 8.9375C6.88106 9.87432 6.44289 11.0646 6.44287 12.2952C6.44286 13.5257 6.88102 14.716 7.67883 15.6528C6.40908 14.8456 5.41063 13.6761 4.8125 12.2954ZM17.0244 12.2944C17.0244 13.5246 16.5866 14.7146 15.7892 15.6514C17.0585 14.8443 18.0565 13.6751 18.6543 12.2949C18.0565 10.9144 17.0584 9.74491 15.7891 8.9375C16.5865 9.87426 17.0244 11.0642 17.0244 12.2944Z" fill="#1F2937"/>
</svg>
