<svg width="24" height="24" viewBox="0 0 24 24" fill="none" xmlns="http://www.w3.org/2000/svg">
<path d="M19.8864 9.36708L16 15L17.8183 7L19.6184 8.18483C19.9915 8.43128 20.1117 8.96036 19.8864 9.36708ZM16.4937 3.48488L15 3V15L16.9802 4.54099C17.0689 4.07355 16.8509 3.60087 16.4937 3.48488ZM14 16V21.25C14 21.6648 13.6267 22 13.1667 22H4.83331C4.37335 22 4 21.6648 4 21.25V16H14ZM13 17H5V21H13V17ZM14 3.85712V15H4V3.85712C4 3.38312 4.3725 3 4.83331 3H13.1667C13.6267 3 14 3.38312 14 3.85712ZM13 4H5V14H13V4ZM8 19C8 19.5523 8.44771 20 9 20C9.55229 20 10 19.5523 10 19C10 18.4477 9.55229 18 9 18C8.44771 18 8 18.4477 8 19Z" fill="#1F2937"/>
</svg>
