<svg width="24" height="24" viewBox="0 0 24 24" fill="none" xmlns="http://www.w3.org/2000/svg">
<path fill-rule="evenodd" clip-rule="evenodd" d="M12.7987 5.2987C14.9987 7.1987 15.1987 10.5987 13.2987 12.7987L19.1987 18.7987L18.6987 19.2987L12.6987 13.2987C10.6987 14.9987 7.7987 14.9987 5.7987 13.2987C3.5987 11.3987 3.3987 7.9987 5.2987 5.7987C7.1987 3.5987 10.5987 3.3987 12.7987 5.2987ZM4.79688 9.29688C4.79688 11.7969 6.79688 13.7969 9.29688 13.7969C11.7968 13.7969 13.7968 11.7969 13.7968 9.29688C13.7968 6.79688 11.7968 4.79688 9.29688 4.79688C6.79688 4.79688 4.79688 6.79688 4.79688 9.29688Z" fill="#1F2937"/>
</svg>
