<svg width="24" height="24" viewBox="0 0 24 24" fill="none" xmlns="http://www.w3.org/2000/svg">
<path d="M8.86576 15.2241C7.32846 15.2241 6.07804 13.9821 6.07804 12.4552C6.07804 10.9282 7.32845 9.6862 8.86576 9.6862C10.4031 9.6862 11.6535 10.9282 11.6535 12.4552C11.6535 13.9821 10.4031 15.2241 8.86576 15.2241ZM8.86576 10.6414C7.85905 10.6414 7.03968 11.4552 7.03968 12.4552C7.03968 13.4551 7.85905 14.269 8.86576 14.269C9.87248 14.269 10.6918 13.4551 10.6918 12.4552C10.6918 11.4552 9.87248 10.6414 8.86576 10.6414ZM3.82608 16.1793C2.81936 16.1793 2 15.3655 2 14.3655C2 13.3656 2.81936 12.5517 3.82608 12.5517C4.8328 12.5517 5.65216 13.3656 5.65216 14.3655C5.65216 15.3655 4.8328 16.1793 3.82608 16.1793ZM3.82608 13.5069C3.34949 13.5069 2.96164 13.8921 2.96164 14.3655C2.96164 14.8389 3.34949 15.2242 3.82608 15.2242C4.30268 15.2242 4.69053 14.8389 4.69053 14.3655C4.69053 13.8921 4.30268 13.5069 3.82608 13.5069ZM14.4041 16.1793C13.3974 16.1793 12.578 15.3655 12.578 14.3655C12.578 13.3656 13.3974 12.5517 14.4041 12.5517C15.4108 12.5517 16.2302 13.3656 16.2302 14.3655C16.2302 15.3655 15.4108 16.1793 14.4041 16.1793ZM14.4041 13.5069C13.9275 13.5069 13.5396 13.8921 13.5396 14.3655C13.5396 14.8389 13.9275 15.2242 14.4041 15.2242C14.8807 15.2242 15.2685 14.8389 15.2685 14.3655C15.2685 13.8921 14.8807 13.5069 14.4041 13.5069ZM19.6931 16.1793C18.4211 16.1793 17.3862 15.1514 17.3862 13.8879C17.3862 12.6245 18.4211 11.5965 19.6931 11.5965C20.9651 11.5965 22 12.6245 22 13.8879C22 15.1514 20.9651 16.1793 19.6931 16.1793ZM19.6931 12.5517C18.9512 12.5517 18.3478 13.151 18.3478 13.8879C18.3478 14.6248 18.9512 15.2242 19.6931 15.2242C20.435 15.2242 21.0384 14.6248 21.0384 13.8879C21.0384 13.151 20.435 12.5517 19.6931 12.5517ZM9.11509 8.53795C8.3732 8.53795 7.76982 7.93864 7.76982 7.20173C7.76982 6.46483 8.3732 5.86551 9.11509 5.86551C9.85698 5.86551 10.4604 6.46483 10.4604 7.20173C10.4604 7.93864 9.85698 8.53795 9.11509 8.53795ZM9.11509 6.82069C8.90379 6.82069 8.73146 6.99186 8.73146 7.20174C8.73146 7.41162 8.90379 7.58279 9.11509 7.58279C9.32639 7.58279 9.49871 7.41162 9.49871 7.20174C9.49871 6.99186 9.32639 6.82069 9.11509 6.82069ZM19.6931 5.67244C18.9512 5.67244 18.3478 5.07312 18.3478 4.33622C18.3478 3.59931 18.9512 3 19.6931 3C20.435 3 21.0384 3.59931 21.0384 4.33622C21.0384 5.07312 20.435 5.67244 19.6931 5.67244ZM19.6931 3.95518C19.4818 3.95518 19.3095 4.12635 19.3095 4.33623C19.3095 4.54611 19.4818 4.71727 19.6931 4.71727C19.9044 4.71727 20.0767 4.54611 20.0767 4.33623C20.0767 4.12635 19.9044 3.95518 19.6931 3.95518ZM6.23018 20C5.48829 20 4.88491 19.4007 4.88491 18.6638C4.88491 17.9269 5.48828 17.3276 6.23018 17.3276C6.97207 17.3276 7.57544 17.9269 7.57544 18.6638C7.57544 19.4007 6.97207 20 6.23018 20ZM6.23018 18.2827C6.01888 18.2827 5.84655 18.4539 5.84655 18.6638C5.84655 18.8737 6.01888 19.0448 6.23018 19.0448C6.44148 19.0448 6.6138 18.8737 6.6138 18.6638C6.6138 18.4539 6.44148 18.2827 6.23018 18.2827ZM15.2685 11.5965C13.1476 11.5965 11.422 9.88256 11.422 7.77586C11.422 5.66917 13.1476 3.95518 15.2685 3.95518C17.3895 3.95518 19.1151 5.66917 19.1151 7.77586C19.1151 9.88256 17.3895 11.5965 15.2685 11.5965ZM15.2685 4.91035C13.6777 4.91035 12.3836 6.19573 12.3836 7.77586C12.3836 9.356 13.6777 10.6414 15.2685 10.6414C16.8594 10.6414 18.1535 9.356 18.1535 7.77586C18.1535 6.19573 16.8594 4.91035 15.2685 4.91035Z" fill="#1F2937"/>
</svg>
