<svg width="24" height="24" viewBox="0 0 24 24" fill="none" xmlns="http://www.w3.org/2000/svg">
<path fill-rule="evenodd" clip-rule="evenodd" d="M22 3V7H7.625L6.375 6H21V4H3.875L2.62683 3.00146L2.62799 3H22ZM2 18V22H9V18H2ZM8 20.9999H3V19H8V20.9999ZM2 13V17H9V13H2ZM8 16L3 16.0001V13.9999H8V16ZM18.006 15.2188H18.9666L18.8658 15.9149L20.0282 16.8558L20.2643 15.2143H22V13.9286H20.4456L20.7207 12H19.4221L19.1464 13.9286H16.5884L16.8636 12H15.565L15.4057 13.1138L18.006 15.2188ZM2.16241 3.67944L2.04956 3.82049L2 3.78088L1.99969 3.88281L1.5625 4.42932L1.99969 4.77905V7H4.77587L6.02587 8H1.99969V12H8.99969V10.379L13.6429 14.0936V15.2143H15.0438L15.0991 15.2585L14.7357 17.7857H13V19.0714H14.5544L14.2793 21H15.5779L15.8536 19.0714H18.4116L18.1364 21H19.435L19.7108 19.0714H19.8652L21.3034 20.222L21.8119 19.5863L2.16241 3.67944ZM3 6V5.5791L3.52618 6H3ZM8 11H3V9H7.27618L8 9.57904V11ZM16.0391 17.7902L16.2685 16.1941L18.2636 17.7902H16.0391Z" fill="#1F2937"/>
</svg>
