<svg width="24" height="24" viewBox="0 0 24 24" fill="none" xmlns="http://www.w3.org/2000/svg">
<path fill-rule="evenodd" clip-rule="evenodd" d="M14.2793 20H15.5779L15.8536 18.0714H18.4116L18.1364 20H19.435L19.7108 18.0714H21.3571V16.7857H19.8946L20.2643 14.2143H22V12.9286H20.4456L20.7207 11H19.4221L19.1464 12.9286H16.5884L16.8636 11H15.565L15.2892 12.9286H13.6429V14.2143H15.1054L14.7357 16.7857H13V18.0714H14.5544L14.2793 20ZM16.4087 14.2188H18.9666L18.5944 16.7902H16.0391L16.4087 14.2188ZM2 2H22V6H2V2ZM3 3V5H21V3H3ZM2 7H9V11H2V7ZM3 8V10H8V8H3ZM2 12H9V16H2V12ZM3 13V15.0001L8 15V13L3 13ZM2 17H9V21H2V17ZM3 18V20H8V18L3 18Z" fill="#1F2937"/>
</svg>
