<svg width="24" height="24" viewBox="0 0 24 24" fill="none" xmlns="http://www.w3.org/2000/svg">
<path fill-rule="evenodd" clip-rule="evenodd" d="M14.3524 15.0139C14.0975 14.4969 13.977 13.9078 14.0036 13.3328C14.0963 11.3302 15.6232 10.0297 17.4915 10.0471C19.4032 10.0648 20.9022 11.596 20.9954 13.3364C21.0252 13.9084 20.9098 14.4732 20.6573 14.994L17.4962 20.0795L14.3524 15.0139ZM17.5003 9.00024C16.2115 8.9882 15.1109 9.42496 14.3155 10.2007C13.5206 10.9759 13.0614 12.0599 13.0048 13.2821C12.9696 14.042 13.1285 14.8168 13.4668 15.5001L17.4955 22L21.5458 15.4746C21.8783 14.7914 22.0336 14.0406 21.9939 13.2782C21.8695 10.9514 19.9049 9.02248 17.5003 9.00024ZM18.5 13.7111C18.5 14.2893 18.0523 14.758 17.5 14.758C16.9477 14.758 16.5 14.2893 16.5 13.7111C16.5 13.1329 16.9477 12.6641 17.5 12.6641C18.0523 12.6641 18.5 13.1329 18.5 13.7111ZM19.5 13.7111C19.5 14.8675 18.6046 15.8049 17.5 15.8049C16.3954 15.8049 15.5 14.8675 15.5 13.7111C15.5 12.5546 16.3954 11.6172 17.5 11.6172C18.6046 11.6172 19.5 12.5546 19.5 13.7111Z" fill="#1F2937"/>
<path d="M21.443 13.184L21.4485 13.1752L21.4531 13.1659L21.2734 13.0781L21.443 13.184Z" fill="#1F2937"/>
<path d="M17.6328 12.3759L17.6719 12.1797H17.6718L17.6328 12.3759Z" fill="#1F2937"/>
<path d="M21.0134 12.9419L21.0192 12.9325L21.0239 12.9225L20.8438 12.8359L21.0134 12.9419Z" fill="#1F2937"/>
<path fill-rule="evenodd" clip-rule="evenodd" d="M2 13H9V17H2V13ZM3 14V16.0001L8 16V14L3 14Z" fill="#1F2937"/>
<path fill-rule="evenodd" clip-rule="evenodd" d="M2 18H9V22H2V18ZM3 19V21H8V19L3 19Z" fill="#1F2937"/>
<path d="M20.998 4V6H6.37299L7.62299 7H21.998V3H2.62598L2.625 3.00159L3.87299 4H20.998Z" fill="#1F2937"/>
<path d="M2.18719 3.64844L1.5625 4.42932L1.99927 4.77875L1.9997 7H4.77588L6.02588 8H1.99969V12H8.99969V10.379L22.0189 20.7944L22.6436 20.0135L2.18719 3.64844ZM2.99969 6V5.5791L3.52587 6H2.99969ZM7.99969 11H2.99969V9H7.27587L7.99969 9.57904V11Z" fill="#1F2937"/>
</svg>
