<svg width="24" height="24" viewBox="0 0 24 24" fill="none" xmlns="http://www.w3.org/2000/svg">
<path fill-rule="evenodd" clip-rule="evenodd" d="M3.57202 3.75787L2.62469 3H21.9997V6.78943H7.36145L6.41412 6.03156H21.0473V3.75788L3.57202 3.75787ZM22.2997 18.74V10.5728H20.6231V10H19.5511V10.5728H14.7149V10H13.6428V10.5728H12.0907L13.4009 11.621H21.2259V12.855H14.9434L16.2319 13.8858H21.2259V17.881L22.2997 18.74ZM2.18719 3.64844L22.6436 20.0135L22.0189 20.7944L21.4009 20.3H11.9997V12.779L8.99969 10.379V11.5238H1.99969V7.73438H5.69384L4.51263 6.78943H1.99969V4.77905L1.5625 4.42932M3.5653 6.03156L2.95208 5.54102V6.03156H3.5653ZM8.12469 9.67908L6.87799 8.6817H2.87469V10.5765H8.12469V9.67908ZM20.0865 19.2485L13.3832 13.8858H13.07V19.2485H20.0865ZM1.99969 17H8.99969V13H1.99969V17ZM7.99969 14V16L2.99969 16V13.9999L7.99969 14ZM1.99969 22H8.99969V18H1.99969V22ZM7.99969 19V21H2.99969V19L7.99969 19Z" fill="#1F2937"/>
</svg>
