<svg width="24" height="24" viewBox="0 0 24 24" fill="none" xmlns="http://www.w3.org/2000/svg">
<path fill-rule="evenodd" clip-rule="evenodd" d="M2 3H21.9939V7H2V3ZM2.9997 4V6H20.9942V4H2.9997ZM2 8H8.99788V12H2V8ZM2.9997 9V11H7.99818V9H2.9997ZM2 13H8.99788V17H2V13ZM2.9997 14V16.0001L7.99818 16V14L2.9997 14ZM2 18H8.99788V22H2V18ZM2.9997 19V21H7.99818V19L2.9997 19Z" fill="#1F2937"/>
<path fill-rule="evenodd" clip-rule="evenodd" d="M14.3524 15.0139C14.0975 14.4969 13.977 13.9078 14.0036 13.3328C14.0963 11.3302 15.6232 10.0297 17.4915 10.0471C19.4032 10.0648 20.9022 11.596 20.9954 13.3364C21.0252 13.9084 20.9098 14.4732 20.6573 14.994L17.4962 20.0795L14.3524 15.0139ZM17.5003 9.00024C16.2115 8.9882 15.1109 9.42496 14.3155 10.2007C13.5206 10.9759 13.0614 12.0599 13.0048 13.2821C12.9696 14.042 13.1285 14.8168 13.4668 15.5001L17.4955 22L21.5458 15.4746C21.8783 14.7914 22.0336 14.0406 21.9939 13.2782C21.8695 10.9514 19.9049 9.02248 17.5003 9.00024ZM18.5 13.7111C18.5 14.2893 18.0523 14.758 17.5 14.758C16.9477 14.758 16.5 14.2893 16.5 13.7111C16.5 13.1329 16.9477 12.6641 17.5 12.6641C18.0523 12.6641 18.5 13.1329 18.5 13.7111ZM19.5 13.7111C19.5 14.8675 18.6046 15.8049 17.5 15.8049C16.3954 15.8049 15.5 14.8675 15.5 13.7111C15.5 12.5546 16.3954 11.6172 17.5 11.6172C18.6046 11.6172 19.5 12.5546 19.5 13.7111Z" fill="#1F2937"/>
</svg>
