<svg width="24" height="24" viewBox="0 0 24 24" fill="none" xmlns="http://www.w3.org/2000/svg">
<path d="M18.0459 19.8169C18.0239 19.8169 18.0015 19.8159 17.98 19.8135L17.7666 19.7471L17.6602 19.6665L11.9224 14.8252L11.5176 11.1006C11.4932 10.8833 11.5625 10.7353 11.6245 10.6499C11.7349 10.5268 11.8623 10.4336 12.0728 10.4116L15.8516 10L16.0435 10.0151L16.2549 10.145L21.9292 14.7065L22 14.9941C22.0161 15.1509 21.9673 15.311 21.8623 15.4429L18.376 19.7451L18.1216 19.812C18.0981 19.8154 18.0723 19.8169 18.0459 19.8169ZM12.8999 14.561L18.002 18.6587L20.8428 15.1157L15.7451 11.0186L12.5523 11.3652L12.8999 14.561ZM13.5127 13.0015C13.5127 13.5538 13.9604 14.0015 14.5127 14.0015C15.065 14.0015 15.5127 13.5538 15.5127 13.0015C15.5127 12.4492 15.065 12.0015 14.5127 12.0015C13.9604 12.0015 13.5127 12.4492 13.5127 13.0015ZM2 3H22V7H2V3ZM3 4V6H21V4H3ZM2 8H9V12H2V8ZM3 9V11H8V9H3ZM2 13H9V17H2V13ZM3 14V16.0001L8 16V14L3 14ZM2 18H9V22H2V18ZM3 19V21H8V19L3 19Z" fill="#1F2937"/>
</svg>
