<svg width="24" height="24" viewBox="0 0 24 24" fill="none" xmlns="http://www.w3.org/2000/svg">
<path fill-rule="evenodd" clip-rule="evenodd" d="M1.99969 13V17H8.99969V13H1.99969ZM7.99969 16L2.99969 16.0001V13.9999H7.99969V16ZM1.99969 18V22H8.99969V18H1.99969ZM7.99969 20.9999H2.99969V19H7.99969V20.9999ZM3.87469 4L2.62469 3H21.9997V7H7.62469L6.37469 6H20.9997V4H3.87469ZM22.487 14.9927C22.5031 15.1494 22.4543 15.3096 22.3493 15.4414L20.708 17.4667L19.9377 16.8505L21.3298 15.1143L16.2321 11.0171L13.0746 11.3599L12.1474 10.6182C12.2506 10.5125 12.3695 10.43 12.5597 10.4101L16.3385 9.99853L16.5304 10.0137L16.7419 10.1435L22.4162 14.7051L22.487 14.9927ZM14.3465 12.2565C14.5225 12.1019 14.7469 12 14.9997 12C15.552 12 15.9997 12.4477 15.9997 13C15.9997 13.1788 15.9393 13.3359 15.8564 13.4788L14.3465 12.2565ZM2.16229 3.67963L2.04956 3.8205L2 3.78089V3.88245L1.5625 4.42933L1.99988 4.77924L1.9997 7H4.77588L6.02588 8H1.99969V12H8.99969V10.379L12.205 12.9433L12.4094 14.8237L18.1472 19.665L18.2536 19.7456L18.467 19.812C18.4885 19.8145 18.5109 19.8154 18.5329 19.8154C18.5593 19.8154 18.5852 19.814 18.6086 19.8106L18.863 19.7437L19.5876 18.8494L21.3034 20.222L21.8118 19.5864L2.16229 3.67963ZM2.99969 6V5.5791L3.52587 6H2.99969ZM7.99969 11H2.99969V9H7.27587L7.99969 9.57904V11ZM18.4889 18.6572L13.3869 14.5596L13.3069 13.8248L18.8244 18.2388L18.4889 18.6572Z" fill="#1F2937"/>
</svg>
