<?xml version="1.0" encoding="UTF-8"?>
<svg width="24px" height="24px" viewBox="0 0 24 24" version="1.1" xmlns="http://www.w3.org/2000/svg" xmlns:xlink="http://www.w3.org/1999/xlink">
    <title>Icons/IXT/24dp/ic_time_2_hidden</title>
    <g id="Icons/IXT/24dp/ic_time_2_hidden" stroke="none" stroke-width="1" fill="none" fill-rule="evenodd">
        <g id="ic_time_2">
            <rect id="Container" x="0" y="0" width="24" height="24"></rect>
            <path d="M2.0524531,1.58578644 L21.4347864,20.9677864 L22.0918831,19.3847763 L21,18.2928932 L21,14 L16.706,13.9998932 L13,10.2938932 L13,9 L15,9 L15,11 L19,11 L19,9 L21,9 L21,11 L22,11 C22.5128358,11 22.9355072,11.3860402 22.9932723,11.8833789 L23,12 L23,20 C23,20.5128358 22.6139598,20.9355072 22.1166211,20.9932723 L22,21 L21.4667864,20.9997864 L22.5857864,22.1191198 L21.1191198,23.5857864 L18.5327864,20.9997864 L12,21 C11.4871642,21 11.0644928,20.6139598 11.0067277,20.1166211 L11,20 L10.9997864,13.4667864 L8.99978644,11.4657864 L9,12 L2,12 L2,9 L6.53378644,8.99978644 L5.53378644,7.99978644 L2,8 L1.99978644,4.46578644 L0.585786438,3.0524531 L2.0524531,1.58578644 Z M9,17 L9,20 L2,20 L2,17 L9,17 Z M16.5327864,18.9997864 L12.9997864,15.4667864 L13,19 L16.5327864,18.9997864 Z M9,13 L9,16 L2,16 L2,13 L9,13 Z M22,4 L22,8 L10.706,7.99989322 L6.705,3.99989322 L22,4 Z" id="Combined-Shape" fill="#454545"></path>
        </g>
    </g>
</svg>