<svg width="24" height="24" viewBox="0 0 24 24" fill="none" xmlns="http://www.w3.org/2000/svg">
<path fill-rule="evenodd" clip-rule="evenodd" d="M14.7694 5.53223L13.4594 4H10.4589L9.14901 5.53223H4V6.28223H5.1831V20.583H18.7021V6.28223H19.833V5.53223H14.7694ZM10.8017 4.74951H13.1108L13.7798 5.53174H10.1328L10.8017 4.74951ZM5.92969 19.8321H17.9487V6.28125H5.92969V19.8321Z" fill="#1F2937"/>
<path d="M6.96094 7.75H7.71094V18.6757H6.96094V7.75Z" fill="#1F2937"/>
<path d="M9.25 7.75H10V18.6757H9.25V7.75Z" fill="#1F2937"/>
<path d="M11.5391 7.75H12.2891V18.6757H11.5391V7.75Z" fill="#1F2937"/>
<path d="M13.8281 7.75H14.5781V18.6757H13.8281V7.75Z" fill="#1F2937"/>
<path d="M16.1172 7.75H16.8672V18.6757H16.1172V7.75Z" fill="#1F2937"/>
</svg>
