<svg width="24" height="24" viewBox="0 0 24 24" fill="none" xmlns="http://www.w3.org/2000/svg">
<path fill-rule="evenodd" clip-rule="evenodd" d="M22.3511 6.35614L17.6757 10.9654L13.4634 6.81262L12.1345 9.1416C11.7879 9.06048 11.4304 9.01062 11.0605 9.0061L13.2394 5.1875L17.6757 9.5611L21.649 5.64399L22.3511 6.35614ZM7.10717 10.9011L5.74597 9.50946L1.60938 14.688L2.39069 15.3121L5.82166 11.017L6.55219 11.7639C6.70794 11.4556 6.89355 11.1688 7.10717 10.9011ZM17.1206 19.2231L16.4341 19.9097L13.5678 17.0434C13.3966 17.1881 13.2161 17.3187 13.0219 17.4333C13.0077 17.4418 12.9925 17.4487 12.9782 17.457C12.7993 17.5597 12.6162 17.6533 12.4213 17.7278C12.3486 17.7563 12.2712 17.7732 12.1966 17.7975C12.0487 17.8442 11.9034 17.8952 11.7486 17.9245C11.5063 17.9722 11.2569 18 11 18C8.79082 18 7 16.2091 7 14C7 13.7239 7.02795 13.4542 7.08123 13.1938C7.1878 12.673 7.39557 12.1891 7.68311 11.7635C7.82685 11.5508 7.9906 11.3525 8.17157 11.1715C8.53344 10.8097 8.96442 10.5167 9.44299 10.3143C9.92151 10.1119 10.4477 9.99998 11 9.99998C11.2761 9.99998 11.5458 10.0279 11.8061 10.0812C13.3686 10.401 14.599 11.6314 14.9188 13.1938C14.972 13.4542 15 13.7239 15 14C15 14.248 14.9712 14.4881 14.9271 14.7229C14.9093 14.8205 14.8809 14.9129 14.8561 15.0078C14.8224 15.1339 14.7863 15.2582 14.7408 15.3791C14.6966 15.499 14.6475 15.6147 14.5923 15.7289C14.5541 15.8069 14.5115 15.8816 14.4686 15.9568C14.395 16.087 14.3218 16.2157 14.2345 16.3363C14.2344 16.3364 14.2346 16.3362 14.2345 16.3363L17.1206 19.2231ZM14 14C14 12.3458 12.6542 11 11 11C9.34576 11 8 12.3458 8 14C8 15.6542 9.34576 17 11 17C12.6542 17 14 15.6542 14 14Z" fill="#1F2937"/>
</svg>
