<svg width="24" height="24" viewBox="0 0 24 24" fill="none" xmlns="http://www.w3.org/2000/svg">
<path d="M15.3475 4.76431L14.6235 4.57031L13.8465 7.46931L14.5705 7.66231L15.3475 4.76431Z" fill="#1F2937"/>
<path d="M18.4415 15.207L15.0997 11.8633C14.6753 11.4635 14.1139 11.2413 13.5309 11.2422V11.9922C13.9191 11.9909 14.2933 12.1372 14.5778 12.4014L17.899 15.7246C18.1645 16.0164 18.3081 16.3989 18.3002 16.7933C18.2923 17.1877 18.1336 17.5641 17.8566 17.8451C17.5797 18.1261 17.2056 18.2902 16.8113 18.3037C16.417 18.3173 16.0325 18.1792 15.7369 17.918L12.5157 14.6953C12.3503 14.5505 12.2177 14.372 12.1268 14.1717C12.0359 13.9714 11.9889 13.7541 11.9889 13.5342H11.2389C11.2379 13.8568 11.3056 14.176 11.4374 14.4705C11.5692 14.7649 11.7622 15.028 12.0035 15.2422L15.2199 18.4599C15.6571 18.8567 16.2305 19.0693 16.8207 19.0536C17.4108 19.0378 17.9722 18.7949 18.3876 18.3754C18.803 17.956 19.0405 17.3923 19.0506 16.8021C19.0606 16.2118 18.8425 15.6404 18.4415 15.207Z" fill="#1F2937"/>
<path d="M11.2022 7.9649L7.86095 4.62209C7.63995 4.41428 7.37989 4.25242 7.09584 4.1459C6.8118 4.03938 6.50944 3.99032 6.20629 4.00158C5.90314 4.01283 5.60524 4.08417 5.32988 4.21146C5.05452 4.33875 4.80717 4.51945 4.6022 4.74308C4.39722 4.96671 4.23869 5.22882 4.1358 5.51419C4.03292 5.79957 3.98772 6.10254 4.00285 6.40552C4.01797 6.7085 4.09311 7.00546 4.2239 7.27918C4.35469 7.55289 4.53853 7.79791 4.76476 8.00002L7.98058 11.2178C8.40177 11.6009 8.95078 11.813 9.52011 11.8125V11.0625C9.14333 11.0638 8.77928 10.9262 8.49767 10.6758L5.27696 7.45315C5.12361 7.31854 4.9985 7.15482 4.90889 6.9715C4.81928 6.78818 4.76694 6.5889 4.75491 6.3852C4.74288 6.1815 4.7714 5.97744 4.83882 5.78485C4.90624 5.59226 5.01121 5.41496 5.14765 5.26323C5.28409 5.11151 5.44929 4.98837 5.63367 4.90096C5.81805 4.81355 6.01794 4.7636 6.22177 4.75401C6.4256 4.74442 6.6293 4.77538 6.82107 4.8451C7.01284 4.91482 7.18887 5.0219 7.33896 5.16015L10.6597 8.48241C10.9188 8.76605 11.0623 9.13637 11.0621 9.52048H11.8121C11.8115 8.94376 11.5938 8.38838 11.2022 7.9649Z" fill="#1F2937"/>
<path d="M15.7882 6.7832L17.9112 4.66406L18.4415 5.19531L16.3185 7.31445L15.7882 6.7832Z" fill="#1F2937"/>
<path d="M15.3811 8.5584L18.2788 7.78125L18.4732 8.50586L15.5754 9.28305L15.3811 8.5584Z" fill="#1F2937"/>
<path d="M7.7666 18.2897L8.54023 15.3906L9.26481 15.5839L8.4912 18.4831L7.7666 18.2897Z" fill="#1F2937"/>
<path d="M4.67151 17.8613L6.79455 15.7422L7.32482 16.2734L5.20178 18.3926L4.67151 17.8613Z" fill="#1F2937"/>
<path d="M4.63989 14.5505L7.53763 13.7734L7.73196 14.498L4.83423 15.2752L4.63989 14.5505Z" fill="#1F2937"/>
</svg>
