<svg width="24" height="24" viewBox="0 0 24 24" fill="none" xmlns="http://www.w3.org/2000/svg">
<path fill-rule="evenodd" clip-rule="evenodd" d="M6.56739 20.1582L7.2168 20.5332L9.76509 16.1191L13.8511 18.479L14.0386 18.1538C14.3743 17.5689 14.5475 16.9049 14.5403 16.2305C14.5331 15.5561 14.3457 14.8959 13.9976 14.3184C14.3261 13.7491 15.2681 12.1177 15.953 10.9313C16.2363 10.4407 16.4756 10.0263 16.6094 9.79447C17.0141 9.7849 17.4097 9.6717 17.7582 9.46568C18.1067 9.25966 18.3966 8.9677 18.6001 8.61771L18.7876 8.293L11.3525 4L11.165 4.32471C10.9636 4.67605 10.8557 5.07319 10.8516 5.47816C10.8475 5.88312 10.9474 6.28236 11.1416 6.63771C10.8763 7.0968 10.1977 8.27217 9.58328 9.33629C9.13713 10.109 8.72485 10.8231 8.5293 11.1616C7.85519 11.1494 7.19006 11.3174 6.60259 11.6482C6.01511 11.9791 5.5266 12.4607 5.1875 13.0434L5 13.3681L9.11573 15.7441L6.56739 20.1582ZM13.5581 17.4419L6.04688 13.1055C6.35496 12.6999 6.76054 12.3787 7.22593 12.1718C7.69133 11.9649 8.20147 11.8789 8.70899 11.9218L8.94677 11.9424L9.06641 11.7354C9.18066 11.5362 11.8696 6.8794 11.9038 6.8203L12.0244 6.61377L11.8881 6.41747C11.7518 6.21981 11.6612 5.99417 11.6231 5.75707C11.585 5.51996 11.6003 5.27733 11.6679 5.04688L17.726 8.54488C17.5598 8.7178 17.3573 8.85182 17.1332 8.93734C16.9091 9.02284 16.6688 9.05773 16.4296 9.03951L16.1919 9.01997L16.0732 9.22651L13.2348 14.1426L13.1152 14.3491L13.2519 14.5449C13.5425 14.9631 13.7229 15.4478 13.7764 15.9541C13.8299 16.4605 13.7548 16.9722 13.5581 17.4419Z" fill="#1F2937"/>
</svg>
