<svg width="24" height="24" viewBox="0 0 24 24" fill="none" xmlns="http://www.w3.org/2000/svg">
<path d="M12.3188 15.8847C12.218 15.8772 12.1169 15.8919 12.0224 15.9276C11.9279 15.9634 11.8424 16.0194 11.7719 16.0917C11.6478 16.2328 11.5819 16.4156 11.5873 16.6034C11.5812 16.6999 11.5961 16.7965 11.6311 16.8867C11.6661 16.9768 11.7202 17.0582 11.7898 17.1253C11.8594 17.1924 11.9428 17.2435 12.0341 17.2752C12.1255 17.3068 12.2226 17.3182 12.3188 17.3085C12.4195 17.3153 12.5205 17.3009 12.6153 17.2663C12.71 17.2316 12.7965 17.1775 12.8691 17.1073C12.9956 16.9707 13.063 16.7895 13.0566 16.6034C13.0619 16.4151 12.9948 16.232 12.8691 16.0917C12.7977 16.0195 12.7116 15.9637 12.6166 15.928C12.5216 15.8922 12.42 15.8775 12.3188 15.8847Z" fill="#1F2937"/>
<path d="M12.8408 14.4707L12.9338 7.46875H11.6328L11.7198 14.4707H12.8408Z" fill="#1F2937"/>
<path fill-rule="evenodd" clip-rule="evenodd" d="M7.68542 5.39709C9.04901 4.48609 10.6521 3.9999 12.2921 4C14.4903 4.00273 16.5977 4.87726 18.152 6.43174C19.7063 7.98623 20.5806 10.0938 20.5831 12.292C20.583 13.9319 20.0966 15.535 19.1854 16.8984C18.2742 18.2619 16.9792 19.3246 15.4641 19.9521C13.949 20.5795 12.2818 20.7436 10.6735 20.4236C9.06505 20.1036 7.5877 19.3138 6.42818 18.1541C5.26866 16.9945 4.47906 15.517 4.15922 13.9086C3.83939 12.3002 4.00369 10.6331 4.63135 9.11802C5.25901 7.60298 6.32183 6.30809 7.68542 5.39709ZM8.10163 18.562C9.34184 19.3907 10.8 19.833 12.2916 19.833C14.2909 19.8308 16.2077 19.0356 17.6215 17.6218C19.0353 16.2081 19.8307 14.2914 19.8331 12.292C19.8332 10.8004 19.3909 9.34231 18.5623 8.10205C17.7337 6.86179 16.5559 5.89509 15.1779 5.32421C13.7999 4.75334 12.2835 4.60392 10.8206 4.89485C9.3576 5.18579 8.01379 5.90401 6.95904 6.95869C5.90429 8.01337 5.18598 9.35714 4.89495 10.82C4.60392 12.283 4.75324 13.7993 5.32402 15.1774C5.89481 16.5554 6.86142 17.7333 8.10163 18.562Z" fill="#1F2937"/>
</svg>
