<svg width="24" height="24" viewBox="0 0 24 24" fill="none" xmlns="http://www.w3.org/2000/svg">
<path d="M5.02344 15.8066C7.88234 15.8035 10.6232 14.6663 12.6448 12.6448C14.6663 10.6232 15.8034 7.88234 15.8066 5.02344H15.0566C15.0536 7.68347 13.9955 10.2337 12.1146 12.1146C10.2337 13.9955 7.68347 15.0536 5.02344 15.0566V15.8066Z" fill="#1F2937"/>
<path d="M5.02344 11.9814C6.86818 11.9794 8.63676 11.2456 9.9412 9.9412C11.2456 8.63676 11.9794 6.86817 11.9814 5.02344H11.2314C11.2296 6.66933 10.5749 8.24727 9.4111 9.4111C8.24728 10.5749 6.66933 11.2296 5.02344 11.2314V11.9814Z" fill="#1F2937"/>
<path d="M18.9259 5C18.9556 6.84392 18.6167 8.6752 17.9292 10.3864C17.2418 12.0976 16.2195 13.6543 14.9224 14.9653C13.6253 16.2762 12.0795 17.3149 10.3757 18.0205C8.67183 18.7261 6.84425 19.0843 5.00012 19.0742V19.8242C6.94304 19.8354 8.86864 19.4585 10.664 18.7156C12.4593 17.9727 14.0882 16.8788 15.4552 15.498C16.8221 14.1172 17.8996 12.4774 18.6244 10.6747C19.3491 8.87201 19.7067 6.94272 19.6759 5H18.9259Z" fill="#1F2937"/>
<path fill-rule="evenodd" clip-rule="evenodd" d="M6.4373 6.69251C6.2853 6.79403 6.10661 6.84819 5.92383 6.84814C5.67888 6.8479 5.44404 6.7505 5.27084 6.5773C5.09764 6.40409 5.00023 6.16925 5 5.92431C4.99995 5.74152 5.05411 5.56283 5.15563 5.41083C5.25715 5.25883 5.40147 5.14036 5.57033 5.07039C5.73919 5.00042 5.92501 4.9821 6.10428 5.01774C6.28356 5.05339 6.44823 5.1414 6.57748 5.27065C6.70673 5.3999 6.79475 5.56458 6.83039 5.74385C6.86604 5.92313 6.84772 6.10894 6.77775 6.27781C6.70778 6.44667 6.5893 6.59099 6.4373 6.69251ZM6.04532 5.79878C6.01268 5.76614 5.9684 5.7478 5.92224 5.7478C5.73181 5.7478 5.72986 6.09595 5.92224 6.09595C5.9684 6.09595 6.01268 6.07761 6.04532 6.04497C6.07797 6.01232 6.09631 5.96804 6.09631 5.92188C6.09631 5.87571 6.07797 5.83144 6.04532 5.79878Z" fill="#1F2937"/>
</svg>
