<svg width="24" height="24" viewBox="0 0 24 24" fill="none" xmlns="http://www.w3.org/2000/svg">
<path fill-rule="evenodd" clip-rule="evenodd" d="M5.55597 17.6494C6.84952 18 11.7913 18 12.0035 18C12.2158 18 17.1575 17.99 18.4511 17.6494C18.8553 17.5492 19.2292 17.3289 19.5223 17.0384C19.8154 16.7479 20.0276 16.3773 20.1489 15.9466C20.5531 13.6828 20.6845 10.2371 20.1287 8.02337C20.0276 7.6227 19.8053 7.25209 19.5122 6.9616C19.2191 6.67112 18.8452 6.46077 18.441 6.35058C17.1474 6 12.2057 6 11.9934 6C11.7812 6 6.83942 6.01002 5.54587 6.3606C5.14163 6.46077 4.76771 6.68114 4.47464 6.97162C4.18157 7.2621 3.96935 7.63272 3.84808 8.06344C3.46405 10.3172 3.30236 13.7529 3.86829 15.9766C3.97945 16.3773 4.19168 16.7479 4.48475 17.0384C4.77782 17.3289 5.15174 17.5392 5.55597 17.6494ZM5.72867 7.02026C6.93127 6.6897 11.9438 6.67969 11.9943 6.67969C12.0449 6.67969 17.0473 6.67969 18.26 7.01024C18.5531 7.08036 18.8057 7.23061 19.0179 7.44096C19.2302 7.65131 19.3817 7.90172 19.4525 8.18219C19.978 10.2857 19.8567 13.6112 19.4626 15.7748C19.3918 16.0653 19.2403 16.3157 19.028 16.5261C18.8158 16.7264 18.5531 16.8767 18.2701 16.9568C17.0675 17.2874 12.055 17.2874 12.0044 17.2874C11.9539 17.2874 6.94138 17.2874 5.73878 16.9568C5.45581 16.8867 5.19306 16.7364 4.98083 16.5261C4.77872 16.3258 4.62713 16.0653 4.54628 15.7849C4.03088 13.7615 4.15215 10.4159 4.53618 8.20223C4.60692 7.92176 4.7585 7.66132 4.97073 7.45097C5.18295 7.25064 5.4457 7.10039 5.72867 7.02026ZM10.3752 14.7708C10.3145 14.7708 10.2539 14.7508 10.2034 14.7207C10.0922 14.6606 10.0215 14.5404 10.0215 14.4202V9.57214C10.0215 9.45194 10.0922 9.33174 10.2034 9.27164C10.3145 9.21154 10.4459 9.21154 10.5571 9.27164L14.7813 11.6957C14.8925 11.7558 14.9531 11.876 14.9531 11.9962C14.9531 12.1164 14.8824 12.2366 14.7813 12.2967L10.5571 14.7207C10.4964 14.7508 10.4358 14.7708 10.3752 14.7708ZM10.732 13.8001V10.1641L13.8952 11.9871L10.732 13.8001Z" fill="#1F2937"/>
</svg>
