<svg width="24" height="24" viewBox="0 0 24 24" fill="none" xmlns="http://www.w3.org/2000/svg">
<path fill-rule="evenodd" clip-rule="evenodd" d="M9.85938 11V14H10.8594V11H13.8594V10H10.8594V7H9.85938V10H6.85938V11H9.85938Z" fill="#1F2937"/>
<path fill-rule="evenodd" clip-rule="evenodd" d="M15.7427 10.4845C15.7427 13.5149 13.3331 15.9714 10.3606 15.9714C7.38816 15.9714 4.97856 13.5149 4.97856 10.4845C4.97856 7.45415 7.38819 4.99761 10.3606 4.99761C13.333 4.99761 15.7427 7.45418 15.7427 10.4845ZM14.651 15.2718C13.5199 16.326 12.014 16.969 10.3606 16.969C6.84775 16.969 4 14.0659 4 10.4845C4 6.90317 6.84775 4 10.3606 4C13.8735 4 16.7212 6.90322 16.7212 10.4845C16.7212 12.0211 16.197 13.4328 15.321 14.5439L19 18.2946L18.3081 19L14.651 15.2718Z" fill="#1F2937"/>
</svg>
