<svg width="224" height="56" viewBox="0 0 224 56" fill="none" xmlns="http://www.w3.org/2000/svg">
<path d="M42.275 8.6439C42.712 8.9209 43.223 9.0809 43.916 9.0809C44.833 9.0809 45.59 8.6119 45.59 7.5569C45.59 6.0959 42.179 5.9149 42.179 3.9649C42.179 2.7709 43.224 2.0249 44.535 2.0249C44.897 2.0249 45.483 2.0779 45.995 2.2699L45.878 2.9419C45.548 2.7599 45.025 2.6649 44.524 2.6649C43.757 2.6649 42.915 2.9849 42.915 3.9439C42.915 5.4369 46.326 5.4469 46.326 7.6219C46.326 9.1249 45.037 9.7219 43.885 9.7219C43.16 9.7219 42.596 9.5729 42.201 9.4019L42.275 8.6439Z" fill="#0D0E0E"/>
<path d="M52.103 4.88008C51.741 4.72008 51.304 4.60308 50.941 4.60308C49.63 4.60308 48.894 5.55208 48.894 6.87308C48.894 8.11008 49.64 9.14408 50.866 9.14408C51.293 9.14408 51.687 9.04808 52.092 8.89908L52.156 9.52808C51.697 9.68808 51.271 9.72008 50.76 9.72008C49.011 9.72008 48.159 8.38708 48.159 6.87408C48.159 5.20008 49.236 4.02808 50.846 4.02808C51.496 4.02808 51.965 4.17708 52.157 4.24108L52.103 4.88008Z" fill="#0D0E0E"/>
<path d="M54.128 1.59692H54.8V5.07192H54.822C55.11 4.47492 55.717 4.02692 56.517 4.02692C57.978 4.02692 58.372 4.99692 58.372 6.33992V9.59092H57.701V6.35192C57.701 5.41392 57.52 4.60392 56.411 4.60392C55.217 4.60392 54.801 5.73392 54.801 6.68292V9.59292H54.13V1.59692H54.128Z" fill="#0D0E0E"/>
<path d="M66.473 9.59203H65.663L64.181 4.89103H64.159L62.677 9.59203H61.867L60.119 4.15503H60.854L62.282 8.85703H62.304L63.818 4.15503H64.628L66.067 8.85703H66.088L67.591 4.15503H68.263L66.473 9.59203Z" fill="#0D0E0E"/>
<path fill-rule="evenodd" clip-rule="evenodd" d="M72.08 9.72008C72.581 9.72008 73.189 9.61408 73.658 9.42208V8.74008C73.338 8.94208 72.623 9.14508 72.133 9.14508C70.961 9.14508 70.342 8.21808 70.342 7.06608H74.063V6.72508C74.063 5.26508 73.434 4.02808 71.899 4.02808C70.524 4.02808 69.607 5.21108 69.607 6.87408C69.607 8.50508 70.279 9.72008 72.08 9.72008ZM71.942 4.60308C72.943 4.60308 73.327 5.54108 73.327 6.49008H70.343C70.343 5.59408 70.95 4.60308 71.942 4.60308Z" fill="#0D0E0E"/>
<path fill-rule="evenodd" clip-rule="evenodd" d="M76.173 2.70604H76.844V1.81104H76.173V2.70604ZM76.844 4.15604H76.173V9.59303H76.844V4.15604Z" fill="#0D0E0E"/>
<path d="M78.87 9.02801L82.143 4.73101H78.998V4.15601H82.921V4.73201L79.649 9.01701H82.921V9.59301H78.871V9.02801H78.87Z" fill="#0D0E0E"/>
<path fill-rule="evenodd" clip-rule="evenodd" d="M87.003 9.72008C87.504 9.72008 88.112 9.61408 88.581 9.42208V8.74008C88.261 8.94208 87.546 9.14508 87.056 9.14508C85.884 9.14508 85.265 8.21808 85.265 7.06608H88.986V6.72508C88.986 5.26508 88.357 4.02808 86.822 4.02808C85.447 4.02808 84.53 5.21108 84.53 6.87408C84.53 8.50508 85.202 9.72008 87.003 9.72008ZM86.865 4.60308C87.866 4.60308 88.25 5.54108 88.25 6.49008H85.266C85.266 5.59408 85.873 4.60308 86.865 4.60308Z" fill="#0D0E0E"/>
<path d="M91.096 5.37108C91.096 4.77408 91.096 4.55008 91.054 4.15608H91.725V5.20008H91.746C91.991 4.59308 92.45 4.02808 93.143 4.02808C93.303 4.02808 93.495 4.06008 93.612 4.09208V4.79608C93.473 4.75308 93.292 4.73208 93.122 4.73208C92.056 4.73208 91.768 5.92608 91.768 6.90708V9.59408H91.096V5.37108Z" fill="#0D0E0E"/>
<path fill-rule="evenodd" clip-rule="evenodd" d="M95.477 2.70604H96.149V1.81104H95.477V2.70604ZM96.149 4.15604H95.477V9.59303H96.149V4.15604Z" fill="#0D0E0E"/>
<path d="M98.26 8.80408C98.665 9.00708 99.156 9.14508 99.678 9.14508C100.318 9.14508 100.882 8.79308 100.882 8.17508C100.882 6.88608 98.27 7.08808 98.27 5.51008C98.27 4.43308 99.144 4.02808 100.04 4.02808C100.328 4.02808 100.904 4.09208 101.383 4.27408L101.319 4.86008C100.967 4.70008 100.488 4.60408 100.115 4.60408C99.422 4.60408 98.942 4.81708 98.942 5.51008C98.942 6.52308 101.618 6.39508 101.618 8.17508C101.618 9.32708 100.541 9.72008 99.72 9.72008C99.198 9.72008 98.675 9.65608 98.195 9.46508L98.26 8.80408Z" fill="#0D0E0E"/>
<path d="M107.192 4.88008C106.83 4.72008 106.393 4.60308 106.03 4.60308C104.719 4.60308 103.983 5.55208 103.983 6.87308C103.983 8.11008 104.729 9.14408 105.955 9.14408C106.382 9.14408 106.776 9.04808 107.181 8.89908L107.245 9.52808C106.787 9.68808 106.36 9.72008 105.849 9.72008C104.1 9.72008 103.248 8.38708 103.248 6.87408C103.248 5.20008 104.325 4.02808 105.935 4.02808C106.585 4.02808 107.054 4.17708 107.246 4.24108L107.192 4.88008Z" fill="#0D0E0E"/>
<path d="M109.217 1.59692H109.889V5.07192H109.91C110.198 4.47492 110.806 4.02692 111.605 4.02692C113.066 4.02692 113.46 4.99692 113.46 6.33992V9.59092H112.789V6.35192C112.789 5.41392 112.608 4.60392 111.5 4.60392C110.306 4.60392 109.89 5.73392 109.89 6.68292V9.59292H109.218V1.59692H109.217Z" fill="#0D0E0E"/>
<path fill-rule="evenodd" clip-rule="evenodd" d="M118.044 9.72008C118.545 9.72008 119.153 9.61408 119.622 9.42208V8.74008C119.302 8.94208 118.587 9.14508 118.097 9.14508C116.925 9.14508 116.306 8.21808 116.306 7.06608H120.027V6.72508C120.027 5.26508 119.398 4.02808 117.863 4.02808C116.488 4.02808 115.571 5.21108 115.571 6.87408C115.571 8.50508 116.243 9.72008 118.044 9.72008ZM117.906 4.60308C118.907 4.60308 119.291 5.54108 119.291 6.49008H116.307C116.307 5.59408 116.914 4.60308 117.906 4.60308Z" fill="#0D0E0E"/>
<path d="M125.687 2.15186H129.332V2.79186H126.422V5.44686H129.183V6.08686H126.422V8.95486H129.46V9.59486H125.687V2.15186H125.687Z" fill="#0D0E0E"/>
<path fill-rule="evenodd" clip-rule="evenodd" d="M131.773 2.70604H132.445V1.81104H131.773V2.70604ZM132.446 4.15604H131.774V9.59303H132.446V4.15604Z" fill="#0D0E0E"/>
<path fill-rule="evenodd" clip-rule="evenodd" d="M138.606 9.59192H139.278V1.59692H138.606V5.07292H138.585C138.489 4.80592 137.956 4.02792 136.89 4.02792C135.292 4.02792 134.652 5.22192 134.652 6.87392C134.652 8.48392 135.398 9.71992 136.89 9.71992C137.668 9.71992 138.222 9.42192 138.585 8.72892H138.606V9.59192ZM138.606 6.87392C138.606 7.86492 138.191 9.14492 136.997 9.14492C135.717 9.14492 135.387 7.92992 135.387 6.87392C135.387 5.81892 135.718 4.60392 136.997 4.60392C138.19 4.60392 138.606 5.88292 138.606 6.87392Z" fill="#0D0E0E"/>
<path fill-rule="evenodd" clip-rule="evenodd" d="M143.488 11.8951C145.353 11.8951 146.036 10.6591 146.036 9.14505H146.034V4.15605H145.362V4.77505H145.341C144.84 4.12505 144.371 4.02905 143.646 4.02905C142.048 4.02905 141.408 5.22305 141.408 6.87505C141.408 8.07905 141.962 9.59305 143.7 9.59305C144.393 9.59305 144.99 9.31605 145.352 8.52705H145.374C145.374 10.0621 145.225 11.3201 143.498 11.3201C142.912 11.3201 142.314 11.1501 141.899 10.9361L141.846 11.6071L141.862 11.6118C142.148 11.6994 142.787 11.8951 143.488 11.8951ZM145.364 6.87405C145.364 7.86505 144.927 9.01705 143.712 9.01705C142.571 9.01705 142.145 7.94005 142.145 6.87405C142.145 5.81905 142.476 4.60405 143.755 4.60405C144.98 4.60405 145.364 5.56305 145.364 6.87405Z" fill="#0D0E0E"/>
<path fill-rule="evenodd" clip-rule="evenodd" d="M150.556 9.72008C151.057 9.72008 151.665 9.61408 152.134 9.42208V8.74008C151.814 8.94208 151.099 9.14508 150.609 9.14508C149.437 9.14508 148.818 8.21808 148.818 7.06608H152.539V6.72508C152.539 5.26508 151.91 4.02808 150.375 4.02808C149 4.02808 148.083 5.21108 148.083 6.87408C148.083 8.50508 148.755 9.72008 150.556 9.72008ZM150.418 4.60308C151.419 4.60308 151.803 5.54108 151.803 6.49008H148.818C148.818 5.59408 149.426 4.60308 150.418 4.60308Z" fill="#0D0E0E"/>
<path d="M154.649 5.43486C154.649 5.01886 154.649 4.59286 154.607 4.15486H155.257V5.12486H155.279C155.502 4.63486 155.907 4.02686 157.037 4.02686C158.381 4.02686 158.892 4.92186 158.892 6.11586V9.59086H158.221V6.28786C158.221 5.26486 157.859 4.60386 156.931 4.60386C155.705 4.60386 155.321 5.68086 155.321 6.58686V9.59286H154.65V5.43486H154.649Z" fill="#0D0E0E"/>
<path fill-rule="evenodd" clip-rule="evenodd" d="M166.065 6.87408C166.065 5.39208 165.287 4.02808 163.528 4.02808C161.77 4.02808 160.991 5.39208 160.991 6.87408C160.991 8.35608 161.77 9.72008 163.528 9.72008C165.287 9.72008 166.065 8.35608 166.065 6.87408ZM165.329 6.87408C165.329 8.13208 164.701 9.14508 163.528 9.14508C162.356 9.14508 161.727 8.13208 161.727 6.87408C161.727 5.61708 162.356 4.60408 163.528 4.60408C164.701 4.60408 165.329 5.61608 165.329 6.87408Z" fill="#0D0E0E"/>
<path d="M167.75 8.80408C168.155 9.00708 168.645 9.14508 169.168 9.14508C169.808 9.14508 170.372 8.79308 170.372 8.17508C170.372 6.88608 167.76 7.08808 167.76 5.51008C167.76 4.43308 168.634 4.02808 169.53 4.02808C169.818 4.02808 170.394 4.09208 170.873 4.27408L170.809 4.86008C170.457 4.70008 169.978 4.60408 169.605 4.60408C168.912 4.60408 168.432 4.81708 168.432 5.51008C168.432 6.52308 171.107 6.39508 171.107 8.17508C171.107 9.32708 170.03 9.72008 169.21 9.72008C168.688 9.72008 168.165 9.65608 167.686 9.46508L167.75 8.80408Z" fill="#0D0E0E"/>
<path d="M172.728 8.80408C173.133 9.00708 173.623 9.14508 174.146 9.14508C174.786 9.14508 175.35 8.79308 175.35 8.17508C175.35 6.88608 172.738 7.08808 172.738 5.51008C172.738 4.43308 173.612 4.02808 174.508 4.02808C174.796 4.02808 175.372 4.09208 175.851 4.27408L175.787 4.86008C175.435 4.70008 174.956 4.60408 174.583 4.60408C173.89 4.60408 173.41 4.81708 173.41 5.51008C173.41 6.52308 176.085 6.39508 176.085 8.17508C176.085 9.32708 175.008 9.72008 174.188 9.72008C173.666 9.72008 173.143 9.65608 172.664 9.46508L172.728 8.80408Z" fill="#0D0E0E"/>
<path fill-rule="evenodd" clip-rule="evenodd" d="M180.19 9.72008C180.691 9.72008 181.299 9.61408 181.768 9.42208V8.74008C181.448 8.94208 180.733 9.14508 180.243 9.14508C179.071 9.14508 178.452 8.21808 178.452 7.06608H182.173V6.72508C182.173 5.26508 181.544 4.02808 180.009 4.02808C178.634 4.02808 177.717 5.21108 177.717 6.87408C177.717 8.50508 178.389 9.72008 180.19 9.72008ZM180.052 4.60308C181.053 4.60308 181.437 5.54108 181.437 6.49008H178.453C178.453 5.59408 179.06 4.60308 180.052 4.60308Z" fill="#0D0E0E"/>
<path d="M184.283 5.43486C184.283 5.01886 184.283 4.59286 184.241 4.15486H184.891V5.12486H184.912C185.135 4.63486 185.54 4.02686 186.67 4.02686C188.014 4.02686 188.525 4.92186 188.525 6.11586V9.59086H187.853V6.28786C187.853 5.26486 187.491 4.60386 186.563 4.60386C185.337 4.60386 184.953 5.68086 184.953 6.58686V9.59286H184.281V5.43486H184.283Z" fill="#0D0E0E"/>
<path d="M190.626 8.80408C191.031 9.00708 191.522 9.14508 192.044 9.14508C192.684 9.14508 193.248 8.79308 193.248 8.17508C193.248 6.88608 190.636 7.08808 190.636 5.51008C190.636 4.43308 191.51 4.02808 192.406 4.02808C192.694 4.02808 193.27 4.09208 193.749 4.27408L193.685 4.86008C193.333 4.70008 192.854 4.60408 192.481 4.60408C191.788 4.60408 191.308 4.81708 191.308 5.51008C191.308 6.52308 193.983 6.39508 193.983 8.17508C193.983 9.32708 192.906 9.72008 192.086 9.72008C191.564 9.72008 191.041 9.65608 190.562 9.46508L190.626 8.80408Z" fill="#0D0E0E"/>
<path d="M199.559 4.88008C199.197 4.72008 198.76 4.60308 198.397 4.60308C197.086 4.60308 196.35 5.55208 196.35 6.87308C196.35 8.11008 197.096 9.14408 198.322 9.14408C198.749 9.14408 199.143 9.04808 199.548 8.89908L199.612 9.52808C199.153 9.68808 198.727 9.72008 198.216 9.72008C196.467 9.72008 195.615 8.38708 195.615 6.87408C195.615 5.20008 196.692 4.02808 198.302 4.02808C198.952 4.02808 199.421 4.17708 199.613 4.24108L199.559 4.88008Z" fill="#0D0E0E"/>
<path d="M201.584 1.59692H202.255V5.07192H202.277C202.565 4.47492 203.172 4.02692 203.972 4.02692C205.433 4.02692 205.827 4.99692 205.827 6.33992V9.59092H205.155V6.35192C205.155 5.41392 204.973 4.60392 203.866 4.60392C202.672 4.60392 202.256 5.73392 202.256 6.68292V9.59292H201.585V1.59692H201.584Z" fill="#0D0E0E"/>
<path fill-rule="evenodd" clip-rule="evenodd" d="M211.444 8.71808H211.465H211.466V9.59308H212.128C212.074 9.22008 212.074 8.89008 212.074 8.45308V6.05408C212.074 4.63608 211.509 4.02808 210.166 4.02808C209.686 4.02808 208.982 4.19808 208.566 4.40108V5.05108C209.069 4.73208 209.601 4.60408 210.166 4.60408C211.072 4.60408 211.402 5.07208 211.402 6.00008V6.27808H211.274C209.867 6.27808 207.926 6.36308 207.926 8.18508C207.926 8.67508 208.172 9.72008 209.717 9.72008C210.388 9.72008 211.146 9.36808 211.444 8.71808ZM211.21 6.85308H211.401V7.18408C211.401 7.77108 211.369 9.14608 209.792 9.14608C209.174 9.14608 208.663 8.87908 208.663 8.16508C208.663 6.97108 210.048 6.85308 211.21 6.85308Z" fill="#0D0E0E"/>
<path d="M214.962 4.73097H213.865V4.15597H214.962V3.76197C214.962 2.62197 215.005 1.46997 216.402 1.46997C216.614 1.46997 216.903 1.50197 217.03 1.57697L216.987 2.16297C216.848 2.08797 216.646 2.04597 216.454 2.04597C215.537 2.04597 215.634 3.03697 215.634 3.68697V4.15597H216.859V4.73197H215.634V9.59297H214.961V4.73097H214.962Z" fill="#0D0E0E"/>
<path d="M221.229 4.73086H219.993V8.24986C219.993 8.73986 220.175 9.14486 220.719 9.14486C220.974 9.14486 221.145 9.09186 221.336 9.01686L221.379 9.57086C221.219 9.63486 220.889 9.71986 220.558 9.71986C219.365 9.71986 219.322 8.89886 219.322 7.90786V4.73086H218.257V4.15586H219.322V2.84486L219.994 2.60986V4.15486H221.23V4.73086H221.229Z" fill="#0D0E0E"/>
<path d="M47.498 17.687C47.029 17.442 46.357 17.367 45.835 17.367C43.906 17.367 42.818 18.732 42.818 20.576C42.818 22.452 43.874 23.784 45.835 23.784C46.325 23.784 47.072 23.72 47.498 23.464L47.54 24.104C47.135 24.35 46.304 24.424 45.834 24.424C43.489 24.424 42.082 22.878 42.082 20.576C42.082 18.316 43.532 16.728 45.834 16.728C46.271 16.728 47.156 16.803 47.54 17.005L47.498 17.687Z" fill="#0D0E0E"/>
<path fill-rule="evenodd" clip-rule="evenodd" d="M54.651 21.5779C54.651 20.0959 53.872 18.7319 52.113 18.7319C50.355 18.7319 49.576 20.0959 49.576 21.5779C49.576 23.0599 50.355 24.4239 52.113 24.4239C53.873 24.4239 54.651 23.0599 54.651 21.5779ZM53.914 21.5779C53.914 22.8359 53.286 23.8489 52.113 23.8489C50.941 23.8489 50.312 22.8359 50.312 21.5779C50.312 20.3209 50.941 19.3079 52.113 19.3079C53.286 19.3079 53.914 20.3199 53.914 21.5779Z" fill="#0D0E0E"/>
<path d="M56.75 20.139C56.75 19.723 56.75 19.297 56.708 18.859H57.358V19.829H57.38C57.603 19.339 58.008 18.731 59.138 18.731C60.482 18.731 60.993 19.626 60.993 20.82V24.295H60.322V20.99C60.322 19.967 59.96 19.306 59.032 19.306C57.806 19.306 57.422 20.383 57.422 21.289V24.295H56.75V20.139Z" fill="#0D0E0E"/>
<path d="M63.967 19.4349H62.869V18.8589H63.967V18.4649C63.967 17.3249 64.009 16.1729 65.406 16.1729C65.62 16.1729 65.907 16.2049 66.035 16.2789L65.993 16.8659C65.854 16.7909 65.652 16.7489 65.46 16.7489C64.544 16.7489 64.639 17.7399 64.639 18.3899V18.8589H65.865V19.4349H64.639V24.2959H63.968V19.4349H63.967Z" fill="#0D0E0E"/>
<path fill-rule="evenodd" clip-rule="evenodd" d="M70.928 16.759H70.086L69.094 18.294H69.584L70.928 16.759ZM71.536 24.125C71.067 24.317 70.459 24.423 69.958 24.423C68.157 24.423 67.485 23.208 67.485 21.577C67.485 19.914 68.402 18.731 69.777 18.731C71.312 18.731 71.941 19.968 71.941 21.428V21.769H68.22C68.22 22.921 68.839 23.848 70.011 23.848C70.501 23.848 71.216 23.645 71.536 23.443V24.125ZM71.205 21.194C71.205 20.245 70.821 19.307 69.82 19.307C68.828 19.307 68.22 20.298 68.22 21.194H71.205Z" fill="#0D0E0E"/>
<path fill-rule="evenodd" clip-rule="evenodd" d="M77.686 24.296H78.358V16.301H77.686V19.776H77.665C77.569 19.509 77.036 18.731 75.97 18.731C74.372 18.731 73.732 19.925 73.732 21.577C73.732 23.187 74.478 24.423 75.97 24.423C76.748 24.423 77.302 24.125 77.665 23.432H77.686V24.296ZM77.685 21.578C77.685 22.569 77.27 23.849 76.076 23.849C74.797 23.849 74.466 22.633 74.466 21.578C74.466 20.523 74.797 19.308 76.076 19.308C77.269 19.308 77.685 20.587 77.685 21.578Z" fill="#0D0E0E"/>
<path fill-rule="evenodd" clip-rule="evenodd" d="M83.847 16.759H83.005L82.014 18.294H82.504L83.847 16.759ZM84.455 24.125C83.986 24.317 83.378 24.423 82.877 24.423C81.076 24.423 80.404 23.208 80.404 21.577C80.404 19.914 81.321 18.731 82.696 18.731C84.231 18.731 84.86 19.968 84.86 21.428V21.769H81.139C81.139 22.921 81.758 23.848 82.93 23.848C83.42 23.848 84.135 23.645 84.455 23.443V24.125ZM84.124 21.194C84.124 20.245 83.74 19.307 82.739 19.307C81.747 19.307 81.14 20.298 81.14 21.194H84.124Z" fill="#0D0E0E"/>
<path d="M86.971 20.074C86.971 19.477 86.971 19.253 86.929 18.859H87.6V19.904H87.621C87.866 19.296 88.325 18.731 89.018 18.731C89.178 18.731 89.37 18.763 89.487 18.795V19.499C89.348 19.456 89.167 19.435 88.997 19.435C87.931 19.435 87.643 20.629 87.643 21.61V24.297H86.971V20.074Z" fill="#0D0E0E"/>
<path fill-rule="evenodd" clip-rule="evenodd" d="M94.453 23.4219H94.474V24.2979H95.135C95.082 23.9249 95.082 23.5949 95.082 23.1579V20.7589C95.082 19.3409 94.517 18.7329 93.174 18.7329C92.694 18.7329 91.991 18.9029 91.575 19.1059V19.7559C92.076 19.4369 92.609 19.3089 93.174 19.3089C94.08 19.3089 94.411 19.7769 94.411 20.7049V20.9819H94.283C92.876 20.9819 90.936 21.0669 90.936 22.8889C90.936 23.3789 91.181 24.4239 92.726 24.4239C93.398 24.4239 94.155 24.0719 94.453 23.4219ZM94.219 21.5569H94.411V21.8869C94.411 22.4739 94.378 23.8489 92.801 23.8489C92.183 23.8489 91.671 23.5819 91.671 22.8679C91.671 21.6739 93.057 21.5569 94.219 21.5569Z" fill="#0D0E0E"/>
<path d="M99.859 19.435H98.622V22.953C98.622 23.443 98.804 23.848 99.347 23.848C99.603 23.848 99.774 23.795 99.966 23.72L100.008 24.274C99.848 24.338 99.518 24.423 99.187 24.423C97.993 24.423 97.95 23.602 97.95 22.611V19.434H96.884V18.858H97.95V17.547L98.621 17.312V18.858H99.858V19.435H99.859Z" fill="#0D0E0E"/>
<path fill-rule="evenodd" clip-rule="evenodd" d="M101.894 17.4089H102.566V16.5139H101.894V17.4089ZM102.566 18.8589H101.894V24.2959H102.566V18.8589Z" fill="#0D0E0E"/>
<path fill-rule="evenodd" clip-rule="evenodd" d="M109.75 21.5779C109.75 20.0959 108.972 18.7319 107.213 18.7319C105.454 18.7319 104.676 20.0959 104.676 21.5779C104.676 23.0599 105.455 24.4239 107.213 24.4239C108.972 24.4239 109.75 23.0599 109.75 21.5779ZM109.014 21.5779C109.014 22.8359 108.386 23.8489 107.213 23.8489C106.04 23.8489 105.411 22.8359 105.412 21.5779C105.412 20.3209 106.041 19.3079 107.213 19.3079C108.386 19.3079 109.014 20.3199 109.014 21.5779Z" fill="#0D0E0E"/>
<path d="M111.85 20.139C111.85 19.723 111.85 19.297 111.808 18.859H112.458V19.829H112.479C112.702 19.339 113.107 18.731 114.237 18.731C115.581 18.731 116.092 19.626 116.092 20.82V24.295H115.42V20.99C115.42 19.967 115.058 19.306 114.131 19.306C112.905 19.306 112.521 20.383 112.521 21.289V24.295H111.849V20.139H111.85Z" fill="#0D0E0E"/>
<path d="M121.881 23.507C122.286 23.71 122.776 23.848 123.299 23.848C123.939 23.848 124.503 23.496 124.503 22.878C124.503 21.589 121.891 21.791 121.891 20.213C121.891 19.136 122.765 18.731 123.661 18.731C123.949 18.731 124.525 18.795 125.004 18.976L124.94 19.563C124.588 19.403 124.109 19.307 123.736 19.307C123.043 19.307 122.563 19.52 122.563 20.213C122.563 21.226 125.238 21.098 125.238 22.878C125.238 24.03 124.161 24.424 123.341 24.424C122.819 24.424 122.296 24.36 121.817 24.169L121.881 23.507Z" fill="#0D0E0E"/>
<path d="M131.517 23.0169C131.517 23.4329 131.517 23.8589 131.56 24.2959H130.909V23.3259H130.888C130.664 23.8159 130.259 24.4229 129.129 24.4229C127.786 24.4229 127.274 23.5269 127.274 22.3339V18.8589H127.945V22.1639C127.945 23.1879 128.308 23.8489 129.235 23.8489C130.461 23.8489 130.844 22.7719 130.844 21.8659V18.8599H131.516V23.0169H131.517Z" fill="#0D0E0E"/>
<path fill-rule="evenodd" clip-rule="evenodd" d="M134.033 17.4089H134.704V16.5139H134.033V17.4089ZM134.704 18.8589H134.033V24.2959H134.704V18.8589Z" fill="#0D0E0E"/>
<path d="M136.815 23.507C137.22 23.71 137.71 23.848 138.233 23.848C138.873 23.848 139.437 23.496 139.437 22.878C139.437 21.589 136.825 21.791 136.825 20.213C136.825 19.136 137.699 18.731 138.595 18.731C138.883 18.731 139.459 18.795 139.938 18.976L139.874 19.563C139.522 19.403 139.043 19.307 138.67 19.307C137.977 19.307 137.497 19.52 137.497 20.213C137.497 21.226 140.173 21.098 140.173 22.878C140.173 24.03 139.096 24.424 138.275 24.424C137.753 24.424 137.23 24.36 136.75 24.169L136.815 23.507Z" fill="#0D0E0E"/>
<path d="M141.793 23.507C142.198 23.71 142.689 23.848 143.211 23.848C143.851 23.848 144.415 23.496 144.415 22.878C144.415 21.589 141.803 21.791 141.803 20.213C141.803 19.136 142.677 18.731 143.573 18.731C143.861 18.731 144.437 18.795 144.916 18.976L144.852 19.563C144.5 19.403 144.021 19.307 143.648 19.307C142.955 19.307 142.475 19.52 142.475 20.213C142.475 21.226 145.151 21.098 145.151 22.878C145.151 24.03 144.074 24.424 143.253 24.424C142.731 24.424 142.208 24.36 141.728 24.169L141.793 23.507Z" fill="#0D0E0E"/>
<path fill-rule="evenodd" clip-rule="evenodd" d="M149.254 24.423C149.755 24.423 150.363 24.317 150.832 24.125V23.443C150.512 23.645 149.797 23.848 149.307 23.848C148.135 23.848 147.516 22.921 147.516 21.769H151.237V21.428C151.237 19.968 150.608 18.731 149.073 18.731C147.698 18.731 146.781 19.914 146.781 21.577C146.781 23.208 147.453 24.423 149.254 24.423ZM149.117 19.307C150.118 19.307 150.502 20.245 150.502 21.194H147.517C147.517 20.298 148.125 19.307 149.117 19.307Z" fill="#0D0E0E"/>
<path d="M47.498 32.3899C47.029 32.1449 46.357 32.0699 45.835 32.0699C43.906 32.0699 42.818 33.4349 42.818 35.2789C42.818 37.1549 43.874 38.4869 45.835 38.4869C46.325 38.4869 47.072 38.4229 47.498 38.1669L47.54 38.8069C47.135 39.0529 46.304 39.1269 45.834 39.1269C43.489 39.1269 42.082 37.5819 42.082 35.2789C42.082 33.0189 43.532 31.4309 45.834 31.4309C46.271 31.4309 47.156 31.5049 47.54 31.7079L47.498 32.3899Z" fill="#0D0E0E"/>
<path fill-rule="evenodd" clip-rule="evenodd" d="M54.651 36.2811C54.651 34.7991 53.872 33.4351 52.113 33.4351C50.355 33.4351 49.576 34.7991 49.576 36.2811C49.576 37.7631 50.355 39.1271 52.113 39.1271C53.873 39.1271 54.651 37.7631 54.651 36.2811ZM53.914 36.2811C53.914 37.5391 53.286 38.5521 52.113 38.5521C50.941 38.5521 50.312 37.5391 50.312 36.2811C50.312 35.0241 50.941 34.0111 52.113 34.0111C53.286 34.0111 53.914 35.0231 53.914 36.2811Z" fill="#0D0E0E"/>
<path d="M56.75 34.8421C56.75 34.4261 56.75 34.0001 56.708 33.5621H57.358V34.5321H57.38C57.603 34.0421 58.008 33.4341 59.138 33.4341C60.482 33.4341 60.993 34.3291 60.993 35.5231V39.0001H60.322V35.6951C60.322 34.6721 59.96 34.0111 59.032 34.0111C57.806 34.0111 57.422 35.0881 57.422 35.9941V39.0001H56.75V34.8421Z" fill="#0D0E0E"/>
<path d="M63.967 34.138H62.869V33.562H63.967V33.168C63.967 32.028 64.009 30.876 65.406 30.876C65.62 30.876 65.907 30.908 66.035 30.983L65.993 31.569C65.854 31.494 65.652 31.452 65.46 31.452C64.544 31.452 64.639 32.443 64.639 33.093V33.562H65.865V34.138H64.639V39H63.968V34.138H63.967Z" fill="#0D0E0E"/>
<path fill-rule="evenodd" clip-rule="evenodd" d="M69.958 39.1271C70.459 39.1271 71.067 39.0211 71.536 38.8291V38.1471C71.216 38.3491 70.501 38.5521 70.011 38.5521C68.839 38.5521 68.22 37.6251 68.22 36.4731H71.941V36.1321C71.941 34.6721 71.312 33.4351 69.777 33.4351C68.402 33.4351 67.485 34.6181 67.485 36.2811C67.485 37.9121 68.157 39.1271 69.958 39.1271ZM69.82 34.0111C70.821 34.0111 71.205 34.9491 71.205 35.8981H68.22C68.22 35.0021 68.828 34.0111 69.82 34.0111Z" fill="#0D0E0E"/>
<path fill-rule="evenodd" clip-rule="evenodd" d="M77.686 38.9999H78.358V31.0049H77.686V34.4799H77.665C77.569 34.2129 77.036 33.4349 75.97 33.4349C74.372 33.4349 73.732 34.6289 73.732 36.2809C73.732 37.8909 74.478 39.1269 75.97 39.1269C76.748 39.1269 77.302 38.8289 77.665 38.1359H77.686V38.9999ZM77.685 36.2809C77.685 37.2719 77.27 38.5519 76.076 38.5519C74.797 38.5519 74.466 37.3369 74.466 36.2809C74.466 35.2259 74.797 34.0109 76.076 34.0109C77.269 34.0109 77.685 35.2899 77.685 36.2809Z" fill="#0D0E0E"/>
<path fill-rule="evenodd" clip-rule="evenodd" d="M82.877 39.1271C83.378 39.1271 83.986 39.0211 84.455 38.8291V38.1471C84.135 38.3491 83.42 38.5521 82.93 38.5521C81.758 38.5521 81.139 37.6251 81.139 36.4731H84.86V36.1321C84.86 34.6721 84.231 33.4351 82.696 33.4351C81.321 33.4351 80.404 34.6181 80.404 36.2811C80.404 37.9121 81.076 39.1271 82.877 39.1271ZM82.739 34.0111C83.74 34.0111 84.124 34.9491 84.124 35.8981H81.14C81.14 35.0021 81.747 34.0111 82.739 34.0111Z" fill="#0D0E0E"/>
<path d="M86.971 34.778C86.971 34.181 86.971 33.957 86.929 33.563H87.6V34.608H87.621C87.866 34.001 88.325 33.436 89.018 33.436C89.178 33.436 89.37 33.468 89.487 33.5V34.204C89.348 34.161 89.167 34.14 88.997 34.14C87.931 34.14 87.643 35.334 87.643 36.315V39H86.971V34.778Z" fill="#0D0E0E"/>
<path fill-rule="evenodd" clip-rule="evenodd" d="M94.453 38.126H94.474V39.001H95.135C95.082 38.628 95.082 38.298 95.082 37.861V35.462C95.082 34.045 94.517 33.437 93.174 33.437C92.694 33.437 91.991 33.607 91.575 33.81V34.46C92.076 34.141 92.609 34.013 93.174 34.013C94.08 34.013 94.411 34.481 94.411 35.409V35.686H94.283C92.876 35.686 90.936 35.771 90.936 37.593C90.936 38.083 91.181 39.128 92.726 39.128C93.398 39.128 94.155 38.776 94.453 38.126ZM94.219 36.26H94.411V36.591C94.411 37.178 94.378 38.553 92.801 38.553C92.183 38.553 91.671 38.286 91.671 37.572C91.671 36.378 93.057 36.26 94.219 36.26Z" fill="#0D0E0E"/>
<path d="M97.012 38.435L100.285 34.138H97.14V33.562H101.063V34.138L97.791 38.423H101.063V39H97.013V38.435H97.012Z" fill="#0D0E0E"/>
<path fill-rule="evenodd" clip-rule="evenodd" d="M103.077 32.113H103.749V31.218H103.077V32.113ZM103.75 33.563H103.078V39H103.75V33.563Z" fill="#0D0E0E"/>
<path fill-rule="evenodd" clip-rule="evenodd" d="M110.933 36.2811C110.933 34.7991 110.155 33.4351 108.396 33.4351C106.638 33.4351 105.859 34.7991 105.859 36.2811C105.859 37.7631 106.638 39.1271 108.396 39.1271C110.155 39.1271 110.933 37.7631 110.933 36.2811ZM110.197 36.2811C110.197 37.5391 109.569 38.5521 108.396 38.5521C107.224 38.5521 106.595 37.5391 106.595 36.2811C106.595 35.0241 107.224 34.0111 108.396 34.0111C109.569 34.0111 110.197 35.0231 110.197 36.2811Z" fill="#0D0E0E"/>
<path d="M113.033 34.8421C113.033 34.4261 113.033 34.0001 112.991 33.5621H113.641V34.5321H113.662C113.885 34.0421 114.29 33.4341 115.42 33.4341C116.764 33.4341 117.275 34.3291 117.275 35.5231V39.0001H116.603V35.6951C116.603 34.6721 116.241 34.0111 115.314 34.0111C114.088 34.0111 113.704 35.0881 113.704 35.9941V39.0001H113.032V34.8421H113.033Z" fill="#0D0E0E"/>
<path fill-rule="evenodd" clip-rule="evenodd" d="M121.86 39.1271C122.361 39.1271 122.969 39.0211 123.438 38.8291V38.1471C123.118 38.3491 122.403 38.5521 121.913 38.5521C120.741 38.5521 120.122 37.6251 120.122 36.4731H123.843V36.1321C123.843 34.6721 123.214 33.4351 121.679 33.4351C120.304 33.4351 119.387 34.6181 119.387 36.2811C119.387 37.9121 120.059 39.1271 121.86 39.1271ZM121.722 34.0111C122.723 34.0111 123.107 34.9491 123.107 35.8981H120.122C120.122 35.0021 120.73 34.0111 121.722 34.0111Z" fill="#0D0E0E"/>
<path d="M129.513 38.0509C129.95 38.3279 130.461 38.4879 131.154 38.4879C132.071 38.4879 132.828 38.0189 132.828 36.9639C132.828 35.5029 129.417 35.3219 129.417 33.3709C129.417 32.1769 130.462 31.4309 131.773 31.4309C132.135 31.4309 132.721 31.4839 133.233 31.6759L133.116 32.3479C132.785 32.1659 132.263 32.0709 131.762 32.0709C130.995 32.0709 130.153 32.3909 130.153 33.3499C130.153 34.8429 133.564 34.8529 133.564 37.0279C133.564 38.5309 132.275 39.1279 131.123 39.1279C130.398 39.1279 129.833 38.9789 129.439 38.8079L129.513 38.0509Z" fill="#0D0E0E"/>
<path d="M137.69 39H136.901L135.057 33.563H135.793L137.296 38.265H137.317L138.895 33.563H139.598L137.69 39Z" fill="#0D0E0E"/>
<path fill-rule="evenodd" clip-rule="evenodd" d="M141.368 32.113H142.039V31.218H141.368V32.113ZM142.038 33.563H141.367V39H142.038V33.563Z" fill="#0D0E0E"/>
<path d="M144.064 38.435L147.337 34.138H144.192V33.562H148.115V34.138L144.843 38.423H148.115V39H144.065V38.435H144.064Z" fill="#0D0E0E"/>
<path d="M149.628 38.435L152.901 34.138H149.756V33.562H153.679V34.138L150.407 38.423H153.679V39H149.629V38.435H149.628Z" fill="#0D0E0E"/>
<path fill-rule="evenodd" clip-rule="evenodd" d="M157.761 39.1271C158.262 39.1271 158.87 39.0211 159.339 38.8291V38.1471C159.019 38.3491 158.304 38.5521 157.814 38.5521C156.642 38.5521 156.023 37.6251 156.023 36.4731H159.744V36.1321C159.744 34.6721 159.115 33.4351 157.58 33.4351C156.205 33.4351 155.288 34.6181 155.288 36.2811C155.288 37.9121 155.96 39.1271 157.761 39.1271ZM157.623 34.0111C158.624 34.0111 159.008 34.9491 159.008 35.8981H156.024C156.024 35.0021 156.631 34.0111 157.623 34.0111Z" fill="#0D0E0E"/>
<path d="M161.855 34.778C161.855 34.181 161.855 33.957 161.813 33.563H162.484V34.608H162.505C162.75 34.001 163.209 33.436 163.902 33.436C164.062 33.436 164.254 33.468 164.371 33.5V34.204C164.232 34.161 164.051 34.14 163.881 34.14C162.815 34.14 162.527 35.334 162.527 36.315V39H161.856V34.778H161.855Z" fill="#0D0E0E"/>
<path fill-rule="evenodd" clip-rule="evenodd" d="M169.337 38.126H169.358V39.001H170.019C169.966 38.628 169.966 38.298 169.966 37.861V35.462C169.966 34.045 169.401 33.437 168.058 33.437C167.578 33.437 166.875 33.607 166.459 33.81V34.46C166.96 34.141 167.493 34.013 168.058 34.013C168.964 34.013 169.295 34.481 169.295 35.409V35.686H169.167C167.76 35.686 165.82 35.771 165.82 37.593C165.82 38.083 166.065 39.128 167.61 39.128C168.282 39.128 169.039 38.776 169.337 38.126ZM169.103 36.26H169.295V36.591C169.295 37.178 169.262 38.553 167.685 38.553C167.067 38.553 166.555 38.286 166.555 37.572C166.555 36.378 167.941 36.26 169.103 36.26Z" fill="#0D0E0E"/>
<path d="M47.498 47.093C47.029 46.848 46.357 46.773 45.835 46.773C43.906 46.773 42.818 48.138 42.818 49.982C42.818 51.858 43.874 53.19 45.835 53.19C46.325 53.19 47.072 53.126 47.498 52.87L47.54 53.51C47.135 53.756 46.304 53.83 45.834 53.83C43.489 53.83 42.082 52.285 42.082 49.982C42.082 47.722 43.532 46.134 45.834 46.134C46.271 46.134 47.156 46.208 47.54 46.411L47.498 47.093Z" fill="#0D0E0E"/>
<path fill-rule="evenodd" clip-rule="evenodd" d="M54.651 50.9839C54.651 49.5019 53.872 48.1379 52.113 48.1379C50.355 48.1379 49.576 49.5019 49.576 50.9839C49.576 52.4659 50.355 53.8299 52.113 53.8299C53.873 53.8299 54.651 52.4659 54.651 50.9839ZM53.914 50.9839C53.914 52.2419 53.286 53.2549 52.113 53.2549C50.941 53.2549 50.312 52.2419 50.312 50.9839C50.312 49.7269 50.941 48.7139 52.113 48.7139C53.286 48.7139 53.914 49.7259 53.914 50.9839Z" fill="#0D0E0E"/>
<path d="M56.75 49.545C56.75 49.129 56.75 48.703 56.708 48.265H57.358V49.235H57.38C57.603 48.745 58.008 48.137 59.138 48.137C60.482 48.137 60.993 49.033 60.993 50.226V53.701H60.322V50.396C60.322 49.373 59.96 48.712 59.032 48.712C57.806 48.712 57.422 49.789 57.422 50.694V53.7H56.75V49.545Z" fill="#0D0E0E"/>
<path d="M63.967 48.8409H62.869V48.2649H63.967V47.8709C63.967 46.7309 64.009 45.5789 65.406 45.5789C65.62 45.5789 65.907 45.6109 66.035 45.6859L65.993 46.2719C65.854 46.1969 65.652 46.1549 65.46 46.1549C64.544 46.1549 64.639 47.1459 64.639 47.7959V48.2649H65.865V48.8409H64.639V53.7019H63.968V48.8409H63.967Z" fill="#0D0E0E"/>
<path fill-rule="evenodd" clip-rule="evenodd" d="M69.958 53.8299C70.459 53.8299 71.067 53.7239 71.536 53.5319V52.8499C71.216 53.0529 70.501 53.2549 70.011 53.2549C68.839 53.2549 68.22 52.3269 68.22 51.1759H71.941V50.8349C71.941 49.3749 71.312 48.1379 69.777 48.1379C68.402 48.1379 67.485 49.3209 67.485 50.9839C67.485 52.6149 68.157 53.8299 69.958 53.8299ZM69.82 48.7129C70.821 48.7129 71.205 49.6509 71.205 50.5999H68.22C68.22 49.7039 68.828 48.7129 69.82 48.7129Z" fill="#0D0E0E"/>
<path fill-rule="evenodd" clip-rule="evenodd" d="M77.686 53.703H78.358V45.708H77.686V49.183H77.665C77.569 48.916 77.036 48.138 75.97 48.138C74.372 48.138 73.732 49.332 73.732 50.984C73.732 52.594 74.478 53.83 75.97 53.83C76.748 53.83 77.302 53.532 77.665 52.839H77.686V53.703ZM77.685 50.984C77.685 51.975 77.27 53.255 76.076 53.255C74.797 53.255 74.466 52.04 74.466 50.984C74.466 49.929 74.797 48.714 76.076 48.714C77.269 48.714 77.685 49.993 77.685 50.984Z" fill="#0D0E0E"/>
<path fill-rule="evenodd" clip-rule="evenodd" d="M82.877 53.8299C83.378 53.8299 83.986 53.7239 84.455 53.5319V52.8499C84.135 53.0529 83.42 53.2549 82.93 53.2549C81.758 53.2549 81.139 52.3269 81.139 51.1759H84.86V50.8349C84.86 49.3749 84.231 48.1379 82.696 48.1379C81.321 48.1379 80.404 49.3209 80.404 50.9839C80.404 52.6149 81.076 53.8299 82.877 53.8299ZM82.739 48.7129C83.74 48.7129 84.124 49.6509 84.124 50.5999H81.14C81.14 49.7039 81.747 48.7129 82.739 48.7129Z" fill="#0D0E0E"/>
<path d="M86.971 49.4809C86.971 48.8839 86.971 48.6599 86.929 48.2659H87.6V49.3109H87.621C87.866 48.7039 88.325 48.1389 89.018 48.1389C89.178 48.1389 89.37 48.1709 89.487 48.2029V48.9069C89.348 48.8639 89.167 48.8429 88.997 48.8429C87.931 48.8429 87.643 50.0369 87.643 51.0179V53.7049H86.971V49.4809Z" fill="#0D0E0E"/>
<path fill-rule="evenodd" clip-rule="evenodd" d="M94.453 52.8279H94.474V53.7029H95.135C95.082 53.3299 95.082 52.9999 95.082 52.5629V50.1639C95.082 48.7459 94.517 48.1379 93.174 48.1379C92.694 48.1379 91.991 48.3079 91.575 48.5109V49.1609C92.076 48.8419 92.609 48.7139 93.174 48.7139C94.08 48.7139 94.411 49.1829 94.411 50.1099V50.3869H94.283C92.876 50.3869 90.936 50.4729 90.936 52.2949C90.936 52.7849 91.181 53.8299 92.726 53.8299C93.398 53.8299 94.155 53.4779 94.453 52.8279ZM94.219 50.9629H94.411V51.2939C94.411 51.8809 94.378 53.2559 92.801 53.2559C92.183 53.2559 91.671 52.9889 91.671 52.2749C91.671 51.0809 93.057 50.9629 94.219 50.9629Z" fill="#0D0E0E"/>
<path d="M97.012 53.1379L100.285 48.8409H97.14V48.2649H101.063V48.8409L97.791 53.1259H101.063V53.7019H97.013V53.1379H97.012Z" fill="#0D0E0E"/>
<path fill-rule="evenodd" clip-rule="evenodd" d="M103.077 46.8159H103.749V45.9209H103.077V46.8159ZM103.75 48.2659H103.078V53.7029H103.75V48.2659Z" fill="#0D0E0E"/>
<path d="M110.517 52.4229C110.517 52.8389 110.517 53.2649 110.56 53.7019H109.909V52.7319H109.888C109.664 53.2219 109.259 53.8289 108.129 53.8289C106.786 53.8289 106.274 52.9339 106.274 51.7399V48.2649H106.946V51.5699C106.946 52.5939 107.309 53.2549 108.236 53.2549C109.462 53.2549 109.845 52.1779 109.845 51.2719V48.2659H110.516V52.4229H110.517Z" fill="#0D0E0E"/>
<path d="M113.033 49.545C113.033 49.129 113.033 48.703 112.991 48.265H113.641V49.235H113.662C113.885 48.745 114.29 48.137 115.42 48.137C116.764 48.137 117.275 49.033 117.275 50.226V53.701H116.603V50.396C116.603 49.373 116.241 48.712 115.314 48.712C114.088 48.712 113.704 49.789 113.704 50.694V53.7H113.032V49.545H113.033Z" fill="#0D0E0E"/>
<path d="M123.064 52.9139C123.469 53.1169 123.959 53.2549 124.482 53.2549C125.122 53.2549 125.686 52.9029 125.686 52.2849C125.686 50.9949 123.074 51.1979 123.074 49.6199C123.074 48.5429 123.948 48.1379 124.844 48.1379C125.132 48.1379 125.708 48.2019 126.187 48.3829L126.123 48.9689C125.771 48.8089 125.292 48.7129 124.919 48.7129C124.226 48.7129 123.746 48.9259 123.746 49.6189C123.746 50.6319 126.421 50.5039 126.421 52.2839C126.421 53.4359 125.344 53.8289 124.524 53.8289C124.002 53.8289 123.479 53.7649 123 53.5739L123.064 52.9139Z" fill="#0D0E0E"/>
<path d="M130.344 53.7029H129.555L127.711 48.2659H128.447L129.95 52.9679H129.971L131.549 48.2659H132.252L130.344 53.7029Z" fill="#0D0E0E"/>
<path fill-rule="evenodd" clip-rule="evenodd" d="M134.023 46.8159H134.694V45.9209H134.023V46.8159ZM134.693 48.2659H134.022V53.7029H134.693V48.2659Z" fill="#0D0E0E"/>
<path d="M136.719 53.1379L139.992 48.8409H136.847V48.2649H140.77V48.8409L137.498 53.1259H140.77V53.7019H136.72V53.1379H136.719Z" fill="#0D0E0E"/>
<path d="M142.784 49.4809C142.784 48.8839 142.784 48.6599 142.742 48.2659H143.414V49.3109H143.435C143.68 48.7039 144.139 48.1389 144.832 48.1389C144.992 48.1389 145.184 48.1709 145.301 48.2029V48.9069C145.162 48.8639 144.981 48.8429 144.811 48.8429C143.745 48.8429 143.457 50.0369 143.457 51.0179V53.7049H142.785V49.4809H142.784Z" fill="#0D0E0E"/>
<path fill-rule="evenodd" clip-rule="evenodd" d="M150.267 52.8279H150.288V53.7029H150.949C150.896 53.3299 150.896 52.9999 150.896 52.5629V50.1639C150.896 48.7459 150.331 48.1379 148.988 48.1379C148.508 48.1379 147.805 48.3079 147.389 48.5109V49.1609C147.89 48.8419 148.423 48.7139 148.988 48.7139C149.894 48.7139 150.225 49.1829 150.225 50.1099V50.3869H150.097C148.69 50.3869 146.75 50.4729 146.75 52.2949C146.75 52.7849 146.994 53.8299 148.54 53.8299C149.212 53.8299 149.969 53.4779 150.267 52.8279ZM150.033 50.9629H150.225V51.2939C150.225 51.8809 150.192 53.2559 148.615 53.2559C147.997 53.2559 147.485 52.9889 147.485 52.2749C147.485 51.0809 148.871 50.9629 150.033 50.9629Z" fill="#0D0E0E"/>
<path d="M29.9483 2.50533C29.9483 2.50533 24.3593 0 15.0024 0H14.9994C5.64145 0 0.0514661 2.50533 0.0514661 2.50533C0.0514661 2.50533 -0.449144 13.5992 1.67225 19.8721C5.41939 30.9021 14.9974 34 14.9974 34H15.0004H15.0033C15.0033 34 24.5794 30.9021 28.3285 19.8721C30.4499 13.5992 29.9483 2.50533 29.9483 2.50533Z" fill="#F7001D"/>
<path d="M25 11.9987V17.9993H18V25H12V17.9993H5V11.9987H12V5H17.999L18 11.9987H25Z" fill="white"/>
</svg>
