<svg width="61" height="31" viewBox="0 0 61 31" fill="none" xmlns="http://www.w3.org/2000/svg">
<path d="M60.0793 3.0278H55.7803L53.4882 7.25005L52.5615 3.0278L50.9494 7.25005L49.3372 3.0278L48.4105 7.25005L46.1184 3.0278H41.8194L41.803 6.53721L47.0506 8.68124L41.8633 10.9569L47.1822 12.7883L42.1923 15.3601L47.5825 16.6871L42.96 19.7304L48.2734 20.3062L44.3911 23.9143L49.5401 23.9197L46.8587 27.6211L50.9494 30.796L55.04 27.6211L52.3586 23.9197L57.5021 23.9143L53.6253 20.3062L58.9387 19.7304L54.3162 16.6871L59.7064 15.3601L54.711 12.7883L60.0354 10.9569L54.8481 8.68124L60.0958 6.53721L60.0793 3.0278Z" fill="#D60D4C"/>
<path d="M22.0296 27.4621L19.8363 26.9138L21.4813 26.5354L21.4045 26.1132H22.5451C22.5451 26.1132 21.8103 25.1262 20.8562 25.2029L18.7451 26.2996C18.4599 26.1845 16.0801 23.8705 16.0801 23.8705C16.0801 23.8705 17.9829 22.028 16.9245 20.7175C16.0487 20.0665 15.0921 19.532 14.0786 19.1273C13.8209 19.1273 11.7482 20.9039 11.7482 20.9039C12.5378 21.5181 13.2506 22.4393 13.1465 23.2673C13.0806 23.8156 12.2855 24.4462 12.2855 24.4462C12.1594 24.7972 17.0616 27.495 17.0616 27.495L16.5133 27.9885C16.3757 28.138 16.2823 28.3228 16.2436 28.5223C16.2048 28.7217 16.2223 28.928 16.294 29.1181L16.9904 28.5698L17.1713 28.8001L18.0103 28.1476L18.3448 29.7268L18.8328 29.672L18.9863 30.8619C19.9075 30.5603 19.9569 29.2168 19.9569 29.2168L19.3318 27.654L21.3826 29.2223L21.6458 28.6246L22.6986 28.9536C22.5561 28.4147 22.3144 27.907 21.9858 27.4566" fill="#003063"/>
<path d="M36.5443 27.3579L34.6361 26.5573L35.9247 26.4641C35.9247 26.4147 36.0947 25.8719 36.0892 25.7951L37.5478 25.6471C37.5478 25.6471 36.5005 24.6984 35.6396 24.7916L33.4462 25.6032L27.9627 21.3316C28.6097 21.216 29.2447 21.0417 29.86 20.8107C29.4866 20.3438 29.2292 19.7951 29.1088 19.2095L28.7304 17.4822C28.62 16.8109 28.3512 16.1755 27.9463 15.6288C27.7327 15.3686 27.5058 15.1197 27.2663 14.883L26.4603 14.2579L27.3705 14.1373C27.6858 14.111 27.9832 13.9802 28.2156 13.7656C28.4481 13.551 28.6022 13.265 28.6536 12.9529H24.8152V12.2455H28.6536C28.94 12.2592 29.2261 12.2137 29.4941 12.1118C29.762 12.0099 30.0061 11.8538 30.2109 11.6533C30.6185 11.2199 30.8794 10.6694 30.9567 10.0795C30.9567 9.9821 30.918 9.88866 30.8491 9.81976C30.7802 9.75086 30.6867 9.71215 30.5893 9.71215C30.5396 9.71287 30.4905 9.72336 30.4449 9.74304C30.3993 9.76272 30.358 9.79119 30.3233 9.82684C30.2887 9.86248 30.2615 9.9046 30.2431 9.95078C30.2248 9.99696 30.2157 10.0463 30.2164 10.096C30.1299 10.4795 29.9403 10.8322 29.6681 11.1159C29.5328 11.2429 29.3731 11.3409 29.1987 11.4041C29.0243 11.4672 28.8388 11.4942 28.6536 11.4833H24.8701C24.8701 11.3736 24.8701 11.4285 24.9139 11.3627C25.0291 10.9733 25.4623 10.8143 25.9393 10.8143C26.7838 10.8143 27.694 10.8143 28.8236 10.7705C29.3391 10.7705 29.6023 9.92052 29.6023 9.92052C29.6023 9.92052 29.8381 8.56611 29.8381 8.37419C29.8381 8.18227 29.7558 8.1384 29.52 8.05615C28.933 7.91048 28.3632 7.70276 27.8202 7.43652C27.3116 7.10124 26.7346 6.88391 26.1312 6.80044H23.8063C23.4615 6.8715 23.1372 7.01959 22.8576 7.23363C22.792 6.99846 22.6781 6.77951 22.5233 6.59071C22.3685 6.4019 22.1761 6.24737 21.9583 6.13694L20.9768 5.82439L21.3552 8.1055L20.8068 10.1837C20.3115 10.4589 19.792 10.6883 19.255 10.8692H18.5641L19.0795 11.4175C19.5009 11.5937 19.9667 11.6339 20.412 11.5327L20.2749 11.9878C19.8045 12.2791 19.3045 12.5199 18.7834 12.7061L18.0706 12.6677L18.6189 13.2161C19.024 13.3879 19.4728 13.4282 19.902 13.3312L19.6279 14.2689C19.5885 14.524 19.4528 14.7542 19.2488 14.9123C19.0448 15.0704 18.788 15.1443 18.5312 15.1188C17.6264 15.1188 6.33051 13.7809 6.33051 13.7809C5.52445 13.7041 3.73684 13.419 3.73684 11.8891C3.73684 10.4634 5.14061 10.244 6.42922 10.244H15.6414C18.1473 10.244 19.3702 8.96092 19.4798 6.4495C19.5785 4.32192 20.8397 3.4665 21.6239 3.4665H25.4623C26.559 2.96202 27.2773 0.93863 27.2773 0.93863C27.2773 0.93863 26.4548 1.22377 25.5994 1.48698H21.2126C20.2749 1.48698 19.2002 2.803 18.7396 4.33289C18.268 2.71527 17.3029 1.41021 16.2556 1.41021H11.8688C11.0134 1.15797 10.1854 0.861862 10.1854 0.861862C10.1854 0.861862 10.9147 2.88526 12.0059 3.38973H15.8443C16.6504 3.38973 17.9883 4.24515 17.9883 6.37273C17.9883 8.01777 17.2261 8.72513 15.6688 8.72513H11.8743C12.0165 8.14003 12.2301 7.57465 12.5104 7.04171L13.3 6.37273H12.2033C11.5837 6.37273 10.465 8.12195 10.0538 8.72513H8.69388C8.89043 7.86392 9.17716 7.02581 9.5493 6.22468L10.6021 5.41313H9.14901C8.36487 5.41313 6.87338 7.98487 6.37438 8.7032C5.02545 8.7032 2.26179 9.18574 2.26179 11.8178C2.26179 13.9234 4.19197 14.9488 6.16053 15.1956C6.2373 15.1956 8.7871 15.5246 8.7871 15.5246L6.665 20.2678C6.30313 20.2029 5.93384 20.19 5.56831 20.2294C5.27769 20.3665 3.05141 25.7622 3.05141 25.7622L1.57088 25.8225C1.21037 26.0468 0.907886 26.3531 0.688043 26.7163C0.594231 26.918 0.540236 27.1358 0.529022 27.3579L1.37896 27.0563L1.75183 27.3908L2.66757 27.1166L1.91085 28.8549L2.3934 29.3539L2.23438 30.7741C2.99109 30.7028 3.57234 29.491 3.57234 29.491L3.64362 27.7198L4.29615 29.3648L4.72386 29.4032L5.57928 30.8015C5.74409 30.6542 5.86545 30.4645 5.93022 30.2532C5.98691 29.8351 6.01621 29.4138 6.01796 28.992L4.83353 27.5937L6.35793 28.6904C6.35793 28.6465 6.61017 28.4436 6.64855 28.3833L8.15102 28.9755C8.15102 28.9755 7.83298 27.6211 7.43817 27.3305L4.93772 26.3599L10.8379 20.7887C12.2307 19.5988 13.4755 18.5953 14.128 18.5021C14.7805 18.4089 19.7869 21.7209 20.6752 21.847C21.2641 21.9073 21.8575 21.9073 22.4464 21.847C22.3751 22.1675 22.364 22.4985 22.4135 22.8231C22.6986 23.3714 31.2583 26.6615 31.2583 26.6615L30.1616 27.2976C29.7942 27.5334 29.5694 28.6355 29.5694 28.6355L30.9348 27.8898L31.2473 28.323L32.344 27.4401L32.1795 28.9207L32.684 28.9865L32.7169 30.8399C33.4242 30.5383 33.8519 29.1071 33.8519 29.1071V27.7308L35.2886 29.0194L35.837 28.5204L37.0981 29.1236C37.0981 29.1236 37.0543 27.8459 36.5827 27.4182M24.2669 9.4325C24.2158 9.40074 24.1792 9.35026 24.1648 9.29185C24.1505 9.23345 24.1596 9.17175 24.1901 9.11994C24.4149 8.769 24.9797 7.95196 25.4074 7.86971H25.709C26.0956 7.88594 26.4722 7.99705 26.8057 8.19324L27.2005 8.39064C27.2533 8.42074 27.2928 8.46964 27.3111 8.52759C27.3294 8.58553 27.3252 8.64824 27.2992 8.7032C27.2712 8.75518 27.2243 8.79441 27.1681 8.81278C27.112 8.83115 27.051 8.82725 26.9976 8.8019L26.6028 8.60449L26.4603 8.53869C26.4823 8.61534 26.4934 8.69473 26.4932 8.77448C26.4949 8.9949 26.4114 9.20747 26.2602 9.36786C26.109 9.52825 25.9017 9.62409 25.6816 9.63538C25.4946 9.63635 25.3127 9.57483 25.1647 9.46058C25.0166 9.34634 24.911 9.18591 24.8646 9.00479C24.7659 9.13091 24.6727 9.26251 24.5904 9.38863C24.5588 9.43841 24.5089 9.47377 24.4515 9.48711C24.394 9.50044 24.3336 9.49067 24.2833 9.45991" fill="#003063"/>
</svg>
