
<svg width="144" height="62" viewBox="0 0 144 62" fill="none" xmlns="http://www.w3.org/2000/svg">
<path d="M0 28.1096C2.36712 30.674 5.67123 32.1534 9.1726 32.1534C13.5123 32.2521 18.3452 29.6384 18.3452 24.5096C18.3452 19.1836 14.1534 17.5562 10.011 15.9781C7.39726 14.9918 2.86027 13.5617 2.86027 9.07398C2.86027 5.67124 5.86849 3.40275 9.76438 3.45207C11.9836 3.50138 14.2027 4.58631 16.3726 6.36166L17.5562 4.98084C14.9425 2.71235 12.2301 1.67672 9.71507 1.62741C4.88219 1.52878 0.936987 4.33973 0.936987 9.02467C0.936987 14.7452 5.86849 16.274 8.97534 17.5069C12.526 18.937 16.3726 20.2685 16.3726 24.4603C16.3726 27.8137 13.2164 30.3781 8.97534 30.2795C6.06575 30.2795 3.30411 28.9973 1.38082 26.8274L0 28.1096Z" fill="#003063"/>
<path d="M41.6712 31.4136H43.5945V2.36703H41.6712V15.4848H26.4822V2.36703H24.6082V31.4136H26.4822V17.3095H41.6712V31.4136Z" fill="#003063"/>
<path d="M119.49 2.31779H114.904L112.438 6.85478L111.452 2.31779L109.726 6.85478L108 2.31779L107.014 6.85478L104.548 2.31779H99.9124V6.11505L105.534 8.38355L99.9617 10.8493L105.682 12.8219L100.307 15.5836L106.126 17.0137L101.145 20.2685L106.866 20.8603L102.674 24.7561H108.197L105.337 28.7013L109.726 32.1041L114.115 28.7013L111.255 24.7561H116.729L112.586 20.8603L118.307 20.2685L113.326 17.0137L119.096 15.5836L113.77 12.8219L119.441 10.8493L113.918 8.38355L119.54 6.11505L119.49 2.31779Z" fill="#D60D4C"/>
<path d="M81.0247 9.22189C80.926 9.17258 80.8767 9.02464 80.926 8.8767C81.1726 8.48218 81.7644 7.64381 82.2082 7.54518C82.3068 7.54518 82.4055 7.49586 82.5534 7.49586C82.9479 7.49586 83.3918 7.64382 83.737 7.84108L84.1808 8.03833C84.2795 8.08765 84.3288 8.2356 84.2794 8.33423C84.2794 8.33423 84.2794 8.33423 84.2794 8.38355C84.1315 8.63012 83.8356 8.43286 83.4411 8.5808C83.2438 8.63012 83.1945 9.07396 82.7507 9.12327C82.4055 9.12327 82.0603 9.12326 81.7644 8.97532C81.6164 8.926 81.1233 9.32052 81.0247 9.22189Z" fill="#E3E5ED"/>
<path d="M60.5096 43.3972C60.1644 43.0027 59.7205 42.8055 59.2274 42.8055C58.6356 42.8055 57.9452 43.1013 57.9452 43.7918C57.9452 44.4822 58.4876 44.6301 59.326 44.8767C60.263 45.1726 61.3972 45.5671 61.3972 46.9479C61.3972 48.4767 60.2137 49.2164 58.7835 49.2164C57.8465 49.2657 56.9589 48.8712 56.3178 48.1808L57.2055 47.3424C57.6 47.8356 58.1424 48.1315 58.7835 48.1315C59.3753 48.1315 60.0657 47.8356 60.0657 47.0959C60.0657 46.3561 59.326 46.1589 58.4383 45.863C57.5507 45.5671 56.6137 45.1726 56.6137 43.8411C56.6137 42.4109 57.9452 41.7698 59.2274 41.7698C59.9671 41.7698 60.7068 42.0164 61.2986 42.5096L60.5096 43.3972Z" fill="#003063"/>
<path d="M65.8357 45.5671C65.5891 45.2712 65.2439 45.0739 64.8494 45.0739C63.9617 45.0739 63.5179 45.863 63.5179 46.6027C63.4685 47.3917 64.011 48.0821 64.8 48.1315C64.8494 48.1315 64.8494 48.1315 64.8987 48.1315C65.2932 48.1315 65.6384 47.9835 65.9343 47.6876L66.674 48.4767C66.1809 48.9205 65.5398 49.1671 64.8987 49.1671C63.4685 49.2164 62.285 48.1314 62.2357 46.7506C62.1863 45.3205 63.2713 44.1369 64.6521 44.0876C64.7507 44.0876 64.8 44.0876 64.8987 44.0876C65.5891 44.0876 66.2302 44.3342 66.7233 44.8273L65.8357 45.5671Z" fill="#003063"/>
<path d="M71.9014 46.0602V49.0684H70.6685V46.4054C70.6685 45.8136 70.5699 45.1232 69.7808 45.1232C69.1398 45.1232 68.5973 45.715 68.6466 46.3561C68.6466 46.4054 68.6466 46.4054 68.6466 46.4547V49.1177H67.463V41.4739H68.6466V44.926C68.9425 44.4328 69.485 44.0876 70.0767 44.1369C71.4082 44.0876 71.9014 45.0739 71.9014 46.0602Z" fill="#003063"/>
<path d="M73.3315 41.4247H74.515V49.0192H73.3315V41.4247Z" fill="#003063"/>
<path d="M80.5315 47.0466H76.8822C76.9808 47.737 77.5726 48.2795 78.263 48.2301C78.7561 48.2301 79.2493 48.0329 79.5452 47.589L80.3342 48.2301C79.8411 48.8712 79.052 49.2658 78.263 49.2164C76.9315 49.3151 75.7479 48.2794 75.6493 46.9479C75.6493 46.8493 75.6493 46.7507 75.6493 46.7014C75.6 45.3205 76.6356 44.1863 77.9671 44.137C78.0164 44.137 78.115 44.137 78.2137 44.137C79.5452 44.137 80.5315 45.0247 80.5315 46.7507C80.5808 46.8 80.5808 46.8986 80.5315 47.0466ZM79.3479 46.2082C79.3972 45.6164 78.9534 45.074 78.3616 45.0247C78.3123 45.0247 78.263 45.0247 78.2137 45.0247C77.5232 44.9753 76.9315 45.5178 76.8822 46.2082H79.3479Z" fill="#003063"/>
<path d="M84.3781 45.5178C84.1316 45.1726 83.7371 45.0246 83.3425 44.9753C82.948 44.9753 82.5535 45.1233 82.5535 45.5178C82.5535 45.9123 82.948 46.011 83.5891 46.1589C84.2302 46.3068 85.1672 46.652 85.1672 47.589C85.1672 48.7726 84.2302 49.2164 83.1453 49.2164C82.4055 49.2164 81.7151 48.9205 81.1727 48.4274L81.9617 47.6877C82.2576 48.0822 82.7014 48.2794 83.1946 48.2794C83.5398 48.2794 83.9836 48.1315 83.9836 47.6877C83.9836 47.2438 83.5891 47.1452 82.8987 46.9972C82.2083 46.8493 81.4686 46.5534 81.4686 45.6164C81.4686 44.5315 82.4549 44.0877 83.3918 44.0877C84.0823 44.0383 84.7234 44.3342 85.2165 44.8274L84.3781 45.5178Z" fill="#003063"/>
<path d="M85.6602 44.2356H86.9918L87.9781 47.6877L89.0137 44.2356H90.3452L91.3808 47.6877L92.4164 44.2356H93.6986L92.0219 49.0685H90.789L89.7041 45.6657L88.6192 49.0685H87.3863L85.6602 44.2356Z" fill="#003063"/>
<path d="M95.0794 41.8684C95.4739 41.9178 95.7698 42.263 95.7698 42.6575C95.7205 43.052 95.3753 43.3479 94.9808 43.3479C94.5863 43.2986 94.3397 43.0027 94.2904 42.6575C94.2904 42.2136 94.5863 41.8684 95.0794 41.8684C95.0301 41.8684 95.0301 41.8684 95.0794 41.8684ZM94.4876 44.2356H95.6712V49.0684H94.4876V44.2356Z" fill="#003063"/>
<path d="M101.984 44.2356V48.6246C101.984 50.3507 101.145 51.4849 99.2713 51.4849C98.3836 51.4849 97.5452 51.189 96.8548 50.6959L97.5452 49.7589C97.9891 50.2027 98.6302 50.4493 99.2219 50.4493C100.406 50.4493 100.751 49.7589 100.751 48.7726V48.4274C100.356 48.9205 99.7644 49.1671 99.1726 49.1671C97.8411 49.1671 96.8055 48.0822 96.8055 46.8C96.8055 46.7506 96.8055 46.7013 96.8055 46.652C96.8055 45.2712 97.6932 44.137 99.1726 44.137C99.863 44.0876 100.455 44.4328 100.849 45.0246V44.2849L101.984 44.2356ZM98.0384 46.6027C98.0877 47.3917 98.7781 47.9342 99.5672 47.8849C100.356 47.8356 100.899 47.1452 100.849 46.3561C100.8 45.6164 100.159 45.0739 99.4192 45.0739C98.6302 45.0739 97.9891 45.6657 97.9891 46.4548C97.9891 46.5041 97.9891 46.5534 98.0384 46.6027Z" fill="#003063"/>
<path d="M105.633 47.0958H103.216V46.0602H105.633V47.0958Z" fill="#003063"/>
<path d="M106.964 41.9178H108.247V44.7781H111.6V41.9178H112.882V49.0685H111.6V45.9123H108.247V49.0685H106.964V41.9178Z" fill="#003063"/>
<path d="M116.679 44.0876C118.06 44.0383 119.244 45.0739 119.293 46.4547C119.293 46.504 119.293 46.5533 119.293 46.6027C119.293 48.0328 118.11 49.2164 116.679 49.2164C115.249 49.2164 114.066 48.0328 114.066 46.6027C114.066 45.2218 115.151 44.0876 116.532 44.0383C116.581 44.0876 116.63 44.0876 116.679 44.0876ZM116.679 48.1807C117.468 48.1807 118.11 47.4903 118.11 46.7013C118.11 46.652 118.11 46.652 118.11 46.6027C118.208 45.8136 117.666 45.1232 116.877 45.0246C116.088 44.9259 115.397 45.4684 115.299 46.2574C115.299 46.3561 115.299 46.504 115.299 46.6027C115.249 47.3917 115.841 48.0821 116.63 48.1807H116.679Z" fill="#003063"/>
<path d="M120.477 41.4247H121.71V49.0192H120.477V41.4247Z" fill="#003063"/>
<path d="M125.852 45.5178C125.605 45.1726 125.211 45.0246 124.816 44.9753C124.422 44.9753 124.027 45.1233 124.027 45.5178C124.027 45.9123 124.422 46.011 125.063 46.1589C125.704 46.3068 126.641 46.652 126.641 47.589C126.641 48.7726 125.704 49.2164 124.619 49.2164C123.879 49.2164 123.189 48.9205 122.647 48.4274L123.436 47.6877C123.731 48.0822 124.175 48.2794 124.668 48.2794C125.014 48.2794 125.458 48.1315 125.458 47.6877C125.458 47.2438 125.063 47.1452 124.373 46.9972C123.682 46.8493 122.942 46.5534 122.942 45.6164C122.942 44.5315 123.929 44.0877 124.866 44.0877C125.556 44.0383 126.197 44.3342 126.69 44.8274L125.852 45.5178Z" fill="#003063"/>
<path d="M127.184 45.1725V44.1862H128.022V42.8054H129.205V44.1862H130.438V45.1725H129.205V47.3917C129.205 47.8355 129.304 48.1314 129.847 48.1314C129.994 48.1314 130.192 48.0821 130.34 48.0328L130.389 48.9698C130.142 49.0684 129.847 49.1177 129.6 49.1177C128.318 49.1177 128.022 48.3287 128.022 47.3917V45.1232H127.184V45.1725Z" fill="#003063"/>
<path d="M135.814 47.0465H132.115C132.214 47.7369 132.805 48.2794 133.496 48.2301C133.989 48.2301 134.482 48.0328 134.778 47.589L135.567 48.2301C135.074 48.8712 134.285 49.2657 133.496 49.2164C132.164 49.315 130.981 48.3287 130.882 46.9479C130.882 46.8493 130.882 46.7506 130.882 46.652C130.833 45.2712 131.868 44.1369 133.2 44.0876C133.249 44.0876 133.348 44.0876 133.397 44.0876C134.729 44.0876 135.715 44.9753 135.715 46.7013C135.863 46.7999 135.863 46.8986 135.814 47.0465ZM134.63 46.2082C134.679 45.6164 134.236 45.0739 133.644 45.0246C133.594 45.0246 133.545 45.0246 133.496 45.0246C132.805 44.9753 132.214 45.5177 132.164 46.2082H134.63Z" fill="#003063"/>
<path d="M137.589 41.8684C137.984 41.8684 138.279 42.2136 138.279 42.6082C138.279 43.0027 137.934 43.2986 137.54 43.2986C137.145 43.2986 136.849 42.9534 136.849 42.5588C136.8 42.1643 137.145 41.8684 137.589 41.8684ZM136.997 44.2356H138.181V49.0684H136.948L136.997 44.2356Z" fill="#003063"/>
<path d="M139.611 44.2356H140.745V45.0246C141.041 44.4821 141.584 44.0876 142.225 44.0876C143.457 44.0876 144 45.0739 144 46.0602V49.0684H142.767V46.4054C142.767 45.8136 142.619 45.1232 141.879 45.1232C141.238 45.1726 140.696 45.715 140.745 46.3561C140.745 46.4054 140.745 46.4054 140.745 46.4547V49.1178H139.512L139.611 44.2356Z" fill="#003063"/>
<path d="M57.0083 54H59.3754C61.1507 54 63.1233 55.1836 63.1233 57.5507C63.1233 59.9178 61.1507 61.1014 59.3754 61.1014H57.0083V54ZM57.748 60.5096H59.1781C61.348 60.5096 62.3343 59.0794 62.3343 57.6C62.3343 56.1205 61.2987 54.6904 59.1781 54.6904H57.748V60.5096Z" fill="#003063"/>
<path d="M68.8438 58.9808H64.9479C64.9479 59.9178 65.737 60.7068 66.674 60.7068C67.2658 60.7068 67.8575 60.4109 68.1534 59.9178L68.6466 60.3123C68.1534 60.9534 67.4137 61.2986 66.6247 61.2986C65.2438 61.2986 64.1096 60.2137 64.1096 58.8329C64.1096 57.452 65.1945 56.3178 66.5753 56.3178C68.0548 56.3178 68.8438 57.3534 68.8438 58.6356C68.8438 58.7342 68.8438 58.8329 68.8438 58.9808ZM68.1534 58.4383C68.2027 57.6 67.5616 56.9096 66.7233 56.9096C66.674 56.9096 66.6247 56.9096 66.5753 56.9096C65.6877 56.9096 64.9973 57.6 64.8986 58.4383H68.1534Z" fill="#003063"/>
<path d="M70.1754 56.4164H70.8164C70.8164 56.6629 70.8658 57.0081 70.8658 57.2054C71.1617 56.6136 71.7534 56.2684 72.3945 56.2684C72.5425 56.2684 72.6904 56.2684 72.8384 56.3177L72.7397 56.9588C72.5918 56.9095 72.3945 56.9095 72.2466 56.9095C71.5069 56.9095 70.8658 57.452 70.8658 58.6849V61.1013H70.1754V57.4027C70.2247 57.2054 70.2247 56.7616 70.1754 56.4164Z" fill="#003063"/>
<path d="M80.6302 58.9807H76.7343C76.7343 59.9177 77.5233 60.7068 78.4603 60.7068C79.0521 60.7068 79.6439 60.4109 79.9891 59.8684L80.5316 60.2629C80.0384 60.904 79.2987 61.2492 78.5096 61.2492C77.1288 61.2492 75.9946 60.1643 75.9946 58.7835C75.9946 57.4027 77.0795 56.2684 78.4603 56.2684C79.9398 56.2684 80.7288 57.304 80.7288 58.5862C80.6302 58.7342 80.6302 58.8328 80.6302 58.9807ZM79.9398 58.4383C79.9891 57.5999 79.348 56.9095 78.5096 56.9095C78.4603 56.9095 78.411 56.9095 78.3617 56.9095C77.474 56.9095 76.7836 57.5999 76.685 58.4383H79.9398Z" fill="#003063"/>
<path d="M85.463 57.5014C85.1671 57.1068 84.7232 56.8602 84.2794 56.8602C83.2438 56.9589 82.4548 57.8466 82.5041 58.8822C82.5534 59.8192 83.3424 60.5589 84.2794 60.6575C84.7726 60.6575 85.2657 60.4602 85.5616 60.0657L86.0548 60.4603C85.6109 61.0027 84.9698 61.2986 84.2794 61.2493C82.8986 61.2493 81.8137 60.1644 81.8137 58.7835C81.8137 57.4027 82.8986 56.3178 84.2794 56.3178C84.9698 56.3178 85.6109 56.6137 86.0548 57.1561L85.463 57.5014Z" fill="#003063"/>
<path d="M87.7808 57.2055C88.0767 56.6137 88.7178 56.2685 89.3589 56.3178C90.5424 56.3178 91.1342 57.1068 91.1342 58.2904V61.2H90.4438V58.5863C90.4438 57.6 90.1479 56.9096 89.1616 56.9096C88.4219 56.9096 87.7315 57.5014 87.7315 58.7343V61.1507H87.0411V53.5069H87.7315L87.7808 57.2055Z" fill="#003063"/>
<path d="M95.0302 57.0082H93.6987V59.7698C93.6987 60.4602 93.9946 60.6575 94.3891 60.6575C94.5864 60.6575 94.7836 60.6082 94.9809 60.5096L95.0302 61.1013C94.7836 61.2 94.4877 61.2493 94.2412 61.2493C93.6001 61.2986 93.0576 60.8548 93.0083 60.2137C93.0083 60.115 93.0083 60.0657 93.0083 59.9671V57.0082H92.022V56.4164H93.0083V55.0849H93.6987V56.4164H95.0302V57.0082Z" fill="#003063"/>
<path d="M100.208 58.9807H96.3123C96.3123 59.9177 97.1013 60.7068 98.0383 60.7068C98.6301 60.7068 99.2219 60.4109 99.5671 59.8684L100.06 60.2629C99.5671 60.904 98.8274 61.2492 98.0383 61.2492C96.6575 61.2492 95.5233 60.1643 95.5233 58.7835C95.5233 57.4027 96.6082 56.2684 97.989 56.2684C99.4685 56.2684 100.258 57.304 100.258 58.5862C100.258 58.7342 100.258 58.8328 100.208 58.9807ZM99.5178 58.4383C99.5671 57.5999 98.926 56.9095 98.0876 56.9095C98.0383 56.9095 97.989 56.9095 97.9397 56.9095C97.052 56.9095 96.3616 57.5999 96.263 58.4383H99.5178Z" fill="#003063"/>
<path d="M109.332 60.0657V54H110.071V61.1507H109.184L105.041 55.0356V61.1507H104.301V54H105.189L109.332 60.0657Z" fill="#003063"/>
<path d="M114.066 61.2492C112.685 61.1999 111.6 60.115 111.649 58.7342C111.699 57.3533 112.784 56.2684 114.164 56.3177C115.496 56.367 116.581 57.452 116.581 58.7835C116.63 60.115 115.545 61.1999 114.214 61.2492C114.164 61.2492 114.115 61.2492 114.066 61.2492ZM114.066 56.8602C113.03 56.8109 112.093 57.5999 112.044 58.6355C111.995 59.6711 112.784 60.6081 113.819 60.6575C114.855 60.7068 115.792 59.9177 115.841 58.8821C115.841 58.8328 115.841 58.8328 115.841 58.7835C115.89 57.7972 115.151 56.9588 114.164 56.8602C114.115 56.8602 114.115 56.8602 114.066 56.8602Z" fill="#003063"/>
<path d="M117.912 56.4164H118.553C118.553 56.6629 118.603 57.0081 118.603 57.2054C118.899 56.6136 119.49 56.2684 120.132 56.2684C120.28 56.2684 120.427 56.2684 120.575 56.3177L120.477 56.9588C120.329 56.9095 120.132 56.9095 119.984 56.9095C119.244 56.9095 118.603 57.452 118.603 58.6849V61.1013H117.912V57.4027C117.912 57.2054 117.912 56.7616 117.912 56.4164Z" fill="#003063"/>
<path d="M123.534 61.2492C122.153 61.2492 121.068 60.1643 121.068 58.7835C121.068 57.4027 122.153 56.3177 123.534 56.3177C124.225 56.3177 124.915 56.6629 125.31 57.2547V53.5561H126V61.1506H125.31V60.3616C124.866 60.9533 124.225 61.2492 123.534 61.2492ZM123.584 60.6575C124.619 60.6575 125.507 59.8191 125.507 58.7342C125.507 57.6492 124.668 56.8109 123.584 56.8109C122.548 56.9095 121.759 57.7972 121.808 58.8328C121.907 59.8684 122.647 60.6081 123.584 60.6575Z" fill="#003063"/>
<path d="M132.016 58.9807H128.121C128.121 59.9177 128.91 60.7068 129.847 60.7068C130.438 60.7068 131.03 60.4109 131.375 59.8684L131.868 60.2629C131.375 60.904 130.636 61.2492 129.847 61.2492C128.466 61.2492 127.331 60.1643 127.331 58.7835C127.331 57.4027 128.416 56.2684 129.797 56.2684C131.277 56.2684 132.066 57.304 132.066 58.5862C132.016 58.7342 132.016 58.8328 132.016 58.9807ZM131.326 58.4383C131.375 57.5999 130.734 56.9095 129.896 56.9095C129.847 56.9095 129.797 56.9095 129.748 56.9095C128.86 56.9095 128.17 57.5999 128.071 58.4383H131.326Z" fill="#003063"/>
<path d="M134.038 56.4164C134.038 56.6629 134.088 57.0081 134.088 57.2054C134.433 56.6136 135.025 56.2684 135.715 56.2684C136.899 56.2684 137.49 57.0575 137.49 58.241V61.1506H136.8V58.5369C136.8 57.5506 136.504 56.8602 135.518 56.8602C134.778 56.8602 134.088 57.452 134.088 58.6849V61.1013H133.397V57.4027C133.397 57.1561 133.397 56.6629 133.348 56.367L134.038 56.4164Z" fill="#003063"/>
<path d="M78.4108 28.4055L76.093 27.8137L77.8684 27.4192L77.7697 26.9753L79.0026 26.926C79.0026 26.926 78.2136 25.8904 77.178 25.9397L74.9095 27.074C74.6136 26.926 72.0492 24.4603 72.0492 24.4603C72.0492 24.4603 73.9725 22.5863 73.0355 21.4027C72.7889 21.0575 70.1752 19.726 69.9287 19.726C69.5341 19.7753 67.6108 21.4521 67.6108 21.4521C68.4492 22.0932 69.041 23.1288 68.9424 23.8192C68.8437 24.411 68.0054 25.052 68.0054 25.052C67.8574 25.4466 73.0848 28.3068 73.0848 28.3068L72.5423 28.8493C72.0492 29.3918 72.2958 30.0822 72.2958 30.0822L73.0355 29.4904L73.2328 29.737L74.1204 29.0466L74.4656 30.7233L75.0081 30.674L75.156 31.9562C76.1423 31.611 76.1917 30.1808 76.1917 30.1808L75.5506 28.5534L77.7204 30.2301L78.0163 29.589L79.1506 29.9342C79.1999 29.9836 78.9533 28.9973 78.4108 28.4055Z" fill="#003063"/>
<path d="M93.6492 8.43291L92.0218 8.67949L93.3533 7.1014L92.8109 6.55893L93.5506 5.52331C93.5506 5.52331 92.2684 5.37537 91.6766 6.36167L90.5917 9.02468V6.95346C90.5424 6.95346 90.0985 6.95346 89.9999 6.95346L89.852 5.67127C89.852 5.67127 88.8657 6.11509 88.767 7.74249L89.7533 9.51784L85.4136 14.9918C86.104 15.9288 86.3013 16.6192 86.3999 17.063L86.7944 18.8384L91.0355 12.2302L92.2684 13.0192C93.0081 12.9699 93.304 12.0329 93.304 12.0329L92.2191 11.6384L92.0218 10.0603L93.304 10.1589L93.5506 9.76441L94.9314 9.96167C94.8821 8.87674 94.241 8.58086 93.6492 8.43291Z" fill="#003063"/>
<path d="M82.356 8.77806C82.6026 8.77806 82.7506 8.5808 82.7506 8.33423C82.7506 8.08765 82.5533 7.93971 82.3067 7.93971C82.0601 7.93971 81.9122 8.13697 81.9122 8.38355C81.9122 8.63012 82.1095 8.77806 82.356 8.77806Z" fill="#003063"/>
<path d="M91.874 27.4192L93.2548 27.3205C93.2548 27.2712 93.452 26.6795 93.452 26.6301L95.0301 26.4822C95.0301 26.4822 93.8959 25.4466 93.0082 25.5452L90.6904 26.4329L84.8219 21.8959C84.8219 21.8959 86.1041 21.6493 86.8438 21.3534C86.8438 21.3534 86.2027 20.6137 86.0548 19.6274L85.6603 17.8027C85.5616 17.3589 85.463 16.7178 84.8219 15.8301C84.7233 15.6822 84.0822 15.0411 84.0822 15.0411L83.2438 14.4L84.2301 14.2521C85.5123 14.0055 85.5616 12.9699 85.5616 12.9699H81.4685C81.4685 12.9699 81.4685 12.7233 81.4685 12.2301H85.5123C86.2027 12.2301 86.7452 12.0329 87.189 11.589C87.8794 10.8986 87.9781 9.96165 87.9781 9.91233C87.9781 9.66576 87.7808 9.5178 87.5835 9.5178C87.337 9.5178 87.189 9.71507 87.189 9.91233C87.189 9.91233 87.0904 10.5534 86.5972 10.9973C86.3507 11.2438 85.9561 11.3918 85.5123 11.3918H81.4685C81.4685 11.2932 81.4685 11.3425 81.5178 11.2438C81.6164 10.8493 82.1096 10.6521 82.6027 10.6521C83.4904 10.6521 84.4767 10.6521 85.6603 10.6027C86.2027 10.6027 86.4986 9.71506 86.4986 9.71506C86.4986 9.71506 86.7452 8.28493 86.7452 8.03835C86.7452 7.84109 86.6466 7.79178 86.4 7.69315C86.1534 7.59452 85.1178 7.34794 84.5753 7.00273C84.0329 6.65753 83.2438 6.31232 82.7507 6.31232H80.2849C79.8904 6.31232 79.2493 6.75616 79.2493 6.75616C79.2493 6.75616 78.9534 5.86849 78.263 5.62191L77.2274 5.2767L77.6219 7.69315L76.9808 9.91233C76.9808 9.91233 75.7972 10.5534 75.3534 10.6521H74.6137L75.1561 11.1945C75.3534 11.3918 75.9452 11.3918 76.5863 11.3425L76.4383 11.8356C76.389 11.8849 75.3041 12.526 74.8603 12.6247L74.1205 12.5753L74.663 13.1671C74.8603 13.3644 75.452 13.3644 76.0438 13.3151L75.7479 14.3014C75.7479 14.3014 75.6493 15.189 74.5644 15.189C73.5781 15.189 61.5452 13.7589 61.5452 13.7589C60.7068 13.6603 58.7835 13.3644 58.7835 11.737C58.7835 10.2082 60.263 9.96164 61.6438 9.96164H71.4575C74.1205 9.96164 75.452 8.58082 75.5507 5.91781C75.6493 3.64932 77.0301 2.71233 77.8192 2.71233C78.8548 2.71233 81.9123 2.71233 81.9123 2.71233C83.0959 2.16986 83.8356 0 83.8356 0C83.8356 0 82.9479 0.295881 82.0603 0.591772H77.3753C76.389 0.591772 75.2055 2.02191 74.7123 3.64931C74.2192 2.02191 73.1835 0.591772 72.0493 0.591772H67.3644C66.4274 0.345196 65.589 0 65.589 0C65.589 0 66.3781 2.16986 67.5123 2.71233C67.5123 2.71233 70.5698 2.71233 71.6055 2.71233C72.4931 2.71233 73.874 3.6 73.874 5.91781C73.874 7.69315 73.0356 8.43288 71.4082 8.43288H67.3644C67.5123 7.93973 67.7589 7.00274 68.0548 6.60822L68.9424 5.91781C68.9424 5.91781 68.4986 5.91781 67.7589 5.91781C67.1178 5.91781 65.8849 7.79178 65.4904 8.43288H64.2082C64.3561 7.79178 64.8 6.263 65.1452 5.76985L66.2794 4.88219C66.2794 4.88219 65.737 4.88219 64.7507 4.88219C63.9123 4.88219 62.3342 7.64384 61.7918 8.43288C60.3616 8.43288 57.4027 8.92602 57.4027 11.737C57.4027 14.0055 59.474 15.0904 61.5945 15.337C61.6931 15.337 64.4055 15.6822 64.4055 15.6822L62.137 20.7616C62.137 20.7616 61.1507 20.6137 60.9534 20.7123C60.6575 20.8603 58.2904 26.6301 58.2904 26.6301L56.7123 26.6795C56.4657 26.7781 55.874 27.3699 55.7753 27.6164C55.6274 27.9616 55.5781 28.3068 55.5781 28.3068L56.4657 28.011L56.8603 28.3562L57.8466 28.0603L57.0575 29.9342L57.5507 30.4767L57.3534 32.0055C58.1425 31.9068 58.7835 30.6247 58.7835 30.6247L58.8822 28.7507L59.5726 30.4767C59.6712 30.4767 59.6712 30.4767 60.0164 30.526L60.9534 32.0055C60.9534 32.0055 61.2493 31.7589 61.3479 31.4137C61.4466 31.1178 61.4466 30.0822 61.4466 30.0822C61.1507 29.737 60.1644 28.6027 60.1644 28.6027L61.7918 29.7863C61.7918 29.737 62.0383 29.5397 62.0877 29.4411L63.715 30.0822C63.715 30.0822 63.3698 28.6521 62.9753 28.3068L60.3123 27.2712L66.6246 21.3041C68.252 19.8246 69.4356 18.937 70.126 18.8877C70.8164 18.789 76.1918 22.3397 77.1287 22.4384C77.8685 22.537 79.0027 22.389 79.0027 22.389C79.0027 22.389 78.8548 23.2274 78.9534 23.4247C79.2493 24.0164 88.3726 27.5178 88.3726 27.5178L87.2383 28.2082C86.8438 28.4548 86.5972 29.6384 86.5972 29.6384L88.0274 28.8493L88.3726 29.2931L89.5561 28.3562L89.3589 29.9342L89.9014 29.9836L89.9507 31.9562C90.6904 31.6603 91.1835 30.1315 91.1835 30.1315V28.6521L92.7123 30.0329L93.3041 29.4904L94.6356 30.1315C94.6356 30.1315 94.5863 28.7507 94.0931 28.3068L91.874 27.4192ZM80.8274 9.36986C80.7287 9.27123 80.6794 9.1726 80.7287 9.02465C80.8767 8.58082 81.2712 7.74246 82.1589 7.49588C82.8986 7.29862 83.8356 7.98903 83.8356 7.98903C83.9835 8.08766 84.0822 8.23562 84.0329 8.38356C83.8849 8.63014 83.2931 8.43288 83.2931 8.43288C83.2931 8.67946 83.0466 9.12328 82.6027 9.22191C82.2082 9.32054 81.7644 9.1726 81.5671 8.87671C81.5178 8.92603 81.074 9.56712 80.8274 9.36986Z" fill="#003063"/>
</svg>
